<svg width="32" height="38" viewBox="0 0 32 38" fill="none" xmlns="http://www.w3.org/2000/svg">
<g id="Group">
<path id="Path" d="M15.1441 36.3462C18.0683 36.3462 20.4473 34.1769 20.596 31.5H9.69214C9.84083 34.1769 12.2198 36.3462 15.1441 36.3462Z" fill="#C4CDD5"/>
<path id="Path_2" d="M25.0868 13.4615C25.0868 9.38516 22.5144 5.73537 18.8464 4.36078C18.9416 4.02898 19.0369 3.64978 19.0369 3.31798C19.0369 1.46939 17.5602 0 15.7024 0C13.8445 0 12.4631 1.46939 12.4631 3.31798C12.4631 3.69718 12.5107 4.02898 12.6536 4.36078C8.98561 5.73537 6.41324 9.38516 6.41324 13.4615C6.41324 18.6281 5.03178 21.8987 0.982675 25.9277C-1.30388 28.2029 0.696856 30.2885 3.93614 30.2885H15.7024H27.5639C30.8031 30.2885 32.8039 28.2029 30.5173 25.9277C26.5159 21.8987 25.0868 18.5807 25.0868 13.4615Z" fill="#C4CDD5"/>
<path id="Path_3" d="M24.9746 3.90586C26.4536 5.38719 27.5987 7.14627 28.4575 9.13681C28.6006 9.50714 28.9823 9.69231 29.3163 9.69231C29.4594 9.69231 29.5548 9.69231 29.6979 9.59972C30.175 9.41456 30.4136 8.85906 30.2227 8.39614C29.2685 6.17414 27.9804 4.2299 26.3582 2.60969C25.4517 1.68386 24.4021 0.850608 23.3048 0.156234C22.8754 -0.121516 22.2551 -0.0289323 21.9689 0.433984C21.6826 0.850608 21.778 1.4524 22.2551 1.73015C23.2571 2.33194 24.2113 3.07261 24.9746 3.90586Z" fill="#C4CDD5"/>
<path id="Path_4" d="M0.973763 9.69231C1.35599 9.69231 1.69044 9.46167 1.83377 9.13878C3.17157 6.04826 5.32159 3.46514 8.04496 1.71231C8.47496 1.43555 8.6183 0.835896 8.33163 0.420751C8.04496 0.00560698 7.42384 -0.132774 6.99383 0.143988C3.93602 2.08133 1.5471 4.94121 0.0659744 8.35462C-0.125139 8.81589 0.113753 9.36942 0.591536 9.55393C0.734871 9.64618 0.830428 9.69231 0.973763 9.69231Z" fill="#C4CDD5"/>
</g>
</svg>
