<?xml version="1.0" encoding="UTF-8"?>
<svg width="16px" height="19px" viewBox="0 0 16 19" version="1.1" xmlns="http://www.w3.org/2000/svg" xmlns:xlink="http://www.w3.org/1999/xlink">
    <title>E2AB6099-151F-4482-9330-8B324248B6C9@1.5x</title>
    <g id="Distributor" stroke="none" stroke-width="1" fill="none" fill-rule="evenodd">
        <g id="Delete-user" transform="translate(-472.000000, -223.000000)" fill="#979797" fill-rule="nonzero">
            <g id="noun_Location_124229" transform="translate(472.000000, 223.000000)">
                <path d="M8.00001199,0.208047619 C3.67761153,0.208047619 0.161095238,3.72456391 0.161095238,8.04734487 C0.161095238,13.609772 7.37410101,18.5371563 7.68077837,18.744525 C7.77742359,18.8095893 7.88852754,18.8419312 8.00001199,18.8419312 C8.11149644,18.8419312 8.2226004,18.8092088 8.31924562,18.744525 C8.62630347,18.5371563 15.8393092,13.609772 15.8393092,8.04734487 C15.8393092,3.72456391 12.3224125,0.208047619 8.00001199,0.208047619 Z M8.00001199,17.5707041 C6.62719325,16.5662026 1.30257423,12.3914334 1.30257423,8.04734487 C1.30257423,4.35427982 4.30694695,1.34952661 8.00001199,1.34952661 C11.693077,1.34952661 14.6978302,4.35389933 14.6978302,8.04734487 C14.6978302,12.3853455 9.37206974,16.5654416 8.00001199,17.5707041 Z M8.00001199,6.13460656 C6.94376343,6.13460656 6.08765418,6.99071581 6.08765418,8.04696437 C6.08765418,9.10321294 6.94376343,9.95932218 8.00001199,9.95932218 C9.05626056,9.95932218 9.91275029,9.10321294 9.91275029,8.04696437 C9.91275029,6.99071581 9.05626056,6.13460656 8.00001199,6.13460656 Z" id="Shape"></path>
            </g>
        </g>
    </g>
</svg>