<?xml version="1.0" encoding="UTF-8"?>
<svg width="19px" height="17px" viewBox="0 0 19 17" version="1.1" xmlns="http://www.w3.org/2000/svg" xmlns:xlink="http://www.w3.org/1999/xlink">
    <!-- Generator: sketchtool 62 (101010) - https://sketch.com -->
    <title>04FC5088-EEFF-4901-8E5B-F2668C04DF0B@1.5x</title>
    <desc>Created with sketchtool.</desc>
    <g id="VMS-Design" stroke="none" stroke-width="1" fill="none" fill-rule="evenodd">
        <g id="voucher-profile" transform="translate(-24.000000, -262.000000)" fill="#DCDCDC" fill-rule="nonzero">
            <g id="layer-1" transform="translate(24.000000, 262.000000)">
                <path d="M0.70832,0.00076 C0.319180144,0.00567603668 0.00491603668,0.319940144 0,0.70908 L0,15.77152 C0.00491603668,16.1606599 0.319180144,16.474924 0.70832,16.47984 L17.917,16.47984 C18.3061399,16.474924 18.620404,16.1606599 18.62532,15.77152 L18.62532,0.70832 C18.620404,0.319180144 18.3061399,0.00491603668 17.917,0 L0.70832,0.00076 Z M0.98344,0.9842 L17.64492,0.9842 L17.64492,15.49336 L0.98344,15.49336 L0.98344,9.66872 L3.2528,9.66872 L5.13304,6.41136 L8.47704,12.20712 L10.925,7.96632 L12.08552,9.97652 L16.33164,9.97652 L16.33164,8.99308 L12.65324,8.99308 L10.925,6.0002 L8.47704,10.24024 L5.1338,4.44752 L2.68584,8.68832 L0.98344,8.68832 L0.98344,0.9842 Z" id="path6395"></path>
            </g>
        </g>
    </g>
</svg>