<svg width="33" height="38" viewBox="0 0 33 38" fill="none" xmlns="http://www.w3.org/2000/svg">
<g id="Group">
<path id="Path" d="M15.8948 36.3462C18.819 36.3462 21.198 34.1769 21.3467 31.5H10.4429C10.5916 34.1769 12.9706 36.3462 15.8948 36.3462Z" fill="#E50029"/>
<path id="Path_2" d="M25.8368 13.4615C25.8368 9.38516 23.2644 5.73537 19.5964 4.36078C19.6916 4.02898 19.7869 3.64978 19.7869 3.31798C19.7869 1.46939 18.3102 0 16.4524 0C14.5945 0 13.2131 1.46939 13.2131 3.31798C13.2131 3.69718 13.2607 4.02898 13.4036 4.36078C9.73561 5.73537 7.16324 9.38516 7.16324 13.4615C7.16324 18.6281 5.78178 21.8987 1.73268 25.9277C-0.553878 28.2029 1.44686 30.2885 4.68614 30.2885H16.4524H28.3139C31.5531 30.2885 33.5539 28.2029 31.2673 25.9277C27.2659 21.8987 25.8368 18.5807 25.8368 13.4615Z" fill="#E50029"/>
<path id="Path_3" d="M25.7239 3.90586C27.2029 5.38719 28.348 7.14627 29.2067 9.13681C29.3499 9.50714 29.7316 9.69231 30.0655 9.69231C30.2087 9.69231 30.3041 9.69231 30.4472 9.59972C30.9243 9.41456 31.1629 8.85906 30.972 8.39614C30.0178 6.17414 28.7296 4.2299 27.1075 2.60969C26.201 1.68386 25.1514 0.850608 24.054 0.156234C23.6246 -0.121516 23.0044 -0.0289323 22.7182 0.433984C22.4319 0.850608 22.5273 1.4524 23.0044 1.73015C24.0063 2.33194 24.9605 3.07261 25.7239 3.90586Z" fill="#FF385C"/>
<path id="Path_4" d="M1.72376 9.69231C2.10599 9.69231 2.44044 9.46167 2.58377 9.13878C3.92157 6.04826 6.07159 3.46514 8.79496 1.71231C9.22496 1.43555 9.3683 0.835896 9.08163 0.420751C8.79496 0.00560698 8.17384 -0.132774 7.74383 0.143988C4.68602 2.08133 2.2971 4.94121 0.815974 8.35462C0.624861 8.81589 0.863753 9.36942 1.34154 9.55393C1.48487 9.64618 1.58043 9.69231 1.72376 9.69231Z" fill="#FF385C"/>
</g>
</svg>
