<?xml version="1.0" encoding="UTF-8"?>
<svg width="24px" height="22px" viewBox="0 0 24 22" version="1.1" xmlns="http://www.w3.org/2000/svg" xmlns:xlink="http://www.w3.org/1999/xlink">
    <!-- Generator: sketchtool 63.1 (101010) - https://sketch.com -->
    <title>DB8ADBC4-134D-41B7-A6A8-48F6659D143E@1.5x</title>
    <desc>Created with sketchtool.</desc>
    <g id="VMS-Design" stroke="none" stroke-width="1" fill="none" fill-rule="evenodd">
        <g id="Status-ERROR" transform="translate(-788.000000, -342.000000)" fill="#FF4F61" fill-rule="nonzero">
            <g id="Group-6" transform="translate(788.000000, 342.000000)">
                <g id="warning-(1)">
                    <path d="M12.0972554,15.3931034 C11.4140588,15.3931034 10.8413793,15.9591724 10.8413793,16.6344828 C10.8413793,17.3097931 11.4140588,17.8758621 12.0972554,17.8758621 C12.7553344,17.8758621 13.3531314,17.3097931 13.3229904,16.6642759 C13.3531314,15.9542069 12.7854754,15.3931034 12.0972554,15.3931034 Z" id="Path"></path>
                    <path d="M23.3372446,19.7061917 C24.1064731,18.3747587 24.1113726,16.7878477 23.3470437,15.4613277 L15.6743572,2.13717113 C14.9149278,0.795912006 13.5430554,0 12.0045984,0 C10.4661415,0 9.09426905,0.800825043 8.33483967,2.13225809 L0.652354062,15.4711537 C-0.111974863,16.8124129 -0.107075319,18.4091499 0.667052695,19.740583 C1.43138162,21.0572769 2.79835451,21.8482759 4.32701236,21.8482759 L19.6527872,21.8482759 C21.1863446,21.8482759 22.5631166,21.0474508 23.3372446,19.7061917 Z" id="Shape" fill-opacity="0.259533435"></path>
                    <path d="M11.7902356,6.82071576 C11.2051895,6.98695518 10.8413793,7.51500983 10.8413793,8.15552056 C10.8708774,8.54178275 10.8954592,8.93293434 10.9249573,9.31919654 C11.0085353,10.7909044 11.0921133,12.2332759 11.1756914,13.7049837 C11.2051895,14.203702 11.5935814,14.5655172 12.0950495,14.5655172 C12.5965176,14.5655172 12.9898259,14.179255 13.0144076,13.6756474 C13.0144076,13.3725049 13.0144076,13.0938094 13.0439058,12.7857775 C13.0979857,11.8421243 13.1569819,10.8984711 13.2110618,9.95481787 C13.2405599,9.34364351 13.2946398,8.73246915 13.3241379,8.12129479 C13.3241379,7.90127203 13.2946398,7.70569623 13.2110618,7.51012044 C12.9603278,6.96250821 12.3752817,6.6838127 11.7902356,6.82071576 Z" id="Path"></path>
                </g>
            </g>
        </g>
    </g>
</svg>