<?xml version="1.0" encoding="UTF-8"?>
<svg width="57px" height="57px" viewBox="0 0 57 57" version="1.1" xmlns="http://www.w3.org/2000/svg" xmlns:xlink="http://www.w3.org/1999/xlink">
    <title>95CE9082-C71D-4BFE-8B5B-144BE39A038B@1.5x</title>
    <g id="Distributor-Reports" stroke="none" stroke-width="1" fill="none" fill-rule="evenodd">
        <g id="Home" transform="translate(-1075.000000, -1178.000000)">
            <g id="Group-14" transform="translate(1075.000000, 1178.000000)">
                <circle id="Oval" fill="#FBFBFB" cx="28.5" cy="28.5" r="28.5"></circle>
                <g id="noun_Book_2640530" transform="translate(19.000000, 15.000000)" fill="#627381" fill-rule="nonzero">
                    <g id="Group">
                        <g id="Path">
                            <path d="M16.8928079,25.4083335 C15.0629557,25.4083335 13.2331034,25.4083335 11.4032512,25.4083335 C8.48881773,25.4083335 5.57438424,25.4083335 2.65995074,25.4083335 C1.99344828,25.4083335 1.33300493,25.4083335 0.666502463,25.4083335 C0.866453202,25.6095998 1.07246305,25.8169649 1.27241379,26.0182311 C1.27241379,25.3168489 1.27241379,24.6215657 1.27241379,23.9201834 C1.27241379,22.2307671 1.27241379,20.5413508 1.27241379,18.8580334 C1.27241379,16.8270745 1.27241379,14.7900165 1.27241379,12.7590576 C1.27241379,11.0025525 1.27241379,9.23994847 1.27241379,7.48344341 C1.27241379,6.89794173 1.27241379,6.31853902 1.27241379,5.73303733 C1.27241379,5.45858342 1.29665025,5.17193155 1.27241379,4.90357661 C1.27241379,4.89137866 1.27241379,4.87918071 1.27241379,4.86698276 C1.07246305,5.06824896 0.866453202,5.27561414 0.666502463,5.47688035 C2.84778325,5.47688035 5.03512315,5.47688035 7.21640394,5.47688035 C10.1974877,5.47688035 13.1725123,5.47688035 16.1535961,5.47688035 C16.3959606,5.47688035 16.6383251,5.47078137 16.8806897,5.47688035 C17.3533005,5.49517728 17.6562562,5.83062095 17.6562562,6.30024209 C17.6623153,7.08091101 17.6562562,7.86157992 17.6562562,8.64224883 C17.6562562,11.9295968 17.6562562,15.2169448 17.6562562,18.4981939 C17.6562562,19.9436512 17.6562562,21.3891084 17.6562562,22.8284667 C17.6562562,23.4322654 17.6804926,24.042163 17.6562562,24.6398626 C17.6320197,25.0789889 17.3230049,25.3961356 16.8928079,25.4083335 C16.1172414,25.4327295 16.1111823,26.6525246 16.8928079,26.6281287 C18.0076847,26.5915349 18.8438424,25.7254803 18.8620197,24.6093677 C18.8680788,24.3532107 18.8620197,24.1031527 18.8620197,23.8469957 C18.8620197,22.5967057 18.8620197,21.3403166 18.8620197,20.0900266 C18.8620197,16.6319072 18.8620197,13.1798869 18.8620197,9.72176757 C18.8620197,8.67274371 18.8620197,7.62371986 18.8620197,6.57469601 C18.8620197,6.15996565 18.8438424,5.77573017 18.662069,5.38539571 C18.3166995,4.63522167 17.5593103,4.26318415 16.7655665,4.26318415 C14.1237931,4.26318415 11.4759606,4.26318415 8.83418719,4.26318415 C6.15605911,4.26318415 3.47793103,4.26318415 0.799802956,4.26318415 C0.751330049,4.26318415 0.708916256,4.26318415 0.66044335,4.26318415 C0.333251232,4.26318415 0.0545320197,4.54373704 0.0545320197,4.87308173 C0.0545320197,5.57446396 0.0545320197,6.26974721 0.0545320197,6.97112944 C0.0545320197,8.66054576 0.0545320197,10.3499621 0.0545320197,12.0332794 C0.0545320197,14.0642384 0.0545320197,16.1012963 0.0545320197,18.1322553 C0.0545320197,19.8887604 0.0545320197,21.6513644 0.0545320197,23.4078695 C0.0545320197,24.2678251 0.0181773399,25.1277807 0.0545320197,25.9877363 C0.0545320197,25.9999342 0.0545320197,26.0121322 0.0545320197,26.0243301 C0.0545320197,26.3536748 0.333251232,26.6342277 0.66044335,26.6342277 C2.49029557,26.6342277 4.32014778,26.6342277 6.15,26.6342277 C9.0644335,26.6342277 11.978867,26.6342277 14.8933005,26.6342277 C15.559803,26.6342277 16.2202463,26.6342277 16.8867488,26.6342277 C17.6744335,26.6281287 17.6744335,25.4083335 16.8928079,25.4083335 Z"></path>
                            <path d="M0.805862069,5.45858342 C2.31458128,4.9828633 3.82330049,4.50714318 5.3320197,4.03142306 C7.73142857,3.27515005 10.1368966,2.51887704 12.5363054,1.76260403 C13.0816256,1.59183271 13.6330049,1.41496241 14.1783251,1.24419108 C13.9238424,1.04902385 13.6693596,0.853856624 13.4088177,0.658689396 C13.4088177,2.06755283 13.4088177,3.47641626 13.4088177,4.88527969 C13.4088177,5.67204758 14.6206404,5.67204758 14.6206404,4.88527969 C14.6206404,3.47641626 14.6206404,2.06755283 14.6206404,0.658689396 C14.6206404,0.274453915 14.2328571,-0.0487918071 13.851133,0.0731877107 C12.3424138,0.54890783 10.8336946,1.02462795 9.32497537,1.50034807 C6.9255665,2.25662108 4.52009852,3.01289409 2.12068966,3.7691671 C1.57536946,3.93993842 1.02399015,4.11680872 0.478669951,4.28758005 C-0.260541872,4.51324216 0.0545320197,5.6903445 0.805862069,5.45858342 L0.805862069,5.45858342 Z"></path>
                        </g>
                        <path d="M3.39916256,10.4963375 C5.93187192,10.4963375 8.45852217,10.4963375 10.9912315,10.4963375 C11.3426601,10.4963375 11.7001478,10.4963375 12.0515764,10.4963375 C12.833202,10.4963375 12.833202,9.27654233 12.0515764,9.27654233 C9.518867,9.27654233 6.99221675,9.27654233 4.45950739,9.27654233 C4.10807882,9.27654233 3.75059113,9.27654233 3.39916256,9.27654233 C2.61753695,9.27654233 2.61753695,10.4963375 3.39916256,10.4963375 L3.39916256,10.4963375 Z" id="Path"></path>
                        <path d="M3.39916256,13.8812691 C5.05330049,13.8812691 6.71349754,13.8812691 8.36763547,13.8812691 C8.60394089,13.8812691 8.83418719,13.8812691 9.07049261,13.8812691 C9.85211823,13.8812691 9.85211823,12.6614739 9.07049261,12.6614739 C7.41635468,12.6614739 5.75615764,12.6614739 4.1020197,12.6614739 C3.86571429,12.6614739 3.63546798,12.6614739 3.39916256,12.6614739 C2.61753695,12.6614739 2.61753695,13.8812691 3.39916256,13.8812691 L3.39916256,13.8812691 Z" id="Path"></path>
                        <path d="M3.39916256,16.8758663 C4.52009852,16.8758663 5.64103448,16.8758663 6.76197044,16.8758663 C7.54359606,16.8758663 7.54359606,15.6560711 6.76197044,15.6560711 C5.64103448,15.6560711 4.52009852,15.6560711 3.39916256,15.6560711 C2.61753695,15.6560711 2.61753695,16.8758663 3.39916256,16.8758663 L3.39916256,16.8758663 Z" id="Path"></path>
                    </g>
                </g>
            </g>
        </g>
    </g>
</svg>