<?xml version="1.0" encoding="UTF-8"?>
<svg width="57px" height="57px" viewBox="0 0 57 57" version="1.1" xmlns="http://www.w3.org/2000/svg" xmlns:xlink="http://www.w3.org/1999/xlink">
    <title>EC56C490-28EC-439A-99BF-FE1B2B6DB734@1.5x</title>
    <g id="Distributor-Reports" stroke="none" stroke-width="1" fill="none" fill-rule="evenodd">
        <g id="Home" transform="translate(-1075.000000, -1346.000000)">
            <g id="Group-13" transform="translate(1075.000000, 1346.000000)">
                <circle id="Oval" fill="#FBFBFB" cx="28.5" cy="28.5" r="28.5"></circle>
                <g id="wallet" transform="translate(28.294118, 28.500000) scale(1, -1) translate(-28.294118, -28.500000) translate(18.294118, 21.000000)" fill="#627381" fill-rule="nonzero">
                    <path d="M19.1120899,3.75002104 L18.5183374,3.75002104 L18.5183374,1.87501052 C18.5183374,0.841080596 17.7193119,0 16.7370799,0 L2.48713985,0 C1.5049078,0 0.705882353,0.841080596 0.705882353,1.87501052 L0.705882353,13.1249895 C0.705882353,14.1589194 1.5049078,15 2.48713985,15 L16.7371199,15 C17.7193519,15 18.5183774,14.1589194 18.5183774,13.1249895 L18.5183774,11.249979 L19.1121299,11.249979 C19.4403267,11.249979 19.7058824,10.9704463 19.7058824,10.6249755 L19.7058824,4.37502455 C19.7058824,4.02955368 19.4402867,3.75002104 19.1120899,3.75002104 L19.1120899,3.75002104 Z M17.3308724,13.1250316 C17.3308724,13.4698712 17.0647171,13.7500351 16.7371199,13.7500351 L2.48713985,13.7500351 C2.15954261,13.7500351 1.89338735,13.4698712 1.89338735,13.1250316 L1.89338735,1.87501052 C1.89338735,1.53017084 2.15954261,1.25000701 2.48713985,1.25000701 L16.7371199,1.25000701 C17.0647171,1.25000701 17.3308724,1.53017084 17.3308724,1.87501052 L17.3308724,3.75002104 L14.9558624,3.75002104 C12.9913983,3.75002104 11.3933873,5.43214015 11.3933873,7.5 C11.3933873,9.56785985 12.9913983,11.249979 14.9558624,11.249979 L17.3308724,11.249979 L17.3308724,13.1250316 Z M18.5183374,10.000014 L14.9558624,10.000014 C13.6460331,10.000014 12.5808524,8.87881168 12.5808524,7.5 C12.5808524,6.1212304 13.6459931,4.99998597 14.9558624,4.99998597 L18.5183374,4.99998597 L18.5183374,10.000014 Z" id="Shape"></path>
                </g>
            </g>
        </g>
    </g>
</svg>