<?xml version="1.0" encoding="UTF-8"?>
<svg width="15px" height="15px" viewBox="0 0 15 15" version="1.1" xmlns="http://www.w3.org/2000/svg" xmlns:xlink="http://www.w3.org/1999/xlink">
    <title>hierarchy@1.5x</title>
    <g id="Distributor" stroke="none" stroke-width="1" fill="none" fill-rule="evenodd">
        <g id="Profile" transform="translate(-31.000000, -359.000000)" fill="#828387" fill-rule="nonzero" stroke="#828387">
            <g id="hierarchy" transform="translate(32.000000, 360.000000)">
                <path d="M7.96169647,3.61245914 C7.59648703,3.61245914 7.2312776,3.61245914 6.86766297,3.61245914 C6.30948262,3.61245914 5.75130226,3.61245914 5.19312191,3.61245914 C5.11816626,3.61245914 5.04321061,3.61245914 4.96666017,3.61245914 C4.94114335,3.61245914 4.89329932,3.62073574 4.8693773,3.60749318 C4.84067089,3.59093999 4.84705009,3.54624636 4.84705009,3.51479529 C4.84705009,3.44527186 4.84705009,3.37409312 4.84705009,3.3045697 C4.84705009,2.73513975 4.84705009,2.16570981 4.84705009,1.59627987 C4.84705009,1.32149682 4.84705009,1.04836908 4.84705009,0.773586027 C4.84705009,0.682543449 4.84705009,0.591500871 4.84705009,0.502113612 C4.84705009,0.464041262 4.84067089,0.419347632 4.84705009,0.382930601 C4.8550241,0.338236972 4.87735131,0.334926333 4.91403173,0.334926333 C4.96984977,0.333271013 5.0256678,0.334926333 5.08148584,0.334926333 C5.30954238,0.334926333 5.53919373,0.334926333 5.76725027,0.334926333 C6.34456824,0.334926333 6.92348101,0.334926333 7.50079897,0.334926333 C7.64752067,0.334926333 7.79583716,0.326649735 7.94255885,0.334926333 C8.02867811,0.339892291 8.00316129,0.452454024 8.00316129,0.523632767 C8.00316129,1.05333504 8.00316129,1.58469263 8.00316129,2.1143949 C8.00316129,2.58450567 8.00316129,3.05461644 8.00316129,3.52638252 C8.00475609,3.56445488 8.0095405,3.6091485 7.96169647,3.61245914 C7.75756194,3.62404638 7.75596714,3.9551103 7.96169647,3.94352306 C8.1690206,3.93193583 8.31893189,3.77302514 8.3237163,3.55617828 C8.3253111,3.50486337 8.3237163,3.45520378 8.3237163,3.40388887 C8.3237163,3.16386753 8.3237163,2.92550151 8.3237163,2.68548017 C8.3237163,2.06473532 8.3237163,1.44564579 8.3237163,0.824900935 C8.3237163,0.67923281 8.3285007,0.531909365 8.3237163,0.384585921 C8.31733709,0.172705012 8.165831,0.0104836908 7.96010166,0.0022070928 C7.92501604,0.0005517732 7.88993042,0.0022070928 7.8564396,0.0022070928 C7.33493967,0.0022070928 6.81184494,0.0022070928 6.29034501,0.0022070928 C5.83104231,0.0022070928 5.37333442,-0.002758866 4.91403173,0.0022070928 C4.76093084,0.0038624124 4.62218315,0.0783517945 4.55998591,0.227330559 C4.52968469,0.298509301 4.52808989,0.369688044 4.52808989,0.445832746 C4.52808989,0.647781737 4.52808989,0.848075409 4.52808989,1.0500244 C4.52808989,1.67739053 4.52808989,2.30641198 4.52808989,2.93377811 C4.52808989,3.12579518 4.52808989,3.31946757 4.52808989,3.51148465 C4.52808989,3.60418255 4.53765869,3.69191448 4.58869233,3.77136983 C4.66524277,3.89055284 4.78963725,3.94021242 4.92200574,3.94021242 C5.39087723,3.94021242 5.85974873,3.94021242 6.32862023,3.94021242 C6.84214616,3.94021242 7.35567208,3.94021242 7.86919801,3.94021242 C7.89949923,3.94021242 7.92820564,3.94021242 7.95850686,3.94021242 C8.165831,3.94352306 8.1674258,3.61245914 7.96169647,3.61245914 Z" id="Path" stroke-width="0.5"></path>
                <path d="M3.43360658,12.9607738 C3.06839715,12.9607738 2.70318771,12.9607738 2.33957308,12.9607738 C1.78139273,12.9607738 1.22321238,12.9607738 0.665032022,12.9607738 C0.590076374,12.9607738 0.515120727,12.9607738 0.438570278,12.9607738 C0.413053462,12.9607738 0.365209432,12.9690503 0.341287416,12.9558078 C0.312580998,12.9392546 0.318960202,12.894561 0.318960202,12.8631099 C0.318960202,12.7935865 0.318960202,12.7224077 0.318960202,12.6528843 C0.318960202,12.0834544 0.318960202,11.5140244 0.318960202,10.9445945 C0.318960202,10.6698114 0.318960202,10.3966837 0.318960202,10.1219006 C0.318960202,10.0308581 0.318960202,9.93981548 0.318960202,9.85042822 C0.318960202,9.81235587 0.312580998,9.76766224 0.318960202,9.73124521 C0.326934207,9.68655158 0.349261422,9.68324094 0.385941845,9.68324094 C0.44175988,9.68158562 0.497577916,9.68324094 0.553395951,9.68324094 C0.781452496,9.68324094 1.01110384,9.68324094 1.23916039,9.68324094 C1.81647835,9.68324094 2.39539112,9.68324094 2.97270909,9.68324094 C3.11943078,9.68324094 3.26774727,9.67496434 3.41446897,9.68324094 C3.50058822,9.6882069 3.4750714,9.80076863 3.4750714,9.87194737 C3.4750714,10.4016496 3.4750714,10.9330072 3.4750714,11.4627095 C3.4750714,11.9328203 3.4750714,12.402931 3.4750714,12.8746971 C3.47666621,12.9127695 3.48145061,12.9574631 3.43360658,12.9607738 C3.22947205,12.972361 3.22787725,13.3034249 3.43360658,13.2918377 C3.64093071,13.2802504 3.790842,13.1213398 3.79562641,12.9044929 C3.79722121,12.853178 3.79562641,12.8035184 3.79562641,12.7522035 C3.79562641,12.5121821 3.79562641,12.2738161 3.79562641,12.0337948 C3.79562641,11.4130499 3.79562641,10.7939604 3.79562641,10.1732155 C3.79562641,10.0275474 3.80041081,9.88022397 3.79562641,9.73290053 C3.7892472,9.52101962 3.63774111,9.3587983 3.43201178,9.3505217 C3.39692615,9.34886638 3.36184053,9.3505217 3.32834971,9.3505217 C2.80684978,9.3505217 2.28375505,9.3505217 1.76225512,9.3505217 C1.30295243,9.3505217 0.845244536,9.34555574 0.385941845,9.3505217 C0.232840948,9.35217702 0.0940932597,9.4266664 0.0318960202,9.57564517 C0.00159480101,9.64682391 0,9.71800265 0,9.79414735 C0,9.99609634 0,10.19639 0,10.398339 C0,11.0257051 0,11.6547266 0,12.2820927 C0,12.4741098 0,12.6677822 0,12.8597993 C0,12.9524972 0.00956880607,13.0402291 0.0606024384,13.1196844 C0.137152887,13.2388674 0.261547366,13.288527 0.39391585,13.288527 C0.862787347,13.288527 1.33165884,13.288527 1.80053034,13.288527 C2.31405627,13.288527 2.82758219,13.288527 3.34110812,13.288527 C3.37140934,13.288527 3.40011576,13.288527 3.43041698,13.288527 C3.63774111,13.2918377 3.63933591,12.9607738 3.43360658,12.9607738 Z" id="Path" stroke-width="0.5"></path>
                <path d="M12.6358538,12.9607738 C12.2706443,12.9607738 11.9054349,12.9607738 11.5418203,12.9607738 C10.9836399,12.9607738 10.4254596,12.9607738 9.86727921,12.9607738 C9.79232357,12.9607738 9.71736792,12.9607738 9.64081747,12.9607738 C9.61530065,12.9607738 9.56745662,12.9690503 9.54353461,12.9558078 C9.51482819,12.9392546 9.52120739,12.894561 9.52120739,12.8631099 C9.52120739,12.7935865 9.52120739,12.7224077 9.52120739,12.6528843 C9.52120739,12.0834544 9.52120739,11.5140244 9.52120739,10.9445945 C9.52120739,10.6698114 9.52120739,10.3966837 9.52120739,10.1219006 C9.52120739,10.0308581 9.52120739,9.93981548 9.52120739,9.85042822 C9.52120739,9.81235587 9.51482819,9.76766224 9.52120739,9.73124521 C9.5291814,9.68655158 9.55150861,9.68324094 9.58818904,9.68324094 C9.64400707,9.68158562 9.69982511,9.68324094 9.75564314,9.68324094 C9.98369969,9.68324094 10.213351,9.68324094 10.4414076,9.68324094 C11.0187255,9.68324094 11.5976383,9.68324094 12.1749563,9.68324094 C12.321678,9.68324094 12.4699945,9.67496434 12.6167162,9.68324094 C12.7028354,9.6882069 12.6773186,9.80076863 12.6773186,9.87194737 C12.6773186,10.4016496 12.6773186,10.9330072 12.6773186,11.4627095 C12.6773186,11.9328203 12.6773186,12.402931 12.6773186,12.8746971 C12.6789134,12.9127695 12.6836978,12.9574631 12.6358538,12.9607738 C12.4317192,12.972361 12.4301244,13.3034249 12.6358538,13.2918377 C12.8431779,13.2802504 12.9930892,13.1213398 12.9978736,12.9044929 C12.9994684,12.853178 12.9978736,12.8035184 12.9978736,12.7522035 C12.9978736,12.5121821 12.9978736,12.2738161 12.9978736,12.0337948 C12.9978736,11.4130499 12.9978736,10.7939604 12.9978736,10.1732155 C12.9978736,10.0275474 13.002658,9.88022397 12.9978736,9.73290053 C12.9914944,9.52101962 12.8399883,9.3587983 12.634259,9.3505217 C12.5991733,9.34886638 12.5640877,9.3505217 12.5305969,9.3505217 C12.009097,9.3505217 11.4860022,9.3505217 10.9645023,9.3505217 C10.5051996,9.3505217 10.0474917,9.34555574 9.58818904,9.3505217 C9.43508814,9.35217702 9.29634045,9.4266664 9.23414321,9.57564517 C9.20384199,9.64682391 9.20224719,9.71800265 9.20224719,9.79414735 C9.20224719,9.99609634 9.20224719,10.19639 9.20224719,10.398339 C9.20224719,11.0257051 9.20224719,11.6547266 9.20224719,12.2820927 C9.20224719,12.4741098 9.20224719,12.6677822 9.20224719,12.8597993 C9.20224719,12.9524972 9.211816,13.0402291 9.26284963,13.1196844 C9.33940008,13.2388674 9.46379456,13.288527 9.59616304,13.288527 C10.0650345,13.288527 10.533906,13.288527 11.0027775,13.288527 C11.5163035,13.288527 12.0298294,13.288527 12.5433553,13.288527 C12.5736565,13.288527 12.6023629,13.288527 12.6326642,13.288527 C12.8399883,13.2918377 12.8415831,12.9607738 12.6358538,12.9607738 Z" id="Path" stroke-width="0.5"></path>
                <path d="M1.9363436,8.31458014 C1.9363436,7.8923284 1.9363436,7.46845261 1.9363436,7.04620086 C1.9363436,6.97961501 1.91994549,6.90490893 2.00193605,6.90166084 C2.06752849,6.9000368 2.13312094,6.90166084 2.19871338,6.90166084 C2.50371824,6.90166084 2.81036292,6.90166084 3.11536778,6.90166084 C3.58763338,6.90166084 4.05989897,6.90166084 4.53216457,6.90166084 C5.09297996,6.90166084 5.65379536,6.90166084 6.21461076,6.90166084 C6.78526502,6.90166084 7.35591928,6.90166084 7.92493373,6.90166084 C8.42671592,6.90166084 8.92849812,6.90166084 9.4286405,6.90166084 C9.7828397,6.90166084 10.1370389,6.90166084 10.4895983,6.90166084 C10.5863471,6.90166084 10.683096,6.90166084 10.7814847,6.90166084 C10.8110013,6.90166084 10.8716743,6.89191657 10.8979112,6.90815702 C10.9339871,6.93089366 10.9192288,7.015344 10.9192288,7.051073 C10.9192288,7.16313212 10.9192288,7.27356719 10.9192288,7.3856263 C10.9192288,7.64547353 10.9192288,7.9069448 10.9192288,8.16679203 C10.9192288,8.21551339 10.9192288,8.26585879 10.9192288,8.31458014 C10.9192288,8.52408197 11.247191,8.52408197 11.247191,8.31458014 C11.247191,7.88420817 11.247191,7.45546025 11.247191,7.02508828 C11.247191,6.91790129 11.2406318,6.81721049 11.1717597,6.72626396 C11.0979682,6.62882125 10.9881009,6.5800999 10.8667548,6.57685181 C10.8093614,6.57522776 10.7519681,6.57685181 10.6945747,6.57685181 C10.3944892,6.57685181 10.0960436,6.57685181 9.79595819,6.57685181 C9.31713335,6.57685181 8.83830851,6.57685181 8.35948367,6.57685181 C7.78554979,6.57685181 7.21325571,6.57685181 6.63932183,6.57685181 C6.0588287,6.57685181 5.47833557,6.57685181 4.89784244,6.57685181 C4.38786119,6.57685181 3.87787994,6.57685181 3.3695385,6.57685181 C3.01861893,6.57685181 2.66605954,6.57685181 2.31513997,6.57685181 C2.09376547,6.57685181 1.81335777,6.53300259 1.66905439,6.74250441 C1.60838138,6.83020285 1.60674157,6.92764556 1.60674157,7.02996041 C1.60674157,7.14039548 1.60674157,7.2524546 1.60674157,7.36288967 C1.60674157,7.62923308 1.60674157,7.89557649 1.60674157,8.1619199 C1.60674157,8.21388934 1.60674157,8.26423474 1.60674157,8.31620419 C1.60838138,8.52408197 1.9363436,8.52408197 1.9363436,8.31458014 L1.9363436,8.31458014 Z" id="Path" stroke-width="0.3"></path>
                <path d="M6.28089888,4.97318051 C6.28089888,5.48066174 6.28089888,5.98814296 6.28089888,6.49404325 C6.28089888,6.56676642 6.28089888,6.63948958 6.28089888,6.71221275 C6.28089888,6.9161538 6.57303371,6.9161538 6.57303371,6.71221275 C6.57303371,6.20473152 6.57303371,5.6972503 6.57303371,5.19135001 C6.57303371,5.11862684 6.57303371,5.04590368 6.57303371,4.97318051 C6.57303371,4.76923946 6.28089888,4.76923946 6.28089888,4.97318051 L6.28089888,4.97318051 Z" id="Path" stroke-width="0.3"></path>
            </g>
        </g>
    </g>
</svg>