<?xml version="1.0" encoding="UTF-8"?>
<svg width="16px" height="21px" viewBox="0 0 16 21" version="1.1" xmlns="http://www.w3.org/2000/svg" xmlns:xlink="http://www.w3.org/1999/xlink">
    <!-- Generator: sketchtool 62 (101010) - https://sketch.com -->
    <title>AC1A69C1-C592-44A9-BB40-ACBBF6A6E2DB@1.5x</title>
    <desc>Created with sketchtool.</desc>
    <g id="VMS-Design" stroke="none" stroke-width="1" fill="none" fill-rule="evenodd">
        <g id="voucher-profile" transform="translate(-26.000000, -203.000000)" fill="#DCDCDC">
            <g id="layer-1" transform="translate(26.000000, 203.000000)">
                <path d="M7.81894737,-5.54561327e-05 C7.61966098,-0.00173357517 7.42614322,0.0668474474 7.27242105,0.193684211 L7.25642105,0.206315789 L0.374736842,6.97010526 L0.401684211,6.94568421 L0.373052632,6.97094737 C0.190610281,7.15020303 0.10864012,7.40809377 0.154105263,7.65978947 L0.154105263,7.73810526 L0.204631579,7.83915789 C0.347235045,8.11708855 0.636797364,8.288402 0.949052632,8.27957895 L4.22821053,8.27957895 L4.22821053,16.448 C4.23653142,16.6582939 4.32807858,16.856662 4.48269993,16.999438 C4.63732128,17.142214 4.8423421,17.2176941 5.05263158,17.2092632 L10.5364211,17.2092632 C10.9739889,17.2244123 11.341091,16.8821857 11.3566316,16.4446316 L11.3566316,8.27621053 L14.6484211,8.27621053 C14.9604294,8.28491121 15.2496838,8.11358612 15.392,7.83578947 C15.5300018,7.52811917 15.4499147,7.16635851 15.1949474,6.94568421 L15.2244211,6.97263158 L8.38315789,0.208 L8.368,0.195368421 C8.21406767,0.0669745058 8.01938407,-0.00229941387 7.81894737,-5.54561327e-05 Z M7.81894737,0.993684211 L14.2189474,7.32042105 L10.3974737,7.32042105 L10.3974737,16.2509474 L5.18484211,16.2509474 L5.18484211,7.32042105 L1.37852632,7.32042105 L7.81894737,0.993684211 Z M0.955789474,19.0913684 L14.2433684,19.0913684 L14.2433684,20.0968421 L0.955789474,20.0968421 L0.955789474,19.0913684 Z" id="rect948-3"></path>
            </g>
        </g>
    </g>
</svg>