<?xml version="1.0" encoding="UTF-8"?>
<svg width="26px" height="18px" viewBox="0 0 26 18" version="1.1" xmlns="http://www.w3.org/2000/svg" xmlns:xlink="http://www.w3.org/1999/xlink">
    <!-- Generator: sketchtool 62 (101010) - https://sketch.com -->
    <title>459CB9BF-B338-41A8-800E-2A5C531D32F5@1.5x</title>
    <desc>Created with sketchtool.</desc>
    <g id="VMS-Design" stroke="none" stroke-width="1" fill="none" fill-rule="evenodd">
        <g id="voucher-profile" transform="translate(-21.000000, -143.000000)" fill="#DCDCDC" stroke="#DCDCDC" stroke-width="0.2">
            <g id="layer-1" transform="translate(21.000000, 143.000000)">
                <g id="layer1-2" transform="translate(12.500000, 8.677206) rotate(-90.000000) translate(-12.500000, -8.677206) translate(4.000000, -3.822794)">
                    <path d="M-3.08260046,21.0855448 C-3.55568646,21.064847 -3.92378385,20.666895 -3.90760046,20.1936331 L-3.90760046,16.9105448 C-3.92337123,16.4375651 -3.55539018,16.0400668 -3.08260046,16.0193683 L-1.71348281,16.0193683 L-1.71348281,16.8553978 L-3.08260046,16.8553978 L-3.06348281,16.8553978 C-3.0695669,16.8731215 -3.0723094,16.8918204 -3.07157105,16.9105448 L-3.07157105,20.1936331 C-3.0723094,20.2123575 -3.0695669,20.2310563 -3.06348281,20.2487801 L-3.08260046,20.2487801 L18.0232819,20.2487801 L18.0041642,20.2487801 C18.0102483,20.2310563 18.0129908,20.2123575 18.0122525,20.1936331 L18.0122525,16.9105448 C18.0129908,16.8918204 18.0102483,16.8731215 18.0041642,16.8553978 L18.0232819,16.8553978 L16.9100466,16.8553978 L15.8563701,19.7002507 L14.9644584,19.7002507 L17.3526937,13.2524566 L15.2982819,12.4914272 L15.5923995,11.7076036 L17.6468113,12.4686331 L19.4725466,7.54216246 C19.5460857,7.34563975 19.5371181,7.12774353 19.4476792,6.93792821 C19.3582404,6.74811288 19.1959156,6.60247689 18.9975466,6.53407423 L16.8504878,5.73848599 C16.0950035,6.96206216 14.5825472,7.48465884 13.2328407,6.98848599 C13.0352721,6.91493031 12.8459942,6.82078424 12.6681348,6.70760364 L12.6681348,5.6252507 C12.9018202,5.88234418 13.1934732,6.07997249 13.5188701,6.20172129 C14.5971836,6.6043506 15.802657,6.09871525 16.271076,5.04730952 L16.4306348,4.68995658 L19.2843113,5.74583893 C20.1249114,6.05589302 20.5577324,6.98622825 20.253429,7.82892717 L17.2196054,16.0186331 L18.0240172,16.0186331 C18.4968069,16.0393315 18.864788,16.4368298 18.8490172,16.9098095 L18.8490172,20.1928978 C18.864788,20.6658775 18.4968069,21.0633757 18.0240172,21.0840742 L-3.08260046,21.0855448 Z M-1.52377693,19.7002507 L-1.52377693,6.26054482 C-1.51690489,5.36426403 -0.787730262,4.64165855 0.108576011,4.64289617 L3.15122307,4.64289617 L3.17695836,5.03333893 C3.25226518,6.18111679 4.20686432,7.07261257 5.35710542,7.06936834 C6.50649688,7.0714466 7.45979289,6.1802661 7.5350466,5.03333893 L7.56298778,4.64289617 L10.6056348,4.64289617 C11.5019411,4.64165855 12.2311157,5.36426403 12.2379878,6.26054482 L12.2379878,19.6995154 L11.3997525,19.6995154 L11.3997525,12.3517213 L9.20857601,12.3517213 L9.20857601,11.5156919 L11.3997525,11.5156919 L11.3997525,6.26054482 C11.4004014,6.0507454 11.3162837,5.84957786 11.1664859,5.70268736 C11.016688,5.55579686 10.8139107,5.47563758 10.6041642,5.48039776 L8.31445836,5.48039776 C8.03044321,6.88927447 6.79431932,7.90380579 5.35710542,7.90760364 C3.92094719,7.90283113 2.68611165,6.88890795 2.40195836,5.48113305 L0.108576011,5.48113305 C-0.10104254,5.47637629 -0.303706074,5.55643564 -0.453481785,5.70316601 C-0.603257496,5.84989637 -0.687462545,6.05087278 -0.687012225,6.26054482 L-0.687012225,11.5156919 L1.68063483,11.5156919 L1.68063483,12.3517213 L-0.687012225,12.3517213 L-0.687012225,19.6995154 L-1.52377693,19.7002507 Z M2.52034072,12.3524566 L2.52034072,11.5156919 L5.02916425,11.5156919 L5.02916425,12.3517213 L2.52034072,12.3524566 Z M5.86519366,12.3524566 L5.86519366,11.5156919 L8.3718113,11.5156919 L8.3718113,12.3517213 L5.86519366,12.3524566 Z M14.5151937,12.2017213 L12.6651937,11.5164272 L12.6651937,10.6237801 L14.8056348,11.4164272 L14.5151937,12.2017213 Z" id="rect5486" transform="translate(8.221325, 12.864220) rotate(90.000000) translate(-8.221325, -12.864220) "></path>
                </g>
            </g>
        </g>
    </g>
</svg>