<?xml version="1.0" encoding="UTF-8"?>
<svg width="19px" height="20px" viewBox="0 0 19 20" version="1.1" xmlns="http://www.w3.org/2000/svg" xmlns:xlink="http://www.w3.org/1999/xlink">
    <!-- Generator: sketchtool 62 (101010) - https://sketch.com -->
    <title>15D2799C-CE47-42B6-8042-883485D672E5@1.5x</title>
    <desc>Created with sketchtool.</desc>
    <g id="VMS-Design" stroke="none" stroke-width="1" fill="none" fill-rule="evenodd" fill-opacity="0.800000012">
        <g id="voucher-profile" transform="translate(-24.000000, -317.000000)" fill="#FFFFFF">
            <g id="layer-1" transform="translate(24.000000, 317.000000)">
                <path d="M4.29984615,0.000730769231 C1.96138462,0.000730769231 0,1.56603846 0,3.60269231 L0,11.4014615 C0,13.4381154 1.96430769,15.0034231 4.29984615,15.0034231 L12.7380385,15.0034231 L17.4880385,19.2111923 L17.4880385,14.1396538 C18.4067506,13.5268571 18.9699323,12.5054429 18.9978077,11.4014615 L18.9978077,3.60196154 C18.9978077,1.56530769 17.0335,0 14.6979615,0 L4.29984615,0.000730769231 Z M4.29984615,0.823576923 L14.6994231,0.823576923 C16.6725,0.823576923 18.1764231,2.10388462 18.1764231,3.6005 L18.1764231,11.3992692 C18.1473419,12.3053384 17.6490858,13.1310595 16.8610385,13.5791538 L16.6695769,13.7004615 L16.6695769,17.3820769 L13.0515385,14.1783846 L4.29984615,14.1783846 C2.32676923,14.1783846 0.822846154,12.8980769 0.822846154,11.4014615 L0.822846154,3.60196154 C0.822846154,2.10388462 2.32676923,0.825038462 4.29984615,0.825038462 L4.29984615,0.823576923 Z M9.47807692,2.36403846 C9.32563053,2.36326703 9.17473343,2.39463766 9.03523077,2.45611538 C8.90194468,2.51213944 8.78082493,2.5935478 8.67861538,2.69580769 C8.57721544,2.79872236 8.49592479,2.91966698 8.43892308,3.05242308 C8.38131503,3.1885735 8.35197773,3.3350114 8.35269231,3.48284615 C8.35129373,3.63334568 8.38063651,3.78254624 8.43892308,3.92130769 C8.55223864,4.19029144 8.76624702,4.40429982 9.03523077,4.51761538 C9.17571745,4.57527403 9.32622012,4.60457983 9.47807692,4.60384615 C9.62857645,4.60524473 9.77777701,4.57590195 9.91653846,4.51761538 C10.0515392,4.45993479 10.1752475,4.37878214 10.2819231,4.27792308 C10.384183,4.17571353 10.4655913,4.05459378 10.5216154,3.92130769 C10.5837346,3.78355839 10.6151529,3.63394723 10.6136923,3.48284615 C10.6083642,3.18761057 10.4895543,2.90576415 10.2819231,2.69580769 C10.1774498,2.59219688 10.0531861,2.51067989 9.91653846,2.45611538 C9.77862161,2.39364092 9.62874738,2.36197032 9.47734615,2.36330769 L9.47807692,2.36403846 Z M8.62965385,5.2725 L8.62965385,11.8574615 L10.3206538,11.8574615 L10.3206538,5.27176923 L8.62965385,5.2725 Z" id="rect860"></path>
            </g>
        </g>
    </g>
</svg>