<?xml version="1.0" encoding="UTF-8"?>
<svg width="15px" height="16px" viewBox="0 0 15 16" version="1.1" xmlns="http://www.w3.org/2000/svg" xmlns:xlink="http://www.w3.org/1999/xlink">
    <title>noun_logout_2834574@1.5x</title>
    <g id="Distributor" stroke="none" stroke-width="1" fill="none" fill-rule="evenodd">
        <g id="Profile" transform="translate(-31.000000, -429.000000)" fill="#828387" fill-rule="nonzero" stroke="#828387" stroke-width="0.7">
            <g id="noun_logout_2834574" transform="translate(32.000000, 430.000000)">
                <path d="M10.1556627,9.70144578 L12.6507229,7.20481928 L2.8646988,7.20481928 C2.82144758,7.20481928 2.78638554,7.16975724 2.78638554,7.12650602 C2.78638554,7.08325481 2.82144758,7.04819277 2.8646988,7.04819277 L12.6507229,7.04819277 L10.1556627,4.55156627 C10.1249543,4.5208579 10.1249543,4.47106981 10.1556627,4.44036145 C10.186371,4.40965309 10.2361591,4.40965309 10.2668675,4.44036145 L12.8950602,7.07168675 C12.9098859,7.08639136 12.9182252,7.1064079 12.9182252,7.12728916 C12.9182252,7.14817041 12.9098859,7.16818695 12.8950602,7.18289157 L10.2668675,9.81108434 C10.2361591,9.8417927 10.186371,9.8417927 10.1556627,9.81108433 C10.1249543,9.78037597 10.1249543,9.73058788 10.1556627,9.69987952 L10.1556627,9.70144578 Z M1.85915663,14.2530147 L8.12421687,14.2530147 C8.61798251,14.2538435 9.0918323,14.0583857 9.44141821,13.7096811 C9.79100411,13.3609765 9.98765736,12.8876216 9.98807229,12.3938554 C9.98807229,12.3506042 9.95301025,12.3155422 9.90975904,12.3155422 C9.86650782,12.3155422 9.83144578,12.3506042 9.83144578,12.3938554 C9.83058228,13.3337789 9.06883918,14.095522 8.12891566,14.0963855 L1.86385542,14.0963855 C1.41162972,14.097217 0.977618474,13.9182609 0.657405719,13.5989295 C0.337192963,13.2795981 0.157041391,12.8460817 0.156626506,12.3938554 L0.156626506,1.85915663 C0.15749001,0.919233112 0.919233112,0.15749001 1.85915663,0.156626506 L8.12421687,0.156626506 C8.57644257,0.155795017 9.01045381,0.334751099 9.33066657,0.654082535 C9.65087933,0.973413971 9.8310309,1.40693035 9.83144578,1.85915663 C9.83144578,1.90240784 9.86650782,1.93746988 9.90975904,1.93746988 C9.95301025,1.93746988 9.98807229,1.90240784 9.98807229,1.85915663 C9.98720866,0.832730715 9.15534157,0.000863631852 8.12891566,-2.64170487e-06 L1.86385542,-2.64170487e-06 C1.37008978,-0.000831430809 0.896239989,0.194626355 0.546654083,0.543330952 C0.197068177,0.892035549 0.00041492823,1.36539046 0,1.85915663 L0,12.3938554 C0.000863631852,13.4202813 0.832730715,14.2521484 1.85915663,14.2530147 Z" id="Shape"></path>
            </g>
        </g>
    </g>
</svg>