<?xml version="1.0" encoding="UTF-8"?>
<svg width="88px" height="88px" viewBox="0 0 88 88" version="1.1" xmlns="http://www.w3.org/2000/svg" xmlns:xlink="http://www.w3.org/1999/xlink">
    <title>E2FE161E-2A86-4B29-9BE9-EB5CF29AD8AA@1.5x</title>
    <g id="Home-and-distributor-reports" stroke="none" stroke-width="1" fill="none" fill-rule="evenodd">
        <g id="Home" transform="translate(-678.000000, -1307.000000)">
            <g id="Group-23" transform="translate(678.000000, 1307.000000)">
                <circle id="Oval-Copy" fill="#F9FAFB" cx="44" cy="44" r="44"></circle>
                <g id="user" transform="translate(29.623762, 27.009901)" fill="#FF4F61" fill-rule="nonzero">
                    <path d="M14.2268741,0.435643564 C9.42259689,0.435643564 5.51400283,4.34423762 5.51400283,9.14851485 C5.51400283,13.9527921 9.42259689,17.8613861 14.2268741,17.8613861 C19.0311513,17.8613861 22.9397454,13.9527921 22.9397454,9.14851485 C22.9397454,4.34423762 19.0311513,0.435643564 14.2268741,0.435643564 Z M14.2268741,15.9251925 C10.490214,15.9251925 7.45019645,12.8851749 7.45019645,9.14851485 C7.45019645,5.41185479 10.490214,2.37183718 14.2268741,2.37183718 C17.9635342,2.37183718 21.0035518,5.41185479 21.0035518,9.14851485 C21.0035518,12.8851749 17.9635342,15.9251925 14.2268741,15.9251925 Z" id="Shape"></path>
                    <path d="M25.3946027,23.4307192 C23.0330661,20.962971 19.9024327,19.6039604 16.5793494,19.6039604 L12.745686,19.6039604 C9.42266659,19.6039604 6.2919693,20.962971 3.93043266,23.4307192 C1.58046091,25.886368 0.286280057,29.1278192 0.286280057,32.5581917 C0.286280057,33.102927 0.715394776,33.5445545 1.2446959,33.5445545 L28.0803395,33.5445545 C28.6096406,33.5445545 29.0387553,33.102927 29.0387553,32.5581917 C29.0387553,29.1278192 27.7445744,25.886368 25.3946027,23.4307192 Z M2.24528204,31.5718289 C2.72544837,25.9767846 7.25147134,21.576686 12.745686,21.576686 L16.5793494,21.576686 C22.073564,21.576686 26.599587,25.9767846 27.0797533,31.5718289 L2.24528204,31.5718289 Z" id="Shape"></path>
                </g>
            </g>
        </g>
    </g>
</svg>