<?xml version="1.0" encoding="UTF-8"?>
<svg width="11px" height="11px" viewBox="0 0 11 11" version="1.1" xmlns="http://www.w3.org/2000/svg" xmlns:xlink="http://www.w3.org/1999/xlink">
    <title>Group 3@1.5x</title>
    <g id="Distributor-Reports" stroke="none" stroke-width="1" fill="none" fill-rule="evenodd">
        <g id="Home" transform="translate(-1335.000000, -696.000000)">
            <g id="Group-3" transform="translate(1335.000000, 696.000000)">
                <path d="M3,1.70710678 L8,1.70710678 C8.55228475,1.70710678 9,2.15482203 9,2.70710678 L9,7.70710678 C9,8.25939153 8.55228475,8.70710678 8,8.70710678 L3,8.70710678 C2.44771525,8.70710678 2,8.25939153 2,7.70710678 L2,2.70710678 C2,2.15482203 2.44771525,1.70710678 3,1.70710678 Z" id="Rectangle" fill="#FF4F61" transform="translate(5.500000, 5.207107) rotate(-315.000000) translate(-5.500000, -5.207107) "></path>
                <path d="M6.99450197,5.21741915 C6.98334821,5.18626555 6.95732054,5.16593644 6.9284374,5.16593644 L6.1449596,5.16593644 L6.1449596,3.08330795 C6.1449596,3.0373234 6.11292606,3 6.07345892,3 L4.92948146,3 C4.89001431,3 4.85798077,3.0373234 4.85798077,3.08330795 L4.85798077,5.16594425 L4.07150004,5.16594425 C4.0426169,5.16594425 4.01658923,5.18627336 4.00543547,5.21726295 C3.99442248,5.24841655 4.00042835,5.28424045 4.02087914,5.30806838 L5.44727324,6.97550823 C5.46071272,6.99116703 5.47887779,7 5.49789415,7 C5.5169105,7 5.53507558,6.99116703 5.54851505,6.97567224 L6.9790583,5.30823239 C6.99950909,5.28439665 7.00565572,5.24858055 6.99450197,5.21741915 Z" id="Path" fill="#FFFFFF" fill-rule="nonzero" transform="translate(5.500000, 5.000000) scale(-1, 1) translate(-5.500000, -5.000000) "></path>
            </g>
        </g>
    </g>
</svg>