<?xml version="1.0" encoding="UTF-8"?>
<svg width="32px" height="32px" viewBox="0 0 32 32" version="1.1" xmlns="http://www.w3.org/2000/svg" xmlns:xlink="http://www.w3.org/1999/xlink">
    <!-- Generator: sketchtool 62 (101010) - https://sketch.com -->
    <title>B5080F50-41F0-47B3-BA09-56C8AF29D916@1.5x</title>
    <desc>Created with sketchtool.</desc>
    <g id="VMS-Design" stroke="none" stroke-width="1" fill="none" fill-rule="evenodd">
        <g id="add-denomination-confirm-" transform="translate(-369.000000, -134.000000)" fill="#28C064" fill-rule="nonzero">
            <g id="tick-inside-circle" transform="translate(369.000000, 134.000000)">
                <path d="M9.44,12.96 L7.2,15.2 L14.4,22.4 L30.4,6.4 L28.16,4.16 L14.4,17.92 L9.44,12.96 Z M28.8,16 C28.8,23.04 23.04,28.8 16,28.8 C8.96,28.8 3.2,23.04 3.2,16 C3.2,8.96 8.96,3.2 16,3.2 C17.28,3.2 18.4,3.36 19.52,3.68 L22.0800627,1.12 C20.16,0.48 18.08,0 16,0 C7.2,0 0,7.2 0,16 C0,24.8 7.2,32 16,32 C24.8,32 32,24.8 32,16 L28.8,16 Z" id="Shape"></path>
            </g>
        </g>
    </g>
</svg>