<?xml version="1.0" encoding="UTF-8"?>
<svg width="88px" height="88px" viewBox="0 0 88 88" version="1.1" xmlns="http://www.w3.org/2000/svg" xmlns:xlink="http://www.w3.org/1999/xlink">
    <title>D942B4A0-83CC-47D8-A7F1-BA5FB89F0F06@1.5x</title>
    <g id="Home-and-distributor-reports" stroke="none" stroke-width="1" fill="none" fill-rule="evenodd">
        <g id="Home" transform="translate(-1068.000000, -1307.000000)">
            <g id="Group-23-Copy" transform="translate(1068.000000, 1307.000000)">
                <circle id="Oval-Copy" fill="#F9FAFB" cx="44" cy="44" r="44"></circle>
                <g id="sync" transform="translate(27.000000, 25.000000)" fill="#00B4B0" fill-rule="nonzero">
                    <g id="Group" transform="translate(17.000000, 19.500000) scale(-1, 1) rotate(-180.000000) translate(-17.000000, -19.500000) ">
                        <path d="M14.5649735,37.6746094 L14.5649735,36.3568359 L13.9790423,36.2578125 C13.1267787,36.1207031 11.6809745,35.709375 10.7754444,35.3513672 C5.59337751,33.2794922 1.78862941,28.9376953 0.456967579,23.5751953 C0.0993212578,22.1126953 0.000397807239,21.2595703 0.000397807239,19.5 C-0.00721168896,17.6566406 0.0917117616,16.8568359 0.525453045,15.1962891 C1.57556352,11.1439453 4.16279223,7.54863281 7.65555098,5.27109375 L8.16538723,4.94355469 L9.19266921,5.72050781 C9.76338143,6.14707031 10.2275607,6.50507813 10.2275607,6.5203125 C10.2275607,6.53554688 10.0677613,6.63457031 9.86991437,6.75644531 C6.33149864,8.79023438 3.82797439,12.0503906 2.85395888,15.8818359 C2.50392206,17.2376953 2.43543659,17.8775391 2.43543659,19.5 C2.43543659,20.6425781 2.47348407,21.2595703 2.56479803,21.7851563 C2.99092981,24.1388672 3.79753641,26.0888672 5.12919824,27.9779297 C5.71512945,28.8082031 7.35878063,30.4839844 8.2110442,31.1162109 C9.8090384,32.3044922 11.6505365,33.1804688 13.5376915,33.6375 C14.663897,33.9117188 14.5649735,33.9955078 14.5649735,32.7539063 L14.5649735,31.6875 L16.9619648,33.4851563 C18.2784077,34.4753906 19.3589561,35.3132813 19.3589561,35.34375 C19.3589561,35.3742188 18.2784077,36.2121094 16.9619648,37.2023438 L14.5649735,39 L14.5649735,37.6746094 Z" id="Path"></path>
                        <path d="M24.8377934,33.3175781 C24.3127382,32.9138672 23.8561684,32.5634766 23.8257304,32.5330078 C23.7876829,32.4949219 24.0616248,32.2892578 24.4344901,32.0683594 C27.7826684,30.0574219 30.1948787,26.8429687 31.1536752,23.1029297 C31.4884931,21.7699219 31.564588,21.1148437 31.564588,19.5 C31.564588,17.8394531 31.4884931,17.1996094 31.1156278,15.7675781 C30.2100977,12.3017578 27.9652963,9.24726562 24.8149649,7.19824219 C23.5137411,6.35273437 21.6950715,5.59863281 20.1427342,5.27109375 L19.4350511,5.11875 L19.4350511,6.215625 L19.4350511,7.3125 L17.0380598,5.51484375 C15.7216169,4.52460937 14.6410685,3.68671875 14.6410685,3.65625 C14.6410685,3.62578125 15.7216169,2.78789062 17.0380598,1.79765625 L19.4350511,0 L19.4350511,1.33300781 C19.4350511,2.64316406 19.4350511,2.66601562 19.5948505,2.66601562 C19.9220588,2.66601562 21.550491,3.06210937 22.4408021,3.36679687 C27.8511539,5.1796875 32.0592053,9.69667969 33.4745716,15.1962891 C33.8930939,16.81875 33.9996268,17.7251953 33.9996268,19.5380859 C34.0072363,21.3357422 33.9007034,22.1583984 33.4745716,23.8037109 C32.4929466,27.5742187 30.2557547,30.8724609 27.0825948,33.2109375 C26.4281781,33.6908203 25.8802944,34.0564453 25.8194184,34.0412109 C25.8041994,34.0412109 25.3628486,33.7136719 24.8377934,33.3175781 Z" id="Path"></path>
                    </g>
                </g>
            </g>
        </g>
    </g>
</svg>