<?xml version="1.0" standalone="no"?>
<!DOCTYPE svg PUBLIC "-//W3C//DTD SVG 1.1//EN" "http://www.w3.org/Graphics/SVG/1.1/DTD/svg11.dtd" >
<svg xmlns="http://www.w3.org/2000/svg" xmlns:xlink="http://www.w3.org/1999/xlink" version="1.1">
<metadata>
Created by FontForge 20170731 at Sun Feb 18 09:55:25 2018
 By Aleksey,,,
Copyright 2018 The Inter UI project authors
</metadata>
<defs>
<font id="InterUI-Black" horiz-adv-x="0" >
  <font-face 
    font-family="Inter UI Black"
    font-weight="900"
    font-stretch="normal"
    units-per-em="2816"
    panose-1="2 11 9 2 3 0 0 0 0 4"
    ascent="2252"
    descent="-564"
    x-height="1536"
    cap-height="2048"
    bbox="-2062 -1096 4248 2926"
    underline-thickness="256"
    underline-position="-934"
    unicode-range="U+0002-1F16B"
  />
<missing-glyph horiz-adv-x="2848" 
d="M272 2176v512h2304v-512h-2304zM272 1472v512h2304v-512h-2304zM272 768v512h2304v-512h-2304zM272 64v512h2304v-512h-2304zM272 -640v512h2304v-512h-2304z" />
    <glyph glyph-name=".notdef" horiz-adv-x="2848" 
d="M272 2176v512h2304v-512h-2304zM272 1472v512h2304v-512h-2304zM272 768v512h2304v-512h-2304zM272 64v512h2304v-512h-2304zM272 -640v512h2304v-512h-2304z" />
    <glyph glyph-name=".null" 
 />
    <glyph glyph-name="nonmarkingreturn" horiz-adv-x="938" 
 />
    <glyph glyph-name="controlSOT" 
 />
    <glyph glyph-name="controlHT" unicode="&#x9;" horiz-adv-x="800" 
 />
    <glyph glyph-name="CR" unicode="&#xd;" horiz-adv-x="800" 
 />
    <glyph glyph-name="space" unicode=" " horiz-adv-x="768" 
 />
    <glyph glyph-name="exclam" unicode="!" horiz-adv-x="800" 
d="M640 2048l-56 -1412h-360l-56 1412h472zM400 -24q-109 0 -176.5 65.5t-67.5 166.5t67.5 166.5t176.5 65.5q110 0 179 -66t69 -166t-69 -166t-179 -66z" />
    <glyph glyph-name="quotedbl" unicode="&#x22;" horiz-adv-x="1056" 
d="M428 2048v-792h-316v792h316zM940 2048v-792h-316v792h316z" />
    <glyph glyph-name="numbersign" unicode="#" horiz-adv-x="1824" 
d="M360 0l95 564h-311v252h353l61 364h-310v252h352l96 572h264l-96 -572h236l96 572h268l-96 -572h312v-252h-354l-61 -364h311v-252h-353l-95 -564h-268l95 564h-236l-95 -564h-264zM761 816h236l61 364h-236z" />
    <glyph glyph-name="dollar" unicode="$" horiz-adv-x="1824" 
d="M816 -256l3 230q-117 7 -223 36.5t-200 86t-163 134.5t-109 189t-40 244h448q5 -132 81.5 -210t210.5 -94l6 506q-26 9 -54 18l-40 12q-131 40 -236.5 96t-186.5 130t-125 170.5t-44 207.5q0 161 90 289t249 202t362 84l3 229h184l-3 -235q282 -33 450.5 -201t168.5 -428
h-440q-10 187 -184 234l-6 -454l18 -8q152 -54 259 -111t189.5 -132.5t123 -173t40.5 -219.5q0 -174 -81.5 -304.5t-225.5 -204t-338 -90.5l-3 -233h-184zM596 1496q0 -68 59 -114t180 -93l5 396q-110 -12 -177 -63t-67 -126zM1200 572q0 66 -43.5 119t-143.5 102l-5 -425
q95 23 143.5 79t48.5 125z" />
    <glyph glyph-name="percent" unicode="%" horiz-adv-x="2336" 
d="M212 1556v108q0 128 51 232t154.5 168t242.5 64q141 0 244.5 -64t153.5 -168t50 -232v-108q0 -128 -51 -231t-154 -166t-243 -63q-141 0 -244.5 63t-153.5 166t-50 231zM2072 2100l-1476 -2152h-356l1476 2152h356zM516 1664v-108q0 -80 33.5 -134t110.5 -54t110.5 54
t33.5 134v108q0 82 -32.5 137t-111.5 55q-53 0 -86.5 -30t-45.5 -70.5t-12 -91.5zM1232 384v108q0 128 51 232t154.5 168t242.5 64q141 0 244.5 -64t153.5 -168t50 -232v-108q0 -128 -51 -232t-154.5 -168t-242.5 -64q-141 0 -244.5 64t-153.5 168t-50 232zM1536 492v-108
q0 -80 33.5 -134t110.5 -54t110.5 54t33.5 134v108q0 82 -32.5 137t-111.5 55q-53 0 -86.5 -30t-45.5 -70.5t-12 -91.5z" />
    <glyph glyph-name="ampersand" unicode="&#x26;" horiz-adv-x="2080" 
d="M1420 0l-95 110q-115 -71 -237 -104.5t-272 -33.5q-299 0 -475.5 160.5t-176.5 419.5q0 86 24.5 158.5t75.5 136.5t108.5 114.5t145.5 113.5q-89 128 -133.5 234t-44.5 215q0 245 153.5 398.5t406.5 153.5q116 0 213.5 -39t163.5 -106t102.5 -157t36.5 -190
q0 -257 -264 -452l-121 -88l316 -372q81 159 81 348h372q0 -411 -184 -663l304 -357h-500zM724 1528q0 -99 111 -245l93 61q79 52 105.5 100.5t26.5 103.5q0 62 -45 111t-119 49q-82 0 -127 -50t-45 -130zM608 580q0 -107 68 -175.5t168 -68.5q122 0 237 60l-362 422
l-19 -14q-52 -52 -72 -103.5t-20 -120.5z" />
    <glyph glyph-name="quotesingle" unicode="'" horiz-adv-x="544" 
d="M428 2048v-792h-316v792h316z" />
    <glyph glyph-name="parenleft" unicode="(" horiz-adv-x="1072" 
d="M992 -384h-364q-177 230 -284.5 551.5t-107.5 664.5q0 344 108 665.5t288 550.5h364q-179 -305 -259.5 -593.5t-80.5 -622.5q0 -324 80.5 -618.5t255.5 -597.5z" />
    <glyph glyph-name="parenright" unicode=")" horiz-adv-x="1072" 
d="M48 -384q175 303 255.5 597.5t80.5 618.5q0 334 -80.5 622.5t-259.5 593.5h364q180 -229 288 -550.5t108 -665.5q0 -343 -107.5 -664.5t-284.5 -551.5h-364z" />
    <glyph glyph-name="asterisk" unicode="*" horiz-adv-x="1568" 
d="M292 940l308 376l-440 124l84 260l436 -180l-32 484h288l-36 -496l424 176l88 -260l-452 -124l300 -364l-232 -164l-252 404l-252 -392z" />
    <glyph glyph-name="plus" unicode="+" horiz-adv-x="1568" 
d="M1424 1072v-352h-464v-464h-352v464h-464v352h464v464h352v-464h464z" />
    <glyph glyph-name="comma" unicode="," horiz-adv-x="800" 
d="M608 348v-292q0 -165 -78.5 -328.5t-201.5 -267.5l-224 112q10 20 37 72t40.5 82.5t32 81t26.5 104.5t8 116v320h360z" />
    <glyph glyph-name="hyphen" unicode="-" horiz-adv-x="1312" 
d="M1168 1028v-328h-1024v328h1024z" />
    <glyph glyph-name="period" unicode="." horiz-adv-x="800" 
d="M400 -28q-102 0 -175 73.5t-73 178.5q0 102 73 175t175 73t175 -73t73 -175q0 -105 -73 -178.5t-175 -73.5z" />
    <glyph glyph-name="slash" unicode="/" horiz-adv-x="1184" 
d="M1088 2048l-596 -2356h-396l596 2356h396z" />
    <glyph glyph-name="zero" unicode="0" horiz-adv-x="1712" 
d="M1584 1204v-340q0 -221 -55 -393t-153.5 -280t-230 -163.5t-289.5 -55.5q-160 0 -291.5 55.5t-229.5 163.5t-152.5 280t-54.5 393v340q0 210 55 377t153 274.5t230.5 164t289.5 56.5t289.5 -56.5t230.5 -164t153 -274.5t55 -377zM1132 804v460q0 221 -74.5 328.5
t-201.5 107.5t-201.5 -107.5t-74.5 -328.5v-460q0 -452 276 -452t276 452z" />
    <glyph glyph-name="one" unicode="1" horiz-adv-x="1408" 
d="M996 2048v-2048h-420v1464h-16q-37 -61 -139 -94.5t-261 -33.5v368q107 0 189 35t123.5 81t68 100.5t33 85t6.5 42.5h416z" />
    <glyph glyph-name="two" unicode="2" horiz-adv-x="1696" 
d="M1552 384v-384h-1408v336l664 664q248 253 248 452q0 109 -64.5 184.5t-171.5 75.5q-117 0 -186.5 -91.5t-69.5 -232.5h-444q0 141 50 266t140 219t224 148.5t294 54.5q192 0 344.5 -76.5t238 -215.5t85.5 -316q0 -104 -29.5 -201.5t-93.5 -198t-140 -191.5t-193 -213
l-260 -268v-12h772z" />
    <glyph glyph-name="three" unicode="3" horiz-adv-x="1696" 
d="M608 832v384h220q130 0 199 76.5t69 199.5q0 96 -64 160t-184 64q-98 0 -169 -50.5t-71 -133.5h-444q0 165 92.5 290.5t243 189.5t332.5 64q211 0 368.5 -64.5t246.5 -195t89 -312.5q0 -145 -86 -271.5t-236 -197.5q170 -55 262 -175t92 -296q0 -184 -97 -319.5
t-262.5 -204t-376.5 -68.5q-102 0 -200 21t-188.5 67.5t-158.5 113t-108.5 165.5t-40.5 217h444q0 -95 78 -159.5t190 -64.5q129 0 204.5 67.5t75.5 172.5q0 146 -74.5 203t-225.5 57h-220z" />
    <glyph glyph-name="four" unicode="4" horiz-adv-x="1756" 
d="M1680 784v-384h-304v-400h-412v400h-864v308l816 1340h460v-1264h304zM560 784h404v694l-48 -82z" />
    <glyph glyph-name="five" unicode="5" horiz-adv-x="1696" 
d="M548 916l-352 88l120 1044h1156v-384h-796l-48 -440h8q32 46 111.5 81t192.5 35q257 0 426.5 -187t169.5 -481q0 -110 -26 -211t-81 -190.5t-134.5 -155.5t-194 -104.5t-252.5 -38.5q-160 0 -292 51.5t-220 140.5t-136 209.5t-48 258.5h444q25 -300 248 -300q69 0 120 29
t78.5 79.5t40.5 109t13 126.5q0 164 -74 254t-226 90q-161 0 -248 -104z" />
    <glyph glyph-name="six" unicode="6" horiz-adv-x="1684" 
d="M1072 1504q-25 101 -88.5 156.5t-163.5 55.5q-143 0 -215.5 -124t-85.5 -402q136 162 377 162q139 0 257.5 -56t198 -150t124 -219t44.5 -263q0 -147 -51 -275t-141.5 -220t-220 -144.5t-279.5 -52.5q-159 0 -292.5 59.5t-230.5 171.5t-151 282.5t-54 382.5v80
q0 153 9.5 280t32.5 245.5t59.5 210.5t92 169t129 126.5t171.5 77t218 27.5q291 0 465 -153.5t227 -426.5h-432zM516 712q0 -186 81.5 -283t206.5 -97q123 0 197.5 91t74.5 241q0 151 -76.5 241.5t-207.5 90.5q-124 0 -200 -76.5t-76 -183.5v-24z" />
    <glyph glyph-name="seven" unicode="7" horiz-adv-x="1696" 
d="M1552 2048v-248l-732 -1800h-468l700 1664h-908v384h1408z" />
    <glyph glyph-name="eight" unicode="8" horiz-adv-x="1672" 
d="M1528 564q0 -191 -90.5 -326.5t-243.5 -200.5t-354 -65t-356 65t-247.5 200.5t-92.5 326.5q0 166 83 292.5t229 198.5q-127 70 -197.5 185t-70.5 260q0 138 48.5 248t135 181.5t204.5 109t260 37.5q296 0 474 -150.5t178 -425.5q0 -146 -70.5 -261t-196.5 -185
q145 -72 226 -197.5t81 -292.5zM1044 1476q0 109 -53.5 170.5t-154.5 61.5q-99 0 -151.5 -60.5t-52.5 -171.5q0 -113 54 -178.5t154 -65.5t152 65t52 179zM1084 600q0 125 -68 196.5t-180 71.5q-110 0 -179 -72t-69 -196q0 -121 69.5 -190.5t182.5 -69.5q112 0 178 69
t66 191z" />
    <glyph glyph-name="nine" unicode="9" horiz-adv-x="1684" 
d="M580 544q25 -101 88.5 -156.5t163.5 -55.5q143 0 215.5 124t85.5 402q-136 -162 -377 -162q-139 0 -257.5 56t-198 150t-124 219t-44.5 263q0 147 51 275t141.5 220t220 144.5t279.5 52.5q159 0 292.5 -59.5t230.5 -171.5t151 -282.5t54 -382.5v-80q0 -153 -9.5 -280
t-32.5 -245.5t-59.5 -210.5t-92 -169t-129 -126.5t-171.5 -77t-218 -27.5q-291 0 -465 153.5t-227 426.5h432zM576 1384q0 -151 76.5 -241.5t207.5 -90.5q124 0 200 76.5t76 183.5v24q0 186 -81.5 283t-206.5 97q-123 0 -197.5 -91t-74.5 -241z" />
    <glyph glyph-name="colon" unicode=":" horiz-adv-x="800" 
d="M400 1004q-102 0 -175 73.5t-73 178.5q0 102 73 175t175 73t175 -73t73 -175q0 -105 -73 -178.5t-175 -73.5zM400 -28q-102 0 -175 73.5t-73 178.5q0 102 73 175t175 73t175 -73t73 -175q0 -105 -73 -178.5t-175 -73.5z" />
    <glyph glyph-name="semicolon" unicode=";" horiz-adv-x="800" 
d="M400 1056q-102 0 -175 73.5t-73 178.5q0 102 73 175t175 73t175 -73t73 -175q0 -105 -73 -178.5t-175 -73.5zM608 348v-292q0 -165 -78.5 -328.5t-201.5 -267.5l-224 112q10 20 37 72t40.5 82.5t32 81t26.5 104.5t8 116v320h360z" />
    <glyph glyph-name="less" unicode="&#x3c;" horiz-adv-x="1312" 
d="M1172 416l-264 -244l-804 724l804 724l264 -244l-532 -476v-8z" />
    <glyph glyph-name="equal" unicode="=" horiz-adv-x="1568" 
d="M208 1396h1152v-352h-1152v352zM208 748h1152v-352h-1152v352z" />
    <glyph glyph-name="greater" unicode="&#x3e;" horiz-adv-x="1312" 
d="M108 416l532 476v8l-532 476l264 244l804 -724l-804 -724z" />
    <glyph glyph-name="question" unicode="?" horiz-adv-x="1568" 
d="M952 636h-380q0 120 22.5 219t58.5 164t79.5 118.5t87 95t79.5 81t58.5 88.5t22.5 106q0 107 -47.5 157.5t-144.5 50.5q-82 0 -137.5 -55.5t-58.5 -168.5h-444q1 150 51 264t137.5 183t201 103t250.5 34q300 0 468 -142t168 -406q0 -88 -25.5 -165t-66 -134t-90 -109.5
t-99.5 -104t-92 -105t-69.5 -124t-29.5 -150.5zM768 -16q-110 0 -179 66t-69 166t69 166t179 66q107 0 175.5 -66t68.5 -166t-68.5 -166t-175.5 -66z" />
    <glyph glyph-name="at" unicode="@" horiz-adv-x="2848" 
d="M1472 2052q198 0 373.5 -40t315 -114t250.5 -179.5t185 -235t113 -281.5t39 -318q0 -286 -65 -490.5t-203 -319t-340 -114.5q-69 0 -102 1.5t-80 12t-69.5 32t-43.5 63t-29 103.5h-12q-25 -63 -109 -113t-185 -72.5t-186 -14.5q-129 12 -233 62t-182.5 140.5t-121.5 233
t-43 328.5q0 132 34 245t88.5 191.5t126.5 138t146 92t149 45.5q157 26 302 -20t174 -116h12v112h328v-1048q0 -16 3 -27.5t6.5 -17.5t11.5 -8.5t12 -3t14.5 0t12.5 0.5q46 0 84 29.5t69.5 93t49 177t17.5 268.5q0 186 -41 326t-116.5 233t-191.5 150.5t-255.5 82
t-319.5 24.5q-171 0 -318 -49.5t-256.5 -139.5t-188 -212.5t-118 -272t-39.5 -314.5q0 -471 247 -717.5t721 -246.5q145 0 296.5 30t251.5 70l108 -308q-83 -54 -279 -99t-385 -45q-651 0 -995.5 339.5t-344.5 984.5q0 287 90.5 531t257 421t414.5 276.5t550 99.5z
M1400 1100q-130 0 -209 -98.5t-79 -253.5q-1 -78 6 -138.5t26.5 -113t51 -87t81 -54t115.5 -19.5q171 0 265.5 105.5t94.5 306.5q0 100 -27 171.5t-76.5 110t-110.5 55.5t-138 15z" />
    <glyph glyph-name="A" unicode="A" horiz-adv-x="2168" 
d="M580 0h-500l756 2048h496l756 -2048h-500l-129 384h-750zM1072 1468l-239 -712h502l-239 712h-24z" />
    <glyph glyph-name="B" unicode="B" horiz-adv-x="1784" 
d="M984 0h-840v2048h768q182 0 323.5 -41t231 -116t135.5 -177t46 -226q0 -355 -360 -429v-15q183 -24 291.5 -157t108.5 -331q0 -254 -184 -405t-520 -151zM608 1664v-468h264q167 0 241.5 55t74.5 173q0 240 -288 240h-292zM1232 620q0 113 -66 184.5t-202 71.5h-356v-492
h340q284 0 284 236z" />
    <glyph glyph-name="C" unicode="C" horiz-adv-x="1984" 
d="M1876 1404l-448 -64q-44 158 -150 239t-254 81q-204 0 -320 -157t-116 -483t115.5 -479t320.5 -153q147 0 249.5 77.5t146.5 230.5l452 -64q-83 -314 -310 -487t-538 -173q-195 0 -360.5 71t-286.5 203t-189 331t-68 443q0 246 68 446t189 333t286.5 205t360.5 72
q311 0 540 -176.5t312 -495.5z" />
    <glyph glyph-name="D" unicode="D" horiz-adv-x="1960" 
d="M868 0h-724v2048h724q451 0 711.5 -272.5t260.5 -751.5t-260.5 -751.5t-711.5 -272.5zM844 1648h-236v-1248h240q262 0 393 148t131 476t-131.5 476t-396.5 148z" />
    <glyph glyph-name="E" unicode="E" horiz-adv-x="1656" 
d="M1512 384v-384h-1368v2048h1368v-384h-904v-448h764v-384h-764v-448h904z" />
    <glyph glyph-name="F" unicode="F" horiz-adv-x="1656" 
d="M1372 1216v-384h-764v-832h-464v2048h1368v-384h-904v-448h764z" />
    <glyph glyph-name="G" unicode="G" horiz-adv-x="2000" 
d="M1872 1096v-340q0 -173 -67 -321t-181.5 -248.5t-270 -157.5t-329.5 -57q-194 0 -359 70t-286.5 201t-190 330.5t-68.5 446.5q0 248 68 449t188 333t284 203t356 71q197 0 365 -72.5t294 -218t189 -349.5l-468 -64q-43 146 -144.5 217t-235.5 71q-94 0 -170 -36
t-135 -110.5t-91 -200t-32 -293.5q0 -135 21.5 -242t60 -179.5t94 -120.5t120 -69t140.5 -21q170 0 283 99.5t113 268.5h-396v340h848z" />
    <glyph glyph-name="H" unicode="H" horiz-adv-x="1952" 
d="M608 2048v-832h736v832h464v-2048h-464v832h-736v-832h-464v2048h464z" />
    <glyph glyph-name="I" unicode="I" horiz-adv-x="752" 
d="M608 2048v-2048h-464v2048h464z" />
    <glyph glyph-name="J" unicode="J" horiz-adv-x="1612" 
d="M1008 628v1420h460v-1420q0 -147 -52.5 -270.5t-144 -208t-217 -131t-270.5 -46.5q-151 0 -274.5 38.5t-215.5 115t-143 198.5t-51 280h464q3 -125 61.5 -192.5t158.5 -67.5q105 0 164.5 76t59.5 208z" />
    <glyph glyph-name="K" unicode="K" horiz-adv-x="2048" 
d="M1400 0l-553 762l-239 -262v-500h-464v2048h464v-856h28l772 856h608l-873 -948l813 -1100h-556z" />
    <glyph glyph-name="L" unicode="L" horiz-adv-x="1568" 
d="M1436 384v-384h-1292v2048h464v-1664h828z" />
    <glyph glyph-name="M" unicode="M" horiz-adv-x="2560" 
d="M144 2048h600l524 -1312h24l524 1312h600v-2048h-464v1332h-16l-500 -1300h-312l-500 1308h-16v-1340h-464v2048z" />
    <glyph glyph-name="N" unicode="N" horiz-adv-x="1952" 
d="M1808 2048v-2048h-456l-728 1260h-16v-1260h-464v2048h460l724 -1260h16v1260h464z" />
    <glyph glyph-name="O" unicode="O" horiz-adv-x="2040" 
d="M1920 1020q0 -246 -68.5 -446t-189 -331t-284 -201t-354.5 -70q-193 0 -357.5 70t-286.5 201t-191 331t-69 446q0 199 44.5 369t126 295.5t194 214t249 133t290.5 44.5q191 0 354.5 -71t284 -202.5t189 -333t68.5 -449.5zM1452 1020q0 330 -114 485t-314 155
q-97 0 -175 -36t-137 -111t-91.5 -200t-32.5 -293q0 -135 21.5 -242t59.5 -179.5t93 -120t120 -69t142 -21.5q97 0 173.5 34.5t134.5 108t89 197t31 292.5z" />
    <glyph glyph-name="P" unicode="P" horiz-adv-x="1796" 
d="M936 704h-328v-704h-464v2048h792q192 0 334.5 -48t228.5 -139t127.5 -212.5t41.5 -276.5q0 -320 -179.5 -494t-552.5 -174zM608 1664v-580h328q142 0 207 79t65 209q0 131 -65.5 211.5t-206.5 80.5h-328z" />
    <glyph glyph-name="Q" unicode="Q" horiz-adv-x="2040" 
d="M1920 1020q0 -273 -81.5 -484t-230.5 -347l268 -381h-428l-143 206q-132 -42 -281 -42q-193 0 -357.5 70t-286.5 201t-191 331t-69 446q0 199 44.5 369t126 295.5t194 214t249 133t290.5 44.5q191 0 354.5 -71t284 -202.5t189 -333t68.5 -449.5zM840 704h380l117 -166
q115 159 115 482q0 330 -114 485t-314 155q-97 0 -175 -36t-137 -111t-91.5 -200t-32.5 -293q0 -135 21.5 -242t59.5 -179.5t93 -120t120 -69t142 -21.5q25 0 37 1z" />
    <glyph glyph-name="R" unicode="R" horiz-adv-x="1796" 
d="M1244 0l-368 752h-268v-752h-464v2048h788q359 0 547.5 -168t188.5 -472q0 -390 -333 -571l417 -837h-508zM608 1664v-532h324q128 0 202 66.5t74 197.5q0 130 -74 199t-202 69h-324z" />
    <glyph glyph-name="S" unicode="S" horiz-adv-x="1776" 
d="M1208 1440q-6 118 -82 183t-222 65q-136 0 -222 -53t-86 -139q0 -85 108 -147q61 -35 251 -104q15 -5 25 -9l56 -24q152 -54 259 -111t189.5 -132.5t123 -173t40.5 -219.5q0 -190 -97 -328t-266.5 -207t-392.5 -69q-125 0 -241 25t-220 79.5t-180.5 134t-121.5 196
t-45 257.5h448q6 -148 101 -228t259 -80q152 0 230 63.5t78 152.5q0 95 -95.5 166.5t-328.5 145.5l-40 12q-131 40 -236.5 96t-186.5 130t-125 170.5t-44 207.5q0 169 98 301t271 203.5t391 71.5q219 0 387.5 -77.5t262.5 -222.5t94 -336h-440z" />
    <glyph glyph-name="T" unicode="T" horiz-adv-x="1820" 
d="M1740 2048v-384h-600v-1664h-460v1664h-600v384h1660z" />
    <glyph glyph-name="U" unicode="U" horiz-adv-x="1952" 
d="M1344 2048h464v-1352q0 -230 -105 -394.5t-290 -247t-433 -82.5q-250 0 -437 82.5t-293 247.5t-106 394v1352h464v-1336q0 -149 102.5 -236.5t269.5 -87.5q166 0 265 87.5t99 236.5v1336z" />
    <glyph glyph-name="V" unicode="V" horiz-adv-x="2168" 
d="M568 2048l504 -1468h24l504 1468h488l-756 -2048h-496l-756 2048h488z" />
    <glyph glyph-name="W" unicode="W" horiz-adv-x="2896" 
d="M528 2048l344 -1376h16l356 1376h408l356 -1380h16l344 1380h420l-520 -2048h-472l-340 1284h-16l-340 -1284h-472l-520 2048h420z" />
    <glyph glyph-name="X" unicode="X" horiz-adv-x="1976" 
d="M612 2048l368 -668h16l368 668h524l-596 -1024l612 -1024h-532l-376 672h-16l-376 -672h-532l612 1024l-596 1024h524z" />
    <glyph glyph-name="Y" unicode="Y" horiz-adv-x="2152" 
d="M568 2048l497 -868h22l497 868h504l-780 -1268v-780h-464v780l-780 1268h504z" />
    <glyph glyph-name="Z" unicode="Z" horiz-adv-x="1824" 
d="M1688 384v-384h-1552v272l975 1392h-975v384h1552v-272l-975 -1392h975z" />
    <glyph glyph-name="bracketleft" unicode="[" horiz-adv-x="1072" 
d="M976 2348v-340h-296v-2152h296v-336h-704v2828h704z" />
    <glyph glyph-name="backslash" unicode="\" horiz-adv-x="1184" 
d="M96 2048h396l596 -2356h-396z" />
    <glyph glyph-name="bracketright" unicode="]" horiz-adv-x="1072" 
d="M96 2348h704v-2828h-704v336h296v2152h-296v340z" />
    <glyph glyph-name="asciicircum" unicode="^" horiz-adv-x="1312" 
d="M892 1004l-236 617l-236 -617h-336l408 1000h328l412 -1000h-340z" />
    <glyph glyph-name="underscore" unicode="_" horiz-adv-x="1312" 
d="M1280 0v-344h-1248v344h1248z" />
    <glyph glyph-name="grave" unicode="`" horiz-adv-x="1056" 
d="M628 2112l272 -432h-360l-384 432h472z" />
    <glyph glyph-name="a" unicode="a" horiz-adv-x="1552" 
d="M968 0v156h-20q-47 -80 -138.5 -132t-225.5 -52q-100 0 -188 31t-155 87.5t-106 145t-39 196.5q0 211 155 340.5t473 155.5q38 3 62 5.5t57.5 9.5t53 16t33.5 24.5t14 36.5v32q0 64 -48 110t-128 46t-142 -45.5t-74 -118.5l-432 40q36 216 214 344t454 128
q135 0 247.5 -32.5t196 -96t130 -162.5t46.5 -225v-1040h-440zM944 492v196q-29 -29 -160 -48q-134 -15 -189 -62t-55 -134q0 -63 44.5 -101.5t119.5 -38.5q93 0 166.5 54.5t73.5 133.5z" />
    <glyph glyph-name="b" unicode="b" horiz-adv-x="1652" 
d="M144 2048h460v-676h16q39 86 131 135t213 49q118 0 223 -49t188 -143t132 -248t49 -348q0 -191 -46.5 -344t-128 -249.5t-188 -147.5t-229.5 -51q-122 0 -214 47t-130 133h-20v-156h-456v2048zM1124 768q0 203 -75.5 313.5t-220.5 110.5q-276 0 -276 -424
q0 -428 276 -428q145 0 220.5 112t75.5 316z" />
    <glyph glyph-name="c" unicode="c" horiz-adv-x="1588" 
d="M1500 1032l-420 -80q-29 118 -90 179t-170 61q-288 0 -288 -424q0 -428 288 -428q192 0 252 208l424 -76q-54 -229 -235.5 -364.5t-440.5 -135.5q-222 0 -387 102.5t-251 282t-86 411.5t86 409.5t251 278t387 100.5q268 0 450 -141.5t230 -382.5z" />
    <glyph glyph-name="d" unicode="d" horiz-adv-x="1652" 
d="M1508 0h-456v156h-20q-38 -86 -130 -133t-214 -47q-123 0 -229.5 51t-188 147.5t-128 249.5t-46.5 344q0 194 49 348t132 248t188 143t223 49q121 0 213 -49t131 -135h16v676h460v-2048zM528 768q0 -204 75.5 -316t220.5 -112q276 0 276 428q0 424 -276 424
q-145 0 -220.5 -110.5t-75.5 -313.5z" />
    <glyph glyph-name="e" unicode="e" horiz-adv-x="1636" 
d="M852 -28q-352 0 -554 205t-202 567q0 176 49.5 324.5t142 257t234.5 169.5t318 61q321 0 510.5 -192.5t189.5 -531.5v-192h-1005q19 -142 96 -221t217 -79q66 0 115.5 17.5t80.5 49t48.5 62t31.5 71.5l404 -108q-15 -64 -46 -125t-86.5 -123t-128.5 -108t-180.5 -75
t-234.5 -29zM836 1192q-112 0 -184.5 -66.5t-102.5 -189.5h563q0 112 -72.5 184t-203.5 72z" />
    <glyph glyph-name="f" unicode="f" horiz-adv-x="1104" 
d="M264 0v1216h-188v320h188v24q0 253 137 384.5t367 131.5q158 0 312 -44l-76 -340q-67 20 -132 20q-77 0 -112.5 -36.5t-35.5 -115.5v-24h284v-320h-284v-1216h-460z" />
    <glyph glyph-name="g" unicode="g" horiz-adv-x="1652" 
d="M1052 1528h456v-1460q0 -208 -94 -357.5t-260.5 -224t-389.5 -74.5q-191 0 -355.5 60t-236.5 132l192 312q176 -132 384 -132q151 0 231.5 73t80.5 235v100h-24q-33 -66 -125.5 -113t-222.5 -47q-94 0 -180 27t-161.5 86t-131 145t-87.5 211.5t-32 278.5q0 190 49 341
t132 244.5t188 142t223 48.5q121 0 213 -49t131 -135h20v156zM528 780q0 -196 78.5 -294t217.5 -98q143 0 209.5 104t66.5 288q0 88 -15 159.5t-46 129.5t-86 90.5t-129 32.5q-144 0 -220 -109.5t-76 -302.5z" />
    <glyph glyph-name="h" unicode="h" horiz-adv-x="1612" 
d="M604 816v-816h-460v2048h444v-676h16q67 88 169 136t227 48q215 0 341.5 -150t126.5 -446v-960h-460v964q0 228 -172 228q-83 0 -136 -51t-74.5 -132t-21.5 -193z" />
    <glyph glyph-name="i" unicode="i" horiz-adv-x="780" 
d="M392 1620q-102 0 -175 67.5t-73 160.5t73 160.5t175 67.5q101 0 172.5 -67t71.5 -161t-71.5 -161t-172.5 -67zM620 1536v-1536h-460v1536h460z" />
    <glyph glyph-name="j" unicode="j" horiz-adv-x="948" 
d="M564 1620q-102 0 -175 67.5t-73 160.5t73 160.5t175 67.5q101 0 172.5 -67t71.5 -161t-71.5 -161t-172.5 -67zM332 1536h460v-1584q0 -136 -45.5 -239.5t-128 -166.5t-190.5 -94.5t-240 -31.5h-168v360h96q65 0 109 13.5t66.5 39.5t31.5 56t9 71v1576z" />
    <glyph glyph-name="k" unicode="k" horiz-adv-x="1588" 
d="M1092 0l-376 586l-112 -128v-458h-460v2048h460v-1020h20l408 508h532l-551 -655l575 -881h-496z" />
    <glyph glyph-name="l" unicode="l" horiz-adv-x="748" 
d="M604 2048v-2048h-460v2048h460z" />
    <glyph glyph-name="m" unicode="m" horiz-adv-x="2440" 
d="M1444 952v-952h-444v960q0 117 -57.5 174.5t-150.5 57.5q-85 0 -136.5 -54t-51.5 -170v-968h-460v1536h448v-164h12q150 184 400 184q276 0 376 -212h16q66 97 178 154.5t254 57.5q102 0 183.5 -31.5t147 -99t101.5 -186t36 -279.5v-960h-460v960q0 232 -192 232
q-200 0 -200 -240z" />
    <glyph glyph-name="n" unicode="n" horiz-adv-x="1656" 
d="M604 816v-816h-460v1536h424v-164h16q67 86 174.5 135t237.5 49q81 0 153.5 -19t140 -63.5t116 -111.5t77.5 -170t29 -232v-960h-460v944q0 119 -61.5 183.5t-158.5 64.5q-228 0 -228 -376z" />
    <glyph glyph-name="o" unicode="o" horiz-adv-x="1640" 
d="M820 -28q-222 0 -387 102.5t-251 282t-86 411.5t86 409.5t251 278t387 100.5t387 -100.5t251 -278t86 -409.5t-86 -411.5t-251 -282t-387 -102.5zM820 340q288 0 288 428q0 424 -288 424t-288 -424q0 -428 288 -428z" />
    <glyph glyph-name="p" unicode="p" horiz-adv-x="1652" 
d="M144 -576v2112h456v-164h20q39 86 131 135t213 49q118 0 223 -49t188 -143t132 -248t49 -348q0 -191 -46.5 -344t-128 -249.5t-188 -147.5t-229.5 -51q-122 0 -214 47t-130 133h-16v-732h-460zM1124 768q0 203 -75.5 313.5t-220.5 110.5q-276 0 -276 -424
q0 -428 276 -428q145 0 220.5 112t75.5 316z" />
    <glyph glyph-name="q" unicode="q" horiz-adv-x="1652" 
d="M1508 1536v-2112h-460v732h-16q-38 -86 -130 -133t-214 -47q-123 0 -229.5 51t-188 147.5t-128 249.5t-46.5 344q0 194 49 348t132 248t188 143t223 49q121 0 213 -49t131 -135h20v164h456zM528 768q0 -204 75.5 -316t220.5 -112q276 0 276 428q0 424 -276 424
q-145 0 -220.5 -110.5t-75.5 -313.5z" />
    <glyph glyph-name="r" unicode="r" horiz-adv-x="1196" 
d="M1164 1508l-140 -392q-18 11 -62.5 21.5t-85.5 10.5q-114 0 -193 -81t-79 -195v-872h-460v1536h448v-196h24q31 111 124 163.5t208 52.5q60 0 120 -13.5t96 -34.5z" />
    <glyph glyph-name="s" unicode="s" horiz-adv-x="1552" 
d="M1444 1084l-420 -24q-11 81 -79 122.5t-157 41.5q-83 0 -145.5 -36t-62.5 -96q0 -54 45.5 -81.5t122.5 -42.5l312 -64q89 -18 158 -45.5t131.5 -75t96.5 -123t34 -176.5q0 -104 -38 -189.5t-104.5 -144.5t-158 -100t-197 -59.5t-222.5 -18.5q-296 0 -468.5 125
t-211.5 375l444 24q20 -98 94 -147t170 -49q89 0 154.5 35.5t65.5 88.5q0 18 -3 32.5t-11 26.5t-14 20.5t-21 16.5t-21.5 12t-26 9.5t-24.5 7t-27 6.5t-24 5l-276 60q-436 98 -436 440q0 234 186 365t502 131q576 0 632 -472z" />
    <glyph glyph-name="t" unicode="t" horiz-adv-x="1048" 
d="M940 1536v-320h-240v-732q0 -80 33 -106t99 -26q54 0 96 12l68 -340q-32 -14 -117 -29t-195 -15q-190 0 -317 124t-127 324v788h-172v320h172v328h460v-328h240z" />
    <glyph glyph-name="u" unicode="u" horiz-adv-x="1656" 
d="M1052 720v816h460v-1536h-424v164h-16q-67 -86 -174.5 -135t-237.5 -49q-81 0 -153.5 19t-140 63.5t-116 111.5t-77.5 170t-29 232v960h460v-944q0 -119 61.5 -183.5t158.5 -64.5q228 0 228 376z" />
    <glyph glyph-name="v" unicode="v" horiz-adv-x="1668" 
d="M1612 1536l-564 -1536h-432l-560 1536h472l300 -956h16l296 956h472z" />
    <glyph glyph-name="w" unicode="w" horiz-adv-x="2204" 
d="M2108 1536l-376 -1536h-372l-248 852h-24l-244 -852h-372l-376 1536h440l152 -920h20l236 920h312l236 -912h20l156 912h440z" />
    <glyph glyph-name="x" unicode="x" horiz-adv-x="1568" 
d="M564 1536l220 -440l228 440h464l-404 -768l420 -768h-464l-244 436l-240 -436h-468l420 768l-400 768h468z" />
    <glyph glyph-name="y" unicode="y" horiz-adv-x="1668" 
d="M592 -24l17 47l-553 1513h472l299 -912h16l297 912h472l-644 -1756q-19 -51 -45.5 -98.5t-73 -100.5t-103.5 -91.5t-140 -64t-178 -25.5q-113 0 -232 44l100 352q37 -11 67.5 -16.5t55 -3t43 7.5t35 20t28 28.5t24.5 40t21 47t22 56.5z" />
    <glyph glyph-name="z" unicode="z" horiz-adv-x="1544" 
d="M1400 360v-360h-1256v260l672 916h-644v360h1212v-260l-672 -916h688z" />
    <glyph glyph-name="braceleft" unicode="{" horiz-adv-x="1072" 
d="M940 -252l-84 -244q-110 32 -195 81t-140.5 108t-91 133.5t-50.5 152.5t-15 169v276q0 128 -56.5 200t-175.5 72v312q232 0 232 268v280q0 504 492 640l84 -240q-54 -20 -91.5 -58.5t-58 -92.5t-29.5 -114t-9 -135v-280q0 -141 -63.5 -251t-192.5 -173
q129 -63 192.5 -174.5t63.5 -253.5v-276q0 -75 9 -135t29.5 -114t58 -92.5t91.5 -58.5z" />
    <glyph glyph-name="bar" unicode="|" horiz-adv-x="952" 
d="M680 2048v-2432h-408v2432h408z" />
    <glyph glyph-name="braceright" unicode="}" horiz-adv-x="1072" 
d="M100 -252q54 20 91.5 58.5t58 92.5t29.5 114t9 135v276q0 142 63.5 253.5t192.5 174.5q-129 63 -192.5 173t-63.5 251v280q0 75 -9 135t-29.5 114t-58 92.5t-91.5 58.5l84 240q492 -136 492 -640v-280q0 -268 232 -268v-312q-119 0 -175.5 -72t-56.5 -200v-276
q0 -91 -15 -169t-50.5 -152.5t-91 -133.5t-140.5 -108t-195 -81z" />
    <glyph glyph-name="asciitilde" unicode="~" horiz-adv-x="1824" 
d="M1352 1100h320q0 -277 -123 -436.5t-329 -159.5q-198 0 -380 176q-57 57 -98.5 80.5t-93.5 23.5q-87 0 -131.5 -59t-44.5 -161h-320q0 280 129.5 434t330.5 154q202 0 372 -176q61 -61 102 -86.5t94 -25.5q81 0 126.5 58.5t45.5 177.5z" />
    <glyph glyph-name="nbspace" unicode="&#xa0;" horiz-adv-x="768" 
 />
    <glyph glyph-name="exclamdown" unicode="&#xa1;" horiz-adv-x="800" 
d="M400 1556q110 0 179 -66t69 -166t-69 -166t-179 -66q-109 0 -176.5 65.5t-67.5 166.5t67.5 166.5t176.5 65.5zM640 -516h-472l56 1412h360z" />
    <glyph glyph-name="cent" unicode="&#xa2;" horiz-adv-x="1588" 
d="M1500 1032l-420 -80q-29 118 -90 179t-170 61q-288 0 -288 -424q0 -428 288 -428q192 0 252 208l424 -76q-47 -195 -187 -324t-345 -164v-320h-276v318q-276 44 -434 257t-158 529q0 208 70 373.5t204 271t318 133.5v266h276v-268q213 -35 354 -170t182 -342z" />
    <glyph glyph-name="sterling" unicode="&#xa3;" horiz-adv-x="1824" 
d="M1276 820h-411l7 -192q6 -151 -74 -244h850v-384h-1468v384h140q55 14 73 70t15 146l-7 220h-225v360h213l-9 296q-6 186 72.5 323t220.5 207t331 70q307 0 475.5 -159.5t168.5 -428.5h-436q0 216 -200 216q-81 0 -126.5 -57t-45.5 -171l11 -296h425v-360z" />
    <glyph glyph-name="currency" unicode="&#xa4;" horiz-adv-x="2080" 
d="M220 836q0 280 150 501l-198 203l192 200l199 -201q213 157 477 157t478 -160l198 204l196 -200l-203 -206q147 -222 147 -498q0 -263 -135 -481l191 -191l-196 -200l-179 184q-219 -176 -497 -176q-279 0 -497 174l-179 -182l-192 200l186 188q-138 217 -138 484z
M476 836q0 -165 74.5 -302t204 -215.5t285.5 -78.5q152 0 280.5 78t204 215.5t75.5 302.5q0 167 -75.5 304t-204 214.5t-280.5 77.5q-156 0 -285.5 -77.5t-204 -214.5t-74.5 -304z" />
    <glyph glyph-name="yen" unicode="&#xa5;" horiz-adv-x="1564" 
d="M1384 668v-260h-380v-408h-460v408h-416v260h416v136h-416v260h333l-425 984h472l274 -729l274 729h472l-428 -984h284v-260h-380v-136h380z" />
    <glyph glyph-name="brokenbar" unicode="&#xa6;" horiz-adv-x="952" 
d="M680 2048v-956h-408v956h408zM272 576h408v-960h-408v960z" />
    <glyph glyph-name="section" unicode="&#xa7;" horiz-adv-x="1616" 
d="M1376 1536h-400q0 69 -47.5 112.5t-136.5 43.5q-73 0 -124.5 -31t-51.5 -97q0 -62 54 -109.5t122 -74.5l368 -168q31 -14 52.5 -25t59.5 -35t65 -48t57.5 -62t48.5 -79t27 -97t2 -118q-7 -61 -33.5 -109.5t-64.5 -79t-70.5 -47.5t-67.5 -28l-4 -4q172 -154 172 -380
q0 -157 -76.5 -274t-210 -177.5t-305.5 -60.5q-278 0 -449 151.5t-171 404.5h400q0 -86 62 -132t162 -40q75 3 129.5 35t54.5 93q0 103 -172 184l-368 164q-30 14 -52.5 25.5t-60 35.5t-65 49t-57.5 63t-48 79.5t-27 97.5t-2 118q6 61 31.5 109.5t63.5 79t71.5 47.5t69.5 28
v4q-168 168 -168 380q0 223 161 367.5t415 144.5q259 0 421.5 -152t162.5 -388zM1100 720q19 93 -148 168l-308 136q-44 21 -81.5 -3.5t-46.5 -76.5q-19 -96 148 -168l312 -136q42 -18 78.5 5.5t45.5 74.5z" />
    <glyph glyph-name="dieresis" unicode="&#xa8;" horiz-adv-x="1312" 
d="M372 1712q-86 0 -141 52t-55 128q0 79 55 131.5t141 52.5q83 0 137.5 -52.5t54.5 -131.5q0 -76 -54.5 -128t-137.5 -52zM944 1712q-86 0 -141 52t-55 128q0 79 55 131.5t141 52.5q83 0 137.5 -52.5t54.5 -131.5q0 -76 -54.5 -128t-137.5 -52z" />
    <glyph glyph-name="copyright" unicode="&#xa9;" horiz-adv-x="2336" 
d="M192 1004q0 213 77.5 404.5t209 327.5t311.5 216t378 80q160 0 308.5 -50.5t268.5 -144.5t210.5 -220t139.5 -284t49 -329q0 -215 -77 -407t-208 -328.5t-311 -216.5t-380 -80q-198 0 -378 80t-311.5 216.5t-209 328.5t-77.5 407zM360 1004q0 -179 64 -339.5t173 -274
t258 -180t313 -66.5q166 0 315 66.5t257.5 180t172 273.5t63.5 340q0 143 -40.5 274.5t-115 236.5t-174 183t-223 120t-255.5 42q-164 0 -313 -66.5t-258 -179.5t-173 -272.5t-64 -337.5zM1396 820h216q0 -212 -123 -322t-341 -110t-349 147t-131 385v164q0 238 131 385
t349 147t341 -110t123 -322h-216q0 130 -61.5 189t-186.5 59q-128 0 -196 -95t-68 -253v-164q0 -158 68 -253t196 -95q126 0 187 58t61 190z" />
    <glyph glyph-name="ordfeminine" unicode="&#xaa;" horiz-adv-x="1312" 
d="M856 968q-16 54 -22 96q-103 -112 -278 -112q-162 0 -251 84t-89 228q0 155 117 235.5t351 80.5h140v72q0 85 -40 130.5t-120 45.5q-90 0 -139 -35t-49 -101l-240 16q0 143 117.5 233.5t310.5 90.5q185 0 292.5 -97.5t107.5 -282.5v-432q0 -149 36 -252h-244zM616 1148
q53 0 111.5 25.5t96.5 62.5v184h-140q-113 0 -170.5 -43.5t-57.5 -108.5q0 -56 39.5 -88t120.5 -32z" />
    <glyph glyph-name="guillemotleft" unicode="&#xab;" horiz-adv-x="1568" 
d="M872 160h-276l-376 536v28l376 536h276l-324 -550zM1428 160h-276l-376 536v28l376 536h276l-324 -550z" />
    <glyph glyph-name="logicalnot" unicode="&#xac;" horiz-adv-x="1568" 
d="M1360 1108v-592h-276v356h-872v236h1148z" />
    <glyph glyph-name="softhyphen" unicode="&#xad;" horiz-adv-x="1312" 
d="M1168 1028v-328h-1024v328h1024z" />
    <glyph glyph-name="registered" unicode="&#xae;" horiz-adv-x="2336" 
d="M192 1004q0 213 77.5 404.5t209 327.5t311.5 216t378 80q160 0 308.5 -50.5t268.5 -144.5t210.5 -220t139.5 -284t49 -329q0 -215 -77 -407t-208 -328.5t-311 -216.5t-380 -80q-198 0 -378 80t-311.5 216.5t-209 328.5t-77.5 407zM360 1004q0 -179 64 -339.5t173 -274
t258 -180t313 -66.5q166 0 315 66.5t257.5 180t172 273.5t63.5 340q0 143 -40.5 274.5t-115 236.5t-174 183t-223 120t-255.5 42q-164 0 -313 -66.5t-258 -179.5t-173 -272.5t-64 -337.5zM1188 900h-216v-464h-208v1168h384q210 0 329 -94.5t119 -269.5q0 -150 -149 -233
q145 -80 145 -299v-76q0 -110 24 -176v-20h-212q-20 44 -20 196v76q0 99 -45 145.5t-151 46.5zM972 1420v-336h176q103 0 173.5 41.5t70.5 118.5q0 99 -54 137.5t-190 38.5h-176z" />
    <glyph glyph-name="macron" unicode="&#xaf;" horiz-adv-x="1568" 
d="M1260 2004v-236h-952v236h952z" />
    <glyph glyph-name="degree" unicode="&#xb0;" horiz-adv-x="1056" 
d="M532 1228q-113 0 -210.5 55t-155.5 151t-58 210t58 213t156 157t210 58q170 0 291 -126.5t121 -301.5q0 -174 -120.5 -295t-291.5 -121zM532 1472q70 0 119 49t49 123t-49 125t-119 51t-121 -51t-51 -125q0 -71 51 -121.5t121 -50.5z" />
    <glyph glyph-name="plusminus" unicode="&#xb1;" horiz-adv-x="1568" 
d="M1424 1280v-352h-464v-416h-352v416h-468v352h468v464h352v-464h464zM1420 352v-352h-1272v352h1272z" />
    <glyph glyph-name="twosuperior" unicode="&#xb2;" horiz-adv-x="1312" 
d="M1224 1156v-240h-860v204l392 348q66 55 103 113.5t37 90.5q0 49 -30.5 76.5t-89.5 27.5q-65 0 -100.5 -41t-35.5 -99h-300q0 160 116 270t304 110q208 0 322 -88.5t114 -255.5q0 -62 -17 -112.5t-59.5 -101.5t-94.5 -95.5t-141 -110.5l-124 -96h464z" />
    <glyph glyph-name="threesuperior" unicode="&#xb3;" horiz-adv-x="1312" 
d="M524 1372v196h124q70 0 105 29.5t35 82.5q0 39 -32.5 67.5t-103.5 28.5q-54 0 -91 -19t-37 -53h-300q0 102 60 174t153 105t207 33q203 0 323.5 -81t120.5 -231q0 -82 -49.5 -140.5t-134.5 -90.5q204 -54 204 -253q0 -147 -130.5 -233.5t-333.5 -86.5q-64 0 -124.5 11.5
t-118.5 38t-101 65.5t-69.5 99t-26.5 134h304q0 -42 42.5 -73t113.5 -31q73 0 108.5 32.5t35.5 79.5q0 116 -160 116h-124z" />
    <glyph glyph-name="acute" unicode="&#xb4;" horiz-adv-x="1056" 
d="M156 1680l272 432h472l-380 -432h-364z" />
    <glyph glyph-name="mu" unicode="&#xb5;" horiz-adv-x="1664" 
d="M1076 692v844h444v-1536h-416l-6 78q-122 -106 -294 -106q-125 0 -216 76v-620h-444v2108h444v-852q0 -185 57.5 -266.5t174.5 -81.5q256 0 256 356z" />
    <glyph glyph-name="paragraph" unicode="&#xb6;" horiz-adv-x="1312" 
d="M1208 0h-312v716h-112q-162 0 -291 48t-212.5 134.5t-128 204t-44.5 257.5q0 139 44.5 256t128 204t213 135.5t290.5 48.5h424v-2004z" />
    <glyph glyph-name="periodcentered" unicode="&#xb7;" horiz-adv-x="800" 
d="M400 696q-102 0 -175 73.5t-73 178.5q0 102 73 175t175 73t175 -73t73 -175q0 -105 -73 -178.5t-175 -73.5z" />
    <glyph glyph-name="cedilla" unicode="&#xb8;" horiz-adv-x="1056" 
d="M288 16h336l-16 -88q86 -14 145 -71t59 -165q0 -157 -129.5 -248.5t-370.5 -91.5l-12 256q132 0 132 104q0 52 -42.5 73t-145.5 27z" />
    <glyph glyph-name="onesuperior" unicode="&#xb9;" horiz-adv-x="1056" 
d="M800 1996v-1080h-296v732l-248 -48v228l520 168h24z" />
    <glyph glyph-name="ordmasculine" unicode="&#xba;" horiz-adv-x="1312" 
d="M180 1436v104q0 218 129.5 355t346.5 137q219 0 347.5 -136.5t128.5 -355.5v-104q0 -216 -128 -352t-344 -136q-219 0 -349.5 136t-130.5 352zM420 1540v-104q0 -128 62 -206t178 -78q113 0 172.5 78t59.5 206v104q0 129 -60 208.5t-176 79.5q-113 0 -174.5 -80
t-61.5 -208z" />
    <glyph glyph-name="guillemotright" unicode="&#xbb;" horiz-adv-x="1568" 
d="M260 160l319 548l-319 548h272l380 -536v-24l-380 -536h-272zM820 160l319 548l-319 548h272l380 -536v-24l-380 -536h-272z" />
    <glyph glyph-name="onequarter" unicode="&#xbc;" horiz-adv-x="2080" 
d="M676 1992v-1080h-296v732l-248 -48v228l520 168h24zM1568 1728l-976 -1564l-208 108l976 1564zM1948 460v-244h-112v-216h-300v216h-464l-20 200l484 668h300v-624h112zM1336 460h200v263l-20 -31z" />
    <glyph glyph-name="onehalf" unicode="&#xbd;" horiz-adv-x="2336" 
d="M784 2004v-1080h-296v732l-248 -48v228l520 168h24zM1648 1728l-976 -1564l-208 108l976 1564zM2224 240v-240h-860v204l392 348q66 55 103 113.5t37 90.5q0 49 -30.5 76.5t-89.5 27.5q-65 0 -100.5 -41t-35.5 -99h-300q0 160 116 270t304 110q208 0 322 -88.5
t114 -255.5q0 -62 -17 -112.5t-59.5 -101.5t-94.5 -95.5t-141 -110.5l-124 -96h464z" />
    <glyph glyph-name="threequarters" unicode="&#xbe;" horiz-adv-x="2336" 
d="M604 1372v196h124q70 0 105 29.5t35 82.5q0 39 -32.5 67.5t-103.5 28.5q-54 0 -91 -19t-37 -53h-300q0 102 60 174t153 105t207 33q203 0 323.5 -81t120.5 -231q0 -82 -49.5 -140.5t-134.5 -90.5q204 -54 204 -253q0 -147 -130.5 -233.5t-333.5 -86.5q-64 0 -124.5 11.5
t-118.5 38t-101 65.5t-69.5 99t-26.5 134h304q0 -42 42.5 -73t113.5 -31q73 0 108.5 32.5t35.5 79.5q0 116 -160 116h-124zM1904 1728l-976 -1564l-208 108l976 1564zM2296 460v-244h-112v-216h-300v216h-464l-20 200l484 668h300v-624h112zM1684 460h200v263l-20 -31z" />
    <glyph glyph-name="questiondown" unicode="&#xbf;" horiz-adv-x="1568" 
d="M772 1528q110 0 179 -66t69 -166t-69 -166t-179 -66q-107 0 -175.5 66t-68.5 166t68.5 166t175.5 66zM588 876h380q0 -120 -22.5 -219t-58.5 -164t-79.5 -118.5t-87 -95t-79.5 -81t-58.5 -88.5t-22.5 -106q0 -107 47.5 -157.5t144.5 -50.5q82 0 137.5 55.5t58.5 168.5
h444q-1 -150 -51 -264t-137.5 -183t-201 -103t-250.5 -34q-300 0 -468 142t-168 406q0 88 25.5 165t66 134t90 109.5t99.5 104t92 105t69.5 124t29.5 150.5z" />
    <glyph glyph-name="Agrave" unicode="&#xc0;" horiz-adv-x="2168" 
d="M1024 2536l272 -432h-360l-384 432h472zM580 0h-500l756 2048h496l756 -2048h-500l-129 384h-750zM1072 1468l-239 -712h502l-239 712h-24z" />
    <glyph glyph-name="Aacute" unicode="&#xc1;" horiz-adv-x="2168" 
d="M876 2104l272 432h472l-380 -432h-364zM580 0h-500l756 2048h496l756 -2048h-500l-129 384h-750zM1072 1468l-239 -712h502l-239 712h-24z" />
    <glyph glyph-name="Acircumflex" unicode="&#xc2;" horiz-adv-x="2168" 
d="M880 2200h-380v12l440 392h284l436 -392v-12h-376l-200 184zM580 0h-500l756 2048h496l756 -2048h-500l-129 384h-750zM1072 1468l-239 -712h502l-239 712h-24z" />
    <glyph glyph-name="Atilde" unicode="&#xc3;" horiz-adv-x="2168" 
d="M1364 2544l248 -16q0 -153 -90.5 -264.5t-225.5 -111.5q-58 0 -112.5 18t-90 40t-83.5 40t-94 18q-47 0 -77.5 -32t-30.5 -92l-252 12q0 98 40 184t113.5 139t162.5 53q60 0 127.5 -28t132.5 -56t120 -28q48 0 80 32t32 92zM580 0h-500l756 2048h496l756 -2048h-500
l-129 384h-750zM1072 1468l-239 -712h502l-239 712h-24z" />
    <glyph glyph-name="Adieresis" unicode="&#xc4;" horiz-adv-x="2168" 
d="M800 2136q-86 0 -141 52t-55 128q0 79 55 131.5t141 52.5q83 0 137.5 -52.5t54.5 -131.5q0 -76 -54.5 -128t-137.5 -52zM1372 2136q-86 0 -141 52t-55 128q0 79 55 131.5t141 52.5q83 0 137.5 -52.5t54.5 -131.5q0 -76 -54.5 -128t-137.5 -52zM580 0h-500l756 2048h496
l756 -2048h-500l-129 384h-750zM1072 1468l-239 -712h502l-239 712h-24z" />
    <glyph glyph-name="Aring" unicode="&#xc5;" horiz-adv-x="2168" 
d="M780 2376q0 116 87.5 198t220.5 82t220.5 -82t87.5 -198q0 -115 -87 -193.5t-221 -78.5t-221 78.5t-87 193.5zM944 2376q0 -61 39.5 -102.5t104.5 -41.5t104.5 41.5t39.5 102.5t-39.5 102.5t-104.5 41.5t-104.5 -41.5t-39.5 -102.5zM580 0h-500l756 2048h496l756 -2048
h-500l-129 384h-750zM1072 1468l-239 -712h502l-239 712h-24z" />
    <glyph glyph-name="AE" unicode="&#xc6;" horiz-adv-x="2744" 
d="M2616 364v-364h-1232l-16 384h-594l-178 -384h-516l1032 2048h1420v-364h-774l19 -480h643v-360h-629l19 -480h806zM947 756h406l-33 805z" />
    <glyph glyph-name="Ccedilla" unicode="&#xc7;" horiz-adv-x="1984" 
d="M1876 1404l-448 -64q-44 158 -150 239t-254 81q-204 0 -320 -157t-116 -483t115.5 -479t320.5 -153q147 0 249.5 77.5t146.5 230.5l452 -64q-71 -269 -250.5 -436t-430.5 -210l-11 -58q86 -14 145 -71t59 -165q0 -157 -129.5 -248.5t-370.5 -91.5l-12 256q132 0 132 104
q0 52 -42.5 73t-145.5 27l38 175q-163 28 -297.5 111t-231.5 212.5t-151 311t-54 398.5q0 246 68 446t189 333t286.5 205t360.5 72q311 0 540 -176.5t312 -495.5z" />
    <glyph glyph-name="Egrave" unicode="&#xc8;" horiz-adv-x="1656" 
d="M788 2536l272 -432h-360l-384 432h472zM1512 384v-384h-1368v2048h1368v-384h-904v-448h764v-384h-764v-448h904z" />
    <glyph glyph-name="Eacute" unicode="&#xc9;" horiz-adv-x="1656" 
d="M640 2104l272 432h472l-380 -432h-364zM1512 384v-384h-1368v2048h1368v-384h-904v-448h764v-384h-764v-448h904z" />
    <glyph glyph-name="Ecircumflex" unicode="&#xca;" horiz-adv-x="1656" 
d="M644 2200h-380v12l440 392h284l436 -392v-12h-376l-200 184zM1512 384v-384h-1368v2048h1368v-384h-904v-448h764v-384h-764v-448h904z" />
    <glyph glyph-name="Edieresis" unicode="&#xcb;" horiz-adv-x="1656" 
d="M564 2140q-86 0 -141 52t-55 128q0 79 55 131.5t141 52.5q83 0 137.5 -52.5t54.5 -131.5q0 -76 -54.5 -128t-137.5 -52zM1136 2140q-86 0 -141 52t-55 128q0 79 55 131.5t141 52.5q83 0 137.5 -52.5t54.5 -131.5q0 -76 -54.5 -128t-137.5 -52zM1512 384v-384h-1368v2048
h1368v-384h-904v-448h764v-384h-764v-448h904z" />
    <glyph glyph-name="Igrave" unicode="&#xcc;" horiz-adv-x="752" 
d="M316 2536l272 -432h-360l-384 432h472zM608 2048v-2048h-464v2048h464z" />
    <glyph glyph-name="Iacute" unicode="&#xcd;" horiz-adv-x="752" 
d="M168 2104l272 432h472l-380 -432h-364zM608 2048v-2048h-464v2048h464z" />
    <glyph glyph-name="Icircumflex" unicode="&#xce;" horiz-adv-x="752" 
d="M172 2200h-380v12l440 392h284l436 -392v-12h-376l-200 184zM608 2048v-2048h-464v2048h464z" />
    <glyph glyph-name="Idieresis" unicode="&#xcf;" horiz-adv-x="1120" 
d="M276 2136q-86 0 -141 52t-55 128q0 79 55 131.5t141 52.5q83 0 137.5 -52.5t54.5 -131.5q0 -76 -54.5 -128t-137.5 -52zM848 2136q-86 0 -141 52t-55 128q0 79 55 131.5t141 52.5q83 0 137.5 -52.5t54.5 -131.5q0 -76 -54.5 -128t-137.5 -52zM792 2048v-2048h-464v2048
h464z" />
    <glyph glyph-name="Eth" unicode="&#xd0;" horiz-adv-x="1990" 
d="M898 0h-724v876h-80v264h80v908h724q451 0 711.5 -272.5t260.5 -751.5t-260.5 -751.5t-711.5 -272.5zM1086 1140v-264h-448v-476h240q262 0 393 148t131 476t-131.5 476t-396.5 148h-236v-508h448z" />
    <glyph glyph-name="Ntilde" unicode="&#xd1;" horiz-adv-x="1952" 
d="M1328 2544l248 -16q0 -153 -90.5 -264.5t-225.5 -111.5q-58 0 -112.5 18t-90 40t-83.5 40t-94 18q-47 0 -77.5 -32t-30.5 -92l-252 12q0 98 40 184t113.5 139t162.5 53q60 0 127.5 -28t132.5 -56t120 -28q48 0 80 32t32 92zM1808 2048v-2048h-456l-728 1260h-16v-1260
h-464v2048h460l724 -1260h16v1260h464z" />
    <glyph glyph-name="Ograve" unicode="&#xd2;" horiz-adv-x="2040" 
d="M964 2536l272 -432h-360l-384 432h472zM1920 1020q0 -246 -68.5 -446t-189 -331t-284 -201t-354.5 -70q-193 0 -357.5 70t-286.5 201t-191 331t-69 446q0 199 44.5 369t126 295.5t194 214t249 133t290.5 44.5q191 0 354.5 -71t284 -202.5t189 -333t68.5 -449.5z
M1452 1020q0 330 -114 485t-314 155q-97 0 -175 -36t-137 -111t-91.5 -200t-32.5 -293q0 -135 21.5 -242t59.5 -179.5t93 -120t120 -69t142 -21.5q97 0 173.5 34.5t134.5 108t89 197t31 292.5z" />
    <glyph glyph-name="Oacute" unicode="&#xd3;" horiz-adv-x="2040" 
d="M816 2104l272 432h472l-380 -432h-364zM1920 1020q0 -246 -68.5 -446t-189 -331t-284 -201t-354.5 -70q-193 0 -357.5 70t-286.5 201t-191 331t-69 446q0 199 44.5 369t126 295.5t194 214t249 133t290.5 44.5q191 0 354.5 -71t284 -202.5t189 -333t68.5 -449.5z
M1452 1020q0 330 -114 485t-314 155q-97 0 -175 -36t-137 -111t-91.5 -200t-32.5 -293q0 -135 21.5 -242t59.5 -179.5t93 -120t120 -69t142 -21.5q97 0 173.5 34.5t134.5 108t89 197t31 292.5z" />
    <glyph glyph-name="Ocircumflex" unicode="&#xd4;" horiz-adv-x="2040" 
d="M820 2200h-380v12l440 392h284l436 -392v-12h-376l-200 184zM1920 1020q0 -246 -68.5 -446t-189 -331t-284 -201t-354.5 -70q-193 0 -357.5 70t-286.5 201t-191 331t-69 446q0 199 44.5 369t126 295.5t194 214t249 133t290.5 44.5q191 0 354.5 -71t284 -202.5t189 -333
t68.5 -449.5zM1452 1020q0 330 -114 485t-314 155q-97 0 -175 -36t-137 -111t-91.5 -200t-32.5 -293q0 -135 21.5 -242t59.5 -179.5t93 -120t120 -69t142 -21.5q97 0 173.5 34.5t134.5 108t89 197t31 292.5z" />
    <glyph glyph-name="Otilde" unicode="&#xd5;" horiz-adv-x="2040" 
d="M1300 2544l248 -16q0 -153 -90.5 -264.5t-225.5 -111.5q-58 0 -112.5 18t-90 40t-83.5 40t-94 18q-47 0 -77.5 -32t-30.5 -92l-252 12q0 98 40 184t113.5 139t162.5 53q60 0 127.5 -28t132.5 -56t120 -28q48 0 80 32t32 92zM1920 1020q0 -246 -68.5 -446t-189 -331
t-284 -201t-354.5 -70q-193 0 -357.5 70t-286.5 201t-191 331t-69 446q0 199 44.5 369t126 295.5t194 214t249 133t290.5 44.5q191 0 354.5 -71t284 -202.5t189 -333t68.5 -449.5zM1452 1020q0 330 -114 485t-314 155q-97 0 -175 -36t-137 -111t-91.5 -200t-32.5 -293
q0 -135 21.5 -242t59.5 -179.5t93 -120t120 -69t142 -21.5q97 0 173.5 34.5t134.5 108t89 197t31 292.5z" />
    <glyph glyph-name="Odieresis" unicode="&#xd6;" horiz-adv-x="2040" 
d="M736 2136q-86 0 -141 52t-55 128q0 79 55 131.5t141 52.5q83 0 137.5 -52.5t54.5 -131.5q0 -76 -54.5 -128t-137.5 -52zM1308 2136q-86 0 -141 52t-55 128q0 79 55 131.5t141 52.5q83 0 137.5 -52.5t54.5 -131.5q0 -76 -54.5 -128t-137.5 -52zM1920 1020
q0 -246 -68.5 -446t-189 -331t-284 -201t-354.5 -70q-193 0 -357.5 70t-286.5 201t-191 331t-69 446q0 199 44.5 369t126 295.5t194 214t249 133t290.5 44.5q191 0 354.5 -71t284 -202.5t189 -333t68.5 -449.5zM1452 1020q0 330 -114 485t-314 155q-97 0 -175 -36t-137 -111
t-91.5 -200t-32.5 -293q0 -135 21.5 -242t59.5 -179.5t93 -120t120 -69t142 -21.5q97 0 173.5 34.5t134.5 108t89 197t31 292.5z" />
    <glyph glyph-name="multiply" unicode="&#xd7;" horiz-adv-x="1568" 
d="M392 240l-256 252l396 404l-396 404l256 252l392 -400l392 400l256 -252l-396 -404l396 -404l-256 -252l-392 400z" />
    <glyph glyph-name="Oslash" unicode="&#xd8;" horiz-adv-x="2040" 
d="M424 -100l-200 136l147 218q-251 285 -251 766q0 199 44.5 369t126 295.5t194 214t249 133t290.5 44.5q272 0 484 -140l140 208l200 -136l-160 -237q232 -285 232 -751q0 -246 -68.5 -446t-189 -331t-284 -201t-354.5 -70q-261 0 -467 125zM588 1020q0 -218 55 -363
l625 924q-99 79 -244 79q-97 0 -175 -36t-137 -111t-91.5 -200t-32.5 -293zM1452 1020q0 202 -44 337l-612 -906q97 -63 228 -63q97 0 173.5 34.5t134.5 108t89 197t31 292.5z" />
    <glyph glyph-name="Ugrave" unicode="&#xd9;" horiz-adv-x="1952" 
d="M916 2536l272 -432h-360l-384 432h472zM1344 2048h464v-1352q0 -230 -105 -394.5t-290 -247t-433 -82.5q-250 0 -437 82.5t-293 247.5t-106 394v1352h464v-1336q0 -149 102.5 -236.5t269.5 -87.5q166 0 265 87.5t99 236.5v1336z" />
    <glyph glyph-name="Uacute" unicode="&#xda;" horiz-adv-x="1952" 
d="M768 2104l272 432h472l-380 -432h-364zM1344 2048h464v-1352q0 -230 -105 -394.5t-290 -247t-433 -82.5q-250 0 -437 82.5t-293 247.5t-106 394v1352h464v-1336q0 -149 102.5 -236.5t269.5 -87.5q166 0 265 87.5t99 236.5v1336z" />
    <glyph glyph-name="Ucircumflex" unicode="&#xdb;" horiz-adv-x="1952" 
d="M772 2200h-380v12l440 392h284l436 -392v-12h-376l-200 184zM1344 2048h464v-1352q0 -230 -105 -394.5t-290 -247t-433 -82.5q-250 0 -437 82.5t-293 247.5t-106 394v1352h464v-1336q0 -149 102.5 -236.5t269.5 -87.5q166 0 265 87.5t99 236.5v1336z" />
    <glyph glyph-name="Udieresis" unicode="&#xdc;" horiz-adv-x="1952" 
d="M692 2140q-86 0 -141 52t-55 128q0 79 55 131.5t141 52.5q83 0 137.5 -52.5t54.5 -131.5q0 -76 -54.5 -128t-137.5 -52zM1264 2140q-86 0 -141 52t-55 128q0 79 55 131.5t141 52.5q83 0 137.5 -52.5t54.5 -131.5q0 -76 -54.5 -128t-137.5 -52zM1344 2048h464v-1352
q0 -230 -105 -394.5t-290 -247t-433 -82.5q-250 0 -437 82.5t-293 247.5t-106 394v1352h464v-1336q0 -149 102.5 -236.5t269.5 -87.5q166 0 265 87.5t99 236.5v1336z" />
    <glyph glyph-name="Yacute" unicode="&#xdd;" horiz-adv-x="2152" 
d="M868 2104l272 432h472l-380 -432h-364zM568 2048l497 -868h22l497 868h504l-780 -1268v-780h-464v780l-780 1268h504z" />
    <glyph glyph-name="Thorn" unicode="&#xde;" horiz-adv-x="1824" 
d="M144 2048h464v-368h264q181 0 325.5 -47t239.5 -131t145 -200t50 -254t-50 -254t-145 -200t-239.5 -131t-325.5 -47h-264v-416h-464v2048zM872 1324h-264v-552h264q161 0 238.5 77t77.5 195q0 58 -18 107t-54 88.5t-98.5 62t-145.5 22.5z" />
    <glyph glyph-name="germandbls" unicode="&#xdf;" horiz-adv-x="1768" 
d="M588 1440v-1440h-444v1440q0 310 171.5 473t476.5 163q189 0 332.5 -61t225.5 -180.5t82 -282.5q0 -73 -17.5 -138t-38.5 -105t-38.5 -93t-17.5 -104q0 -37 20.5 -71.5t53 -64.5t71.5 -62.5t78 -72t71.5 -84.5t53 -109.5t20.5 -139.5q0 -81 -22.5 -157t-73 -145.5
t-124 -121t-183 -82t-241.5 -30.5q-109 0 -212.5 19.5t-159.5 52.5l104 340q135 -52 268 -52q92 0 148 45t56 127q0 52 -21.5 95t-56 74t-76.5 60t-84 61.5t-76.5 70.5t-56 95t-21.5 128q0 56 14 108t34 91.5t40 77t34 80.5t14 87q0 77 -56 122.5t-144 45.5
q-204 0 -204 -260z" />
    <glyph glyph-name="agrave" unicode="&#xe0;" horiz-adv-x="1552" 
d="M720 2112l272 -432h-360l-384 432h472zM968 0v156h-20q-47 -80 -138.5 -132t-225.5 -52q-100 0 -188 31t-155 87.5t-106 145t-39 196.5q0 211 155 340.5t473 155.5q38 3 62 5.5t57.5 9.5t53 16t33.5 24.5t14 36.5v32q0 64 -48 110t-128 46t-142 -45.5t-74 -118.5l-432 40
q36 216 214 344t454 128q135 0 247.5 -32.5t196 -96t130 -162.5t46.5 -225v-1040h-440zM944 492v196q-29 -29 -160 -48q-134 -15 -189 -62t-55 -134q0 -63 44.5 -101.5t119.5 -38.5q93 0 166.5 54.5t73.5 133.5z" />
    <glyph glyph-name="aacute" unicode="&#xe1;" horiz-adv-x="1552" 
d="M572 1680l272 432h472l-380 -432h-364zM968 0v156h-20q-47 -80 -138.5 -132t-225.5 -52q-100 0 -188 31t-155 87.5t-106 145t-39 196.5q0 211 155 340.5t473 155.5q38 3 62 5.5t57.5 9.5t53 16t33.5 24.5t14 36.5v32q0 64 -48 110t-128 46t-142 -45.5t-74 -118.5l-432 40
q36 216 214 344t454 128q135 0 247.5 -32.5t196 -96t130 -162.5t46.5 -225v-1040h-440zM944 492v196q-29 -29 -160 -48q-134 -15 -189 -62t-55 -134q0 -63 44.5 -101.5t119.5 -38.5q93 0 166.5 54.5t73.5 133.5z" />
    <glyph glyph-name="acircumflex" unicode="&#xe2;" horiz-adv-x="1552" 
d="M576 1776h-380v12l440 392h284l436 -392v-12h-376l-200 184zM968 0v156h-20q-47 -80 -138.5 -132t-225.5 -52q-100 0 -188 31t-155 87.5t-106 145t-39 196.5q0 211 155 340.5t473 155.5q38 3 62 5.5t57.5 9.5t53 16t33.5 24.5t14 36.5v32q0 64 -48 110t-128 46
t-142 -45.5t-74 -118.5l-432 40q36 216 214 344t454 128q135 0 247.5 -32.5t196 -96t130 -162.5t46.5 -225v-1040h-440zM944 492v196q-29 -29 -160 -48q-134 -15 -189 -62t-55 -134q0 -63 44.5 -101.5t119.5 -38.5q93 0 166.5 54.5t73.5 133.5z" />
    <glyph glyph-name="atilde" unicode="&#xe3;" horiz-adv-x="1560" 
d="M1040 2124l248 -16q0 -153 -90.5 -264.5t-225.5 -111.5q-58 0 -112.5 18t-90 40t-83.5 40t-94 18q-47 0 -77.5 -32t-30.5 -92l-252 12q0 98 40 184t113.5 139t162.5 53q60 0 127.5 -28t132.5 -56t120 -28q48 0 80 32t32 92zM968 0v156h-20q-47 -80 -138.5 -132
t-225.5 -52q-100 0 -188 31t-155 87.5t-106 145t-39 196.5q0 211 155 340.5t473 155.5q38 3 62 5.5t57.5 9.5t53 16t33.5 24.5t14 36.5v32q0 64 -48 110t-128 46t-142 -45.5t-74 -118.5l-432 40q36 216 214 344t454 128q135 0 247.5 -32.5t196 -96t130 -162.5t46.5 -225
v-1040h-440zM944 492v196q-29 -29 -160 -48q-134 -15 -189 -62t-55 -134q0 -63 44.5 -101.5t119.5 -38.5q93 0 166.5 54.5t73.5 133.5z" />
    <glyph glyph-name="adieresis" unicode="&#xe4;" horiz-adv-x="1560" 
d="M500 1712q-86 0 -141 52t-55 128q0 79 55 131.5t141 52.5q83 0 137.5 -52.5t54.5 -131.5q0 -76 -54.5 -128t-137.5 -52zM1072 1712q-86 0 -141 52t-55 128q0 79 55 131.5t141 52.5q83 0 137.5 -52.5t54.5 -131.5q0 -76 -54.5 -128t-137.5 -52zM968 0v156h-20
q-47 -80 -138.5 -132t-225.5 -52q-100 0 -188 31t-155 87.5t-106 145t-39 196.5q0 211 155 340.5t473 155.5q38 3 62 5.5t57.5 9.5t53 16t33.5 24.5t14 36.5v32q0 64 -48 110t-128 46t-142 -45.5t-74 -118.5l-432 40q36 216 214 344t454 128q135 0 247.5 -32.5t196 -96
t130 -162.5t46.5 -225v-1040h-440zM944 492v196q-29 -29 -160 -48q-134 -15 -189 -62t-55 -134q0 -63 44.5 -101.5t119.5 -38.5q93 0 166.5 54.5t73.5 133.5z" />
    <glyph glyph-name="aring" unicode="&#xe5;" horiz-adv-x="1552" 
d="M476 1952q0 116 87.5 198t220.5 82t220.5 -82t87.5 -198q0 -115 -87 -193.5t-221 -78.5t-221 78.5t-87 193.5zM640 1952q0 -61 39.5 -102.5t104.5 -41.5t104.5 41.5t39.5 102.5t-39.5 102.5t-104.5 41.5t-104.5 -41.5t-39.5 -102.5zM968 0v156h-20q-47 -80 -138.5 -132
t-225.5 -52q-100 0 -188 31t-155 87.5t-106 145t-39 196.5q0 211 155 340.5t473 155.5q38 3 62 5.5t57.5 9.5t53 16t33.5 24.5t14 36.5v32q0 64 -48 110t-128 46t-142 -45.5t-74 -118.5l-432 40q36 216 214 344t454 128q135 0 247.5 -32.5t196 -96t130 -162.5t46.5 -225
v-1040h-440zM944 492v196q-29 -29 -160 -48q-134 -15 -189 -62t-55 -134q0 -63 44.5 -101.5t119.5 -38.5q93 0 166.5 54.5t73.5 133.5z" />
    <glyph glyph-name="ae" unicode="&#xe6;" horiz-adv-x="2444" 
d="M128 1084q36 216 214 344t454 128q270 0 433 -120q182 120 419 120q321 0 510.5 -192.5t189.5 -531.5v-140l-997 -101q57 -251 305 -251q66 0 115.5 17.5t80.5 49t48.5 62t31.5 71.5l404 -108q-15 -63 -47 -124.5t-89 -123.5t-130.5 -108t-180 -75t-229.5 -29
q-174 0 -295.5 55.5t-209.5 164.5h-15q-12 -31 -44 -65.5t-86.5 -71t-143 -60t-194.5 -23.5q-87 0 -167 15.5t-154 51t-128 87.5t-86.5 131t-32.5 175q0 211 155 340.5t473 155.5q38 3 62 5.5t57.5 9.5t53 16t33.5 24.5t14 36.5v32q0 60 -54.5 100t-133.5 40
q-80 0 -135.5 -45t-76.5 -127zM1644 1192q-124 0 -199.5 -81t-98.5 -230l574 55q0 112 -72.5 184t-203.5 72zM952 492v196q-29 -29 -160 -48q-134 -15 -189 -62t-55 -134q0 -63 44.5 -101.5t119.5 -38.5q93 0 166.5 54.5t73.5 133.5z" />
    <glyph glyph-name="ccedilla" unicode="&#xe7;" horiz-adv-x="1588" 
d="M1500 1032l-420 -80q-29 118 -90 179t-170 61q-288 0 -288 -424q0 -428 288 -428q192 0 252 208l424 -76q-45 -190 -179 -317t-330 -167l-11 -60q86 -14 145 -71t59 -165q0 -157 -129.5 -248.5t-370.5 -91.5l-12 256q132 0 132 104q0 52 -42.5 73t-145.5 27l38 177
q-172 36 -298 144t-191 271t-65 364q0 232 86 409.5t251 278t387 100.5q268 0 450 -141.5t230 -382.5z" />
    <glyph glyph-name="egrave" unicode="&#xe8;" horiz-adv-x="1636" 
d="M744 2112l272 -432h-360l-384 432h472zM852 -28q-352 0 -554 205t-202 567q0 176 49.5 324.5t142 257t234.5 169.5t318 61q321 0 510.5 -192.5t189.5 -531.5v-192h-1005q19 -142 96 -221t217 -79q66 0 115.5 17.5t80.5 49t48.5 62t31.5 71.5l404 -108q-15 -64 -46 -125
t-86.5 -123t-128.5 -108t-180.5 -75t-234.5 -29zM836 1192q-112 0 -184.5 -66.5t-102.5 -189.5h563q0 112 -72.5 184t-203.5 72z" />
    <glyph glyph-name="eacute" unicode="&#xe9;" horiz-adv-x="1636" 
d="M596 1680l272 432h472l-380 -432h-364zM852 -28q-352 0 -554 205t-202 567q0 176 49.5 324.5t142 257t234.5 169.5t318 61q321 0 510.5 -192.5t189.5 -531.5v-192h-1005q19 -142 96 -221t217 -79q66 0 115.5 17.5t80.5 49t48.5 62t31.5 71.5l404 -108q-15 -64 -46 -125
t-86.5 -123t-128.5 -108t-180.5 -75t-234.5 -29zM836 1192q-112 0 -184.5 -66.5t-102.5 -189.5h563q0 112 -72.5 184t-203.5 72z" />
    <glyph glyph-name="ecircumflex" unicode="&#xea;" horiz-adv-x="1636" 
d="M600 1776h-380v12l440 392h284l436 -392v-12h-376l-200 184zM852 -28q-352 0 -554 205t-202 567q0 176 49.5 324.5t142 257t234.5 169.5t318 61q321 0 510.5 -192.5t189.5 -531.5v-192h-1005q19 -142 96 -221t217 -79q66 0 115.5 17.5t80.5 49t48.5 62t31.5 71.5
l404 -108q-15 -64 -46 -125t-86.5 -123t-128.5 -108t-180.5 -75t-234.5 -29zM836 1192q-112 0 -184.5 -66.5t-102.5 -189.5h563q0 112 -72.5 184t-203.5 72z" />
    <glyph glyph-name="edieresis" unicode="&#xeb;" horiz-adv-x="1636" 
d="M536 1712q-86 0 -141 52t-55 128q0 79 55 131.5t141 52.5q83 0 137.5 -52.5t54.5 -131.5q0 -76 -54.5 -128t-137.5 -52zM1108 1712q-86 0 -141 52t-55 128q0 79 55 131.5t141 52.5q83 0 137.5 -52.5t54.5 -131.5q0 -76 -54.5 -128t-137.5 -52zM852 -28q-352 0 -554 205
t-202 567q0 176 49.5 324.5t142 257t234.5 169.5t318 61q321 0 510.5 -192.5t189.5 -531.5v-192h-1005q19 -142 96 -221t217 -79q66 0 115.5 17.5t80.5 49t48.5 62t31.5 71.5l404 -108q-15 -64 -46 -125t-86.5 -123t-128.5 -108t-180.5 -75t-234.5 -29zM836 1192
q-112 0 -184.5 -66.5t-102.5 -189.5h563q0 112 -72.5 184t-203.5 72z" />
    <glyph glyph-name="igrave" unicode="&#xec;" horiz-adv-x="780" 
d="M332 2080l272 -432h-360l-384 432h472zM620 1536v-1536h-460v1536h460z" />
    <glyph glyph-name="iacute" unicode="&#xed;" horiz-adv-x="780" 
d="M184 1648l272 432h472l-380 -432h-364zM620 1536v-1536h-460v1536h460z" />
    <glyph glyph-name="icircumflex" unicode="&#xee;" horiz-adv-x="780" 
d="M188 1744h-380v12l440 392h284l436 -392v-12h-376l-200 184zM620 1536v-1536h-460v1536h460z" />
    <glyph glyph-name="idieresis" unicode="&#xef;" horiz-adv-x="896" 
d="M164 1712q-86 0 -141 52t-55 128q0 79 55 131.5t141 52.5q83 0 137.5 -52.5t54.5 -131.5q0 -76 -54.5 -128t-137.5 -52zM736 1712q-86 0 -141 52t-55 128q0 79 55 131.5t141 52.5q83 0 137.5 -52.5t54.5 -131.5q0 -76 -54.5 -128t-137.5 -52zM684 1536v-1536h-460v1536
h460z" />
    <glyph glyph-name="eth" unicode="&#xf0;" horiz-adv-x="1536" 
d="M768 -32q-202 0 -355.5 94.5t-235 261.5t-81.5 380q0 149 40 277.5t107 216.5t148 145t169 77q60 10 120 9t121 -25t99 -68h20q-95 156 -206 264l-338 -180l-124 228l240 128q-92 61 -184 116l204 284q173 -90 327 -216l249 132l124 -228l-175 -93q186 -207 294.5 -464.5
t108.5 -554.5q0 -368 -182.5 -576t-489.5 -208zM788 324q121 0 188.5 94.5t67.5 289.5t-68 285.5t-188 90.5t-188 -90.5t-68 -285.5t67.5 -289.5t188.5 -94.5z" />
    <glyph glyph-name="ntilde" unicode="&#xf1;" horiz-adv-x="1656" 
d="M1088 2124l248 -16q0 -153 -90.5 -264.5t-225.5 -111.5q-58 0 -112.5 18t-90 40t-83.5 40t-94 18q-47 0 -77.5 -32t-30.5 -92l-252 12q0 98 40 184t113.5 139t162.5 53q60 0 127.5 -28t132.5 -56t120 -28q48 0 80 32t32 92zM604 816v-816h-460v1536h424v-164h16
q67 86 174.5 135t237.5 49q81 0 153.5 -19t140 -63.5t116 -111.5t77.5 -170t29 -232v-960h-460v944q0 119 -61.5 183.5t-158.5 64.5q-228 0 -228 -376z" />
    <glyph glyph-name="ograve" unicode="&#xf2;" horiz-adv-x="1640" 
d="M728 2112l272 -432h-360l-384 432h472zM820 -28q-222 0 -387 102.5t-251 282t-86 411.5t86 409.5t251 278t387 100.5t387 -100.5t251 -278t86 -409.5t-86 -411.5t-251 -282t-387 -102.5zM820 340q288 0 288 428q0 424 -288 424t-288 -424q0 -428 288 -428z" />
    <glyph glyph-name="oacute" unicode="&#xf3;" horiz-adv-x="1640" 
d="M580 1680l272 432h472l-380 -432h-364zM820 -28q-222 0 -387 102.5t-251 282t-86 411.5t86 409.5t251 278t387 100.5t387 -100.5t251 -278t86 -409.5t-86 -411.5t-251 -282t-387 -102.5zM820 340q288 0 288 428q0 424 -288 424t-288 -424q0 -428 288 -428z" />
    <glyph glyph-name="ocircumflex" unicode="&#xf4;" horiz-adv-x="1640" 
d="M584 1776h-380v12l440 392h284l436 -392v-12h-376l-200 184zM820 -28q-222 0 -387 102.5t-251 282t-86 411.5t86 409.5t251 278t387 100.5t387 -100.5t251 -278t86 -409.5t-86 -411.5t-251 -282t-387 -102.5zM820 340q288 0 288 428q0 424 -288 424t-288 -424
q0 -428 288 -428z" />
    <glyph glyph-name="otilde" unicode="&#xf5;" horiz-adv-x="1640" 
d="M1100 2124l248 -16q0 -153 -90.5 -264.5t-225.5 -111.5q-58 0 -112.5 18t-90 40t-83.5 40t-94 18q-47 0 -77.5 -32t-30.5 -92l-252 12q0 98 40 184t113.5 139t162.5 53q60 0 127.5 -28t132.5 -56t120 -28q48 0 80 32t32 92zM820 -28q-222 0 -387 102.5t-251 282
t-86 411.5t86 409.5t251 278t387 100.5t387 -100.5t251 -278t86 -409.5t-86 -411.5t-251 -282t-387 -102.5zM820 340q288 0 288 428q0 424 -288 424t-288 -424q0 -428 288 -428z" />
    <glyph glyph-name="odieresis" unicode="&#xf6;" horiz-adv-x="1640" 
d="M536 1712q-86 0 -141 52t-55 128q0 79 55 131.5t141 52.5q83 0 137.5 -52.5t54.5 -131.5q0 -76 -54.5 -128t-137.5 -52zM1108 1712q-86 0 -141 52t-55 128q0 79 55 131.5t141 52.5q83 0 137.5 -52.5t54.5 -131.5q0 -76 -54.5 -128t-137.5 -52zM820 -28q-222 0 -387 102.5
t-251 282t-86 411.5t86 409.5t251 278t387 100.5t387 -100.5t251 -278t86 -409.5t-86 -411.5t-251 -282t-387 -102.5zM820 340q288 0 288 428q0 424 -288 424t-288 -424q0 -428 288 -428z" />
    <glyph glyph-name="divide" unicode="&#xf7;" horiz-adv-x="1568" 
d="M536 1448q0 100 69 164t179 64t179 -64t69 -164q0 -99 -68.5 -161.5t-179.5 -62.5t-179.5 62.5t-68.5 161.5zM1424 1072v-352h-1280v352h1280zM536 336q0 100 69 164t179 64t179 -64t69 -164q0 -99 -68.5 -161.5t-179.5 -62.5t-179.5 62.5t-68.5 161.5z" />
    <glyph glyph-name="oslash" unicode="&#xf8;" horiz-adv-x="1640" 
d="M380 -100l-200 136l108 160q-192 218 -192 572q0 232 86 409.5t251 278t387 100.5q186 0 337 -73l95 141l200 -136l-102 -151q194 -214 194 -569q0 -232 -86 -411.5t-251 -282t-387 -102.5q-190 0 -340 76zM532 768q0 -103 18 -184l393 583q-55 25 -123 25
q-288 0 -288 -424zM820 340q288 0 288 428q0 103 -18 184l-395 -585q52 -27 125 -27z" />
    <glyph glyph-name="ugrave" unicode="&#xf9;" horiz-adv-x="1656" 
d="M744 2112l272 -432h-360l-384 432h472zM1052 720v816h460v-1536h-424v164h-16q-67 -86 -174.5 -135t-237.5 -49q-81 0 -153.5 19t-140 63.5t-116 111.5t-77.5 170t-29 232v960h460v-944q0 -119 61.5 -183.5t158.5 -64.5q228 0 228 376z" />
    <glyph glyph-name="uacute" unicode="&#xfa;" horiz-adv-x="1656" 
d="M596 1680l272 432h472l-380 -432h-364zM1052 720v816h460v-1536h-424v164h-16q-67 -86 -174.5 -135t-237.5 -49q-81 0 -153.5 19t-140 63.5t-116 111.5t-77.5 170t-29 232v960h460v-944q0 -119 61.5 -183.5t158.5 -64.5q228 0 228 376z" />
    <glyph glyph-name="ucircumflex" unicode="&#xfb;" horiz-adv-x="1656" 
d="M600 1776h-380v12l440 392h284l436 -392v-12h-376l-200 184zM1052 720v816h460v-1536h-424v164h-16q-67 -86 -174.5 -135t-237.5 -49q-81 0 -153.5 19t-140 63.5t-116 111.5t-77.5 170t-29 232v960h460v-944q0 -119 61.5 -183.5t158.5 -64.5q228 0 228 376z" />
    <glyph glyph-name="udieresis" unicode="&#xfc;" horiz-adv-x="1656" 
d="M544 1712q-86 0 -141 52t-55 128q0 79 55 131.5t141 52.5q83 0 137.5 -52.5t54.5 -131.5q0 -76 -54.5 -128t-137.5 -52zM1116 1712q-86 0 -141 52t-55 128q0 79 55 131.5t141 52.5q83 0 137.5 -52.5t54.5 -131.5q0 -76 -54.5 -128t-137.5 -52zM1052 720v816h460v-1536
h-424v164h-16q-67 -86 -174.5 -135t-237.5 -49q-81 0 -153.5 19t-140 63.5t-116 111.5t-77.5 170t-29 232v960h460v-944q0 -119 61.5 -183.5t158.5 -64.5q228 0 228 376z" />
    <glyph glyph-name="yacute" unicode="&#xfd;" horiz-adv-x="1668" 
d="M588 1680l272 432h472l-380 -432h-364zM592 -24l17 47l-553 1513h472l299 -912h16l297 912h472l-644 -1756q-19 -51 -45.5 -98.5t-73 -100.5t-103.5 -91.5t-140 -64t-178 -25.5q-113 0 -232 44l100 352q37 -11 67.5 -16.5t55 -3t43 7.5t35 20t28 28.5t24.5 40t21 47
t22 56.5z" />
    <glyph glyph-name="thorn" unicode="&#xfe;" horiz-adv-x="1652" 
d="M144 2048h460v-676h16q39 86 131 135t213 49q118 0 223 -49t188 -143t132 -248t49 -348q0 -191 -46.5 -344t-128 -249.5t-188 -147.5t-229.5 -51q-122 0 -214 47t-130 133h-16v-732h-460v2624zM1124 768q0 203 -75.5 313.5t-220.5 110.5q-276 0 -276 -424
q0 -428 276 -428q145 0 220.5 112t75.5 316z" />
    <glyph glyph-name="ydieresis" unicode="&#xff;" horiz-adv-x="1568" 
d="M500 1712q-86 0 -141 52t-55 128q0 79 55 131.5t141 52.5q83 0 137.5 -52.5t54.5 -131.5q0 -76 -54.5 -128t-137.5 -52zM1072 1712q-86 0 -141 52t-55 128q0 79 55 131.5t141 52.5q83 0 137.5 -52.5t54.5 -131.5q0 -76 -54.5 -128t-137.5 -52zM592 -24l17 47l-553 1513
h472l299 -912h16l297 912h472l-644 -1756q-19 -51 -45.5 -98.5t-73 -100.5t-103.5 -91.5t-140 -64t-178 -25.5q-113 0 -232 44l100 352q37 -11 67.5 -16.5t55 -3t43 7.5t35 20t28 28.5t24.5 40t21 47t22 56.5z" />
    <glyph glyph-name="Amacron" unicode="&#x100;" horiz-adv-x="2168" 
d="M1560 2420v-236h-952v236h952zM580 0h-500l756 2048h496l756 -2048h-500l-129 384h-750zM1072 1468l-239 -712h502l-239 712h-24z" />
    <glyph glyph-name="amacron" unicode="&#x101;" horiz-adv-x="1552" 
d="M1256 1996v-236h-952v236h952zM968 0v156h-20q-47 -80 -138.5 -132t-225.5 -52q-100 0 -188 31t-155 87.5t-106 145t-39 196.5q0 211 155 340.5t473 155.5q38 3 62 5.5t57.5 9.5t53 16t33.5 24.5t14 36.5v32q0 64 -48 110t-128 46t-142 -45.5t-74 -118.5l-432 40
q36 216 214 344t454 128q135 0 247.5 -32.5t196 -96t130 -162.5t46.5 -225v-1040h-440zM944 492v196q-29 -29 -160 -48q-134 -15 -189 -62t-55 -134q0 -63 44.5 -101.5t119.5 -38.5q93 0 166.5 54.5t73.5 133.5z" />
    <glyph glyph-name="Abreve" unicode="&#x102;" horiz-adv-x="2168" 
d="M1276 2540h308q0 -188 -136 -306t-364 -118q-226 0 -361 118t-135 306h304q0 -76 47 -126t145 -50t145 50t47 126zM580 0h-500l756 2048h496l756 -2048h-500l-129 384h-750zM1072 1468l-239 -712h502l-239 712h-24z" />
    <glyph glyph-name="abreve" unicode="&#x103;" horiz-adv-x="1552" 
d="M972 2116h308q0 -188 -136 -306t-364 -118q-226 0 -361 118t-135 306h304q0 -76 47 -126t145 -50t145 50t47 126zM968 0v156h-20q-47 -80 -138.5 -132t-225.5 -52q-100 0 -188 31t-155 87.5t-106 145t-39 196.5q0 211 155 340.5t473 155.5q38 3 62 5.5t57.5 9.5t53 16
t33.5 24.5t14 36.5v32q0 64 -48 110t-128 46t-142 -45.5t-74 -118.5l-432 40q36 216 214 344t454 128q135 0 247.5 -32.5t196 -96t130 -162.5t46.5 -225v-1040h-440zM944 492v196q-29 -29 -160 -48q-134 -15 -189 -62t-55 -134q0 -63 44.5 -101.5t119.5 -38.5
q93 0 166.5 54.5t73.5 133.5z" />
    <glyph glyph-name="Aogonek" unicode="&#x104;" horiz-adv-x="2168" 
d="M580 0h-500l756 2048h496l756 -2048h-136q-111 -59 -157.5 -107.5t-46.5 -112.5q0 -88 88 -88q22 0 38.5 3.5t35.5 11.5t22 9l52 -228q-103 -60 -228 -60q-144 0 -236 76.5t-92 215.5q0 176 157 290l-126 374h-750zM1072 1468l-239 -712h502l-239 712h-24z" />
    <glyph glyph-name="aogonek" unicode="&#x105;" horiz-adv-x="1552" 
d="M968 0v156h-20q-47 -80 -138.5 -132t-225.5 -52q-100 0 -188 31t-155 87.5t-106 145t-39 196.5q0 211 155 340.5t473 155.5q38 3 62 5.5t57.5 9.5t53 16t33.5 24.5t14 36.5v32q0 64 -48 110t-128 46t-142 -45.5t-74 -118.5l-432 40q36 216 214 344t454 128
q135 0 247.5 -32.5t196 -96t130 -162.5t46.5 -225v-1040h-12q-111 -59 -157.5 -107.5t-46.5 -112.5q0 -88 88 -88q22 0 38.5 3.5t35.5 11.5t22 9l52 -228q-103 -60 -228 -60q-144 0 -236 76.5t-92 215.5q0 168 143 280h-47zM944 492v196q-29 -29 -160 -48q-134 -15 -189 -62
t-55 -134q0 -63 44.5 -101.5t119.5 -38.5q93 0 166.5 54.5t73.5 133.5z" />
    <glyph glyph-name="Cacute" unicode="&#x106;" horiz-adv-x="1984" 
d="M816 2104l272 432h472l-380 -432h-364zM1876 1404l-448 -64q-44 158 -150 239t-254 81q-204 0 -320 -157t-116 -483t115.5 -479t320.5 -153q147 0 249.5 77.5t146.5 230.5l452 -64q-83 -314 -310 -487t-538 -173q-195 0 -360.5 71t-286.5 203t-189 331t-68 443
q0 246 68 446t189 333t286.5 205t360.5 72q311 0 540 -176.5t312 -495.5z" />
    <glyph glyph-name="cacute" unicode="&#x107;" horiz-adv-x="1588" 
d="M608 1680l272 432h472l-380 -432h-364zM1500 1032l-420 -80q-29 118 -90 179t-170 61q-288 0 -288 -424q0 -428 288 -428q192 0 252 208l424 -76q-54 -229 -235.5 -364.5t-440.5 -135.5q-222 0 -387 102.5t-251 282t-86 411.5t86 409.5t251 278t387 100.5
q268 0 450 -141.5t230 -382.5z" />
    <glyph glyph-name="Ccircumflex" unicode="&#x108;" horiz-adv-x="1984" 
d="M820 2200h-380v12l440 392h284l436 -392v-12h-376l-200 184zM1876 1404l-448 -64q-44 158 -150 239t-254 81q-204 0 -320 -157t-116 -483t115.5 -479t320.5 -153q147 0 249.5 77.5t146.5 230.5l452 -64q-83 -314 -310 -487t-538 -173q-195 0 -360.5 71t-286.5 203
t-189 331t-68 443q0 246 68 446t189 333t286.5 205t360.5 72q311 0 540 -176.5t312 -495.5z" />
    <glyph glyph-name="ccircumflex" unicode="&#x109;" horiz-adv-x="1588" 
d="M612 1776h-380v12l440 392h284l436 -392v-12h-376l-200 184zM1500 1032l-420 -80q-29 118 -90 179t-170 61q-288 0 -288 -424q0 -428 288 -428q192 0 252 208l424 -76q-54 -229 -235.5 -364.5t-440.5 -135.5q-222 0 -387 102.5t-251 282t-86 411.5t86 409.5t251 278
t387 100.5q268 0 450 -141.5t230 -382.5z" />
    <glyph glyph-name="Cdotaccent" unicode="&#x10a;" horiz-adv-x="1984" 
d="M804 2352q0 88 61 144t159 56t159 -56t61 -144t-61 -144t-159 -56t-159 56t-61 144zM1876 1404l-448 -64q-44 158 -150 239t-254 81q-204 0 -320 -157t-116 -483t115.5 -479t320.5 -153q147 0 249.5 77.5t146.5 230.5l452 -64q-83 -314 -310 -487t-538 -173
q-195 0 -360.5 71t-286.5 203t-189 331t-68 443q0 246 68 446t189 333t286.5 205t360.5 72q311 0 540 -176.5t312 -495.5z" />
    <glyph glyph-name="cdotaccent" unicode="&#x10b;" horiz-adv-x="1588" 
d="M596 1928q0 88 61 144t159 56t159 -56t61 -144t-61 -144t-159 -56t-159 56t-61 144zM1500 1032l-420 -80q-29 118 -90 179t-170 61q-288 0 -288 -424q0 -428 288 -428q192 0 252 208l424 -76q-54 -229 -235.5 -364.5t-440.5 -135.5q-222 0 -387 102.5t-251 282t-86 411.5
t86 409.5t251 278t387 100.5q268 0 450 -141.5t230 -382.5z" />
    <glyph glyph-name="Ccaron" unicode="&#x10c;" horiz-adv-x="1984" 
d="M820 2536l204 -184l200 184h376v-12l-436 -392h-284l-440 392v12h380zM1876 1404l-448 -64q-44 158 -150 239t-254 81q-204 0 -320 -157t-116 -483t115.5 -479t320.5 -153q147 0 249.5 77.5t146.5 230.5l452 -64q-83 -314 -310 -487t-538 -173q-195 0 -360.5 71
t-286.5 203t-189 331t-68 443q0 246 68 446t189 333t286.5 205t360.5 72q311 0 540 -176.5t312 -495.5z" />
    <glyph glyph-name="ccaron" unicode="&#x10d;" horiz-adv-x="1588" 
d="M612 2112l204 -184l200 184h376v-12l-436 -392h-284l-440 392v12h380zM1500 1032l-420 -80q-29 118 -90 179t-170 61q-288 0 -288 -424q0 -428 288 -428q192 0 252 208l424 -76q-54 -229 -235.5 -364.5t-440.5 -135.5q-222 0 -387 102.5t-251 282t-86 411.5t86 409.5
t251 278t387 100.5q268 0 450 -141.5t230 -382.5z" />
    <glyph glyph-name="Dcaron" unicode="&#x10e;" horiz-adv-x="1960" 
d="M580 2536l204 -184l200 184h376v-12l-436 -392h-284l-440 392v12h380zM868 0h-724v2048h724q451 0 711.5 -272.5t260.5 -751.5t-260.5 -751.5t-711.5 -272.5zM844 1648h-236v-1248h240q262 0 393 148t131 476t-131.5 476t-396.5 148z" />
    <glyph glyph-name="dcaron" unicode="&#x10f;" horiz-adv-x="1802" 
d="M2064 2112v-228q0 -364 -196 -560l-224 112q55 123 70 171q30 103 30 249v256h320zM1508 0h-456v156h-20q-38 -86 -130 -133t-214 -47q-123 0 -229.5 51t-188 147.5t-128 249.5t-46.5 344q0 194 49 348t132 248t188 143t223 49q121 0 213 -49t131 -135h16v676h460v-2048z
M528 768q0 -204 75.5 -316t220.5 -112q276 0 276 428q0 424 -276 424q-145 0 -220.5 -110.5t-75.5 -313.5z" />
    <glyph glyph-name="Dcroat" unicode="&#x110;" horiz-adv-x="1990" 
d="M898 0h-724v876h-80v264h80v908h724q451 0 711.5 -272.5t260.5 -751.5t-260.5 -751.5t-711.5 -272.5zM1086 1140v-264h-448v-476h240q262 0 393 148t131 476t-131.5 476t-396.5 148h-236v-508h448z" />
    <glyph glyph-name="dcroat" unicode="&#x111;" horiz-adv-x="1712" 
d="M1508 0h-456v156h-20q-38 -86 -130 -133t-214 -47q-123 0 -229.5 51t-188 147.5t-128 249.5t-46.5 344q0 194 49 348t132 248t188 143t223 49q121 0 213 -49t131 -135h16v248h-344v264h344v164h460v-164h188v-264h-188v-1620zM528 768q0 -204 75.5 -316t220.5 -112
q276 0 276 428q0 424 -276 424q-145 0 -220.5 -110.5t-75.5 -313.5z" />
    <glyph glyph-name="Emacron" unicode="&#x112;" horiz-adv-x="1656" 
d="M1324 2420v-236h-952v236h952zM1512 384v-384h-1368v2048h1368v-384h-904v-448h764v-384h-764v-448h904z" />
    <glyph glyph-name="emacron" unicode="&#x113;" horiz-adv-x="1636" 
d="M1280 1996v-236h-952v236h952zM852 -28q-352 0 -554 205t-202 567q0 176 49.5 324.5t142 257t234.5 169.5t318 61q321 0 510.5 -192.5t189.5 -531.5v-192h-1005q19 -142 96 -221t217 -79q66 0 115.5 17.5t80.5 49t48.5 62t31.5 71.5l404 -108q-15 -64 -46 -125
t-86.5 -123t-128.5 -108t-180.5 -75t-234.5 -29zM836 1192q-112 0 -184.5 -66.5t-102.5 -189.5h563q0 112 -72.5 184t-203.5 72z" />
    <glyph glyph-name="Ebreve" unicode="&#x114;" horiz-adv-x="1656" 
d="M1040 2540h308q0 -188 -136 -306t-364 -118q-226 0 -361 118t-135 306h304q0 -76 47 -126t145 -50t145 50t47 126zM1512 384v-384h-1368v2048h1368v-384h-904v-448h764v-384h-764v-448h904z" />
    <glyph glyph-name="ebreve" unicode="&#x115;" horiz-adv-x="1636" 
d="M996 2116h308q0 -188 -136 -306t-364 -118q-226 0 -361 118t-135 306h304q0 -76 47 -126t145 -50t145 50t47 126zM852 -28q-352 0 -554 205t-202 567q0 176 49.5 324.5t142 257t234.5 169.5t318 61q321 0 510.5 -192.5t189.5 -531.5v-192h-1005q19 -142 96 -221t217 -79
q66 0 115.5 17.5t80.5 49t48.5 62t31.5 71.5l404 -108q-15 -64 -46 -125t-86.5 -123t-128.5 -108t-180.5 -75t-234.5 -29zM836 1192q-112 0 -184.5 -66.5t-102.5 -189.5h563q0 112 -72.5 184t-203.5 72z" />
    <glyph glyph-name="Edotaccent" unicode="&#x116;" horiz-adv-x="1656" 
d="M628 2352q0 88 61 144t159 56t159 -56t61 -144t-61 -144t-159 -56t-159 56t-61 144zM1512 384v-384h-1368v2048h1368v-384h-904v-448h764v-384h-764v-448h904z" />
    <glyph glyph-name="edotaccent" unicode="&#x117;" horiz-adv-x="1636" 
d="M584 1928q0 88 61 144t159 56t159 -56t61 -144t-61 -144t-159 -56t-159 56t-61 144zM852 -28q-352 0 -554 205t-202 567q0 176 49.5 324.5t142 257t234.5 169.5t318 61q321 0 510.5 -192.5t189.5 -531.5v-192h-1005q19 -142 96 -221t217 -79q66 0 115.5 17.5t80.5 49
t48.5 62t31.5 71.5l404 -108q-15 -64 -46 -125t-86.5 -123t-128.5 -108t-180.5 -75t-234.5 -29zM836 1192q-112 0 -184.5 -66.5t-102.5 -189.5h563q0 112 -72.5 184t-203.5 72z" />
    <glyph glyph-name="Eogonek" unicode="&#x118;" horiz-adv-x="1656" 
d="M1512 384v-384h-220q-111 -59 -157.5 -107.5t-46.5 -112.5q0 -88 88 -88q22 0 38.5 3.5t35.5 11.5t22 9l52 -228q-103 -60 -228 -60q-144 0 -236 76.5t-92 215.5q0 168 143 280h-767v2048h1368v-384h-904v-448h764v-384h-764v-448h904z" />
    <glyph glyph-name="eogonek" unicode="&#x119;" horiz-adv-x="1636" 
d="M1236 -464q-103 -60 -228 -60q-144 0 -236 76.5t-92 215.5q0 120 70 209q-307 29 -480.5 231t-173.5 536q0 176 49.5 324.5t142 257t234.5 169.5t318 61q321 0 510.5 -192.5t189.5 -531.5v-192h-1005q19 -142 96 -221t217 -79q66 0 115.5 17.5t80.5 49t48.5 62t31.5 71.5
l404 -108q-14 -58 -41.5 -113.5t-70.5 -111t-108.5 -103.5t-145.5 -79q-87 -50 -124.5 -94.5t-37.5 -102.5q0 -88 88 -88q22 0 38.5 3.5t35.5 11.5t22 9zM836 1192q-112 0 -184.5 -66.5t-102.5 -189.5h563q0 112 -72.5 184t-203.5 72z" />
    <glyph glyph-name="Ecaron" unicode="&#x11a;" horiz-adv-x="1656" 
d="M644 2536l204 -184l200 184h376v-12l-436 -392h-284l-440 392v12h380zM1512 384v-384h-1368v2048h1368v-384h-904v-448h764v-384h-764v-448h904z" />
    <glyph glyph-name="ecaron" unicode="&#x11b;" horiz-adv-x="1636" 
d="M600 2112l204 -184l200 184h376v-12l-436 -392h-284l-440 392v12h380zM852 -28q-352 0 -554 205t-202 567q0 176 49.5 324.5t142 257t234.5 169.5t318 61q321 0 510.5 -192.5t189.5 -531.5v-192h-1005q19 -142 96 -221t217 -79q66 0 115.5 17.5t80.5 49t48.5 62
t31.5 71.5l404 -108q-15 -64 -46 -125t-86.5 -123t-128.5 -108t-180.5 -75t-234.5 -29zM836 1192q-112 0 -184.5 -66.5t-102.5 -189.5h563q0 112 -72.5 184t-203.5 72z" />
    <glyph glyph-name="Gcircumflex" unicode="&#x11c;" horiz-adv-x="2000" 
d="M820 2200h-380v12l440 392h284l436 -392v-12h-376l-200 184zM1872 1096v-340q0 -173 -67 -321t-181.5 -248.5t-270 -157.5t-329.5 -57q-194 0 -359 70t-286.5 201t-190 330.5t-68.5 446.5q0 248 68 449t188 333t284 203t356 71q197 0 365 -72.5t294 -218t189 -349.5
l-468 -64q-43 146 -144.5 217t-235.5 71q-94 0 -170 -36t-135 -110.5t-91 -200t-32 -293.5q0 -135 21.5 -242t60 -179.5t94 -120.5t120 -69t140.5 -21q170 0 283 99.5t113 268.5h-396v340h848z" />
    <glyph glyph-name="gcircumflex" unicode="&#x11d;" horiz-adv-x="1652" 
d="M572 1776h-380v12l440 392h284l436 -392v-12h-376l-200 184zM1052 1528h456v-1460q0 -208 -94 -357.5t-260.5 -224t-389.5 -74.5q-191 0 -355.5 60t-236.5 132l192 312q176 -132 384 -132q151 0 231.5 73t80.5 235v100h-24q-33 -66 -125.5 -113t-222.5 -47q-94 0 -180 27
t-161.5 86t-131 145t-87.5 211.5t-32 278.5q0 190 49 341t132 244.5t188 142t223 48.5q121 0 213 -49t131 -135h20v156zM528 780q0 -196 78.5 -294t217.5 -98q143 0 209.5 104t66.5 288q0 88 -15 159.5t-46 129.5t-86 90.5t-129 32.5q-144 0 -220 -109.5t-76 -302.5z" />
    <glyph glyph-name="Gbreve" unicode="&#x11e;" horiz-adv-x="2000" 
d="M1216 2540h308q0 -188 -136 -306t-364 -118q-226 0 -361 118t-135 306h304q0 -76 47 -126t145 -50t145 50t47 126zM1872 1096v-340q0 -173 -67 -321t-181.5 -248.5t-270 -157.5t-329.5 -57q-194 0 -359 70t-286.5 201t-190 330.5t-68.5 446.5q0 248 68 449t188 333
t284 203t356 71q197 0 365 -72.5t294 -218t189 -349.5l-468 -64q-43 146 -144.5 217t-235.5 71q-94 0 -170 -36t-135 -110.5t-91 -200t-32 -293.5q0 -135 21.5 -242t60 -179.5t94 -120.5t120 -69t140.5 -21q170 0 283 99.5t113 268.5h-396v340h848z" />
    <glyph glyph-name="gbreve" unicode="&#x11f;" horiz-adv-x="1652" 
d="M968 2116h308q0 -188 -136 -306t-364 -118q-226 0 -361 118t-135 306h304q0 -76 47 -126t145 -50t145 50t47 126zM1052 1528h456v-1460q0 -208 -94 -357.5t-260.5 -224t-389.5 -74.5q-191 0 -355.5 60t-236.5 132l192 312q176 -132 384 -132q151 0 231.5 73t80.5 235v100
h-24q-33 -66 -125.5 -113t-222.5 -47q-94 0 -180 27t-161.5 86t-131 145t-87.5 211.5t-32 278.5q0 190 49 341t132 244.5t188 142t223 48.5q121 0 213 -49t131 -135h20v156zM528 780q0 -196 78.5 -294t217.5 -98q143 0 209.5 104t66.5 288q0 88 -15 159.5t-46 129.5
t-86 90.5t-129 32.5q-144 0 -220 -109.5t-76 -302.5z" />
    <glyph glyph-name="Gdotaccent" unicode="&#x120;" horiz-adv-x="2000" 
d="M804 2352q0 88 61 144t159 56t159 -56t61 -144t-61 -144t-159 -56t-159 56t-61 144zM1872 1096v-340q0 -173 -67 -321t-181.5 -248.5t-270 -157.5t-329.5 -57q-194 0 -359 70t-286.5 201t-190 330.5t-68.5 446.5q0 248 68 449t188 333t284 203t356 71q197 0 365 -72.5
t294 -218t189 -349.5l-468 -64q-43 146 -144.5 217t-235.5 71q-94 0 -170 -36t-135 -110.5t-91 -200t-32 -293.5q0 -135 21.5 -242t60 -179.5t94 -120.5t120 -69t140.5 -21q170 0 283 99.5t113 268.5h-396v340h848z" />
    <glyph glyph-name="gdotaccent" unicode="&#x121;" horiz-adv-x="1652" 
d="M556 1928q0 88 61 144t159 56t159 -56t61 -144t-61 -144t-159 -56t-159 56t-61 144zM1052 1528h456v-1460q0 -208 -94 -357.5t-260.5 -224t-389.5 -74.5q-191 0 -355.5 60t-236.5 132l192 312q176 -132 384 -132q151 0 231.5 73t80.5 235v100h-24q-33 -66 -125.5 -113
t-222.5 -47q-94 0 -180 27t-161.5 86t-131 145t-87.5 211.5t-32 278.5q0 190 49 341t132 244.5t188 142t223 48.5q121 0 213 -49t131 -135h20v156zM528 780q0 -196 78.5 -294t217.5 -98q143 0 209.5 104t66.5 288q0 88 -15 159.5t-46 129.5t-86 90.5t-129 32.5
q-144 0 -220 -109.5t-76 -302.5z" />
    <glyph glyph-name="Gcommaaccent" unicode="&#x122;" horiz-adv-x="2000" 
d="M1872 1096v-340q0 -173 -67 -321t-181.5 -248.5t-270 -157.5t-329.5 -57q-194 0 -359 70t-286.5 201t-190 330.5t-68.5 446.5q0 248 68 449t188 333t284 203t356 71q197 0 365 -72.5t294 -218t189 -349.5l-468 -64q-43 146 -144.5 217t-235.5 71q-94 0 -170 -36
t-135 -110.5t-91 -200t-32 -293.5q0 -135 21.5 -242t60 -179.5t94 -120.5t120 -69t140.5 -21q170 0 283 99.5t113 268.5h-396v340h848zM1188 -116v-228q0 -364 -196 -560l-224 112q55 123 70 171q30 102 30 249v256h320z" />
    <glyph glyph-name="gcommaaccent" unicode="&#x123;" horiz-adv-x="1652" 
d="M612 1736v192q0 154 51.5 275t144.5 181l220 -104q-37 -66 -64.5 -163t-27.5 -205l-4 -176h-320zM1052 1528h456v-1460q0 -208 -94 -357.5t-260.5 -224t-389.5 -74.5q-191 0 -355.5 60t-236.5 132l192 312q176 -132 384 -132q151 0 231.5 73t80.5 235v100h-24
q-33 -66 -125.5 -113t-222.5 -47q-94 0 -180 27t-161.5 86t-131 145t-87.5 211.5t-32 278.5q0 190 49 341t132 244.5t188 142t223 48.5q121 0 213 -49t131 -135h20v156zM528 780q0 -196 78.5 -294t217.5 -98q143 0 209.5 104t66.5 288q0 88 -15 159.5t-46 129.5t-86 90.5
t-129 32.5q-144 0 -220 -109.5t-76 -302.5z" />
    <glyph glyph-name="Hcircumflex" unicode="&#x124;" horiz-adv-x="1952" 
d="M844 2200h-380v12l440 392h284l436 -392v-12h-376l-200 184zM608 2048v-832h736v832h464v-2048h-464v832h-736v-832h-464v2048h464z" />
    <glyph glyph-name="hcircumflex" unicode="&#x125;" horiz-adv-x="1612" 
d="M708 2328h-380v12l440 392h284l436 -392v-12h-376l-200 184zM604 816v-816h-460v2048h444v-676h16q67 88 169 136t227 48q215 0 341.5 -150t126.5 -446v-960h-460v964q0 228 -172 228q-83 0 -136 -51t-74.5 -132t-21.5 -193z" />
    <glyph glyph-name="Hbar" unicode="&#x126;" horiz-adv-x="1952" 
d="M608 2048v-340h736v340h464v-340h152v-248h-152v-1460h-464v832h-736v-832h-464v1460h-152v248h152v340h464zM608 1216h736v244h-736v-244z" />
    <glyph glyph-name="hbar" unicode="&#x127;" horiz-adv-x="1642" 
d="M634 816v-816h-460v1668h-212v264h212v116h444v-116h336v-264h-336v-296h16q67 88 169 136t227 48q215 0 341.5 -150t126.5 -446v-960h-460v964q0 228 -172 228q-83 0 -136 -51t-74.5 -132t-21.5 -193z" />
    <glyph glyph-name="Itilde" unicode="&#x128;" horiz-adv-x="752" 
d="M656 2544l248 -16q0 -153 -90.5 -264.5t-225.5 -111.5q-58 0 -112.5 18t-90 40t-83.5 40t-94 18q-47 0 -77.5 -32t-30.5 -92l-252 12q0 98 40 184t113.5 139t162.5 53q60 0 127.5 -28t132.5 -56t120 -28q48 0 80 32t32 92zM608 2048v-2048h-464v2048h464z" />
    <glyph glyph-name="itilde" unicode="&#x129;" horiz-adv-x="992" 
d="M776 2124l248 -16q0 -153 -90.5 -264.5t-225.5 -111.5q-58 0 -112.5 18t-90 40t-83.5 40t-94 18q-47 0 -77.5 -32t-30.5 -92l-252 12q0 98 40 184t113.5 139t162.5 53q60 0 127.5 -28t132.5 -56t120 -28q48 0 80 32t32 92zM728 1536v-1536h-460v1536h460z" />
    <glyph glyph-name="Imacron" unicode="&#x12a;" horiz-adv-x="752" 
d="M852 2420v-236h-952v236h952zM608 2048v-2048h-464v2048h464z" />
    <glyph glyph-name="imacron" unicode="&#x12b;" horiz-adv-x="780" 
d="M868 1964v-236h-952v236h952zM620 1536v-1536h-460v1536h460z" />
    <glyph glyph-name="Ibreve" unicode="&#x12c;" horiz-adv-x="752" 
d="M568 2540h308q0 -188 -136 -306t-364 -118q-226 0 -361 118t-135 306h304q0 -76 47 -126t145 -50t145 50t47 126zM608 2048v-2048h-464v2048h464z" />
    <glyph glyph-name="ibreve" unicode="&#x12d;" horiz-adv-x="780" 
d="M584 2084h308q0 -188 -136 -306t-364 -118q-226 0 -361 118t-135 306h304q0 -76 47 -126t145 -50t145 50t47 126zM620 1536v-1536h-460v1536h460z" />
    <glyph glyph-name="Iogonek" unicode="&#x12e;" horiz-adv-x="752" 
d="M608 2048v-2048h-96q-111 -59 -157.5 -107.5t-46.5 -112.5q0 -88 88 -88q22 0 38.5 3.5t35.5 11.5t22 9l52 -228q-103 -60 -228 -60q-144 0 -236 76.5t-92 215.5q0 176 156 290v2038h464z" />
    <glyph glyph-name="iogonek" unicode="&#x12f;" horiz-adv-x="780" 
d="M392 1620q-102 0 -175 67.5t-73 160.5t73 160.5t175 67.5q101 0 172.5 -67t71.5 -161t-71.5 -161t-172.5 -67zM620 1536v-1536h-80q-111 -59 -157.5 -107.5t-46.5 -112.5q0 -88 88 -88q22 0 38.5 3.5t35.5 11.5t22 9l52 -228q-103 -60 -228 -60q-144 0 -236 76.5
t-92 215.5q0 168 144 281v1535h460z" />
    <glyph glyph-name="Idotaccent" unicode="&#x130;" horiz-adv-x="752" 
d="M156 2352q0 88 61 144t159 56t159 -56t61 -144t-61 -144t-159 -56t-159 56t-61 144zM608 2048v-2048h-464v2048h464z" />
    <glyph glyph-name="dotlessi" unicode="&#x131;" horiz-adv-x="780" 
d="M620 1536v-1536h-460v1536h460z" />
    <glyph glyph-name="IJ" unicode="&#x132;" horiz-adv-x="2620" 
d="M864 2048v-2048h-464v2048h464zM2016 628v1420h460v-1420q0 -147 -52.5 -270.5t-144 -208t-217 -131t-270.5 -46.5q-151 0 -274.5 38.5t-215.5 115t-143 198.5t-51 280h464q3 -125 61.5 -192.5t158.5 -67.5q105 0 164.5 76t59.5 208z" />
    <glyph glyph-name="ij" unicode="&#x133;" horiz-adv-x="1984" 
d="M648 1620q-102 0 -175 67.5t-73 160.5t73 160.5t175 67.5q101 0 172.5 -67t71.5 -161t-71.5 -161t-172.5 -67zM1600 1620q-102 0 -175 67.5t-73 160.5t73 160.5t175 67.5q101 0 172.5 -67t71.5 -161t-71.5 -161t-172.5 -67zM876 1536v-1536h-460v1536h460zM1368 1536h460
v-1584q0 -136 -45.5 -239.5t-128 -166.5t-190.5 -94.5t-240 -31.5h-168v360h96q65 0 109 13.5t66.5 39.5t31.5 56t9 71v1576z" />
    <glyph glyph-name="Jcircumflex" unicode="&#x134;" horiz-adv-x="1612" 
d="M1024 2200h-380v12l440 392h284l436 -392v-12h-376l-200 184zM1008 628v1420h460v-1420q0 -147 -52.5 -270.5t-144 -208t-217 -131t-270.5 -46.5q-151 0 -274.5 38.5t-215.5 115t-143 198.5t-51 280h464q3 -125 61.5 -192.5t158.5 -67.5q105 0 164.5 76t59.5 208z" />
    <glyph glyph-name="jcircumflex" unicode="&#x135;" horiz-adv-x="948" 
d="M356 1744h-380v12l440 392h284l436 -392v-12h-376l-200 184zM332 1536h460v-1584q0 -136 -45.5 -239.5t-128 -166.5t-190.5 -94.5t-240 -31.5h-168v360h96q65 0 109 13.5t66.5 39.5t31.5 56t9 71v1576z" />
    <glyph glyph-name="Kcommaaccent" unicode="&#x136;" horiz-adv-x="2048" 
d="M1400 0l-553 762l-239 -262v-500h-464v2048h464v-856h28l772 856h608l-873 -948l813 -1100h-556zM1104 -114v-228q0 -364 -196 -560l-224 112q55 123 70 171q30 102 30 249v256h320z" />
    <glyph glyph-name="kcommaaccent" unicode="&#x137;" horiz-adv-x="1588" 
d="M1092 0l-376 586l-112 -128v-458h-460v2048h460v-1020h20l408 508h532l-551 -655l575 -881h-496zM948 -116v-228q0 -364 -196 -560l-224 112q55 123 70 171q30 102 30 249v256h320z" />
    <glyph glyph-name="kgreenlandic" unicode="&#x138;" horiz-adv-x="1824" 
d="M1084 0l-298 520h-170v-520h-444v1488h444v-536h124l332 536h564l-486 -709l502 -779h-568z" />
    <glyph glyph-name="Lacute" unicode="&#x139;" horiz-adv-x="1568" 
d="M164 2104l272 432h472l-380 -432h-364zM1436 384v-384h-1292v2048h464v-1664h828z" />
    <glyph glyph-name="lacute" unicode="&#x13a;" horiz-adv-x="748" 
d="M168 2212l272 432h472l-380 -432h-364zM604 2048v-2048h-460v2048h460z" />
    <glyph glyph-name="Lcommaaccent" unicode="&#x13b;" horiz-adv-x="1568" 
d="M1436 384v-384h-1292v2048h464v-1664h828zM948 -100v-228q0 -364 -196 -560l-224 112q55 123 70 171q30 102 30 249v256h320z" />
    <glyph glyph-name="lcommaaccent" unicode="&#x13c;" horiz-adv-x="748" 
d="M604 2048v-2048h-460v2048h460zM540 -116v-228q0 -364 -196 -560l-224 112q55 123 70 171q30 103 30 249v256h320z" />
    <glyph glyph-name="Lcaron" unicode="&#x13d;" horiz-adv-x="1568" 
d="M1436 384v-384h-1292v2048h464v-1664h828zM1264 2004v-228q0 -364 -196 -560l-224 112q55 123 70 171q30 103 30 249v256h320z" />
    <glyph glyph-name="lcaron" unicode="&#x13e;" horiz-adv-x="898" 
d="M1116 2112v-228q0 -364 -196 -560l-224 112q55 123 70 171q30 103 30 249v256h320zM604 2048v-2048h-460v2048h460z" />
    <glyph glyph-name="Ldot" unicode="&#x13f;" horiz-adv-x="1568" 
d="M1436 384v-384h-1292v2048h464v-1664h828zM788 1156q0 88 61 144t159 56t159 -56t61 -144t-61 -144t-159 -56t-159 56t-61 144z" />
    <glyph glyph-name="ldot" unicode="&#x140;" horiz-adv-x="968" 
d="M604 2048v-2048h-460v2048h460zM728 1060q0 88 61 144t159 56t159 -56t61 -144t-61 -144t-159 -56t-159 56t-61 144z" />
    <glyph glyph-name="L_slash" unicode="&#x141;" horiz-adv-x="1824" 
d="M1608 384v-384h-1292v888l-216 -60v244l216 61v915h464v-785l244 69v-248l-244 -68v-632h828z" />
    <glyph glyph-name="lslash" unicode="&#x142;" horiz-adv-x="748" 
d="M776 1344v-248l-172 -55v-1041h-460v894l-180 -58v248l180 58v906h460v-759z" />
    <glyph glyph-name="Nacute" unicode="&#x143;" horiz-adv-x="1952" 
d="M840 2104l272 432h472l-380 -432h-364zM1808 2048v-2048h-456l-728 1260h-16v-1260h-464v2048h460l724 -1260h16v1260h464z" />
    <glyph glyph-name="nacute" unicode="&#x144;" horiz-adv-x="1656" 
d="M624 1680l272 432h472l-380 -432h-364zM604 816v-816h-460v1536h424v-164h16q67 86 174.5 135t237.5 49q81 0 153.5 -19t140 -63.5t116 -111.5t77.5 -170t29 -232v-960h-460v944q0 119 -61.5 183.5t-158.5 64.5q-228 0 -228 -376z" />
    <glyph glyph-name="Ncommaaccent" unicode="&#x145;" horiz-adv-x="1952" 
d="M1808 2048v-2048h-456l-728 1260h-16v-1260h-464v2048h460l724 -1260h16v1260h464zM1212 -116v-228q0 -364 -196 -560l-224 112q55 123 70 171q30 102 30 249v256h320z" />
    <glyph glyph-name="ncommaaccent" unicode="&#x146;" horiz-adv-x="1656" 
d="M604 816v-816h-460v1536h424v-164h16q67 86 174.5 135t237.5 49q81 0 153.5 -19t140 -63.5t116 -111.5t77.5 -170t29 -232v-960h-460v944q0 119 -61.5 183.5t-158.5 64.5q-228 0 -228 -376zM996 -116v-228q0 -364 -196 -560l-224 112q55 123 70 171q30 102 30 249v256
h320z" />
    <glyph glyph-name="Ncaron" unicode="&#x147;" horiz-adv-x="1952" 
d="M844 2536l204 -184l200 184h376v-12l-436 -392h-284l-440 392v12h380zM1808 2048v-2048h-456l-728 1260h-16v-1260h-464v2048h460l724 -1260h16v1260h464z" />
    <glyph glyph-name="ncaron" unicode="&#x148;" horiz-adv-x="1656" 
d="M628 2112l204 -184l200 184h376v-12l-436 -392h-284l-440 392v12h380zM604 816v-816h-460v1536h424v-164h16q67 86 174.5 135t237.5 49q81 0 153.5 -19t140 -63.5t116 -111.5t77.5 -170t29 -232v-960h-460v944q0 119 -61.5 183.5t-158.5 64.5q-228 0 -228 -376z" />
    <glyph glyph-name="napostrophe" unicode="&#x149;" horiz-adv-x="1656" 
d="M604 816v-816h-460v1468q-43 -83 -108 -148l-224 112q55 123 70 171q30 103 30 249v256h320v-228q0 -197 -57 -344h393v-164h16q67 86 174.5 135t237.5 49q81 0 153.5 -19t140 -63.5t116 -111.5t77.5 -170t29 -232v-960h-460v944q0 119 -61.5 183.5t-158.5 64.5
q-228 0 -228 -376z" />
    <glyph glyph-name="Eng" unicode="&#x14a;" horiz-adv-x="1952" 
d="M1808 2048v-2080q0 -117 -33 -213.5t-90.5 -164t-137.5 -113.5t-173 -67.5t-198 -21.5q-140 0 -212 12v372q16 0 64 -2t64 -2q50 0 93.5 11.5t82.5 36t61.5 71t22.5 109.5v4l-728 1260h-16v-1260h-464v2048h460l724 -1260h16v1260h464z" />
    <glyph glyph-name="eng" unicode="&#x14b;" horiz-adv-x="1656" 
d="M604 816v-816h-460v1536h424v-164h16q67 86 174.5 135t237.5 49q81 0 153.5 -19t140 -63.5t116 -111.5t77.5 -170t29 -232v-980q0 -278 -153 -429t-415 -151q-133 0 -228 20l36 372q80 -16 136 -16q164 0 164 204v964q0 119 -61.5 183.5t-158.5 64.5q-228 0 -228 -376z
" />
    <glyph glyph-name="Omacron" unicode="&#x14c;" horiz-adv-x="2040" 
d="M1500 2420v-236h-952v236h952zM1920 1020q0 -246 -68.5 -446t-189 -331t-284 -201t-354.5 -70q-193 0 -357.5 70t-286.5 201t-191 331t-69 446q0 199 44.5 369t126 295.5t194 214t249 133t290.5 44.5q191 0 354.5 -71t284 -202.5t189 -333t68.5 -449.5zM1452 1020
q0 330 -114 485t-314 155q-97 0 -175 -36t-137 -111t-91.5 -200t-32.5 -293q0 -135 21.5 -242t59.5 -179.5t93 -120t120 -69t142 -21.5q97 0 173.5 34.5t134.5 108t89 197t31 292.5z" />
    <glyph glyph-name="omacron" unicode="&#x14d;" horiz-adv-x="1640" 
d="M1264 1996v-236h-952v236h952zM820 -28q-222 0 -387 102.5t-251 282t-86 411.5t86 409.5t251 278t387 100.5t387 -100.5t251 -278t86 -409.5t-86 -411.5t-251 -282t-387 -102.5zM820 340q288 0 288 428q0 424 -288 424t-288 -424q0 -428 288 -428z" />
    <glyph glyph-name="Obreve" unicode="&#x14e;" horiz-adv-x="2040" 
d="M1216 2540h308q0 -188 -136 -306t-364 -118q-226 0 -361 118t-135 306h304q0 -76 47 -126t145 -50t145 50t47 126zM1920 1020q0 -246 -68.5 -446t-189 -331t-284 -201t-354.5 -70q-193 0 -357.5 70t-286.5 201t-191 331t-69 446q0 199 44.5 369t126 295.5t194 214
t249 133t290.5 44.5q191 0 354.5 -71t284 -202.5t189 -333t68.5 -449.5zM1452 1020q0 330 -114 485t-314 155q-97 0 -175 -36t-137 -111t-91.5 -200t-32.5 -293q0 -135 21.5 -242t59.5 -179.5t93 -120t120 -69t142 -21.5q97 0 173.5 34.5t134.5 108t89 197t31 292.5z" />
    <glyph glyph-name="obreve" unicode="&#x14f;" horiz-adv-x="1640" 
d="M980 2116h308q0 -188 -136 -306t-364 -118q-226 0 -361 118t-135 306h304q0 -76 47 -126t145 -50t145 50t47 126zM820 -28q-222 0 -387 102.5t-251 282t-86 411.5t86 409.5t251 278t387 100.5t387 -100.5t251 -278t86 -409.5t-86 -411.5t-251 -282t-387 -102.5zM820 340
q288 0 288 428q0 424 -288 424t-288 -424q0 -428 288 -428z" />
    <glyph glyph-name="Ohungarumlaut" unicode="&#x150;" horiz-adv-x="2040" 
d="M1100 2124l308 412h372l-364 -412h-316zM580 2124l268 412h372l-324 -412h-316zM1920 1020q0 -246 -68.5 -446t-189 -331t-284 -201t-354.5 -70q-193 0 -357.5 70t-286.5 201t-191 331t-69 446q0 199 44.5 369t126 295.5t194 214t249 133t290.5 44.5q191 0 354.5 -71
t284 -202.5t189 -333t68.5 -449.5zM1452 1020q0 330 -114 485t-314 155q-97 0 -175 -36t-137 -111t-91.5 -200t-32.5 -293q0 -135 21.5 -242t59.5 -179.5t93 -120t120 -69t142 -21.5q97 0 173.5 34.5t134.5 108t89 197t31 292.5z" />
    <glyph glyph-name="ohungarumlaut" unicode="&#x151;" horiz-adv-x="1640" 
d="M864 1700l308 412h372l-364 -412h-316zM344 1700l268 412h372l-324 -412h-316zM820 -28q-222 0 -387 102.5t-251 282t-86 411.5t86 409.5t251 278t387 100.5t387 -100.5t251 -278t86 -409.5t-86 -411.5t-251 -282t-387 -102.5zM820 340q288 0 288 428q0 424 -288 424
t-288 -424q0 -428 288 -428z" />
    <glyph glyph-name="OE" unicode="&#x152;" horiz-adv-x="2848" 
d="M1008 2048h1604v-384h-904v-448h764v-384h-764v-448h904v-384h-1604q-251 0 -446 102.5t-302.5 288.5t-107.5 425v420q0 239 107.5 424t302.5 286.5t446 101.5zM1008 360h236v1328h-236q-197 0 -304.5 -113t-107.5 -339v-420q0 -226 109 -341t303 -115z" />
    <glyph glyph-name="oe" unicode="&#x153;" horiz-adv-x="2648" 
d="M820 -28q-222 0 -387 102.5t-251 282t-86 411.5t86 409.5t251 278t387 100.5q316 0 511 -198q196 198 521 198q321 0 510.5 -192.5t189.5 -531.5v-192h-1005q19 -142 96 -221t217 -79q66 0 115.5 17.5t80.5 49t48.5 62t31.5 71.5l404 -108q-15 -64 -46 -125t-86.5 -123
t-128.5 -108t-180.5 -75t-234.5 -29q-341 0 -542 193q-195 -193 -502 -193zM820 340q288 0 288 428q0 424 -288 424t-288 -424q0 -428 288 -428zM1848 1192q-112 0 -184.5 -66.5t-102.5 -189.5h563q0 112 -72.5 184t-203.5 72z" />
    <glyph glyph-name="Racute" unicode="&#x154;" horiz-adv-x="1796" 
d="M692 2104l272 432h472l-380 -432h-364zM1244 0l-368 752h-268v-752h-464v2048h788q359 0 547.5 -168t188.5 -472q0 -390 -333 -571l417 -837h-508zM608 1664v-532h324q128 0 202 66.5t74 197.5q0 130 -74 199t-202 69h-324z" />
    <glyph glyph-name="racute" unicode="&#x155;" horiz-adv-x="1196" 
d="M412 1680l272 432h472l-380 -432h-364zM1164 1508l-140 -392q-18 11 -62.5 21.5t-85.5 10.5q-114 0 -193 -81t-79 -195v-872h-460v1536h448v-196h24q31 111 124 163.5t208 52.5q60 0 120 -13.5t96 -34.5z" />
    <glyph glyph-name="Rcommaaccent" unicode="&#x156;" horiz-adv-x="1796" 
d="M1244 0l-368 752h-268v-752h-464v2048h788q359 0 547.5 -168t188.5 -472q0 -390 -333 -571l417 -837h-508zM608 1664v-532h324q128 0 202 66.5t74 197.5q0 130 -74 199t-202 69h-324zM1088 -100v-228q0 -364 -196 -560l-224 112q55 123 70 171q30 102 30 249v256h320z
" />
    <glyph glyph-name="rcommaaccent" unicode="&#x157;" horiz-adv-x="1196" 
d="M1164 1508l-140 -392q-18 11 -62.5 21.5t-85.5 10.5q-114 0 -193 -81t-79 -195v-872h-460v1536h448v-196h24q31 111 124 163.5t208 52.5q60 0 120 -13.5t96 -34.5zM540 -116v-228q0 -364 -196 -560l-224 112q55 123 70 171q30 103 30 249v256h320z" />
    <glyph glyph-name="Rcaron" unicode="&#x158;" horiz-adv-x="1796" 
d="M696 2536l204 -184l200 184h376v-12l-436 -392h-284l-440 392v12h380zM1244 0l-368 752h-268v-752h-464v2048h788q359 0 547.5 -168t188.5 -472q0 -390 -333 -571l417 -837h-508zM608 1664v-532h324q128 0 202 66.5t74 197.5q0 130 -74 199t-202 69h-324z" />
    <glyph glyph-name="rcaron" unicode="&#x159;" horiz-adv-x="1196" 
d="M416 2112l204 -184l200 184h376v-12l-436 -392h-284l-440 392v12h380zM1164 1508l-140 -392q-18 11 -62.5 21.5t-85.5 10.5q-114 0 -193 -81t-79 -195v-872h-460v1536h448v-196h24q31 111 124 163.5t208 52.5q60 0 120 -13.5t96 -34.5z" />
    <glyph glyph-name="Sacute" unicode="&#x15a;" horiz-adv-x="1776" 
d="M704 2104l272 432h472l-380 -432h-364zM1208 1440q-6 118 -82 183t-222 65q-136 0 -222 -53t-86 -139q0 -85 108 -147q61 -35 251 -104q15 -5 25 -9l56 -24q152 -54 259 -111t189.5 -132.5t123 -173t40.5 -219.5q0 -190 -97 -328t-266.5 -207t-392.5 -69q-125 0 -241 25
t-220 79.5t-180.5 134t-121.5 196t-45 257.5h448q6 -148 101 -228t259 -80q152 0 230 63.5t78 152.5q0 95 -95.5 166.5t-328.5 145.5l-40 12q-131 40 -236.5 96t-186.5 130t-125 170.5t-44 207.5q0 169 98 301t271 203.5t391 71.5q219 0 387.5 -77.5t262.5 -222.5t94 -336
h-440z" />
    <glyph glyph-name="sacute" unicode="&#x15b;" horiz-adv-x="1552" 
d="M580 1680l272 432h472l-380 -432h-364zM1444 1084l-420 -24q-11 81 -79 122.5t-157 41.5q-83 0 -145.5 -36t-62.5 -96q0 -54 45.5 -81.5t122.5 -42.5l312 -64q89 -18 158 -45.5t131.5 -75t96.5 -123t34 -176.5q0 -104 -38 -189.5t-104.5 -144.5t-158 -100t-197 -59.5
t-222.5 -18.5q-296 0 -468.5 125t-211.5 375l444 24q20 -98 94 -147t170 -49q89 0 154.5 35.5t65.5 88.5q0 18 -3 32.5t-11 26.5t-14 20.5t-21 16.5t-21.5 12t-26 9.5t-24.5 7t-27 6.5t-24 5l-276 60q-436 98 -436 440q0 234 186 365t502 131q576 0 632 -472z" />
    <glyph glyph-name="Scircumflex" unicode="&#x15c;" horiz-adv-x="1776" 
d="M708 2200h-380v12l440 392h284l436 -392v-12h-376l-200 184zM1208 1440q-6 118 -82 183t-222 65q-136 0 -222 -53t-86 -139q0 -85 108 -147q61 -35 251 -104q15 -5 25 -9l56 -24q152 -54 259 -111t189.5 -132.5t123 -173t40.5 -219.5q0 -190 -97 -328t-266.5 -207
t-392.5 -69q-125 0 -241 25t-220 79.5t-180.5 134t-121.5 196t-45 257.5h448q6 -148 101 -228t259 -80q152 0 230 63.5t78 152.5q0 95 -95.5 166.5t-328.5 145.5l-40 12q-131 40 -236.5 96t-186.5 130t-125 170.5t-44 207.5q0 169 98 301t271 203.5t391 71.5
q219 0 387.5 -77.5t262.5 -222.5t94 -336h-440z" />
    <glyph glyph-name="scircumflex" unicode="&#x15d;" horiz-adv-x="1552" 
d="M584 1776h-380v12l440 392h284l436 -392v-12h-376l-200 184zM1444 1084l-420 -24q-11 81 -79 122.5t-157 41.5q-83 0 -145.5 -36t-62.5 -96q0 -54 45.5 -81.5t122.5 -42.5l312 -64q89 -18 158 -45.5t131.5 -75t96.5 -123t34 -176.5q0 -104 -38 -189.5t-104.5 -144.5
t-158 -100t-197 -59.5t-222.5 -18.5q-296 0 -468.5 125t-211.5 375l444 24q20 -98 94 -147t170 -49q89 0 154.5 35.5t65.5 88.5q0 18 -3 32.5t-11 26.5t-14 20.5t-21 16.5t-21.5 12t-26 9.5t-24.5 7t-27 6.5t-24 5l-276 60q-436 98 -436 440q0 234 186 365t502 131
q576 0 632 -472z" />
    <glyph glyph-name="Scedilla" unicode="&#x15e;" horiz-adv-x="1776" 
d="M1208 1440q-6 118 -82 183t-222 65q-136 0 -222 -53t-86 -139q0 -85 108 -147q61 -35 251 -104q15 -5 25 -9l56 -24q152 -54 259 -111t189.5 -132.5t123 -173t40.5 -219.5q0 -243 -153 -396t-416 -194l-11 -58q86 -14 145 -71t59 -165q0 -157 -129.5 -248.5t-370.5 -91.5
l-12 256q132 0 132 104q0 52 -42.5 73t-145.5 27l37 170q-108 14 -203 47.5t-179 90.5t-144.5 133.5t-95.5 181.5t-35 229h448q6 -148 101 -228t259 -80q152 0 230 63.5t78 152.5q0 95 -95.5 166.5t-328.5 145.5l-40 12q-131 40 -236.5 96t-186.5 130t-125 170.5t-44 207.5
q0 169 98 301t271 203.5t391 71.5q219 0 387.5 -77.5t262.5 -222.5t94 -336h-440z" />
    <glyph glyph-name="scedilla" unicode="&#x15f;" horiz-adv-x="1552" 
d="M1444 1084l-420 -24q-11 81 -79 122.5t-157 41.5q-83 0 -145.5 -36t-62.5 -96q0 -54 45.5 -81.5t122.5 -42.5l312 -64q89 -18 158 -45.5t131.5 -75t96.5 -123t34 -176.5q0 -107 -40 -194.5t-111.5 -147.5t-165 -98.5t-206.5 -56.5l-13 -71q86 -14 145 -71t59 -165
q0 -157 -129.5 -248.5t-370.5 -91.5l-12 256q132 0 132 104q0 52 -42.5 73t-145.5 27l39 180q-472 55 -539 492l444 24q20 -98 94 -147t170 -49q89 0 154.5 35.5t65.5 88.5q0 18 -3 32.5t-11 26.5t-14 20.5t-21 16.5t-21.5 12t-26 9.5t-24.5 7t-27 6.5t-24 5l-276 60
q-436 98 -436 440q0 234 186 365t502 131q576 0 632 -472z" />
    <glyph glyph-name="Scaron" unicode="&#x160;" horiz-adv-x="1776" 
d="M708 2536l204 -184l200 184h376v-12l-436 -392h-284l-440 392v12h380zM1208 1440q-6 118 -82 183t-222 65q-136 0 -222 -53t-86 -139q0 -85 108 -147q61 -35 251 -104q15 -5 25 -9l56 -24q152 -54 259 -111t189.5 -132.5t123 -173t40.5 -219.5q0 -190 -97 -328
t-266.5 -207t-392.5 -69q-125 0 -241 25t-220 79.5t-180.5 134t-121.5 196t-45 257.5h448q6 -148 101 -228t259 -80q152 0 230 63.5t78 152.5q0 95 -95.5 166.5t-328.5 145.5l-40 12q-131 40 -236.5 96t-186.5 130t-125 170.5t-44 207.5q0 169 98 301t271 203.5t391 71.5
q219 0 387.5 -77.5t262.5 -222.5t94 -336h-440z" />
    <glyph glyph-name="scaron" unicode="&#x161;" horiz-adv-x="1552" 
d="M584 2112l204 -184l200 184h376v-12l-436 -392h-284l-440 392v12h380zM1444 1084l-420 -24q-11 81 -79 122.5t-157 41.5q-83 0 -145.5 -36t-62.5 -96q0 -54 45.5 -81.5t122.5 -42.5l312 -64q89 -18 158 -45.5t131.5 -75t96.5 -123t34 -176.5q0 -104 -38 -189.5
t-104.5 -144.5t-158 -100t-197 -59.5t-222.5 -18.5q-296 0 -468.5 125t-211.5 375l444 24q20 -98 94 -147t170 -49q89 0 154.5 35.5t65.5 88.5q0 18 -3 32.5t-11 26.5t-14 20.5t-21 16.5t-21.5 12t-26 9.5t-24.5 7t-27 6.5t-24 5l-276 60q-436 98 -436 440q0 234 186 365
t502 131q576 0 632 -472z" />
    <glyph glyph-name="Tcommaaccent" unicode="&#x162;" horiz-adv-x="1820" 
d="M1740 2048v-384h-600v-1664h-74l-10 -56q86 -14 145 -71t59 -165q0 -157 -129.5 -248.5t-370.5 -91.5l-12 256q132 0 132 104q0 52 -42.5 73t-145.5 27l37 172h-49v1664h-600v384h1660z" />
    <glyph glyph-name="tcommaaccent" unicode="&#x163;" horiz-adv-x="1048" 
d="M456 16h44q-119 50 -189.5 157.5t-70.5 254.5v788h-172v320h172v328h460v-328h240v-320h-240v-732q0 -80 33 -106t99 -26q54 0 96 12l68 -340q-70 -29 -210 -40l-10 -56q86 -14 145 -71t59 -165q0 -157 -129.5 -248.5t-370.5 -91.5l-12 256q132 0 132 104q0 52 -42.5 73
t-145.5 27z" />
    <glyph glyph-name="Tcaron" unicode="&#x164;" horiz-adv-x="1820" 
d="M696 2536l204 -184l200 184h376v-12l-436 -392h-284l-440 392v12h380zM1740 2048v-384h-600v-1664h-460v1664h-600v384h1660z" />
    <glyph glyph-name="tcaron" unicode="&#x165;" horiz-adv-x="1088" 
d="M1252 2296v-228q0 -364 -196 -560l-224 112q55 123 70 171q30 103 30 249v256h320zM940 1536v-320h-240v-732q0 -80 33 -106t99 -26q54 0 96 12l68 -340q-32 -14 -117 -29t-195 -15q-190 0 -317 124t-127 324v788h-172v320h172v328h460v-328h240z" />
    <glyph glyph-name="Tbar" unicode="&#x166;" horiz-adv-x="1820" 
d="M1364 1260v-264h-224v-996h-460v996h-308v264h308v404h-600v384h1660v-384h-600v-404h224z" />
    <glyph glyph-name="tbar" unicode="&#x167;" horiz-adv-x="1048" 
d="M980 964v-264h-280v-216q0 -80 33 -106t99 -26q54 0 96 12l68 -340q-32 -14 -117 -29t-195 -15q-190 0 -317 124t-127 324v272h-252v264h252v252h-172v320h172v328h460v-328h240v-320h-240v-252h280z" />
    <glyph glyph-name="Utilde" unicode="&#x168;" horiz-adv-x="1952" 
d="M1256 2544l248 -16q0 -153 -90.5 -264.5t-225.5 -111.5q-58 0 -112.5 18t-90 40t-83.5 40t-94 18q-47 0 -77.5 -32t-30.5 -92l-252 12q0 98 40 184t113.5 139t162.5 53q60 0 127.5 -28t132.5 -56t120 -28q48 0 80 32t32 92zM1344 2048h464v-1352q0 -230 -105 -394.5
t-290 -247t-433 -82.5q-250 0 -437 82.5t-293 247.5t-106 394v1352h464v-1336q0 -149 102.5 -236.5t269.5 -87.5q166 0 265 87.5t99 236.5v1336z" />
    <glyph glyph-name="utilde" unicode="&#x169;" horiz-adv-x="1656" 
d="M1108 2124l248 -16q0 -153 -90.5 -264.5t-225.5 -111.5q-58 0 -112.5 18t-90 40t-83.5 40t-94 18q-47 0 -77.5 -32t-30.5 -92l-252 12q0 98 40 184t113.5 139t162.5 53q60 0 127.5 -28t132.5 -56t120 -28q48 0 80 32t32 92zM1052 720v816h460v-1536h-424v164h-16
q-67 -86 -174.5 -135t-237.5 -49q-81 0 -153.5 19t-140 63.5t-116 111.5t-77.5 170t-29 232v960h460v-944q0 -119 61.5 -183.5t158.5 -64.5q228 0 228 376z" />
    <glyph glyph-name="Umacron" unicode="&#x16a;" horiz-adv-x="1952" 
d="M1452 2420v-236h-952v236h952zM1344 2048h464v-1352q0 -230 -105 -394.5t-290 -247t-433 -82.5q-250 0 -437 82.5t-293 247.5t-106 394v1352h464v-1336q0 -149 102.5 -236.5t269.5 -87.5q166 0 265 87.5t99 236.5v1336z" />
    <glyph glyph-name="umacron" unicode="&#x16b;" horiz-adv-x="1656" 
d="M1280 1996v-236h-952v236h952zM1052 720v816h460v-1536h-424v164h-16q-67 -86 -174.5 -135t-237.5 -49q-81 0 -153.5 19t-140 63.5t-116 111.5t-77.5 170t-29 232v960h460v-944q0 -119 61.5 -183.5t158.5 -64.5q228 0 228 376z" />
    <glyph glyph-name="Ubreve" unicode="&#x16c;" horiz-adv-x="1952" 
d="M1168 2540h308q0 -188 -136 -306t-364 -118q-226 0 -361 118t-135 306h304q0 -76 47 -126t145 -50t145 50t47 126zM1344 2048h464v-1352q0 -230 -105 -394.5t-290 -247t-433 -82.5q-250 0 -437 82.5t-293 247.5t-106 394v1352h464v-1336q0 -149 102.5 -236.5t269.5 -87.5
q166 0 265 87.5t99 236.5v1336z" />
    <glyph glyph-name="ubreve" unicode="&#x16d;" horiz-adv-x="1656" 
d="M996 2116h308q0 -188 -136 -306t-364 -118q-226 0 -361 118t-135 306h304q0 -76 47 -126t145 -50t145 50t47 126zM1052 720v816h460v-1536h-424v164h-16q-67 -86 -174.5 -135t-237.5 -49q-81 0 -153.5 19t-140 63.5t-116 111.5t-77.5 170t-29 232v960h460v-944
q0 -119 61.5 -183.5t158.5 -64.5q228 0 228 376z" />
    <glyph glyph-name="Uring" unicode="&#x16e;" horiz-adv-x="1952" 
d="M672 2376q0 116 87.5 198t220.5 82t220.5 -82t87.5 -198q0 -115 -87 -193.5t-221 -78.5t-221 78.5t-87 193.5zM836 2376q0 -61 39.5 -102.5t104.5 -41.5t104.5 41.5t39.5 102.5t-39.5 102.5t-104.5 41.5t-104.5 -41.5t-39.5 -102.5zM1344 2048h464v-1352
q0 -230 -105 -394.5t-290 -247t-433 -82.5q-250 0 -437 82.5t-293 247.5t-106 394v1352h464v-1336q0 -149 102.5 -236.5t269.5 -87.5q166 0 265 87.5t99 236.5v1336z" />
    <glyph glyph-name="uring" unicode="&#x16f;" horiz-adv-x="1656" 
d="M500 1952q0 116 87.5 198t220.5 82t220.5 -82t87.5 -198q0 -115 -87 -193.5t-221 -78.5t-221 78.5t-87 193.5zM664 1952q0 -61 39.5 -102.5t104.5 -41.5t104.5 41.5t39.5 102.5t-39.5 102.5t-104.5 41.5t-104.5 -41.5t-39.5 -102.5zM1052 720v816h460v-1536h-424v164h-16
q-67 -86 -174.5 -135t-237.5 -49q-81 0 -153.5 19t-140 63.5t-116 111.5t-77.5 170t-29 232v960h460v-944q0 -119 61.5 -183.5t158.5 -64.5q228 0 228 376z" />
    <glyph glyph-name="Uhungarumlaut" unicode="&#x170;" horiz-adv-x="1952" 
d="M1052 2124l308 412h372l-364 -412h-316zM532 2124l268 412h372l-324 -412h-316zM1344 2048h464v-1352q0 -230 -105 -394.5t-290 -247t-433 -82.5q-250 0 -437 82.5t-293 247.5t-106 394v1352h464v-1336q0 -149 102.5 -236.5t269.5 -87.5q166 0 265 87.5t99 236.5v1336z
" />
    <glyph glyph-name="uhungarumlaut" unicode="&#x171;" horiz-adv-x="1656" 
d="M880 1700l308 412h372l-364 -412h-316zM360 1700l268 412h372l-324 -412h-316zM1052 720v816h460v-1536h-424v164h-16q-67 -86 -174.5 -135t-237.5 -49q-81 0 -153.5 19t-140 63.5t-116 111.5t-77.5 170t-29 232v960h460v-944q0 -119 61.5 -183.5t158.5 -64.5
q228 0 228 376z" />
    <glyph glyph-name="Uogonek" unicode="&#x172;" horiz-adv-x="1952" 
d="M1344 2048h464v-1352q0 -274 -145 -451.5t-402 -240.5q-53 -53 -53 -120q0 -88 88 -88q22 0 38.5 3.5t35.5 11.5t22 9l52 -228q-103 -60 -228 -60q-144 0 -236 76.5t-92 215.5q0 82 32 149q-233 10 -406.5 95.5t-271.5 246.5t-98 381v1352h464v-1336q0 -149 102.5 -236.5
t269.5 -87.5q166 0 265 87.5t99 236.5v1336z" />
    <glyph glyph-name="uogonek" unicode="&#x173;" horiz-adv-x="1656" 
d="M1052 720v816h460v-1536h-100q-111 -59 -157.5 -107.5t-46.5 -112.5q0 -88 88 -88q22 0 38.5 3.5t35.5 11.5t22 9l52 -228q-103 -60 -228 -60q-144 0 -236 76.5t-92 215.5q0 196 200 319v125h-16q-67 -86 -174.5 -135t-237.5 -49q-81 0 -153.5 19t-140 63.5t-116 111.5
t-77.5 170t-29 232v960h460v-944q0 -119 61.5 -183.5t158.5 -64.5q228 0 228 376z" />
    <glyph glyph-name="Wcircumflex" unicode="&#x174;" horiz-adv-x="2896" 
d="M1244 2200h-380v12l440 392h284l436 -392v-12h-376l-200 184zM528 2048l344 -1376h16l356 1376h408l356 -1380h16l344 1380h420l-520 -2048h-472l-340 1284h-16l-340 -1284h-472l-520 2048h420z" />
    <glyph glyph-name="wcircumflex" unicode="&#x175;" horiz-adv-x="2204" 
d="M896 1776h-380v12l440 392h284l436 -392v-12h-376l-200 184zM2108 1536l-376 -1536h-372l-248 852h-24l-244 -852h-372l-376 1536h440l152 -920h20l236 920h312l236 -912h20l156 912h440z" />
    <glyph glyph-name="Ycircumflex" unicode="&#x176;" horiz-adv-x="2152" 
d="M872 2200h-380v12l440 392h284l436 -392v-12h-376l-200 184zM568 2048l497 -868h22l497 868h504l-780 -1268v-780h-464v780l-780 1268h504z" />
    <glyph glyph-name="ycircumflex" unicode="&#x177;" horiz-adv-x="1668" 
d="M592 1776h-380v12l440 392h284l436 -392v-12h-376l-200 184zM592 -24l17 47l-553 1513h472l299 -912h16l297 912h472l-644 -1756q-19 -51 -45.5 -98.5t-73 -100.5t-103.5 -91.5t-140 -64t-178 -25.5q-113 0 -232 44l100 352q37 -11 67.5 -16.5t55 -3t43 7.5t35 20
t28 28.5t24.5 40t21 47t22 56.5z" />
    <glyph glyph-name="Ydieresis" unicode="&#x178;" horiz-adv-x="2152" 
d="M792 2140q-86 0 -141 52t-55 128q0 79 55 131.5t141 52.5q83 0 137.5 -52.5t54.5 -131.5q0 -76 -54.5 -128t-137.5 -52zM1364 2140q-86 0 -141 52t-55 128q0 79 55 131.5t141 52.5q83 0 137.5 -52.5t54.5 -131.5q0 -76 -54.5 -128t-137.5 -52zM568 2048l497 -868h22
l497 868h504l-780 -1268v-780h-464v780l-780 1268h504z" />
    <glyph glyph-name="Zacute" unicode="&#x179;" horiz-adv-x="1824" 
d="M708 2104l272 432h472l-380 -432h-364zM1688 384v-384h-1552v272l975 1392h-975v384h1552v-272l-975 -1392h975z" />
    <glyph glyph-name="zacute" unicode="&#x17a;" horiz-adv-x="1544" 
d="M556 1680l272 432h472l-380 -432h-364zM1400 360v-360h-1256v260l672 916h-644v360h1212v-260l-672 -916h688z" />
    <glyph glyph-name="Zdotaccent" unicode="&#x17b;" horiz-adv-x="1824" 
d="M696 2352q0 88 61 144t159 56t159 -56t61 -144t-61 -144t-159 -56t-159 56t-61 144zM1688 384v-384h-1552v272l975 1392h-975v384h1552v-272l-975 -1392h975z" />
    <glyph glyph-name="zdotaccent" unicode="&#x17c;" horiz-adv-x="1544" 
d="M544 1928q0 88 61 144t159 56t159 -56t61 -144t-61 -144t-159 -56t-159 56t-61 144zM1400 360v-360h-1256v260l672 916h-644v360h1212v-260l-672 -916h688z" />
    <glyph glyph-name="Zcaron" unicode="&#x17d;" horiz-adv-x="1824" 
d="M712 2536l204 -184l200 184h376v-12l-436 -392h-284l-440 392v12h380zM1688 384v-384h-1552v272l975 1392h-975v384h1552v-272l-975 -1392h975z" />
    <glyph glyph-name="zcaron" unicode="&#x17e;" horiz-adv-x="1544" 
d="M560 2112l204 -184l200 184h376v-12l-436 -392h-284l-440 392v12h380zM1400 360v-360h-1256v260l672 916h-644v360h1212v-260l-672 -916h688z" />
    <glyph glyph-name="longs" unicode="&#x17f;" horiz-adv-x="800" 
d="M444 0h-444v1608q0 259 150.5 395.5t425.5 136.5q91 0 224 -28l-32 -340q-66 12 -136 12q-188 0 -188 -176v-1608z" />
    <glyph glyph-name="bbar" unicode="&#x180;" horiz-adv-x="1824" 
d="M320 2048h460v-124h264v-264h-264v-288h16q39 86 131 135t213 49q118 0 223 -49t188 -143t132 -248t49 -348q0 -191 -46.5 -344t-128 -249.5t-188 -147.5t-229.5 -51q-122 0 -214 47t-130 133h-20v-156h-456v1660h-268v264h268v124zM1300 768q0 203 -75.5 313.5
t-220.5 110.5q-276 0 -276 -424q0 -428 276 -428q145 0 220.5 112t75.5 316z" />
    <glyph glyph-name="Bhook" unicode="&#x181;" horiz-adv-x="2312" 
d="M1512 0h-840v1668h-44q-57 0 -98 -22t-62.5 -60.5t-30.5 -80.5t-9 -93v-128h-412v212q0 257 164.5 404.5t447.5 147.5h812q182 0 323.5 -41t231 -116t135.5 -177t46 -226q0 -355 -360 -429v-15q183 -24 291.5 -157t108.5 -331q0 -254 -184 -405t-520 -151zM1136 1664
v-468h264q167 0 241.5 55t74.5 173q0 240 -288 240h-292zM1760 620q0 113 -66 184.5t-202 71.5h-356v-492h340q284 0 284 236z" />
    <glyph glyph-name="Btopbar" unicode="&#x182;" horiz-adv-x="1788" 
d="M1484 2048v-384h-876v-352h272q359 0 573.5 -177t214.5 -471q0 -296 -215.5 -480t-572.5 -184h-736v2048h1340zM608 372h272q154 0 241 84t87 212q0 121 -87 198.5t-241 77.5h-272v-572z" />
    <glyph glyph-name="btopbar" unicode="&#x183;" horiz-adv-x="1824" 
d="M144 2048h1180v-380h-720v-296h16q39 86 131 135t213 49q118 0 223 -49t188 -143t132 -248t49 -348q0 -191 -46.5 -344t-128 -249.5t-188 -147.5t-229.5 -51q-122 0 -214 47t-130 133h-20v-156h-456v2048zM1124 768q0 203 -75.5 313.5t-220.5 110.5q-276 0 -276 -424
q0 -428 276 -428q145 0 220.5 112t75.5 316z" />
    <glyph glyph-name="Tonesix" unicode="&#x184;" horiz-adv-x="2164" 
d="M32 1664v384h944v-736h272q359 0 573.5 -177t214.5 -471q0 -296 -215.5 -480t-572.5 -184h-736v1664h-480zM976 372h272q154 0 241 84t87 212q0 121 -87 198.5t-241 77.5h-272v-572z" />
    <glyph glyph-name="tonesix" unicode="&#x185;" horiz-adv-x="1824" 
d="M360 2112h68v-64h380v-676h16q39 86 131 135t213 49q118 0 223 -49t188 -143t132 -248t49 -348q0 -191 -46.5 -344t-128 -249.5t-188 -147.5t-229.5 -51q-122 0 -214 47t-130 133h-20v-156h-456v1450l-252 214v220zM1328 768q0 203 -75.5 313.5t-220.5 110.5
q-276 0 -276 -424q0 -428 276 -428q145 0 220.5 112t75.5 316z" />
    <glyph glyph-name="Oopen" unicode="&#x186;" horiz-adv-x="1984" 
d="M108 1404q83 319 312 495.5t540 176.5q195 0 360.5 -72t286.5 -205t189 -333t68 -446q0 -244 -68 -443t-189 -331t-286.5 -203t-360.5 -71q-311 0 -538 173t-310 487l452 64q44 -153 146.5 -230.5t249.5 -77.5q205 0 320.5 153t115.5 479t-116 483t-320 157
q-148 0 -254 -81t-150 -239z" />
    <glyph glyph-name="Chook" unicode="&#x187;" horiz-adv-x="2232" 
d="M1876 1340h-448q-44 158 -150 239t-254 81q-204 0 -320 -157t-116 -483t115.5 -479t320.5 -153q147 0 249.5 77.5t146.5 230.5l452 -64q-83 -314 -310 -487t-538 -173q-195 0 -360.5 71t-286.5 203t-189 331t-68 443q0 246 68 446t189 333t286.5 205t360.5 72
q299 0 521 -162q88 109 226.5 167.5t300.5 58.5q136 0 212 -12v-372q-16 0 -64 2t-64 2q-39 0 -77 -8t-75 -27.5t-65 -49t-45.5 -75.5t-17.5 -104v-156z" />
    <glyph glyph-name="chook" unicode="&#x188;" horiz-adv-x="1756" 
d="M1500 1032l-420 -80q-29 118 -90 179t-170 61q-288 0 -288 -424q0 -428 288 -428q192 0 252 208l424 -76q-54 -229 -235.5 -364.5t-440.5 -135.5q-222 0 -387 102.5t-251 282t-86 411.5t86 409.5t251 278t387 100.5q191 0 342 -74q67 98 179 150t251 52q84 0 180 -24
v-296q-12 1 -33 4.5t-39 5.5t-36 2q-83 0 -123.5 -42t-40.5 -150v-152z" />
    <glyph glyph-name="Dbar1" unicode="&#x189;" horiz-adv-x="2144" 
d="M1052 0h-724v896h-252v264h252v888h724q451 0 711.5 -272.5t260.5 -751.5t-260.5 -751.5t-711.5 -272.5zM1068 1160v-264h-276v-496h240q262 0 393 148t131 476t-131.5 476t-396.5 148h-236v-488h276z" />
    <glyph glyph-name="Dhook" unicode="&#x18a;" horiz-adv-x="2492" 
d="M1400 0h-724v1648h-48q-200 0 -200 -236v-128h-412v212q0 257 164.5 404.5t447.5 147.5h772q451 0 711.5 -272.5t260.5 -751.5t-260.5 -751.5t-711.5 -272.5zM1376 1648h-236v-1248h240q262 0 393 148t131 476t-131.5 476t-396.5 148z" />
    <glyph glyph-name="Dtopbar" unicode="&#x18b;" horiz-adv-x="1824" 
d="M1676 0h-736q-357 0 -572.5 184t-215.5 480q0 294 214.5 471t573.5 177h276v356h-880v380h1340v-2048zM1216 372v572h-276q-157 0 -242.5 -77t-85.5 -199q0 -129 86 -212.5t242 -83.5h276z" />
    <glyph glyph-name="dtopbar" unicode="&#x18c;" horiz-adv-x="1568" 
d="M1516 0h-456v156h-20q-38 -86 -130 -133t-214 -47q-123 0 -229.5 51t-188 147.5t-128 249.5t-46.5 344q0 194 49 348t132 248t188 143t223 49q121 0 213 -49t131 -135h16v296h-756v380h1216v-2048zM536 768q0 -204 75.5 -316t220.5 -112q276 0 276 428q0 424 -276 424
q-145 0 -220.5 -110.5t-75.5 -313.5z" />
    <glyph glyph-name="deltaturn" unicode="&#x18d;" horiz-adv-x="1824" 
d="M1460 -516h-1120v356h548q-17 12 -58 39t-85.5 58.5t-92.5 70.5q-102 83 -179.5 163t-141.5 173.5t-97.5 197.5t-33.5 214v28q0 212 81 376t244 260t387 96q169 0 305.5 -51t225.5 -141.5t137 -214t48 -269.5v-28q0 -140 -41.5 -262.5t-113 -211t-167.5 -147t-206 -79.5
h-48q79 -67 210.5 -197t197.5 -203v-228zM1184 756v28q0 376 -272 376t-272 -376v-28q0 -145 59 -252.5t149 -159.5q20 -8 64 -8q74 0 128 32.5t85 91.5t45 132t14 164z" />
    <glyph glyph-name="Eturn" unicode="&#x18e;" horiz-adv-x="1656" 
d="M112 0v384h904v448h-764v384h764v448h-904v384h1368v-2048h-1368z" />
    <glyph glyph-name="Schwa" unicode="&#x18f;" horiz-adv-x="2080" 
d="M1044 -28q-282 0 -480 116.5t-297 328.5t-99 503v244h1283q-6 100 -36.5 179.5t-91 143t-163 98.5t-240.5 35q-292 0 -548 -76l-68 388q61 28 256.5 64t387.5 36q187 0 343 -44t270 -124.5t193.5 -193.5t118.5 -253t39 -301v-236q0 -197 -67 -367t-182.5 -288.5
t-275.5 -185.5t-343 -67zM1044 380q173 0 276.5 111.5t125.5 292.5h-818v-40q0 -79 23 -143.5t70.5 -115t129.5 -78t193 -27.5z" />
    <glyph glyph-name="Epsilon1" unicode="&#x190;" horiz-adv-x="1824" 
d="M908 1200h248v-356h-248q-157 0 -230.5 -62.5t-73.5 -209.5q0 -118 86 -173t238 -55q137 0 216.5 57.5t79.5 154.5h460q0 -118 -43.5 -216.5t-116.5 -165.5t-171 -113.5t-205 -67.5t-220 -21q-177 0 -319.5 35.5t-248 106.5t-163 184.5t-57.5 261.5q0 171 89 290t254 177
q-145 63 -228 175.5t-83 257.5q0 183 95 313t264 194.5t397 64.5q198 0 362 -67.5t265 -199.5t101 -305h-460q0 99 -71.5 147.5t-196.5 48.5q-149 0 -222.5 -56.5t-73.5 -151.5q0 -122 65.5 -185t210.5 -63z" />
    <glyph glyph-name="Fhook" unicode="&#x191;" horiz-adv-x="1656" 
d="M1372 1216v-384h-764v-912q0 -91 -18 -164.5t-47.5 -124.5t-73.5 -89t-90 -60t-103 -35.5t-106 -18t-106 -4.5q-160 0 -208 8v352q24 -4 84 -4q204 0 204 140v2128h1368v-384h-904v-448h764z" />
    <glyph glyph-name="florin" unicode="&#x192;" horiz-adv-x="1312" 
d="M1136 1488v-320h-292v-1216q0 -267 -137.5 -409.5t-386.5 -142.5q-117 0 -212 20l20 352q56 -16 124 -16q86 0 117 47t31 149v1216h-216v320h216v120q0 258 151.5 395t424.5 137q95 0 228 -28l-32 -340q-66 12 -140 12q-91 0 -139.5 -45t-48.5 -131v-120h292z" />
    <glyph glyph-name="Ghook" unicode="&#x193;" horiz-adv-x="2320" 
d="M1872 1096v-340q0 -173 -67 -321t-181.5 -248.5t-270 -157.5t-329.5 -57q-194 0 -359 70t-286.5 201t-190 330.5t-68.5 446.5q0 248 68 449t188 333t284 203t356 71q242 0 437 -109q77 155 239 240t360 85q98 0 212 -24v-368q-15 1 -40.5 4.5t-46.5 5.5t-41 2
q-42 0 -75.5 -3.5t-70.5 -16t-61.5 -33.5t-40.5 -58.5t-16 -88.5v-340h-476q-43 146 -144.5 217t-235.5 71q-94 0 -170 -36t-135 -110.5t-91 -200t-32 -293.5q0 -135 21.5 -242t60 -179.5t94 -120.5t120 -69t140.5 -21q170 0 283 99.5t113 268.5h-396v340h848z" />
    <glyph glyph-name="Gamma1" unicode="&#x194;" horiz-adv-x="2080" 
d="M124 2004h532l385 -934l383 934h532l-691 -1469q32 -73 85 -191t82.5 -185t62 -146t47 -130t14.5 -83q0 -104 -41 -183t-114 -125.5t-163.5 -69t-197.5 -22.5q-85 0 -161 13.5t-144 44.5t-117 76.5t-77.5 113.5t-28.5 152q0 39 29 119t64.5 157.5t103.5 221.5t109 237z
M972 -184q0 -48 14.5 -74t53.5 -26q41 0 54.5 26.5t13.5 73.5q0 87 -66 241q-70 -157 -70 -241z" />
    <glyph glyph-name="hv" unicode="&#x195;" horiz-adv-x="2460" 
d="M604 816v-816h-460v2048h444v-676h16q67 88 169 136t227 48q215 0 341.5 -150t126.5 -446v-364q0 -120 49.5 -182t142.5 -62q94 0 145 62.5t51 181.5v940h460v-940q0 -103 -27 -195.5t-81.5 -171t-131.5 -136t-184 -89.5t-232 -32q-156 0 -281.5 49.5t-205.5 135.5
t-122.5 198t-42.5 241v368q0 228 -172 228q-83 0 -136 -51t-74.5 -132t-21.5 -193z" />
    <glyph glyph-name="Iota1" unicode="&#x196;" horiz-adv-x="1056" 
d="M572 2112v-1608q0 -84 47.5 -128t140.5 -44q70 0 136 12l32 -344q-133 -28 -224 -28q-275 0 -425.5 137.5t-150.5 394.5v1608h444z" />
    <glyph glyph-name="Istroke" unicode="&#x197;" horiz-adv-x="1312" 
d="M1152 1160v-264h-276v-896h-464v896h-252v264h252v888h464v-888h276z" />
    <glyph glyph-name="Khook" unicode="&#x198;" horiz-adv-x="2008" 
d="M1400 0l-553 762l-239 -262v-500h-464v2048h464v-856h28l496 548l116 128q158 175 351 203t393 -91l-144 -332q-55 29 -99.5 29.5t-81 -23t-83.5 -74.5l-64 -72l-377 -408l813 -1100h-556z" />
    <glyph glyph-name="khook" unicode="&#x199;" horiz-adv-x="1588" 
d="M1092 0l-356 552l-132 -156v-396h-460v1580q0 91 18 164.5t47.5 124.5t73 89t89.5 60t102.5 35.5t105 18t104.5 4.5q120 0 232 -16v-348q-64 8 -108 8q-204 0 -204 -140v-552h20l408 508h532l-552 -656l576 -880h-496z" />
    <glyph glyph-name="lbar" unicode="&#x19a;" horiz-adv-x="1312" 
d="M1152 1272v-264h-244v-1008h-460v1008h-288v264h288v776h460v-776h244z" />
    <glyph glyph-name="lambdabar" unicode="&#x19b;" horiz-adv-x="1824" 
d="M1088 1876v-276l-35 -11l439 -1097q16 -36 27 -57t30 -48.5t43 -41t52 -13.5h44v-352q-44 -8 -164 -8q-322 0 -436 320l-201 570l-275 -862h-476l519 1461l-379 -121v280l275 87q-51 73 -163 73q-48 0 -84 -4l-12 332q109 32 252 32q289 0 384 -240l26 -66z" />
    <glyph glyph-name="mcapturn" unicode="&#x19c;" horiz-adv-x="2592" 
d="M2004 0l-22 163q-151 -191 -410 -191q-312 0 -427 236q-153 -236 -453 -236q-120 0 -207 28.5t-154 96t-101 188t-34 295.5v1424h440v-1424q0 -248 196 -248q175 0 249 128q-5 62 -5 120v1424h440v-1424q0 -248 196 -248q168 0 244 119v1553h444v-2004h-396z" />
    <glyph glyph-name="Nhook" unicode="&#x19d;" horiz-adv-x="1952" 
d="M1808 2048v-2048h-456l-728 1260h-16v-1340q0 -91 -18 -164.5t-47.5 -124.5t-73.5 -89t-90 -60t-103 -35.5t-106 -18t-106 -4.5q-160 0 -208 8v352q24 -4 84 -4q204 0 204 140v2128h460l724 -1260h16v1260h464z" />
    <glyph glyph-name="nlegrightlong" unicode="&#x19e;" horiz-adv-x="1656" 
d="M604 816v-816h-460v1536h424v-164h16q67 86 174.5 135t237.5 49q81 0 153.5 -19t140 -63.5t116 -111.5t77.5 -170t29 -232v-1536h-460v1520q0 119 -61.5 183.5t-158.5 64.5q-228 0 -228 -376z" />
    <glyph glyph-name="Obar" unicode="&#x19f;" horiz-adv-x="2040" 
d="M1920 1020q0 -246 -68.5 -446t-189 -331t-284 -201t-354.5 -70q-193 0 -357.5 70t-286.5 201t-191 331t-69 446q0 199 44.5 369t126 295.5t194 214t249 133t290.5 44.5q191 0 354.5 -71t284 -202.5t189 -333t68.5 -449.5zM1024 1660q-171 0 -283 -112.5t-142 -348.5
q93 20 172.5 22.5t134.5 -8.5t115.5 -25t115.5 -27t135.5 -14t173.5 13q-24 257 -134.5 378.5t-287.5 121.5zM1024 388q173 0 282 112t137 353q-93 -21 -173 -24t-135 7.5t-116 24.5t-116 27t-135.5 15t-174.5 -12q23 -260 137 -381.5t294 -121.5z" />
    <glyph glyph-name="Ohorn" unicode="&#x1a0;" horiz-adv-x="2100" 
d="M1920 1020q0 -246 -68.5 -446t-189 -331t-284 -201t-354.5 -70q-193 0 -357.5 70t-286.5 201t-191 331t-69 446q0 199 44.5 369t126 295.5t194 214t249 133t290.5 44.5q203 0 374.5 -79t292.5 -229q64 39 90.5 130.5t26.5 241.5h276q0 -453 -268 -578q104 -236 104 -542z
M1452 1020q0 330 -114 485t-314 155q-97 0 -175 -36t-137 -111t-91.5 -200t-32.5 -293q0 -135 21.5 -242t59.5 -179.5t93 -120t120 -69t142 -21.5q97 0 173.5 34.5t134.5 108t89 197t31 292.5z" />
    <glyph glyph-name="ohorn" unicode="&#x1a1;" horiz-adv-x="1740" 
d="M820 -28q-222 0 -387 102.5t-251 282t-86 411.5t86 409.5t251 278t387 100.5q184 0 328.5 -69t239.5 -196q55 41 77.5 122t22.5 207h252q0 -386 -258 -498q62 -159 62 -354q0 -232 -86 -411.5t-251 -282t-387 -102.5zM820 340q288 0 288 428q0 424 -288 424t-288 -424
q0 -428 288 -428z" />
    <glyph glyph-name="OI" unicode="&#x1a2;" horiz-adv-x="2592" 
d="M2448 2004v-2576h-440v2032l-208 -97v-1111q-33 -37 -77.5 -72.5t-115 -74t-153 -67.5t-196 -47.5t-238.5 -18.5q-196 0 -358 65.5t-277 187.5t-178 306t-63 413v116q0 229 63 413t178 306t277 187.5t358 65.5q242 0 418.5 -60t288.5 -150l389 182h332zM1048 1660
q-227 0 -331.5 -146t-104.5 -454v-116q0 -600 436 -600q200 0 308 88v1140q-102 88 -308 88z" />
    <glyph glyph-name="oi" unicode="&#x1a3;" horiz-adv-x="2080" 
d="M1980 1488v-2060h-444v1568l-132 -51v-649q-32 -56 -68.5 -101.5t-89.5 -88t-116 -71.5t-148.5 -46t-185.5 -17q-170 0 -303 57t-217.5 159.5t-128 239t-43.5 300.5v32q0 129 27 243t83 208t137.5 162t195 105.5t249.5 37.5q149 0 272.5 -56t214.5 -145l401 173h296z
M788 332q120 0 172 64v680q-58 84 -176 84q-59 0 -103 -21.5t-70 -56.5t-41.5 -88.5t-20.5 -108t-5 -125.5v-32q0 -72 5.5 -126.5t21 -107.5t41.5 -87t70.5 -54.5t105.5 -20.5z" />
    <glyph glyph-name="Phook" unicode="&#x1a4;" horiz-adv-x="2324" 
d="M1464 704h-328v-704h-464v1668h-44q-57 0 -98 -22t-62.5 -60.5t-30.5 -80.5t-9 -93v-128h-412v212q0 257 164.5 404.5t447.5 147.5h836q192 0 334.5 -48t228.5 -139t127.5 -212.5t41.5 -276.5q0 -320 -179.5 -494t-552.5 -174zM1136 1664v-580h328q142 0 207 79t65 209
q0 131 -65.5 211.5t-206.5 80.5h-328z" />
    <glyph glyph-name="phook" unicode="&#x1a5;" horiz-adv-x="1652" 
d="M144 -576v2112q1 79 18.5 142t44.5 105.5t68.5 74t83.5 49.5t97 28.5t101 13.5t103 3q120 0 232 -28v-320q-72 24 -148 24q-116 0 -145 -92h1v-164h20q39 86 131 135t213 49q118 0 223 -49t188 -143t132 -248t49 -348q0 -191 -46.5 -344t-128 -249.5t-188 -147.5
t-229.5 -51q-122 0 -214 47t-130 133h-16v-732h-460zM1124 768q0 203 -75.5 313.5t-220.5 110.5q-276 0 -276 -424q0 -428 276 -428q145 0 220.5 112t75.5 316z" />
    <glyph glyph-name="YR" unicode="&#x1a6;" horiz-adv-x="2080" 
d="M1468 -480l-601 1188h-283v-708h-464v2004h4v140h460v-140h312q231 0 399 -69t260.5 -206.5t92.5 -332.5q0 -220 -90.5 -355t-262.5 -214l665 -1287v-20h-492zM584 1628v-548h312q142 0 217 72t75 200q0 131 -75 203.5t-217 72.5h-312z" />
    <glyph glyph-name="Tonetwo" unicode="&#x1a7;" horiz-adv-x="1824" 
d="M592 532q0 -87 67.5 -141.5t204.5 -54.5q182 0 275 72t93 240h464q0 -137 -47.5 -251t-127.5 -191.5t-188 -131t-226 -78t-243 -24.5q-337 0 -534.5 148.5t-197.5 415.5q0 125 43 226t129.5 181t208 141t287.5 112q192 62 284 122.5t92 145.5t-77 142.5t-215 57.5
q-146 0 -221 -69t-75 -187h-456q0 187 94 329.5t262.5 218.5t387.5 76t391.5 -68.5t270.5 -197.5t98 -298q0 -88 -25 -164t-73 -137t-107.5 -110.5t-141 -92.5t-159 -75t-174.5 -65q-152 -49 -231.5 -93.5t-106 -88.5t-26.5 -110z" />
    <glyph glyph-name="tonetwo" unicode="&#x1a8;" horiz-adv-x="1568" 
d="M564 420q0 -64 53.5 -102t150.5 -38q110 0 177.5 49t70.5 147h416q0 -90 -43.5 -178.5t-122.5 -161.5t-206 -118.5t-280 -45.5q-290 0 -467 129.5t-177 330.5q0 92 31 165.5t81 122.5t126.5 87t154.5 60.5t179 40.5q137 24 196.5 61.5t59.5 98.5q0 65 -51 104.5
t-133 39.5q-200 0 -200 -180h-444q0 215 175 349.5t469 134.5q140 0 256.5 -38t192.5 -103.5t117.5 -150.5t41.5 -180t-40 -172t-113.5 -131.5t-166 -92t-208.5 -60.5q-174 -38 -235 -74t-61 -94z" />
    <glyph glyph-name="Esh" unicode="&#x1a9;" horiz-adv-x="1824" 
d="M1272 1036v-20l-436 -636h788v-380h-1424v212l588 812l-588 812v212h1404v-384h-764z" />
    <glyph glyph-name="eshlooprev" unicode="&#x1aa;" horiz-adv-x="1824" 
d="M172 1592q0 118 46 226t123.5 186.5t185 125t225.5 46.5t226 -46.5t186.5 -125t125 -186.5t46.5 -226v-1612q0 -110 48.5 -165t139.5 -55q62 0 128 12v-352q-90 -20 -212 -20q-258 0 -403 150.5t-145 429.5v1049q-70 -17 -140 -17q-118 0 -225.5 46t-185 123.5
t-123.5 185t-46 225.5zM756 1388q83 0 137.5 54t54.5 154q0 98 -55 151t-137 53q-90 0 -145 -52.5t-55 -151.5q0 -102 54.5 -155t145.5 -53z" />
    <glyph glyph-name="tpalatalhook" unicode="&#x1ab;" horiz-adv-x="1048" 
d="M940 1536v-320h-240v-732q0 -80 33 -106t99 -26q12 0 42 2l122 26v-460q0 -235 -123.5 -363.5t-344.5 -128.5q-99 0 -184 20v296q80 -8 112 -8q44 0 81.5 8t74.5 26.5t58.5 57t21.5 92.5v60h-8q-190 0 -317 124t-127 324v788h-172v320h172v328h460v-328h240z" />
    <glyph glyph-name="Thook" unicode="&#x1ac;" horiz-adv-x="2168" 
d="M2088 2048v-384h-600v-1664h-464v1664h-420q-200 0 -200 -252v-128h-380v212q0 261 150.5 406.5t429.5 145.5h1484z" />
    <glyph glyph-name="thook" unicode="&#x1ad;" horiz-adv-x="1312" 
d="M1052 1488v-320h-248v-684q0 -85 34.5 -116.5t117.5 -31.5q52 0 116 8v-332q-109 -40 -256 -40q-452 0 -452 456v740h-200v320h200v192q0 92 18.5 167t48.5 126t75 88.5t91.5 59t104.5 34.5t107 17t107 4q136 0 232 -24v-296q-54 12 -108 12q-43 0 -81.5 -8.5t-75 -28
t-58 -58.5t-21.5 -93v-192h248z" />
    <glyph glyph-name="Trthook" unicode="&#x1ae;" horiz-adv-x="1820" 
d="M1736 2048v-384h-600v-1744q0 -140 204 -140h84v-356h-208q-57 0 -106 4.5t-105.5 18t-102 35.5t-89 60t-73 89t-47 124.5t-17.5 164.5v1744h-600v384h1660z" />
    <glyph glyph-name="Uhorn" unicode="&#x1af;" horiz-adv-x="2284" 
d="M1344 2048h464v-349q42 11 73.5 30t51.5 49.5t32 61.5t18 79t7.5 89t1.5 104h276q0 -115 -13.5 -205.5t-46 -169t-84.5 -133.5t-131 -91t-185 -49v-768q0 -230 -105 -394.5t-290 -247t-433 -82.5q-250 0 -437 82.5t-293 247.5t-106 394v1352h464v-1336
q0 -149 102.5 -236.5t269.5 -87.5q166 0 265 87.5t99 236.5v1336z" />
    <glyph glyph-name="uhorn" unicode="&#x1b0;" horiz-adv-x="1884" 
d="M1052 720v816h460v-218q65 35 86.5 106.5t21.5 199.5h248q0 -227 -82 -354.5t-274 -167.5v-1102h-424v164h-16q-67 -86 -174.5 -135t-237.5 -49q-81 0 -153.5 19t-140 63.5t-116 111.5t-77.5 170t-29 232v960h460v-944q0 -119 61.5 -183.5t158.5 -64.5q228 0 228 376z
" />
    <glyph glyph-name="Upsilon2" unicode="&#x1b1;" horiz-adv-x="1824" 
d="M632 908v-104q0 -222 75 -339t209 -117q131 0 203.5 117t72.5 339v104q0 319 -56.5 486.5t-159.5 225.5v384h712v-376h-303q150 -129 240.5 -315t90.5 -405v-100q0 -181 -59 -336t-163.5 -265t-253.5 -172.5t-324 -62.5q-176 0 -326 62.5t-255 172.5t-164 265t-59 336
v100q0 219 90 405t239 315h-301v376h700v-384q-208 -129 -208 -712z" />
    <glyph glyph-name="Vcursive" unicode="&#x1b2;" horiz-adv-x="1824" 
d="M916 -28q-234 0 -409.5 82.5t-275 247.5t-99.5 394v1308h460v-1308q0 -182 82 -267t242 -85q157 0 236.5 85t79.5 267v752q0 119 -37.5 159.5t-134.5 40.5q-62 0 -128 -12v368q91 24 212 24q261 0 406.5 -150.5t145.5 -429.5v-752q0 -230 -98.5 -394.5t-273.5 -247
t-408 -82.5z" />
    <glyph glyph-name="Yhook" unicode="&#x1b3;" horiz-adv-x="2192" 
d="M568 2048l497 -868h22l269 472l68 120q65 116 154 187.5t187 95t196.5 15.5t198.5 -46l-96 -348q-106 31 -166.5 1.5t-121.5 -133.5l-36 -60l-432 -704v-780h-464v780l-780 1268h504z" />
    <glyph glyph-name="yhook" unicode="&#x1b4;" horiz-adv-x="1652" 
d="M580 -24l20 72l-544 1488h476l264 -820l196 668l40 128q38 119 125 208.5t223 135.5q66 23 132 29.5t109.5 3.5t110.5 -13l-24 -360q-8 1 -25 4.5t-22 4t-17 0.5t-21.5 -2t-22.5 -7q-110 -35 -152 -184l-20 -60l-460 -1492q-16 -49 -42.5 -98t-73 -101t-104.5 -91.5
t-141.5 -64.5t-178.5 -25q-63 0 -97 5t-91 23v352q28 -4 60 -4q125 0 188 50t92 150z" />
    <glyph glyph-name="Zbar" unicode="&#x1b5;" horiz-adv-x="1824" 
d="M1688 384v-384h-1552v272l437 624h-169v264h354l353 504h-975v384h1552v-272l-431 -616h139v-264h-324l-359 -512h975z" />
    <glyph glyph-name="zbar" unicode="&#x1b6;" horiz-adv-x="1544" 
d="M1400 360v-360h-1256v260l288 392h-156v264h349l191 260h-644v360h1212v-260l-264 -360h148v-264h-342l-214 -292h688z" />
    <glyph glyph-name="Ezh" unicode="&#x1b7;" horiz-adv-x="2080" 
d="M208 104h460q12 -174 101 -253t263 -79q202 0 293 124.5t91 391.5q0 286 -92.5 409t-291.5 123h-384v248l486 560h-930v376h1528v-244l-511 -600q305 -56 480 -283.5t175 -588.5q0 -418 -226 -653t-618 -235q-242 0 -425.5 89.5t-285 248t-113.5 366.5z" />
    <glyph glyph-name="Ezhreversed" unicode="&#x1b8;" horiz-adv-x="2080" 
d="M1412 104h460q-12 -208 -113.5 -366.5t-285 -248t-425.5 -89.5q-392 0 -618 235t-226 653q0 363 179 591.5t487 281.5l-510 599v244h1516v-376h-919l483 -560v-248h-392q-199 0 -291.5 -123t-92.5 -409q0 -267 91 -391.5t293 -124.5q174 0 263 79t101 253z" />
    <glyph glyph-name="ezhreversed" unicode="&#x1b9;" horiz-adv-x="1824" 
d="M216 1488h1348v-356h-844l452 -444v-268h-180q-185 0 -276.5 -85.5t-91.5 -278.5q0 -105 82 -174.5t222 -69.5q123 0 197.5 65t74.5 163h444q0 -119 -41 -217t-109.5 -165t-161.5 -113.5t-194.5 -67.5t-209.5 -21q-217 0 -385 68.5t-265.5 203t-97.5 316.5
q0 262 131.5 427.5t376.5 217.5l-476 503z" />
    <glyph glyph-name="ezhtail" unicode="&#x1ba;" horiz-adv-x="1568" 
d="M564 -156q0 -66 56.5 -101t147.5 -35q105 0 175 46.5t73 149.5h416q0 -73 -26.5 -144.5t-81.5 -136.5t-131 -114.5t-183 -79t-230 -29.5q-290 0 -467 129.5t-177 330.5q0 195 133.5 305t406.5 163q162 31 225 66t63 102q0 65 -51 104.5t-133 39.5h-344v256l268 236h-496
v356h1208v-248l-379 -334q164 -54 255.5 -171.5t91.5 -262.5q0 -80 -30 -148t-79 -117t-118.5 -87.5t-141.5 -62.5t-155 -41q-116 -25 -183 -53t-90 -55.5t-23 -63.5z" />
    <glyph glyph-name="twostroke" unicode="&#x1bb;" horiz-adv-x="1696" 
d="M1552 384v-384h-1408v336l560 560h-144v264h384q112 157 112 292q0 109 -64.5 184.5t-171.5 75.5q-117 0 -186.5 -91.5t-69.5 -232.5h-444q0 141 50 266t140 219t224 148.5t294 54.5q192 0 344.5 -76.5t238 -215.5t85.5 -316q0 -157 -73 -308h129v-264h-303
q-77 -95 -209 -232l-260 -268v-12h772z" />
    <glyph glyph-name="Tonefive" unicode="&#x1bc;" horiz-adv-x="1824" 
d="M724 916l-352 88l74 640h-318v360h359l5 44h1156v-384h-796l-48 -440h8q32 46 111.5 81t192.5 35q257 0 426.5 -187t169.5 -481q0 -110 -26 -211t-81 -190.5t-134.5 -155.5t-194 -104.5t-252.5 -38.5q-160 0 -292 51.5t-220 140.5t-136 209.5t-48 258.5h444
q25 -300 248 -300q69 0 120 29t78.5 79.5t40.5 109t13 126.5q0 164 -74 254t-226 90q-161 0 -248 -104z" />
    <glyph glyph-name="tonefive" unicode="&#x1bd;" horiz-adv-x="1824" 
d="M760 632l-404 16l66 492h-226v348h1324v-348h-692l-36 -232q50 27 130 45.5t170 18.5q255 0 395.5 -129t140.5 -363q0 -112 -38 -202.5t-115.5 -158.5t-205 -105.5t-297.5 -37.5q-108 0 -206 17t-185 54t-151 91t-101 133.5t-37 176.5l440 20q17 -132 240 -132
q108 0 162 46.5t54 129.5q0 79 -60 125.5t-164 46.5q-152 0 -204 -52z" />
    <glyph glyph-name="glottalstopbarinv" unicode="&#x1be;" horiz-adv-x="1568" 
d="M1004 420q0 43 -28 78t-72 63t-98 58.5t-108 74t-98 99.5t-72 145.5t-28 201.5v28h-196v320h196v372h444v-372h248v-320h-248v-36q0 -80 27 -139t70 -94t95 -64.5t104 -61t95 -72t70 -109t27 -160.5q0 -201 -175 -330.5t-465 -129.5q-124 0 -232 29.5t-184.5 80
t-131.5 115.5t-81.5 136t-26.5 143h416q6 -103 76 -149.5t172 -46.5q95 0 149.5 36t54.5 104z" />
    <glyph glyph-name="wynn" unicode="&#x1bf;" horiz-adv-x="1824" 
d="M1596 732q0 -121 -23 -226t-64.5 -190.5t-105 -158.5t-138.5 -130.5t-171.5 -107.5t-198 -88t-223.5 -72v-331h-444v2060h416l14 -140q136 168 358 168q185 0 316.5 -94t197.5 -262.5t66 -395.5v-32zM904 1160q-172 0 -232 -127v-925q225 66 352.5 224t127.5 400v32
q0 396 -248 396z" />
    <glyph glyph-name="pipe" unicode="&#x1c0;" horiz-adv-x="800" 
d="M524 2004v-2004h-248v2004h248z" />
    <glyph glyph-name="pipedbl" unicode="&#x1c1;" horiz-adv-x="1056" 
d="M468 2004v-2004h-248v2004h248zM840 2004v-2004h-248v2004h248z" />
    <glyph glyph-name="pipedblbar" unicode="&#x1c2;" horiz-adv-x="1312" 
d="M1152 880v-264h-372v-616h-248v616h-372v264h372v348h-372v264h372v512h248v-512h372v-264h-372v-348h372z" />
    <glyph glyph-name="exclam1" unicode="&#x1c3;" horiz-adv-x="800" 
d="M628 2048l-56 -1412h-360l-56 1412h472zM388 -24q-109 0 -176.5 65.5t-67.5 166.5t67.5 166.5t176.5 65.5q110 0 179 -66t69 -166t-69 -166t-179 -66z" />
    <glyph glyph-name="Dzcaron_" unicode="&#x1c5;" horiz-adv-x="3280" 
d="M868 0h-724v2048h724q451 0 711.5 -272.5t260.5 -751.5t-260.5 -751.5t-711.5 -272.5zM2320 2048l204 -184l200 184h376v-12l-436 -392h-284l-440 392v12h380zM844 1648h-236v-1248h240q262 0 393 148t131 476t-131.5 476t-396.5 148zM3136 360v-360h-1256v260l672 916
h-644v360h1212v-260l-672 -916h688z" />
    <glyph glyph-name="dzcaron" unicode="&#x1c6;" horiz-adv-x="2972" 
d="M1508 0h-456v156h-20q-38 -86 -130 -133t-214 -47q-123 0 -229.5 51t-188 147.5t-128 249.5t-46.5 344q0 194 49 348t132 248t188 143t223 49q121 0 213 -49t131 -135h16v676h460v-2048zM2040 2048l204 -184l200 184h376v-12l-436 -392h-284l-440 392v12h380zM2828 360
v-360h-1256v260l672 916h-644v360h1212v-260l-672 -916h688zM528 768q0 -204 75.5 -316t220.5 -112q276 0 276 428q0 424 -276 424q-145 0 -220.5 -110.5t-75.5 -313.5z" />
    <glyph glyph-name="LJ" unicode="&#x1c7;" horiz-adv-x="3436" 
d="M1692 384v-384h-1292v2048h464v-1664h828zM2832 628v1420h460v-1420q0 -147 -52.5 -270.5t-144 -208t-217 -131t-270.5 -46.5q-151 0 -274.5 38.5t-215.5 115t-143 198.5t-51 280h464q3 -125 61.5 -192.5t158.5 -67.5q105 0 164.5 76t59.5 208z" />
    <glyph glyph-name="Lj" unicode="&#x1c8;" horiz-adv-x="2772" 
d="M2388 1620q-102 0 -175 67.5t-73 160.5t73 160.5t175 67.5q101 0 172.5 -67t71.5 -161t-71.5 -161t-172.5 -67zM1692 384v-384h-1292v2048h464v-1664h828zM2156 1536h460v-1584q0 -136 -45.5 -239.5t-128 -166.5t-190.5 -94.5t-240 -31.5h-168v360h96q65 0 109 13.5
t66.5 39.5t31.5 56t9 71v1576z" />
    <glyph glyph-name="lj" unicode="&#x1c9;" horiz-adv-x="1952" 
d="M1568 1620q-102 0 -175 67.5t-73 160.5t73 160.5t175 67.5q101 0 172.5 -67t71.5 -161t-71.5 -161t-172.5 -67zM860 2048v-2048h-460v2048h460zM1336 1536h460v-1584q0 -136 -45.5 -239.5t-128 -166.5t-190.5 -94.5t-240 -31.5h-168v360h96q65 0 109 13.5t66.5 39.5
t31.5 56t9 71v1576z" />
    <glyph glyph-name="NJ" unicode="&#x1ca;" horiz-adv-x="3820" 
d="M2064 2048v-2048h-456l-728 1260h-16v-1260h-464v2048h460l724 -1260h16v1260h464zM3216 628v1420h460v-1420q0 -147 -52.5 -270.5t-144 -208t-217 -131t-270.5 -46.5q-151 0 -274.5 38.5t-215.5 115t-143 198.5t-51 280h464q3 -125 61.5 -192.5t158.5 -67.5
q105 0 164.5 76t59.5 208z" />
    <glyph glyph-name="Nj" unicode="&#x1cb;" horiz-adv-x="3156" 
d="M2772 1620q-102 0 -175 67.5t-73 160.5t73 160.5t175 67.5q101 0 172.5 -67t71.5 -161t-71.5 -161t-172.5 -67zM2064 2048v-2048h-456l-728 1260h-16v-1260h-464v2048h460l724 -1260h16v1260h464zM2540 1536h460v-1584q0 -136 -45.5 -239.5t-128 -166.5t-190.5 -94.5
t-240 -31.5h-168v360h96q65 0 109 13.5t66.5 39.5t31.5 56t9 71v1576z" />
    <glyph glyph-name="nj" unicode="&#x1cc;" horiz-adv-x="2860" 
d="M2476 1620q-102 0 -175 67.5t-73 160.5t73 160.5t175 67.5q101 0 172.5 -67t71.5 -161t-71.5 -161t-172.5 -67zM860 816v-816h-460v1536h424v-164h16q67 86 174.5 135t237.5 49q81 0 153.5 -19t140 -63.5t116 -111.5t77.5 -170t29 -232v-960h-460v944q0 119 -61.5 183.5
t-158.5 64.5q-228 0 -228 -376zM2244 1536h460v-1584q0 -136 -45.5 -239.5t-128 -166.5t-190.5 -94.5t-240 -31.5h-168v360h96q65 0 109 13.5t66.5 39.5t31.5 56t9 71v1576z" />
    <glyph glyph-name="Acaron" unicode="&#x1cd;" horiz-adv-x="2168" 
d="M880 2536l204 -184l200 184h376v-12l-436 -392h-284l-440 392v12h380zM580 0h-500l756 2048h496l756 -2048h-500l-129 384h-750zM1072 1468l-239 -712h502l-239 712h-24z" />
    <glyph glyph-name="acaron" unicode="&#x1ce;" horiz-adv-x="1552" 
d="M576 2112l204 -184l200 184h376v-12l-436 -392h-284l-440 392v12h380zM968 0v156h-20q-47 -80 -138.5 -132t-225.5 -52q-100 0 -188 31t-155 87.5t-106 145t-39 196.5q0 211 155 340.5t473 155.5q38 3 62 5.5t57.5 9.5t53 16t33.5 24.5t14 36.5v32q0 64 -48 110t-128 46
t-142 -45.5t-74 -118.5l-432 40q36 216 214 344t454 128q135 0 247.5 -32.5t196 -96t130 -162.5t46.5 -225v-1040h-440zM944 492v196q-29 -29 -160 -48q-134 -15 -189 -62t-55 -134q0 -63 44.5 -101.5t119.5 -38.5q93 0 166.5 54.5t73.5 133.5z" />
    <glyph glyph-name="Icaron" unicode="&#x1cf;" horiz-adv-x="752" 
d="M172 2536l204 -184l200 184h376v-12l-436 -392h-284l-440 392v12h380zM608 2048v-2048h-464v2048h464z" />
    <glyph glyph-name="icaron" unicode="&#x1d0;" horiz-adv-x="780" 
d="M188 2080l204 -184l200 184h376v-12l-436 -392h-284l-440 392v12h380zM620 1536v-1536h-460v1536h460z" />
    <glyph glyph-name="Ocaron" unicode="&#x1d1;" horiz-adv-x="2040" 
d="M820 2536l204 -184l200 184h376v-12l-436 -392h-284l-440 392v12h380zM1920 1020q0 -246 -68.5 -446t-189 -331t-284 -201t-354.5 -70q-193 0 -357.5 70t-286.5 201t-191 331t-69 446q0 199 44.5 369t126 295.5t194 214t249 133t290.5 44.5q191 0 354.5 -71t284 -202.5
t189 -333t68.5 -449.5zM1452 1020q0 330 -114 485t-314 155q-97 0 -175 -36t-137 -111t-91.5 -200t-32.5 -293q0 -135 21.5 -242t59.5 -179.5t93 -120t120 -69t142 -21.5q97 0 173.5 34.5t134.5 108t89 197t31 292.5z" />
    <glyph glyph-name="ocaron" unicode="&#x1d2;" horiz-adv-x="1640" 
d="M584 2112l204 -184l200 184h376v-12l-436 -392h-284l-440 392v12h380zM820 -28q-222 0 -387 102.5t-251 282t-86 411.5t86 409.5t251 278t387 100.5t387 -100.5t251 -278t86 -409.5t-86 -411.5t-251 -282t-387 -102.5zM820 340q288 0 288 428q0 424 -288 424t-288 -424
q0 -428 288 -428z" />
    <glyph glyph-name="Ucaron" unicode="&#x1d3;" horiz-adv-x="1952" 
d="M772 2536l204 -184l200 184h376v-12l-436 -392h-284l-440 392v12h380zM1344 2048h464v-1352q0 -230 -105 -394.5t-290 -247t-433 -82.5q-250 0 -437 82.5t-293 247.5t-106 394v1352h464v-1336q0 -149 102.5 -236.5t269.5 -87.5q166 0 265 87.5t99 236.5v1336z" />
    <glyph glyph-name="ucaron" unicode="&#x1d4;" horiz-adv-x="1656" 
d="M600 2112l204 -184l200 184h376v-12l-436 -392h-284l-440 392v12h380zM1052 720v816h460v-1536h-424v164h-16q-67 -86 -174.5 -135t-237.5 -49q-81 0 -153.5 19t-140 63.5t-116 111.5t-77.5 170t-29 232v960h460v-944q0 -119 61.5 -183.5t158.5 -64.5q228 0 228 376z" />
    <glyph glyph-name="Udieresismacron" unicode="&#x1d5;" horiz-adv-x="1952" 
d="M1452 2828v-238h-953v238h953zM491 2299q0 70 54 117.5t139 47.5q86 0 141 -47.5t55 -117.5q0 -71 -54.5 -118t-141.5 -47q-85 0 -139 47t-54 118zM1071 2299q0 70 54.5 117.5t140.5 47.5t140 -47.5t54 -117.5q0 -71 -54 -118t-140 -47q-87 0 -141 47t-54 118zM1344 2048
h464v-1352q0 -230 -105 -394.5t-290 -247t-433 -82.5q-250 0 -437 82.5t-293 247.5t-106 394v1352h464v-1336q0 -149 102.5 -236.5t269.5 -87.5q166 0 265 87.5t99 236.5v1336z" />
    <glyph glyph-name="udieresismacron" unicode="&#x1d6;" horiz-adv-x="1656" 
d="M1281 2439v-238h-953v238h953zM250 1879q0 77 58.5 130t143.5 53t143.5 -53t58.5 -130t-58.5 -130t-143.5 -53t-143.5 53t-58.5 130zM950 1879q0 77 58.5 130t143.5 53t143.5 -53t58.5 -130t-58.5 -130t-143.5 -53t-143.5 53t-58.5 130zM1052 720v816h460v-1536h-424v164
h-16q-67 -86 -174.5 -135t-237.5 -49q-81 0 -153.5 19t-140 63.5t-116 111.5t-77.5 170t-29 232v960h460v-944q0 -119 61.5 -183.5t158.5 -64.5q228 0 228 376z" />
    <glyph glyph-name="Udieresisacute" unicode="&#x1d7;" horiz-adv-x="1952" 
d="M851 2486l176 253h300l-247 -253h-229zM491 2299q0 70 54 117.5t139 47.5q86 0 141 -47.5t55 -117.5q0 -71 -54.5 -118t-141.5 -47q-85 0 -139 47t-54 118zM1071 2299q0 70 54.5 117.5t140.5 47.5t140 -47.5t54 -117.5q0 -71 -54 -118t-140 -47q-87 0 -141 47t-54 118z
M1344 2048h464v-1352q0 -230 -105 -394.5t-290 -247t-433 -82.5q-250 0 -437 82.5t-293 247.5t-106 394v1352h464v-1336q0 -149 102.5 -236.5t269.5 -87.5q166 0 265 87.5t99 236.5v1336z" />
    <glyph glyph-name="udieresisacute" unicode="&#x1d8;" horiz-adv-x="1656" 
d="M599 2122l271 432h472l-383 -432h-360zM250 1879q0 77 58.5 130t143.5 53t143.5 -53t58.5 -130t-58.5 -130t-143.5 -53t-143.5 53t-58.5 130zM950 1879q0 77 58.5 130t143.5 53t143.5 -53t58.5 -130t-58.5 -130t-143.5 -53t-143.5 53t-58.5 130zM1052 720v816h460v-1536
h-424v164h-16q-67 -86 -174.5 -135t-237.5 -49q-81 0 -153.5 19t-140 63.5t-116 111.5t-77.5 170t-29 232v960h460v-944q0 -119 61.5 -183.5t158.5 -64.5q228 0 228 376z" />
    <glyph glyph-name="Udieresiscaron" unicode="&#x1d9;" horiz-adv-x="1952" 
d="M803 2843l174 -150l175 150h377v-22l-396 -320h-311l-399 323v19h380zM491 2299q0 70 54 117.5t139 47.5q86 0 141 -47.5t55 -117.5q0 -71 -54.5 -118t-141.5 -47q-85 0 -139 47t-54 118zM1071 2299q0 70 54.5 117.5t140.5 47.5t140 -47.5t54 -117.5q0 -71 -54 -118
t-140 -47q-87 0 -141 47t-54 118zM1344 2048h464v-1352q0 -230 -105 -394.5t-290 -247t-433 -82.5q-250 0 -437 82.5t-293 247.5t-106 394v1352h464v-1336q0 -149 102.5 -236.5t269.5 -87.5q166 0 265 87.5t99 236.5v1336z" />
    <glyph glyph-name="udieresiscaron" unicode="&#x1da;" horiz-adv-x="1656" 
d="M602 2555l202 -184l202 184h377v-15l-437 -389h-284l-440 392v12h380zM250 1879q0 77 58.5 130t143.5 53t143.5 -53t58.5 -130t-58.5 -130t-143.5 -53t-143.5 53t-58.5 130zM950 1879q0 77 58.5 130t143.5 53t143.5 -53t58.5 -130t-58.5 -130t-143.5 -53t-143.5 53
t-58.5 130zM1052 720v816h460v-1536h-424v164h-16q-67 -86 -174.5 -135t-237.5 -49q-81 0 -153.5 19t-140 63.5t-116 111.5t-77.5 170t-29 232v960h460v-944q0 -119 61.5 -183.5t158.5 -64.5q228 0 228 376z" />
    <glyph glyph-name="Udieresisgrave" unicode="&#x1db;" horiz-adv-x="1952" 
d="M931 2739l176 -253h-230l-246 253h300zM491 2299q0 70 54 117.5t139 47.5q86 0 141 -47.5t55 -117.5q0 -71 -54.5 -118t-141.5 -47q-85 0 -139 47t-54 118zM1071 2299q0 70 54.5 117.5t140.5 47.5t140 -47.5t54 -117.5q0 -71 -54 -118t-140 -47q-87 0 -141 47t-54 118z
M1344 2048h464v-1352q0 -230 -105 -394.5t-290 -247t-433 -82.5q-250 0 -437 82.5t-293 247.5t-106 394v1352h464v-1336q0 -149 102.5 -236.5t269.5 -87.5q166 0 265 87.5t99 236.5v1336z" />
    <glyph glyph-name="udieresisgrave" unicode="&#x1dc;" horiz-adv-x="1656" 
d="M743 2554l274 -432h-360l-385 432h471zM250 1879q0 77 58.5 130t143.5 53t143.5 -53t58.5 -130t-58.5 -130t-143.5 -53t-143.5 53t-58.5 130zM950 1879q0 77 58.5 130t143.5 53t143.5 -53t58.5 -130t-58.5 -130t-143.5 -53t-143.5 53t-58.5 130zM1052 720v816h460v-1536
h-424v164h-16q-67 -86 -174.5 -135t-237.5 -49q-81 0 -153.5 19t-140 63.5t-116 111.5t-77.5 170t-29 232v960h460v-944q0 -119 61.5 -183.5t158.5 -64.5q228 0 228 376z" />
    <glyph glyph-name="eturn" unicode="&#x1dd;" horiz-adv-x="1568" 
d="M732 1516q163 0 298.5 -55.5t226.5 -152.5t141 -229t50 -283v-52q0 -164 -45 -304.5t-130 -245t-215.5 -163.5t-293.5 -59q-303 0 -471.5 182t-168.5 494v244h871q-24 120 -105 194t-214 74q-94 0 -172.5 -14t-120.5 -29.5t-119 -48.5l-112 284q96 70 248.5 117t331.5 47
zM764 332q191 0 231 268h-439v-36q0 -232 208 -232z" />
    <glyph glyph-name="Adieresismacron" unicode="&#x1de;" horiz-adv-x="2168" 
d="M1560 2828v-238h-953v238h953zM599 2299q0 70 54 117.5t139 47.5q86 0 141 -47.5t55 -117.5q0 -71 -54.5 -118t-141.5 -47q-85 0 -139 47t-54 118zM1179 2299q0 70 54.5 117.5t140.5 47.5t140 -47.5t54 -117.5q0 -71 -54 -118t-140 -47q-87 0 -141 47t-54 118zM580 0
h-500l756 2048h496l756 -2048h-500l-129 384h-750zM1072 1468l-239 -712h502l-239 712h-24z" />
    <glyph glyph-name="adieresismacron" unicode="&#x1df;" horiz-adv-x="1552" 
d="M1257 2439v-238h-953v238h953zM226 1879q0 77 58.5 130t143.5 53t143.5 -53t58.5 -130t-58.5 -130t-143.5 -53t-143.5 53t-58.5 130zM926 1879q0 77 58.5 130t143.5 53t143.5 -53t58.5 -130t-58.5 -130t-143.5 -53t-143.5 53t-58.5 130zM968 0v156h-20
q-47 -80 -138.5 -132t-225.5 -52q-100 0 -188 31t-155 87.5t-106 145t-39 196.5q0 211 155 340.5t473 155.5q38 3 62 5.5t57.5 9.5t53 16t33.5 24.5t14 36.5v32q0 64 -48 110t-128 46t-142 -45.5t-74 -118.5l-432 40q36 216 214 344t454 128q135 0 247.5 -32.5t196 -96
t130 -162.5t46.5 -225v-1040h-440zM944 492v196q-29 -29 -160 -48q-134 -15 -189 -62t-55 -134q0 -63 44.5 -101.5t119.5 -38.5q93 0 166.5 54.5t73.5 133.5z" />
    <glyph glyph-name="Adotmacron" unicode="&#x1e0;" horiz-adv-x="2168" 
d="M1560 2825v-238h-953v238h953zM889 2310q0 70 54.5 117.5t140.5 47.5q85 0 139.5 -47.5t54.5 -117.5q0 -71 -54.5 -118t-139.5 -47q-87 0 -141 47t-54 118zM580 0h-500l756 2048h496l756 -2048h-500l-129 384h-750zM1072 1468l-239 -712h502l-239 712h-24z" />
    <glyph glyph-name="adotmacron" unicode="&#x1e1;" horiz-adv-x="1552" 
d="M1257 2519v-238h-953v238h953zM559 1929q0 89 61 145.5t159 56.5t159 -56.5t61 -145.5q0 -88 -61 -144.5t-159 -56.5t-159 56.5t-61 144.5zM968 0v156h-20q-47 -80 -138.5 -132t-225.5 -52q-100 0 -188 31t-155 87.5t-106 145t-39 196.5q0 211 155 340.5t473 155.5
q38 3 62 5.5t57.5 9.5t53 16t33.5 24.5t14 36.5v32q0 64 -48 110t-128 46t-142 -45.5t-74 -118.5l-432 40q36 216 214 344t454 128q135 0 247.5 -32.5t196 -96t130 -162.5t46.5 -225v-1040h-440zM944 492v196q-29 -29 -160 -48q-134 -15 -189 -62t-55 -134
q0 -63 44.5 -101.5t119.5 -38.5q93 0 166.5 54.5t73.5 133.5z" />
    <glyph glyph-name="AEmacron" unicode="&#x1e2;" horiz-adv-x="2744" 
d="M1824 2436v-236h-952v236h952zM2616 364v-364h-1232l-16 384h-594l-178 -384h-516l1032 2048h1420v-364h-774l19 -480h643v-360h-629l19 -480h806zM947 756h406l-33 805z" />
    <glyph glyph-name="aemacron" unicode="&#x1e3;" horiz-adv-x="2444" 
d="M1720 1996v-236h-952v236h952zM128 1084q36 216 214 344t454 128q270 0 433 -120q182 120 419 120q321 0 510.5 -192.5t189.5 -531.5v-140l-997 -101q57 -251 305 -251q66 0 115.5 17.5t80.5 49t48.5 62t31.5 71.5l404 -108q-15 -63 -47 -124.5t-89 -123.5t-130.5 -108
t-180 -75t-229.5 -29q-174 0 -295.5 55.5t-209.5 164.5h-15q-12 -31 -44 -65.5t-86.5 -71t-143 -60t-194.5 -23.5q-87 0 -167 15.5t-154 51t-128 87.5t-86.5 131t-32.5 175q0 211 155 340.5t473 155.5q38 3 62 5.5t57.5 9.5t53 16t33.5 24.5t14 36.5v32q0 60 -54.5 100
t-133.5 40q-80 0 -135.5 -45t-76.5 -127zM1644 1192q-124 0 -199.5 -81t-98.5 -230l574 55q0 112 -72.5 184t-203.5 72zM952 492v196q-29 -29 -160 -48q-134 -15 -189 -62t-55 -134q0 -63 44.5 -101.5t119.5 -38.5q93 0 166.5 54.5t73.5 133.5z" />
    <glyph glyph-name="Gbar" unicode="&#x1e4;" horiz-adv-x="2112" 
d="M1872 1096v-340q0 -27 -1 -40h177v-200h-212q-78 -249 -300.5 -396.5t-511.5 -147.5q-194 0 -359 70t-286.5 201t-190 330.5t-68.5 446.5q0 248 68 449t188 333t284 203t356 71q197 0 365 -72.5t294 -218t189 -349.5l-468 -64q-43 146 -144.5 217t-235.5 71
q-94 0 -170 -36t-135 -110.5t-91 -200t-32 -293.5q0 -135 21.5 -242t60 -179.5t94 -120.5t120 -69t140.5 -21q96 0 176.5 33t134.5 95h-311v200h394q2 26 2 40v76h-396v264h848z" />
    <glyph glyph-name="gbar" unicode="&#x1e5;" horiz-adv-x="1732" 
d="M1052 1528h456v-612h208v-264h-208v-584q0 -208 -94 -357.5t-260.5 -224t-389.5 -74.5q-191 0 -355.5 60t-236.5 132l192 312q176 -132 384 -132q151 0 231.5 73t80.5 235v100h-24q-33 -66 -125.5 -113t-222.5 -47q-94 0 -180 27t-161.5 86t-131 145t-87.5 211.5
t-32 278.5q0 190 49 341t132 244.5t188 142t223 48.5q121 0 213 -49t131 -135h20v156zM528 780q0 -196 78.5 -294t217.5 -98q224 0 267 264h-367v264h366q-21 128 -86 202t-180 74q-144 0 -220 -109.5t-76 -302.5z" />
    <glyph glyph-name="Gcaron" unicode="&#x1e6;" horiz-adv-x="2000" 
d="M820 2536l204 -184l200 184h376v-12l-436 -392h-284l-440 392v12h380zM1872 1096v-340q0 -173 -67 -321t-181.5 -248.5t-270 -157.5t-329.5 -57q-194 0 -359 70t-286.5 201t-190 330.5t-68.5 446.5q0 248 68 449t188 333t284 203t356 71q197 0 365 -72.5t294 -218
t189 -349.5l-468 -64q-43 146 -144.5 217t-235.5 71q-94 0 -170 -36t-135 -110.5t-91 -200t-32 -293.5q0 -135 21.5 -242t60 -179.5t94 -120.5t120 -69t140.5 -21q170 0 283 99.5t113 268.5h-396v340h848z" />
    <glyph glyph-name="gcaron" unicode="&#x1e7;" horiz-adv-x="1652" 
d="M572 2112l204 -184l200 184h376v-12l-436 -392h-284l-440 392v12h380zM1052 1528h456v-1460q0 -208 -94 -357.5t-260.5 -224t-389.5 -74.5q-191 0 -355.5 60t-236.5 132l192 312q176 -132 384 -132q151 0 231.5 73t80.5 235v100h-24q-33 -66 -125.5 -113t-222.5 -47
q-94 0 -180 27t-161.5 86t-131 145t-87.5 211.5t-32 278.5q0 190 49 341t132 244.5t188 142t223 48.5q121 0 213 -49t131 -135h20v156zM528 780q0 -196 78.5 -294t217.5 -98q143 0 209.5 104t66.5 288q0 88 -15 159.5t-46 129.5t-86 90.5t-129 32.5q-144 0 -220 -109.5
t-76 -302.5z" />
    <glyph glyph-name="Kcaron" unicode="&#x1e8;" horiz-adv-x="2048" 
d="M660 2536l204 -184l200 184h376v-12l-436 -392h-284l-440 392v12h380zM1400 0l-553 762l-239 -262v-500h-464v2048h464v-856h28l772 856h608l-873 -948l813 -1100h-556z" />
    <glyph glyph-name="kcaron" unicode="&#x1e9;" horiz-adv-x="1588" 
d="M672 2536l204 -184l200 184h376v-12l-436 -392h-284l-440 392v12h380zM1092 0l-376 586l-112 -128v-458h-460v2048h460v-1020h20l408 508h532l-551 -655l575 -881h-496z" />
    <glyph glyph-name="Oogonek" unicode="&#x1ea;" horiz-adv-x="2040" 
d="M1920 1020q0 -231 -60.5 -421.5t-168.5 -321t-254 -207.5t-320 -94q-86 -49 -123.5 -93.5t-37.5 -102.5q0 -88 88 -88q22 0 38.5 3.5t35.5 11.5t22 9l52 -228q-103 -60 -228 -60q-144 0 -236 76.5t-92 215.5q0 170 146 282q-301 79 -481.5 344t-180.5 674q0 199 44.5 369
t126 295.5t194 214t249 133t290.5 44.5q191 0 354.5 -71t284 -202.5t189 -333t68.5 -449.5zM1452 1020q0 330 -114 485t-314 155q-97 0 -175 -36t-137 -111t-91.5 -200t-32.5 -293q0 -135 21.5 -242t59.5 -179.5t93 -120t120 -69t142 -21.5q97 0 173.5 34.5t134.5 108
t89 197t31 292.5z" />
    <glyph glyph-name="oogonek" unicode="&#x1eb;" horiz-adv-x="1640" 
d="M960 -512q-103 -60 -228 -60q-144 0 -236 76.5t-92 215.5q0 177 160 293q-221 76 -344.5 276.5t-123.5 478.5q0 232 86 409.5t251 278t387 100.5t387 -100.5t251 -278t86 -409.5q0 -221 -78.5 -395t-229.5 -279.5t-355 -119.5q-84 -49 -120.5 -93t-36.5 -101
q0 -88 88 -88q22 0 38.5 3.5t35.5 11.5t22 9zM820 340q288 0 288 428q0 424 -288 424t-288 -424q0 -428 288 -428z" />
    <glyph glyph-name="Oogonekmacron" unicode="&#x1ec;" horiz-adv-x="2040" 
d="M1500 2420v-236h-952v236h952zM1920 1020q0 -231 -60.5 -421.5t-168.5 -321t-254 -207.5t-320 -94q-86 -49 -123.5 -93.5t-37.5 -102.5q0 -88 88 -88q22 0 38.5 3.5t35.5 11.5t22 9l52 -228q-103 -60 -228 -60q-144 0 -236 76.5t-92 215.5q0 170 146 282
q-301 79 -481.5 344t-180.5 674q0 199 44.5 369t126 295.5t194 214t249 133t290.5 44.5q191 0 354.5 -71t284 -202.5t189 -333t68.5 -449.5zM1452 1020q0 330 -114 485t-314 155q-97 0 -175 -36t-137 -111t-91.5 -200t-32.5 -293q0 -135 21.5 -242t59.5 -179.5t93 -120
t120 -69t142 -21.5q97 0 173.5 34.5t134.5 108t89 197t31 292.5z" />
    <glyph glyph-name="oogonekmacron" unicode="&#x1ed;" horiz-adv-x="1640" 
d="M1264 1996v-236h-952v236h952zM960 -512q-103 -60 -228 -60q-144 0 -236 76.5t-92 215.5q0 177 160 293q-221 76 -344.5 276.5t-123.5 478.5q0 232 86 409.5t251 278t387 100.5t387 -100.5t251 -278t86 -409.5q0 -221 -78.5 -395t-229.5 -279.5t-355 -119.5
q-84 -49 -120.5 -93t-36.5 -101q0 -88 88 -88q22 0 38.5 3.5t35.5 11.5t22 9zM820 340q288 0 288 428q0 424 -288 424t-288 -424q0 -428 288 -428z" />
    <glyph glyph-name="Ezhcaron" unicode="&#x1ee;" horiz-adv-x="2080" 
d="M752 2460l204 -184l200 184h376v-12l-436 -392h-284l-440 392v12h380zM208 104h460q12 -174 101 -253t263 -79q202 0 293 124.5t91 391.5q0 286 -92.5 409t-291.5 123h-384v248l486 560h-930v376h1528v-244l-511 -600q305 -56 480 -283.5t175 -588.5q0 -418 -226 -653
t-618 -235q-242 0 -425.5 89.5t-285 248t-113.5 366.5z" />
    <glyph glyph-name="ezhcaron" unicode="&#x1ef;" horiz-adv-x="1824" 
d="M736 2100l172 -184l176 184h376v-20l-396 -356h-312l-396 360v16h380zM260 1488h1352v-296l-476 -502q245 -52 376.5 -218t131.5 -428q0 -182 -97.5 -316.5t-265.5 -203t-385 -68.5q-108 0 -209.5 21t-194.5 67.5t-161.5 113.5t-109.5 165t-41 217h444q0 -98 74.5 -163
t197.5 -65q140 0 222 69.5t82 174.5q0 193 -91.5 278.5t-276.5 85.5h-180v268l452 444h-844v356z" />
    <glyph glyph-name="jcaron" unicode="&#x1f0;" horiz-adv-x="948" 
d="M356 2080l204 -184l200 184h376v-12l-436 -392h-284l-440 392v12h380zM332 1536h460v-1584q0 -136 -45.5 -239.5t-128 -166.5t-190.5 -94.5t-240 -31.5h-168v360h96q65 0 109 13.5t66.5 39.5t31.5 56t9 71v1576z" />
    <glyph glyph-name="DZ" unicode="&#x1f1;" horiz-adv-x="4040" 
d="M1124 0h-724v2048h724q451 0 711.5 -272.5t260.5 -751.5t-260.5 -751.5t-711.5 -272.5zM3904 384v-384h-1552v272l975 1392h-975v384h1552v-272l-975 -1392h975zM1100 1648h-236v-1248h240q262 0 393 148t131 476t-131.5 476t-396.5 148z" />
    <glyph glyph-name="Dz" unicode="&#x1f2;" horiz-adv-x="3760" 
d="M1124 0h-724v2048h724q451 0 711.5 -272.5t260.5 -751.5t-260.5 -751.5t-711.5 -272.5zM1100 1648h-236v-1248h240q262 0 393 148t131 476t-131.5 476t-396.5 148zM3616 360v-360h-1256v260l672 916h-644v360h1212v-260l-672 -916h688z" />
    <glyph glyph-name="Gacute" unicode="&#x1f4;" horiz-adv-x="2000" 
d="M816 2104l272 432h472l-380 -432h-364zM1872 1096v-340q0 -173 -67 -321t-181.5 -248.5t-270 -157.5t-329.5 -57q-194 0 -359 70t-286.5 201t-190 330.5t-68.5 446.5q0 248 68 449t188 333t284 203t356 71q197 0 365 -72.5t294 -218t189 -349.5l-468 -64
q-43 146 -144.5 217t-235.5 71q-94 0 -170 -36t-135 -110.5t-91 -200t-32 -293.5q0 -135 21.5 -242t60 -179.5t94 -120.5t120 -69t140.5 -21q170 0 283 99.5t113 268.5h-396v340h848z" />
    <glyph glyph-name="gacute" unicode="&#x1f5;" horiz-adv-x="1652" 
d="M568 1680l272 432h472l-380 -432h-364zM1052 1528h456v-1460q0 -208 -94 -357.5t-260.5 -224t-389.5 -74.5q-191 0 -355.5 60t-236.5 132l192 312q176 -132 384 -132q151 0 231.5 73t80.5 235v100h-24q-33 -66 -125.5 -113t-222.5 -47q-94 0 -180 27t-161.5 86t-131 145
t-87.5 211.5t-32 278.5q0 190 49 341t132 244.5t188 142t223 48.5q121 0 213 -49t131 -135h20v156zM528 780q0 -196 78.5 -294t217.5 -98q143 0 209.5 104t66.5 288q0 88 -15 159.5t-46 129.5t-86 90.5t-129 32.5q-144 0 -220 -109.5t-76 -302.5z" />
    <glyph glyph-name="uni01F6" unicode="&#x1f6;" horiz-adv-x="2968" 
d="M604 2048v-840h740v840h460v-1352q0 -344 280 -344t280 344v792h460v-792q0 -348 -194.5 -536t-545.5 -188q-348 0 -543 185.5t-197 530.5v148h-740v-836h-460v2048h460z" />
    <glyph glyph-name="uni01F7" unicode="&#x1f7;" horiz-adv-x="2080" 
d="M684 2004v-44q144 72 328 72q190 0 346 -59.5t266.5 -171.5t171 -281t60.5 -380v-72q0 -417 -301 -745.5t-871 -521.5v-373h-456v2576h456zM1012 1660q-185 0 -328 -141v-1330q347 145 523.5 370t176.5 509v76q0 96 -8.5 168.5t-32.5 140.5t-65 111.5t-108 69.5t-158 26z
" />
    <glyph glyph-name="uni01F8" unicode="&#x1f8;" horiz-adv-x="1952" 
d="M988 2536l272 -432h-360l-384 432h472zM1808 2048v-2048h-456l-728 1260h-16v-1260h-464v2048h460l724 -1260h16v1260h464z" />
    <glyph glyph-name="uni01F9" unicode="&#x1f9;" horiz-adv-x="1656" 
d="M772 2112l272 -432h-360l-384 432h472zM604 816v-816h-460v1536h424v-164h16q67 86 174.5 135t237.5 49q81 0 153.5 -19t140 -63.5t116 -111.5t77.5 -170t29 -232v-960h-460v944q0 119 -61.5 183.5t-158.5 64.5q-228 0 -228 -376z" />
    <glyph glyph-name="Aringacute" unicode="&#x1fa;" horiz-adv-x="2168" 
d="M968 2480l280 296h388l-392 -296h-276zM580 0h-500l748 2027q-40 62 -40 137q0 111 84.5 187.5t207.5 76.5t205.5 -76.5t82.5 -187.5q0 -68 -33 -125l753 -2039h-500l-129 384h-750zM956 2164q0 -41 21 -72t57 -44h92q34 13 54 44t20 72q0 57 -33 90.5t-87 33.5
q-55 0 -89.5 -34t-34.5 -90zM1072 1468l-239 -712h502l-239 712h-24z" />
    <glyph glyph-name="aringacute" unicode="&#x1fb;" horiz-adv-x="1552" 
d="M664 2056l280 296h388l-392 -296h-276zM968 0v156h-20q-47 -80 -138.5 -132t-225.5 -52q-100 0 -188 31t-155 87.5t-106 145t-39 196.5q0 211 155 340.5t473 155.5q38 3 62 5.5t57.5 9.5t53 16t33.5 24.5t14 36.5v32q0 64 -48 110t-128 46t-142 -45.5t-74 -118.5l-432 40
q29 173 152 292t318 160q-106 75 -106 204q0 111 84.5 187.5t207.5 76.5t205.5 -76.5t82.5 -187.5q0 -126 -98 -200q204 -39 323 -166.5t119 -333.5v-1040h-440zM652 1740q0 -54 35 -89t89 -35t87 35t33 89q0 57 -33 90.5t-87 33.5q-55 0 -89.5 -34t-34.5 -90zM944 492v196
q-29 -29 -160 -48q-134 -15 -189 -62t-55 -134q0 -63 44.5 -101.5t119.5 -38.5q93 0 166.5 54.5t73.5 133.5z" />
    <glyph glyph-name="AEacute" unicode="&#x1fc;" horiz-adv-x="2744" 
d="M1140 2120l272 432h472l-380 -432h-364zM2616 364v-364h-1232l-16 384h-594l-178 -384h-516l1032 2048h1420v-364h-774l19 -480h643v-360h-629l19 -480h806zM947 756h406l-33 805z" />
    <glyph glyph-name="aeacute" unicode="&#x1fd;" horiz-adv-x="2444" 
d="M1036 1680l272 432h472l-380 -432h-364zM128 1084q36 216 214 344t454 128q270 0 433 -120q182 120 419 120q321 0 510.5 -192.5t189.5 -531.5v-140l-997 -101q57 -251 305 -251q66 0 115.5 17.5t80.5 49t48.5 62t31.5 71.5l404 -108q-15 -63 -47 -124.5t-89 -123.5
t-130.5 -108t-180 -75t-229.5 -29q-174 0 -295.5 55.5t-209.5 164.5h-15q-12 -31 -44 -65.5t-86.5 -71t-143 -60t-194.5 -23.5q-87 0 -167 15.5t-154 51t-128 87.5t-86.5 131t-32.5 175q0 211 155 340.5t473 155.5q38 3 62 5.5t57.5 9.5t53 16t33.5 24.5t14 36.5v32
q0 60 -54.5 100t-133.5 40q-80 0 -135.5 -45t-76.5 -127zM1644 1192q-124 0 -199.5 -81t-98.5 -230l574 55q0 112 -72.5 184t-203.5 72zM952 492v196q-29 -29 -160 -48q-134 -15 -189 -62t-55 -134q0 -63 44.5 -101.5t119.5 -38.5q93 0 166.5 54.5t73.5 133.5z" />
    <glyph glyph-name="Oslashacute" unicode="&#x1fe;" horiz-adv-x="2040" 
d="M816 2208l272 432h472l-380 -432h-364zM424 -100l-200 136l147 218q-251 285 -251 766q0 199 44.5 369t126 295.5t194 214t249 133t290.5 44.5q272 0 484 -140l140 208l200 -136l-160 -237q232 -285 232 -751q0 -246 -68.5 -446t-189 -331t-284 -201t-354.5 -70
q-261 0 -467 125zM588 1020q0 -218 55 -363l625 924q-99 79 -244 79q-97 0 -175 -36t-137 -111t-91.5 -200t-32.5 -293zM1452 1020q0 202 -44 337l-612 -906q97 -63 228 -63q97 0 173.5 34.5t134.5 108t89 197t31 292.5z" />
    <glyph glyph-name="oslashacute" unicode="&#x1ff;" horiz-adv-x="1640" 
d="M452 1672l272 432h472l-380 -432h-364zM380 -100l-200 136l108 160q-192 218 -192 572q0 232 86 409.5t251 278t387 100.5q186 0 337 -73l95 141l200 -136l-102 -151q194 -214 194 -569q0 -232 -86 -411.5t-251 -282t-387 -102.5q-190 0 -340 76zM532 768q0 -103 18 -184
l393 583q-55 25 -123 25q-288 0 -288 -424zM820 340q288 0 288 428q0 103 -18 184l-395 -585q52 -27 125 -27z" />
    <glyph glyph-name="Adblgrave" unicode="&#x200;" horiz-adv-x="2168" 
d="M1027 2148h-359l-394 365h416zM1531 2148h-359l-337 365h416zM580 0h-500l756 2048h496l756 -2048h-500l-129 384h-750zM1072 1468l-239 -712h502l-239 712h-24z" />
    <glyph glyph-name="adblgrave" unicode="&#x201;" horiz-adv-x="1552" 
d="M723 1724h-359l-394 365h416zM1227 1724h-359l-337 365h416zM968 0v156h-20q-47 -80 -138.5 -132t-225.5 -52q-100 0 -188 31t-155 87.5t-106 145t-39 196.5q0 211 155 340.5t473 155.5q38 3 62 5.5t57.5 9.5t53 16t33.5 24.5t14 36.5v32q0 64 -48 110t-128 46
t-142 -45.5t-74 -118.5l-432 40q36 216 214 344t454 128q135 0 247.5 -32.5t196 -96t130 -162.5t46.5 -225v-1040h-440zM944 492v196q-29 -29 -160 -48q-134 -15 -189 -62t-55 -134q0 -63 44.5 -101.5t119.5 -38.5q93 0 166.5 54.5t73.5 133.5z" />
    <glyph glyph-name="Ainvertedbreve" unicode="&#x202;" horiz-adv-x="2168" 
d="M1582 2185h-307q0 76 -46.5 125.5t-144.5 49.5q-100 0 -147 -49.5t-47 -125.5h-305q0 189 135.5 305.5t363.5 116.5q227 0 362.5 -117t135.5 -305zM580 0h-500l756 2048h496l756 -2048h-500l-129 384h-750zM1072 1468l-239 -712h502l-239 712h-24z" />
    <glyph glyph-name="ainvertedbreve" unicode="&#x203;" horiz-adv-x="1552" 
d="M1278 1761h-307q0 76 -46.5 125.5t-144.5 49.5q-100 0 -147 -49.5t-47 -125.5h-305q0 189 135.5 305.5t363.5 116.5q227 0 362.5 -117t135.5 -305zM968 0v156h-20q-47 -80 -138.5 -132t-225.5 -52q-100 0 -188 31t-155 87.5t-106 145t-39 196.5q0 211 155 340.5
t473 155.5q38 3 62 5.5t57.5 9.5t53 16t33.5 24.5t14 36.5v32q0 64 -48 110t-128 46t-142 -45.5t-74 -118.5l-432 40q36 216 214 344t454 128q135 0 247.5 -32.5t196 -96t130 -162.5t46.5 -225v-1040h-440zM944 492v196q-29 -29 -160 -48q-134 -15 -189 -62t-55 -134
q0 -63 44.5 -101.5t119.5 -38.5q93 0 166.5 54.5t73.5 133.5z" />
    <glyph glyph-name="Edblgrave" unicode="&#x204;" horiz-adv-x="1656" 
d="M791 2148h-359l-394 365h416zM1295 2148h-359l-337 365h416zM1512 384v-384h-1368v2048h1368v-384h-904v-448h764v-384h-764v-448h904z" />
    <glyph glyph-name="edblgrave" unicode="&#x205;" horiz-adv-x="1636" 
d="M747 1724h-359l-394 365h416zM1251 1724h-359l-337 365h416zM852 -28q-352 0 -554 205t-202 567q0 176 49.5 324.5t142 257t234.5 169.5t318 61q321 0 510.5 -192.5t189.5 -531.5v-192h-1005q19 -142 96 -221t217 -79q66 0 115.5 17.5t80.5 49t48.5 62t31.5 71.5
l404 -108q-15 -64 -46 -125t-86.5 -123t-128.5 -108t-180.5 -75t-234.5 -29zM836 1192q-112 0 -184.5 -66.5t-102.5 -189.5h563q0 112 -72.5 184t-203.5 72z" />
    <glyph glyph-name="Einvertedbreve" unicode="&#x206;" horiz-adv-x="1656" 
d="M1346 2185h-307q0 76 -46.5 125.5t-144.5 49.5q-100 0 -147 -49.5t-47 -125.5h-305q0 189 135.5 305.5t363.5 116.5q227 0 362.5 -117t135.5 -305zM1512 384v-384h-1368v2048h1368v-384h-904v-448h764v-384h-764v-448h904z" />
    <glyph glyph-name="einvertedbreve" unicode="&#x207;" horiz-adv-x="1636" 
d="M1302 1761h-307q0 76 -46.5 125.5t-144.5 49.5q-100 0 -147 -49.5t-47 -125.5h-305q0 189 135.5 305.5t363.5 116.5q227 0 362.5 -117t135.5 -305zM852 -28q-352 0 -554 205t-202 567q0 176 49.5 324.5t142 257t234.5 169.5t318 61q321 0 510.5 -192.5t189.5 -531.5v-192
h-1005q19 -142 96 -221t217 -79q66 0 115.5 17.5t80.5 49t48.5 62t31.5 71.5l404 -108q-15 -64 -46 -125t-86.5 -123t-128.5 -108t-180.5 -75t-234.5 -29zM836 1192q-112 0 -184.5 -66.5t-102.5 -189.5h563q0 112 -72.5 184t-203.5 72z" />
    <glyph glyph-name="Idblgrave" unicode="&#x208;" horiz-adv-x="752" 
d="M319 2148h-359l-394 365h416zM823 2148h-359l-337 365h416zM608 2048v-2048h-464v2048h464z" />
    <glyph glyph-name="idblgrave" unicode="&#x209;" horiz-adv-x="780" 
d="M335 1692h-359l-394 365h416zM839 1692h-359l-337 365h416zM620 1536v-1536h-460v1536h460z" />
    <glyph glyph-name="Iinvertedbreve" unicode="&#x20a;" horiz-adv-x="752" 
d="M874 2185h-307q0 76 -46.5 125.5t-144.5 49.5q-100 0 -147 -49.5t-47 -125.5h-305q0 189 135.5 305.5t363.5 116.5q227 0 362.5 -117t135.5 -305zM608 2048v-2048h-464v2048h464z" />
    <glyph glyph-name="iinvertedbreve" unicode="&#x20b;" horiz-adv-x="780" 
d="M890 1729h-307q0 76 -46.5 125.5t-144.5 49.5q-100 0 -147 -49.5t-47 -125.5h-305q0 189 135.5 305.5t363.5 116.5q227 0 362.5 -117t135.5 -305zM620 1536v-1536h-460v1536h460z" />
    <glyph glyph-name="Odblgrave" unicode="&#x20c;" horiz-adv-x="2040" 
d="M967 2148h-359l-394 365h416zM1471 2148h-359l-337 365h416zM1920 1020q0 -246 -68.5 -446t-189 -331t-284 -201t-354.5 -70q-193 0 -357.5 70t-286.5 201t-191 331t-69 446q0 199 44.5 369t126 295.5t194 214t249 133t290.5 44.5q191 0 354.5 -71t284 -202.5t189 -333
t68.5 -449.5zM1452 1020q0 330 -114 485t-314 155q-97 0 -175 -36t-137 -111t-91.5 -200t-32.5 -293q0 -135 21.5 -242t59.5 -179.5t93 -120t120 -69t142 -21.5q97 0 173.5 34.5t134.5 108t89 197t31 292.5z" />
    <glyph glyph-name="odblgrave" unicode="&#x20d;" horiz-adv-x="1640" 
d="M731 1724h-359l-394 365h416zM1235 1724h-359l-337 365h416zM820 -28q-222 0 -387 102.5t-251 282t-86 411.5t86 409.5t251 278t387 100.5t387 -100.5t251 -278t86 -409.5t-86 -411.5t-251 -282t-387 -102.5zM820 340q288 0 288 428q0 424 -288 424t-288 -424
q0 -428 288 -428z" />
    <glyph glyph-name="Oinvertedbreve" unicode="&#x20e;" horiz-adv-x="2040" 
d="M1522 2185h-307q0 76 -46.5 125.5t-144.5 49.5q-100 0 -147 -49.5t-47 -125.5h-305q0 189 135.5 305.5t363.5 116.5q227 0 362.5 -117t135.5 -305zM1920 1020q0 -246 -68.5 -446t-189 -331t-284 -201t-354.5 -70q-193 0 -357.5 70t-286.5 201t-191 331t-69 446
q0 199 44.5 369t126 295.5t194 214t249 133t290.5 44.5q191 0 354.5 -71t284 -202.5t189 -333t68.5 -449.5zM1452 1020q0 330 -114 485t-314 155q-97 0 -175 -36t-137 -111t-91.5 -200t-32.5 -293q0 -135 21.5 -242t59.5 -179.5t93 -120t120 -69t142 -21.5q97 0 173.5 34.5
t134.5 108t89 197t31 292.5z" />
    <glyph glyph-name="oinvertedbreve" unicode="&#x20f;" horiz-adv-x="1640" 
d="M1286 1761h-307q0 76 -46.5 125.5t-144.5 49.5q-100 0 -147 -49.5t-47 -125.5h-305q0 189 135.5 305.5t363.5 116.5q227 0 362.5 -117t135.5 -305zM820 -28q-222 0 -387 102.5t-251 282t-86 411.5t86 409.5t251 278t387 100.5t387 -100.5t251 -278t86 -409.5t-86 -411.5
t-251 -282t-387 -102.5zM820 340q288 0 288 428q0 424 -288 424t-288 -424q0 -428 288 -428z" />
    <glyph glyph-name="Rdblgrave" unicode="&#x210;" horiz-adv-x="1796" 
d="M843 2148h-359l-394 365h416zM1347 2148h-359l-337 365h416zM1244 0l-368 752h-268v-752h-464v2048h788q359 0 547.5 -168t188.5 -472q0 -390 -333 -571l417 -837h-508zM608 1664v-532h324q128 0 202 66.5t74 197.5q0 130 -74 199t-202 69h-324z" />
    <glyph glyph-name="rdblgrave" unicode="&#x211;" horiz-adv-x="1196" 
d="M563 1724h-359l-394 365h416zM1067 1724h-359l-337 365h416zM1164 1508l-140 -392q-18 11 -62.5 21.5t-85.5 10.5q-114 0 -193 -81t-79 -195v-872h-460v1536h448v-196h24q31 111 124 163.5t208 52.5q60 0 120 -13.5t96 -34.5z" />
    <glyph glyph-name="Rinvertedbreve" unicode="&#x212;" horiz-adv-x="1796" 
d="M1398 2185h-307q0 76 -46.5 125.5t-144.5 49.5q-100 0 -147 -49.5t-47 -125.5h-305q0 189 135.5 305.5t363.5 116.5q227 0 362.5 -117t135.5 -305zM1244 0l-368 752h-268v-752h-464v2048h788q359 0 547.5 -168t188.5 -472q0 -390 -333 -571l417 -837h-508zM608 1664v-532
h324q128 0 202 66.5t74 197.5q0 130 -74 199t-202 69h-324z" />
    <glyph glyph-name="rinvertedbreve" unicode="&#x213;" horiz-adv-x="1196" 
d="M1118 1761h-307q0 76 -46.5 125.5t-144.5 49.5q-100 0 -147 -49.5t-47 -125.5h-305q0 189 135.5 305.5t363.5 116.5q227 0 362.5 -117t135.5 -305zM1164 1508l-140 -392q-18 11 -62.5 21.5t-85.5 10.5q-114 0 -193 -81t-79 -195v-872h-460v1536h448v-196h24
q31 111 124 163.5t208 52.5q60 0 120 -13.5t96 -34.5z" />
    <glyph glyph-name="Udblgrave" unicode="&#x214;" horiz-adv-x="1952" 
d="M919 2148h-359l-394 365h416zM1423 2148h-359l-337 365h416zM1344 2048h464v-1352q0 -230 -105 -394.5t-290 -247t-433 -82.5q-250 0 -437 82.5t-293 247.5t-106 394v1352h464v-1336q0 -149 102.5 -236.5t269.5 -87.5q166 0 265 87.5t99 236.5v1336z" />
    <glyph glyph-name="udblgrave" unicode="&#x215;" horiz-adv-x="1656" 
d="M747 1724h-359l-394 365h416zM1251 1724h-359l-337 365h416zM1052 720v816h460v-1536h-424v164h-16q-67 -86 -174.5 -135t-237.5 -49q-81 0 -153.5 19t-140 63.5t-116 111.5t-77.5 170t-29 232v960h460v-944q0 -119 61.5 -183.5t158.5 -64.5q228 0 228 376z" />
    <glyph glyph-name="Uinvertedbreve" unicode="&#x216;" horiz-adv-x="1952" 
d="M1474 2185h-307q0 76 -46.5 125.5t-144.5 49.5q-100 0 -147 -49.5t-47 -125.5h-305q0 189 135.5 305.5t363.5 116.5q227 0 362.5 -117t135.5 -305zM1344 2048h464v-1352q0 -230 -105 -394.5t-290 -247t-433 -82.5q-250 0 -437 82.5t-293 247.5t-106 394v1352h464v-1336
q0 -149 102.5 -236.5t269.5 -87.5q166 0 265 87.5t99 236.5v1336z" />
    <glyph glyph-name="uinvertedbreve" unicode="&#x217;" horiz-adv-x="1656" 
d="M1302 1761h-307q0 76 -46.5 125.5t-144.5 49.5q-100 0 -147 -49.5t-47 -125.5h-305q0 189 135.5 305.5t363.5 116.5q227 0 362.5 -117t135.5 -305zM1052 720v816h460v-1536h-424v164h-16q-67 -86 -174.5 -135t-237.5 -49q-81 0 -153.5 19t-140 63.5t-116 111.5t-77.5 170
t-29 232v960h460v-944q0 -119 61.5 -183.5t158.5 -64.5q228 0 228 376z" />
    <glyph glyph-name="Scommaaccent" unicode="&#x218;" horiz-adv-x="1776" 
d="M1208 1440q-6 118 -82 183t-222 65q-136 0 -222 -53t-86 -139q0 -85 108 -147q61 -35 251 -104q15 -5 25 -9l56 -24q152 -54 259 -111t189.5 -132.5t123 -173t40.5 -219.5q0 -190 -97 -328t-266.5 -207t-392.5 -69q-125 0 -241 25t-220 79.5t-180.5 134t-121.5 196
t-45 257.5h448q6 -148 101 -228t259 -80q152 0 230 63.5t78 152.5q0 95 -95.5 166.5t-328.5 145.5l-40 12q-131 40 -236.5 96t-186.5 130t-125 170.5t-44 207.5q0 169 98 301t271 203.5t391 71.5q219 0 387.5 -77.5t262.5 -222.5t94 -336h-440zM1076 -116v-228
q0 -364 -196 -560l-224 112q55 123 70 171q30 102 30 249v256h320z" />
    <glyph glyph-name="scommaaccent" unicode="&#x219;" horiz-adv-x="1552" 
d="M1444 1084l-420 -24q-11 81 -79 122.5t-157 41.5q-83 0 -145.5 -36t-62.5 -96q0 -54 45.5 -81.5t122.5 -42.5l312 -64q89 -18 158 -45.5t131.5 -75t96.5 -123t34 -176.5q0 -104 -38 -189.5t-104.5 -144.5t-158 -100t-197 -59.5t-222.5 -18.5q-296 0 -468.5 125
t-211.5 375l444 24q20 -98 94 -147t170 -49q89 0 154.5 35.5t65.5 88.5q0 18 -3 32.5t-11 26.5t-14 20.5t-21 16.5t-21.5 12t-26 9.5t-24.5 7t-27 6.5t-24 5l-276 60q-436 98 -436 440q0 234 186 365t502 131q576 0 632 -472zM952 -128v-228q0 -364 -196 -560l-224 112
q55 123 70 171q30 102 30 249v256h320z" />
    <glyph glyph-name="uni021A" unicode="&#x21a;" horiz-adv-x="1820" 
d="M1740 2048v-384h-600v-1664h-460v1664h-600v384h1660zM1064 -100v-228q0 -364 -196 -560l-224 112q55 123 70 171q30 102 30 249v256h320z" />
    <glyph glyph-name="uni021B" unicode="&#x21b;" horiz-adv-x="1048" 
d="M940 1536v-320h-240v-732q0 -80 33 -106t99 -26q54 0 96 12l68 -340q-32 -14 -117 -29t-195 -15q-190 0 -317 124t-127 324v788h-172v320h172v328h460v-328h240zM784 -116v-228q0 -364 -196 -560l-224 112q55 123 70 171q30 102 30 249v256h320z" />
    <glyph glyph-name="uni021C" unicode="&#x21c;" horiz-adv-x="1824" 
d="M308 412v348q180 55 307.5 100.5t228.5 93t163.5 92.5t103.5 99.5t57 113t16 133.5q0 264 -296 264q-116 0 -194 -51.5t-78 -148.5h-460q0 108 39 200.5t108 160t161.5 115.5t200 72t223.5 24q228 0 395.5 -63.5t262 -192.5t94.5 -312q0 -323 -222 -547
q119 -66 184.5 -176.5t65.5 -256.5q0 -180 -66.5 -337t-186.5 -278t-289.5 -215.5t-374.5 -156t-443 -93.5v368q442 87 671 271t229 449q0 166 -85 213q-294 -158 -815 -289z" />
    <glyph glyph-name="uni021D" unicode="&#x21d;" horiz-adv-x="1568" 
d="M324 200v320q330 111 479 223.5t149 264.5q0 84 -36.5 130t-131.5 46q-90 0 -141 -32t-51 -96h-444q0 140 82.5 246t219.5 160t306 54q296 0 466 -113t170 -323q0 -262 -175 -446q203 -112 203 -378q0 -163 -78.5 -300.5t-226 -242t-344.5 -182t-447 -131.5v328
q182 68 299 125t199.5 123.5t118 142t35.5 173.5q0 83 -32 141q-232 -126 -620 -233z" />
    <glyph glyph-name="uni021E" unicode="&#x21e;" horiz-adv-x="1952" 
d="M844 2536l204 -184l200 184h376v-12l-436 -392h-284l-440 392v12h380zM608 2048v-832h736v832h464v-2048h-464v832h-736v-832h-464v2048h464z" />
    <glyph glyph-name="uni021F" unicode="&#x21f;" horiz-adv-x="1612" 
d="M708 2664l204 -184l200 184h376v-12l-436 -392h-284l-440 392v12h380zM604 816v-816h-460v2048h444v-676h16q67 88 169 136t227 48q215 0 341.5 -150t126.5 -446v-960h-460v964q0 228 -172 228q-83 0 -136 -51t-74.5 -132t-21.5 -193z" />
    <glyph glyph-name="uni0220" unicode="&#x220;" horiz-adv-x="1824" 
d="M1652 -572h-448v1996q0 127 -67 189.5t-209 62.5q-158 0 -308 -92v-1584h-444v2004h444v-59q174 87 368 87q189 0 338.5 -71t237.5 -210.5t88 -326.5v-1996z" />
    <glyph glyph-name="uni0221" unicode="&#x221;" horiz-adv-x="2336" 
d="M2164 -208q0 -180 -130.5 -286t-381.5 -106q-367 0 -493 234l-251 -206l-188 272l372 297v129q-45 -72 -131 -111t-197 -39q-123 0 -229.5 51t-188 147.5t-128 249.5t-46.5 344q0 194 49 348t132 248t188 143t223 49q121 0 213 -49t131 -135h16v676h460v-1880q44 4 104 4
q230 0 353 -101.5t123 -278.5zM604 768q0 -204 75.5 -316t220.5 -112q276 0 276 428q0 424 -276 424q-145 0 -220.5 -110.5t-75.5 -313.5zM1536 -168q0 -156 120 -156q53 0 88.5 25.5t35.5 78.5q0 47 -37 71.5t-99 24.5q-52 0 -108 -14v-30z" />
    <glyph glyph-name="uni0222" unicode="&#x222;" horiz-adv-x="1824" 
d="M896 1332h32q156 0 226 45t70 147q0 68 -32.5 100t-103.5 48v360q136 0 245 -30.5t190 -91t125 -159t44 -227.5q0 -262 -219 -396q215 -167 215 -480q0 -213 -99 -367.5t-269 -231.5t-392 -77h-28q-165 0 -305 45t-242 128.5t-159.5 211.5t-57.5 287q0 315 217 484
q-217 132 -217 396q0 255 161 381.5t439 126.5v-360q-70 -16 -101 -47.5t-31 -100.5q0 -102 68 -147t224 -45zM928 956h-28q-140 0 -218 -83.5t-78 -228.5q0 -140 78.5 -222t217.5 -82h28q142 0 217 82t75 226q0 141 -75.5 224.5t-216.5 83.5z" />
    <glyph glyph-name="uni0223" unicode="&#x223;" horiz-adv-x="1824" 
d="M928 1296q163 0 235.5 65.5t72.5 202.5q0 180 -148 232v344q272 0 430 -147t158 -421q0 -311 -215 -459q215 -161 215 -477q0 -211 -96.5 -362.5t-264 -226.5t-387.5 -75h-28q-222 0 -390 75t-265 226.5t-97 362.5q0 318 216 477q-216 149 -216 459q0 273 159 420.5
t429 147.5v-344q-144 -50 -144 -232q0 -137 72 -202.5t232 -65.5h32zM928 940h-28q-145 0 -226.5 -82t-81.5 -222t81.5 -222t226.5 -82h28q147 0 225.5 81.5t78.5 222.5t-78.5 222.5t-225.5 81.5z" />
    <glyph glyph-name="uni0224" unicode="&#x224;" horiz-adv-x="1824" 
d="M1688 1776l-976 -1392h428q279 0 429.5 -145.5t150.5 -406.5v-192h-376v108q0 53 -7.5 93t-28 78.5t-63 59.5t-105.5 21h-1004v272l976 1392h-976v384h1552v-272z" />
    <glyph glyph-name="zhook" unicode="&#x225;" horiz-adv-x="1544" 
d="M1384 1276l-672 -916h172q279 0 429.5 -145.5t150.5 -406.5v-192h-376v108q0 276 -204 276h-740v260l672 916h-644v360h1212v-260z" />
    <glyph glyph-name="uni0226" unicode="&#x226;" horiz-adv-x="2168" 
d="M864 2352q0 88 61 144t159 56t159 -56t61 -144t-61 -144t-159 -56t-159 56t-61 144zM580 0h-500l756 2048h496l756 -2048h-500l-129 384h-750zM1072 1468l-239 -712h502l-239 712h-24z" />
    <glyph glyph-name="uni0227" unicode="&#x227;" horiz-adv-x="1552" 
d="M560 1928q0 88 61 144t159 56t159 -56t61 -144t-61 -144t-159 -56t-159 56t-61 144zM968 0v156h-20q-47 -80 -138.5 -132t-225.5 -52q-100 0 -188 31t-155 87.5t-106 145t-39 196.5q0 211 155 340.5t473 155.5q38 3 62 5.5t57.5 9.5t53 16t33.5 24.5t14 36.5v32
q0 64 -48 110t-128 46t-142 -45.5t-74 -118.5l-432 40q36 216 214 344t454 128q135 0 247.5 -32.5t196 -96t130 -162.5t46.5 -225v-1040h-440zM944 492v196q-29 -29 -160 -48q-134 -15 -189 -62t-55 -134q0 -63 44.5 -101.5t119.5 -38.5q93 0 166.5 54.5t73.5 133.5z" />
    <glyph glyph-name="uni0228" unicode="&#x228;" horiz-adv-x="1656" 
d="M1512 384v-384h-446l-10 -56q86 -14 145 -71t59 -165q0 -157 -129.5 -248.5t-370.5 -91.5l-12 256q132 0 132 104q0 52 -42.5 73t-145.5 27l37 172h-585v2048h1368v-384h-904v-448h764v-384h-764v-448h904z" />
    <glyph glyph-name="uni0229" unicode="&#x229;" horiz-adv-x="1636" 
d="M1172 -308q0 -157 -129.5 -248.5t-370.5 -91.5l-12 256q132 0 132 104q0 52 -42.5 73t-145.5 27l39 181q-259 57 -403 252.5t-144 498.5q0 176 49.5 324.5t142 257t234.5 169.5t318 61q321 0 510.5 -192.5t189.5 -531.5v-192h-1005q19 -142 96 -221t217 -79
q66 0 115.5 17.5t80.5 49t48.5 62t31.5 71.5l404 -108q-17 -73 -56 -141.5t-103 -134.5t-165.5 -113t-226.5 -63l-9 -52q86 -14 145 -71t59 -165zM836 1192q-112 0 -184.5 -66.5t-102.5 -189.5h563q0 112 -72.5 184t-203.5 72z" />
    <glyph glyph-name="uni022A" unicode="&#x22a;" horiz-adv-x="2040" 
d="M1500 2828v-238h-953v238h953zM539 2299q0 70 54 117.5t139 47.5q86 0 141 -47.5t55 -117.5q0 -71 -54.5 -118t-141.5 -47q-85 0 -139 47t-54 118zM1119 2299q0 70 54.5 117.5t140.5 47.5t140 -47.5t54 -117.5q0 -71 -54 -118t-140 -47q-87 0 -141 47t-54 118zM1920 1020
q0 -246 -68.5 -446t-189 -331t-284 -201t-354.5 -70q-193 0 -357.5 70t-286.5 201t-191 331t-69 446q0 199 44.5 369t126 295.5t194 214t249 133t290.5 44.5q191 0 354.5 -71t284 -202.5t189 -333t68.5 -449.5zM1452 1020q0 330 -114 485t-314 155q-97 0 -175 -36t-137 -111
t-91.5 -200t-32.5 -293q0 -135 21.5 -242t59.5 -179.5t93 -120t120 -69t142 -21.5q97 0 173.5 34.5t134.5 108t89 197t31 292.5z" />
    <glyph glyph-name="uni022B" unicode="&#x22b;" horiz-adv-x="1640" 
d="M1265 2439v-238h-953v238h953zM234 1879q0 77 58.5 130t143.5 53t143.5 -53t58.5 -130t-58.5 -130t-143.5 -53t-143.5 53t-58.5 130zM934 1879q0 77 58.5 130t143.5 53t143.5 -53t58.5 -130t-58.5 -130t-143.5 -53t-143.5 53t-58.5 130zM820 -28q-222 0 -387 102.5
t-251 282t-86 411.5t86 409.5t251 278t387 100.5t387 -100.5t251 -278t86 -409.5t-86 -411.5t-251 -282t-387 -102.5zM820 340q288 0 288 428q0 424 -288 424t-288 -424q0 -428 288 -428z" />
    <glyph glyph-name="uni022C" unicode="&#x22c;" horiz-adv-x="2040" 
d="M1500 2842v-238h-953v238h953zM1251 2472l183 -53q0 -101 -64 -175t-160 -74q-49 0 -96 14t-78.5 30.5t-73 30.5t-80.5 14q-36 0 -60.5 -33.5t-24.5 -83.5l-181 52q0 101 63 175t159 74q60 0 166 -44t162 -44q35 0 60 34t25 83zM1920 1020q0 -246 -68.5 -446t-189 -331
t-284 -201t-354.5 -70q-193 0 -357.5 70t-286.5 201t-191 331t-69 446q0 199 44.5 369t126 295.5t194 214t249 133t290.5 44.5q191 0 354.5 -71t284 -202.5t189 -333t68.5 -449.5zM1452 1020q0 330 -114 485t-314 155q-97 0 -175 -36t-137 -111t-91.5 -200t-32.5 -293
q0 -135 21.5 -242t59.5 -179.5t93 -120t120 -69t142 -21.5q97 0 173.5 34.5t134.5 108t89 197t31 292.5z" />
    <glyph glyph-name="uni022D" unicode="&#x22d;" horiz-adv-x="1640" 
d="M1265 2522v-238h-953v238h953zM1067 2117l248 -15q0 -154 -90 -265t-227 -111q-58 0 -112 18t-89.5 40t-84 40t-95.5 18t-77.5 -32t-30.5 -92l-249 14q0 97 39.5 183t113 139t162.5 53q60 0 127 -28.5t132.5 -57t121.5 -28.5q48 0 79.5 32t31.5 92zM820 -28
q-222 0 -387 102.5t-251 282t-86 411.5t86 409.5t251 278t387 100.5t387 -100.5t251 -278t86 -409.5t-86 -411.5t-251 -282t-387 -102.5zM820 340q288 0 288 428q0 424 -288 424t-288 -424q0 -428 288 -428z" />
    <glyph glyph-name="uni022E" unicode="&#x22e;" horiz-adv-x="2040" 
d="M804 2352q0 88 61 144t159 56t159 -56t61 -144t-61 -144t-159 -56t-159 56t-61 144zM1920 1020q0 -246 -68.5 -446t-189 -331t-284 -201t-354.5 -70q-193 0 -357.5 70t-286.5 201t-191 331t-69 446q0 199 44.5 369t126 295.5t194 214t249 133t290.5 44.5q191 0 354.5 -71
t284 -202.5t189 -333t68.5 -449.5zM1452 1020q0 330 -114 485t-314 155q-97 0 -175 -36t-137 -111t-91.5 -200t-32.5 -293q0 -135 21.5 -242t59.5 -179.5t93 -120t120 -69t142 -21.5q97 0 173.5 34.5t134.5 108t89 197t31 292.5z" />
    <glyph glyph-name="uni022F" unicode="&#x22f;" horiz-adv-x="1640" 
d="M568 1928q0 88 61 144t159 56t159 -56t61 -144t-61 -144t-159 -56t-159 56t-61 144zM820 -28q-222 0 -387 102.5t-251 282t-86 411.5t86 409.5t251 278t387 100.5t387 -100.5t251 -278t86 -409.5t-86 -411.5t-251 -282t-387 -102.5zM820 340q288 0 288 428
q0 424 -288 424t-288 -424q0 -428 288 -428z" />
    <glyph glyph-name="uni0230" unicode="&#x230;" horiz-adv-x="2040" 
d="M1500 2825v-238h-953v238h953zM829 2310q0 70 54.5 117.5t140.5 47.5q85 0 139.5 -47.5t54.5 -117.5q0 -71 -54.5 -118t-139.5 -47q-87 0 -141 47t-54 118zM1920 1020q0 -246 -68.5 -446t-189 -331t-284 -201t-354.5 -70q-193 0 -357.5 70t-286.5 201t-191 331t-69 446
q0 199 44.5 369t126 295.5t194 214t249 133t290.5 44.5q191 0 354.5 -71t284 -202.5t189 -333t68.5 -449.5zM1452 1020q0 330 -114 485t-314 155q-97 0 -175 -36t-137 -111t-91.5 -200t-32.5 -293q0 -135 21.5 -242t59.5 -179.5t93 -120t120 -69t142 -21.5q97 0 173.5 34.5
t134.5 108t89 197t31 292.5z" />
    <glyph glyph-name="uni0231" unicode="&#x231;" horiz-adv-x="1640" 
d="M1265 2519v-238h-953v238h953zM567 1929q0 89 61 145.5t159 56.5t159 -56.5t61 -145.5q0 -88 -61 -144.5t-159 -56.5t-159 56.5t-61 144.5zM820 -28q-222 0 -387 102.5t-251 282t-86 411.5t86 409.5t251 278t387 100.5t387 -100.5t251 -278t86 -409.5t-86 -411.5
t-251 -282t-387 -102.5zM820 340q288 0 288 428q0 424 -288 424t-288 -424q0 -428 288 -428z" />
    <glyph glyph-name="uni0232" unicode="&#x232;" horiz-adv-x="2152" 
d="M1552 2420v-236h-952v236h952zM568 2048l497 -868h22l497 868h504l-780 -1268v-780h-464v780l-780 1268h504z" />
    <glyph glyph-name="uni0233" unicode="&#x233;" horiz-adv-x="1668" 
d="M1272 1996v-236h-952v236h952zM592 -24l17 47l-553 1513h472l299 -912h16l297 912h472l-644 -1756q-19 -51 -45.5 -98.5t-73 -100.5t-103.5 -91.5t-140 -64t-178 -25.5q-113 0 -232 44l100 352q37 -11 67.5 -16.5t55 -3t43 7.5t35 20t28 28.5t24.5 40t21 47t22 56.5z" />
    <glyph glyph-name="lcurl" unicode="&#x234;" horiz-adv-x="1216" 
d="M604 2048v-1826q80 18 152 18q181 0 296.5 -115.5t115.5 -276.5q0 -80 -32 -156t-88 -135.5t-142 -96t-186 -36.5q-139 0 -275.5 68.5t-216.5 198.5l-252 -207l-216 256l196 156q91 72 188 131v2021h460zM604 -112q0 -156 120 -156q36 0 62 31t26 73q0 34 -28 65t-72 31
q-56 0 -108 -13v-31z" />
    <glyph glyph-name="ncurl" unicode="&#x235;" horiz-adv-x="2124" 
d="M604 816v-816h-460v1536h424v-164h16q67 86 174.5 135t237.5 49q81 0 153.5 -19t140 -63.5t116 -111.5t77.5 -170t29 -232v-738q80 18 152 18q181 0 296.5 -115.5t115.5 -276.5q0 -80 -32 -156t-88 -135.5t-142 -96t-186 -36.5q-139 0 -275.5 68.5t-216.5 198.5
l-252 -207l-216 256l196 156q91 72 188 131v917q0 119 -61.5 183.5t-158.5 64.5q-228 0 -228 -376zM1512 -112q0 -156 120 -156q36 0 62 31t26 73q0 34 -28 65t-72 31q-56 0 -108 -13v-31z" />
    <glyph glyph-name="tcurl" unicode="&#x236;" horiz-adv-x="1396" 
d="M1024 1536v-320h-240v-450q80 18 152 18q181 0 296.5 -115.5t115.5 -276.5q0 -80 -32 -156t-88 -135.5t-142 -96t-186 -36.5q-139 0 -275.5 68.5t-216.5 198.5l-252 -207l-216 256l196 156q91 72 188 131v645h-188v320h188v328h460v-328h240zM784 432q0 -156 120 -156
q36 0 62 31t26 73q0 34 -28 65t-72 31q-56 0 -108 -13v-31z" />
    <glyph glyph-name="dotlessj" unicode="&#x237;" horiz-adv-x="948" 
d="M332 1536h460v-1584q0 -136 -45.5 -239.5t-128 -166.5t-190.5 -94.5t-240 -31.5h-168v360h96q65 0 109 13.5t66.5 39.5t31.5 56t9 71v1576z" />
    <glyph glyph-name="uni0238" unicode="&#x238;" horiz-adv-x="2592" 
d="M152 728v28q0 228 66 398t198 266t316 96q208 0 344 -161v757h444v-748q134 152 340 152q145 0 257 -56.5t182 -158.5t105.5 -238.5t35.5 -302.5v-28q0 -170 -35.5 -308t-105 -239.5t-180.5 -157t-255 -55.5q-209 0 -344 152v-124h-400l-21 161q-145 -189 -371 -189
q-182 0 -313.5 98.5t-197 268t-65.5 389.5zM2000 732v28q0 88 -10.5 154.5t-37 125t-78 89.5t-126.5 31q-164 0 -228 -124v-584q63 -124 232 -124q61 0 105.5 19.5t71.5 53t43.5 86.5t22 110.5t5.5 134.5zM596 756v-28q0 -396 248 -396q166 0 232 140v545q-65 143 -232 143
q-248 0 -248 -404z" />
    <glyph glyph-name="uni0239" unicode="&#x239;" horiz-adv-x="2592" 
d="M152 732v28q0 227 66 396.5t197.5 264.5t316.5 95q232 0 372 -186l28 158h356l16 -140q135 168 356 168q279 0 429.5 -202.5t150.5 -549.5v-32q0 -163 -37.5 -301t-109 -240.5t-181.5 -160.5t-248 -58q-208 0 -344 155v-699h-444v700q-137 -156 -348 -156
q-181 0 -313 99.5t-197.5 270t-65.5 390.5zM596 760v-28q0 -400 248 -400q169 0 232 130v570q-61 128 -232 128q-248 0 -248 -400zM2000 732v32q0 183 -60.5 289.5t-191.5 106.5q-166 0 -228 -121v-583q65 -124 232 -124q68 0 117.5 31t77.5 87.5t40.5 125.5t12.5 156z" />
    <glyph glyph-name="uni023A" unicode="&#x23a;" horiz-adv-x="2168" 
d="M1960 2176l-422 -685l550 -1491h-500l-129 384h-604l-395 -640h-292l158 256h-246l756 2048h496l96 -261l240 389h292zM1072 1468l-190 -566l262 424l-48 142h-24zM1084 756h251l-89 263z" />
    <glyph glyph-name="uni023B" unicode="&#x23b;" horiz-adv-x="1984" 
d="M680 -216l-228 84l87 240q-198 128 -308.5 361.5t-110.5 550.5q0 246 68 446t189 333t286.5 205t360.5 72q117 0 220 -25l76 209l228 -84l-78 -214q148 -84 252 -225.5t154 -332.5l-448 -64q-35 125 -110 203l-414 -1140q57 -15 120 -15q147 0 249.5 77.5t146.5 230.5
l452 -64q-83 -314 -310 -487t-538 -173q-138 0 -263 36zM588 1020q0 -313 111 -472l401 1106q-36 6 -76 6q-204 0 -320 -157t-116 -483z" />
    <glyph glyph-name="uni023C" unicode="&#x23c;" horiz-adv-x="1588" 
d="M1500 1032l-420 -80q-20 83 -57 140l-241 -750q24 -2 38 -2q192 0 252 208l424 -76q-54 -229 -235.5 -364.5t-440.5 -135.5q-77 0 -153 14l-179 -558h-248l205 639q-167 97 -258 280.5t-91 420.5q0 232 86 409.5t251 278t387 100.5q52 0 102 -6l146 454h248l-166 -516
q138 -64 228.5 -181.5t121.5 -274.5zM532 768q0 -174 49 -279l226 703q-275 -10 -275 -424z" />
    <glyph glyph-name="L_bar" unicode="&#x23d;" horiz-adv-x="1824" 
d="M1092 1160v-264h-252v-512h828v-384h-1292v896h-276v264h276v888h464v-888h252z" />
    <glyph glyph-name="uni023E" unicode="&#x23e;" horiz-adv-x="1824" 
d="M476 -76l-220 112l432 862v766h-600v384h1176l132 264l220 -112l-76 -152h208v-384h-400l-200 -398v-1266h-460v347z" />
    <glyph glyph-name="uni023F" unicode="&#x23f;" horiz-adv-x="1416" 
d="M396 492l1 -3l127 7q20 -98 94 -147t170 -49q89 0 154.5 35.5t65.5 88.5q0 18 -3 32.5t-11 26.5t-14 20.5t-21 16.5t-21.5 12t-26 9.5t-24.5 7t-27 6.5t-24 5l-276 60q-436 98 -436 440q0 234 186 365t502 131q576 0 632 -472l-420 -24q-11 81 -79 122.5t-157 41.5
q-83 0 -145.5 -36t-62.5 -96q0 -54 45.5 -81.5t122.5 -42.5l312 -64q89 -18 158 -45.5t131.5 -75t96.5 -123t34 -176.5q0 -104 -38 -189.5t-104.5 -144.5t-158 -100t-197 -59.5t-222.5 -18.5q-51 0 -108 5q70 -131 117.5 -176t110.5 -45q107 0 236 112l148 -256
q-67 -56 -115.5 -90.5t-131.5 -66t-169 -31.5q-75 0 -142.5 23.5t-116 58t-97.5 91.5t-81 105.5t-71 117.5l-252 448l42 30q-35 80 -50 174l312 17z" />
    <glyph glyph-name="uni0240" unicode="&#x240;" horiz-adv-x="1544" 
d="M712 360h20q96 0 176 -31t134.5 -80.5t100.5 -109t83.5 -119t73.5 -109t80.5 -80.5t95.5 -31q56 0 117 35.5t107 76.5l148 -300q-196 -188 -416 -188q-90 0 -165 32t-127.5 82.5t-99 112t-90 123t-90 112t-110 82.5t-138.5 32h-468v260l672 916h-644v360h1212v-260z" />
    <glyph glyph-name="uni0241" unicode="&#x241;" horiz-adv-x="1568" 
d="M548 0v720h212q60 0 104.5 20.5t70 53.5t40.5 84t20 101.5t5 116.5v176q0 64 -5 115t-20.5 102.5t-41.5 85.5t-70 55.5t-103 21.5q-107 0 -163.5 -66t-56.5 -170h-440q0 184 86.5 325.5t234 216t331.5 74.5q169 0 305.5 -58t225.5 -160t137 -240.5t48 -301.5v-176
q0 -258 -119 -448t-337 -263v-385h-464z" />
    <glyph glyph-name="uni0242" unicode="&#x242;" horiz-adv-x="1568" 
d="M564 684h160q244 0 244 252q0 49 -8.5 86.5t-28.5 70t-59.5 50t-95.5 17.5q-79 0 -127.5 -57.5t-48.5 -158.5h-444q0 117 42.5 221t120 182t196 123.5t261.5 45.5q164 0 289 -46t199.5 -126.5t111 -181t36.5 -218.5q0 -207 -108.5 -331.5t-295.5 -157.5v-455h-444v684z
" />
    <glyph glyph-name="uni0243" unicode="&#x243;" horiz-adv-x="1992" 
d="M1192 0h-840v496h-284v264h284v1288h768q182 0 323.5 -41t231 -116t135.5 -177t46 -226q0 -355 -360 -429v-15q183 -24 291.5 -157t108.5 -331q0 -254 -184 -405t-520 -151zM816 1664v-468h264q167 0 241.5 55t74.5 173q0 240 -288 240h-292zM1060 760v-264h-244v-112
h340q284 0 284 236q0 113 -66 184.5t-202 71.5h-356v-116h244z" />
    <glyph glyph-name="uni0244" unicode="&#x244;" horiz-adv-x="2336" 
d="M2220 1160v-264h-192v-200q0 -230 -105 -394.5t-290 -247t-433 -82.5q-250 0 -437 82.5t-293 247.5t-106 394v200h-248v264h248v888h464v-888h736v888h464v-888h192zM828 712q0 -149 102.5 -236.5t269.5 -87.5q166 0 265 87.5t99 236.5v184h-736v-184z" />
    <glyph glyph-name="uni0245" unicode="&#x245;" horiz-adv-x="2080" 
d="M1456 0l-416 1462l-416 -1462h-512l680 2004h496l680 -2004h-512z" />
    <glyph glyph-name="uni0246" unicode="&#x246;" horiz-adv-x="1824" 
d="M568 -224l-228 80l49 144h-245v2048h941l75 220l228 -80l-48 -140h172v-384h-302l-152 -448h314v-384h-445l-152 -448h737v-384h-868zM608 1216h194l153 448h-347v-448zM608 832v-188l64 188h-64z" />
    <glyph glyph-name="uni0247" unicode="&#x247;" horiz-adv-x="1568" 
d="M852 -28q-93 0 -174 15l-178 -563h-252l202 640q-170 91 -262 265t-92 415q0 176 49.5 324.5t142 257t234.5 169.5t318 61q41 0 80 -3l156 495h252l-174 -551q183 -78 284.5 -249.5t101.5 -415.5v-192h-656l-94 -296q24 -4 58 -4q66 0 115.5 17.5t80.5 49t48.5 62
t31.5 71.5l404 -108q-15 -64 -46 -125t-86.5 -123t-128.5 -108t-180.5 -75t-234.5 -29zM805 1191q-98 -9 -163 -75t-93 -180h176zM1112 936q0 117 -76 187l-59 -187h135zM535 640q12 -92 47 -156l50 156h-97z" />
    <glyph glyph-name="uni0248" unicode="&#x248;" horiz-adv-x="1824" 
d="M1068 628v268h-360v264h360v888h460v-888h172v-264h-172v-268q0 -147 -52.5 -270.5t-144 -208t-217 -131t-270.5 -46.5q-151 0 -274.5 38.5t-215.5 115t-143 198.5t-51 280h464q3 -125 61.5 -192.5t158.5 -67.5q105 0 164.5 76t59.5 208z" />
    <glyph glyph-name="uni0249" unicode="&#x249;" horiz-adv-x="1124" 
d="M592 1620q-102 0 -175 67.5t-73 160.5t73 160.5t175 67.5q101 0 172.5 -67t71.5 -161t-71.5 -161t-172.5 -67zM1076 916v-264h-256v-700q0 -136 -45.5 -239.5t-128 -166.5t-190.5 -94.5t-240 -31.5h-168v360h96q65 0 109 13.5t66.5 39.5t31.5 56t9 71v692h-276v264h276
v620h460v-620h256z" />
    <glyph glyph-name="Q_rthook" unicode="&#x24a;" horiz-adv-x="2256" 
d="M1992 2052v-2132q0 -140 204 -140q44 0 108 8v-348q-112 -16 -232 -16q-57 0 -106 4.5t-105.5 18t-102 35.5t-89 60t-73 89t-47 124.5t-17.5 164.5v208h-16q-156 -156 -476 -156q-292 0 -502.5 134.5t-316 370t-105.5 547.5q0 227 63.5 420.5t179.5 333.5t289 219t384 79
q152 0 279.5 -40.5t200.5 -119.5h20v136h460zM564 1024q0 -142 26.5 -254t82.5 -199.5t153 -135t230 -47.5q341 0 432 312q40 230 40 332q0 160 -32 272q-36 124 -89 196q-123 168 -367 168q-102 0 -183 -33.5t-135 -91.5t-90 -140.5t-52 -176t-16 -202.5z" />
    <glyph glyph-name="qrthook" unicode="&#x24b;" horiz-adv-x="1772" 
d="M1508 1536v-1616q0 -140 204 -140q44 0 108 8v-348q-112 -16 -232 -16q-57 0 -106 4.5t-105.5 18t-102 35.5t-89 60t-73 89t-47 124.5t-17.5 164.5v236h-16q-38 -86 -130 -133t-214 -47q-123 0 -229.5 51t-188 147.5t-128 249.5t-46.5 344q0 194 49 348t132 248t188 143
t223 49q121 0 213 -49t131 -135h20v164h456zM528 768q0 -204 75.5 -316t220.5 -112q276 0 276 428q0 424 -276 424q-145 0 -220.5 -110.5t-75.5 -313.5z" />
    <glyph glyph-name="uni024C" unicode="&#x24c;" horiz-adv-x="1796" 
d="M1244 0l-368 752h-268v-752h-464v752h-144v380h144v916h788q359 0 547.5 -168t188.5 -472q0 -390 -333 -571l417 -837h-508zM608 1664v-532h324q128 0 202 66.5t74 197.5q0 130 -74 199t-202 69h-324z" />
    <glyph glyph-name="uni024D" unicode="&#x24d;" horiz-adv-x="1312" 
d="M1032 844v-264h-256v-580h-460v580h-276v264h276v692h448v-196h24q31 111 124 163.5t208 52.5q60 0 120 -13.5t96 -34.5l-140 -392q-18 11 -62.5 21.5t-85.5 10.5q-114 0 -193 -81t-79 -195v-28h256z" />
    <glyph glyph-name="uni024E" unicode="&#x24e;" horiz-adv-x="2152" 
d="M568 2048l245 -428h526l245 428h504l-263 -428h227v-232h-370l-374 -608v-780h-464v780l-374 608h-370v232h227l-263 428h504zM1065 1180h22l119 208h-260z" />
    <glyph glyph-name="uni024F" unicode="&#x24f;" horiz-adv-x="1824" 
d="M772 -24l17 47l-285 781h-368v220h287l-187 512h472l168 -512h277l167 512h472l-188 -512h88v-220h-168l-376 -1024q-19 -51 -45.5 -98.5t-73 -100.5t-103.5 -91.5t-140 -64t-178 -25.5q-113 0 -232 44l100 352q37 -11 67.5 -16.5t55 -3t43 7.5t35 20t28 28.5t24.5 40
t21 47t22 56.5zM1007 624h16l59 180h-134z" />
    <glyph glyph-name="aturn" unicode="&#x250;" horiz-adv-x="1568" 
d="M568 1536v-156h20q47 80 138.5 132t225.5 52q100 0 188 -31t155 -87.5t106 -145t39 -196.5q0 -211 -155 -340.5t-473 -155.5q-38 -3 -62 -5.5t-57.5 -9.5t-53 -16t-33.5 -24.5t-14 -36.5v-32q0 -64 48 -110t128 -46t142 45.5t74 118.5l432 -40q-36 -216 -214 -344
t-454 -128q-135 0 -247.5 32.5t-196 96t-130 162.5t-46.5 225v1040h440zM592 1044v-196q29 29 160 48q134 15 189 62t55 134q0 63 -44.5 101.5t-119.5 38.5q-93 0 -166.5 -54.5t-73.5 -133.5z" />
    <glyph glyph-name="ascript" unicode="&#x251;" horiz-adv-x="1652" 
d="M96 732v28q0 236 66 414t199 280t319 102q210 0 337 -206l31 186h388v-1016q0 -97 23.5 -138.5t72.5 -41.5q20 0 24 4l36 -344q-70 -28 -172 -28q-269 0 -375 241q-134 -241 -369 -241q-184 0 -316.5 98t-198 268t-65.5 394zM544 760v-28q0 -90 12 -158.5t39 -122.5
t75.5 -82.5t117.5 -28.5q138 0 204 96v643q-67 113 -200 113q-67 0 -116 -33.5t-77.5 -94.5t-41.5 -136.5t-13 -167.5z" />
    <glyph glyph-name="ascriptturn" unicode="&#x252;" horiz-adv-x="1824" 
d="M708 -4h-388v980q0 97 -23.5 138.5t-72.5 41.5q-6 0 -13 -2t-11 -2l-32 332q69 32 172 32q270 0 372 -238q130 234 368 234q139 0 249 -54t182.5 -152.5t110.5 -234t38 -299.5v-28q0 -228 -66 -401.5t-199 -274t-319 -100.5q-212 0 -337 204zM1216 744v28q0 384 -248 384
q-142 0 -207 -100q3 -39 3 -80v-538q65 -110 204 -110q87 0 144 57t80.5 147t23.5 212z" />
    <glyph glyph-name="bhook" unicode="&#x253;" horiz-adv-x="1652" 
d="M824 1720q-43 0 -79 -6.5t-69.5 -21t-52.5 -43.5t-19 -69v-208h16q39 86 131 135t213 49q118 0 223 -49t188 -143t132 -248t49 -348q0 -191 -46.5 -344t-128 -249.5t-188 -147.5t-229.5 -51q-122 0 -214 47t-130 133h-20v-156h-456v1580q0 92 18.5 167t49 126t76 88.5
t92.5 59t105.5 34.5t107.5 17t107 4q120 0 232 -16v-348q-64 8 -108 8zM1124 768q0 203 -75.5 313.5t-220.5 110.5q-276 0 -276 -424q0 -428 276 -428q145 0 220.5 112t75.5 316z" />
    <glyph glyph-name="oopen" unicode="&#x254;" horiz-adv-x="1568" 
d="M124 532h416q0 -95 58.5 -147.5t161.5 -52.5q61 0 105 21t69.5 54.5t40.5 87t20 107t5 126.5v32q0 71 -5 125.5t-20.5 108t-41.5 88.5t-70 56.5t-103 21.5q-106 0 -163 -67.5t-57 -172.5h-416q0 277 173.5 436.5t454.5 159.5q135 0 248 -37.5t194.5 -105.5t138 -162
t84 -208t27.5 -243v-32q0 -130 -27.5 -244.5t-84 -208.5t-138.5 -161.5t-195.5 -104.5t-250.5 -37q-175 0 -317 69t-224.5 197.5t-82.5 293.5z" />
    <glyph glyph-name="ccurl" unicode="&#x255;" horiz-adv-x="1588" 
d="M820 340q188 0 188 80q0 27 -17 43.5t-47 16.5q-76 0 -200 -131q34 -9 76 -9zM1500 1032l-420 -80q-29 118 -90 179t-170 61q-288 0 -288 -424q0 -66 7 -118q76 63 147 104t131 58t99 22.5t84 5.5q92 0 165.5 -21t122 -57t80.5 -85t46 -101.5t14 -111.5q0 -75 -22 -145
t-70.5 -133.5t-118 -110.5t-172 -75t-225.5 -28q-182 0 -326 69q-63 -83 -166 -225l-292 232q86 132 177 252q-117 197 -117 468q0 232 86 409.5t251 278t387 100.5q268 0 450 -141.5t230 -382.5z" />
    <glyph glyph-name="drthook" unicode="&#x256;" horiz-adv-x="1860" 
d="M1048 2048h460v-2128q0 -140 204 -140q44 0 108 8v-348q-112 -16 -232 -16q-57 0 -106 4.5t-105.5 18t-102 35.5t-89 60t-73 89t-47 124.5t-17.5 164.5v236h-16q-38 -86 -130 -133t-214 -47q-123 0 -229.5 51t-188 147.5t-128 249.5t-46.5 344q0 194 49 348t132 248
t188 143t223 49q121 0 213 -49t131 -135h16v676zM528 768q0 -204 75.5 -316t220.5 -112q276 0 276 428q0 424 -276 424q-145 0 -220.5 -110.5t-75.5 -313.5z" />
    <glyph glyph-name="dhook" unicode="&#x257;" horiz-adv-x="1824" 
d="M1508 0h-456v156h-20q-38 -86 -130 -133t-214 -47q-123 0 -229.5 51t-188 147.5t-128 249.5t-46.5 344q0 194 49 348t132 248t188 143t223 49q121 0 213 -49t131 -135h16v196q0 93 20.5 169t54 128t82 91t98 61.5t108.5 36t107.5 18t101.5 4.5q112 0 232 -20v-348
q-60 12 -108 12h-39t-42 -3t-46.5 -8t-40 -16t-36.5 -26.5t-22 -41t-10 -57.5v-1568zM528 768q0 -204 75.5 -316t220.5 -112q276 0 276 428q0 424 -276 424q-145 0 -220.5 -110.5t-75.5 -313.5z" />
    <glyph glyph-name="erev" unicode="&#x258;" horiz-adv-x="1568" 
d="M716 -28q-201 0 -352 76.5t-232 187.5l208 248q124 -152 348 -152q135 0 222.5 71.5t112.5 196.5h-927v188q0 336 176.5 532t491.5 196q135 0 250 -38.5t199.5 -107.5t144 -165t89 -211.5t29.5 -245.5v-52q0 -148 -52 -279t-147 -230t-240.5 -157t-320.5 -58zM528 888
h494q-42 272 -254 272q-118 0 -179 -61.5t-61 -174.5v-36z" />
    <glyph glyph-name="schwa" unicode="&#x259;" horiz-adv-x="1568" 
d="M732 1516q163 0 298.5 -55.5t226.5 -152.5t141 -229t50 -283v-52q0 -164 -45 -304.5t-130 -245t-215.5 -163.5t-293.5 -59q-303 0 -471.5 182t-168.5 494v244h871q-24 120 -105 194t-214 74q-94 0 -172.5 -14t-120.5 -29.5t-119 -48.5l-112 284q96 70 248.5 117t331.5 47
zM764 332q191 0 231 268h-439v-36q0 -232 208 -232z" />
    <glyph glyph-name="schwahook" unicode="&#x25a;" horiz-adv-x="2336" 
d="M776 1516q254 0 434.5 -116t262.5 -309l371 85q6 -35 13 -82t11.5 -76.5t11 -67t12 -60t14 -50t17.5 -43.5t21.5 -32.5t27 -25t34 -14t42.5 -5.5q14 0 40 2t40 2l56 -276q-107 -60 -228 -60q-56 0 -102.5 12t-81 31t-62.5 52t-47 66t-36 82.5t-27.5 91t-23.5 101.5
l-44 -11v-21v-52q0 -130 -29 -245.5t-88 -211.5t-142.5 -165t-198.5 -107.5t-250 -38.5q-315 0 -491.5 196t-176.5 532v80l890 213q-43 79 -119.5 123t-178.5 44q-229 0 -352 -156l-204 252q78 108 230.5 184t353.5 76zM588 564q0 -112 60.5 -172t179.5 -60q253 0 264 375
l-504 -115v-28z" />
    <glyph glyph-name="epsilon1" unicode="&#x25b;" horiz-adv-x="1824" 
d="M1000 904h244v-284h-244q-256 0 -256 -156q0 -65 64 -112.5t180 -47.5q124 0 188 38t64 98h440q0 -117 -57 -209t-152 -147t-210.5 -83.5t-240.5 -28.5q-203 0 -364.5 53t-256.5 155.5t-95 239.5q0 127 73.5 215t211.5 132q-122 48 -191.5 131t-69.5 182
q0 139 89.5 238.5t244 148.5t358.5 49q176 0 320 -54t232 -160t88 -246h-444q0 63 -61.5 95.5t-162.5 32.5q-108 0 -164 -43t-56 -101q0 -63 60.5 -99.5t167.5 -36.5z" />
    <glyph glyph-name="epsilon1rev" unicode="&#x25c;" horiz-adv-x="1568" 
d="M776 620h-244v284h244q107 0 167.5 36.5t60.5 99.5q0 58 -54 101t-162 43q-103 0 -163.5 -32t-60.5 -96h-444q0 140 87 246t231.5 160t321.5 54q202 0 356 -49t243 -148.5t89 -238.5q0 -99 -69.5 -182t-191.5 -131q138 -44 211.5 -132t73.5 -215q0 -137 -95 -239.5
t-255.5 -155.5t-361.5 -53q-125 0 -241 28.5t-212 83.5t-153.5 147t-57.5 209h444q0 -60 63.5 -98t184.5 -38q116 0 180 47.5t64 112.5q0 156 -256 156z" />
    <glyph glyph-name="epsilon1revhook" unicode="&#x25d;" horiz-adv-x="2336" 
d="M840 620h-244v284h244q107 0 167.5 36.5t60.5 99.5q0 58 -54 101t-162 43q-103 0 -163.5 -32t-60.5 -96h-444q0 140 87 246t231.5 160t321.5 54q239 0 411.5 -70.5t238.5 -201.5l366 80q5 -34 14 -96q7 -44 10 -65t9 -57.5t10.5 -54t11.5 -45.5t14 -41t17 -32t21 -27.5
t25 -17.5t31 -12.5t37 -3.5q56 0 80 4l56 -280q-100 -56 -224 -56q-57 0 -104 12t-81 30.5t-62.5 52.5t-47 65.5t-36.5 82t-28.5 89.5t-24.5 100l-91 -23q-65 -118 -226 -182q138 -44 211.5 -132t73.5 -215q0 -137 -95 -239.5t-255.5 -155.5t-361.5 -53q-125 0 -241 28.5
t-212 83.5t-153.5 147t-57.5 209h444q0 -60 63.5 -98t184.5 -38q116 0 180 47.5t64 112.5q0 156 -256 156z" />
    <glyph glyph-name="epsilon1revclosed" unicode="&#x25e;" horiz-adv-x="1568" 
d="M1452 420q0 -137 -85 -239.5t-235 -155.5t-344 -53q-99 0 -190 22.5t-180.5 78.5t-155 141t-106 221.5t-40.5 308.5v4q1 163 39.5 295t102.5 218.5t151.5 145t181.5 84t197 25.5q296 0 468 -113.5t172 -322.5q0 -100 -60.5 -182t-170.5 -131q255 -89 255 -347zM808 628
h-48v268h48q89 0 132.5 39t43.5 105q0 61 -37.5 102.5t-130.5 41.5q-38 0 -71.5 -10.5t-68.5 -40t-59.5 -76.5t-40.5 -127t-16 -185q0 -103 13 -180t35 -126.5t54.5 -80t69.5 -42.5t84 -12q103 0 149.5 46t46.5 114q0 85 -51.5 124.5t-152.5 39.5z" />
    <glyph glyph-name="jdotlessbar" unicode="&#x25f;" horiz-adv-x="1076" 
d="M1060 264v-264h-268v-48q0 -136 -45.5 -239.5t-128 -166.5t-190.5 -94.5t-240 -31.5h-168v360h96q65 0 109 13.5t66.5 39.5t31.5 56t9 71v40h-264v264h264v1272h460v-1272h268z" />
    <glyph glyph-name="ghook" unicode="&#x260;" horiz-adv-x="1788" 
d="M1728 1720q-43 0 -79 -6.5t-69.5 -21t-52.5 -43.5t-19 -69v-1512q0 -208 -94 -357.5t-260.5 -224t-389.5 -74.5q-191 0 -355.5 60t-236.5 132l192 312q176 -132 384 -132q151 0 231.5 73t80.5 235v100h-24q-33 -66 -125.5 -113t-222.5 -47q-94 0 -180 27t-161.5 86
t-131 145t-87.5 211.5t-32 278.5q0 190 49 341t132 244.5t188 142t223 48.5q121 0 213 -49t131 -135h20v208q0 91 18.5 164.5t48.5 124.5t75 89t91.5 60t104.5 35.5t107.5 18t106.5 4.5q120 0 232 -16v-348q-64 8 -108 8zM528 780q0 -196 78.5 -294t217.5 -98
q143 0 209.5 104t66.5 288q0 88 -15 159.5t-46 129.5t-86 90.5t-129 32.5q-144 0 -220 -109.5t-76 -302.5z" />
    <glyph glyph-name="gcursive" unicode="&#x261;" horiz-adv-x="1568" 
d="M1040 1528h456v-1460q0 -208 -94 -357.5t-260.5 -224t-389.5 -74.5q-191 0 -355.5 60t-236.5 132l192 312q176 -132 384 -132q151 0 231.5 73t80.5 235v100h-24q-33 -66 -125.5 -113t-222.5 -47q-94 0 -180 27t-161.5 86t-131 145t-87.5 211.5t-32 278.5q0 190 49 341
t132 244.5t188 142t223 48.5q121 0 213 -49t131 -135h20v156zM516 780q0 -196 78.5 -294t217.5 -98q143 0 209.5 104t66.5 288q0 88 -15 159.5t-46 129.5t-86 90.5t-129 32.5q-144 0 -220 -109.5t-76 -302.5z" />
    <glyph glyph-name="Gsmallcap" unicode="&#x262;" horiz-adv-x="1824" 
d="M1632 816v-592q-37 -40 -74 -71t-97.5 -66t-129.5 -58t-169 -38t-218 -15q-218 0 -388 82.5t-265 233t-95 344.5v224q0 145 54 267.5t149 208t229.5 133t291.5 47.5q642 0 700 -532h-440q-21 99 -80 139.5t-180 40.5q-132 0 -206 -82.5t-74 -217.5v-228q0 -136 79 -220
t225 -84q116 0 174.5 10.5t97.5 33.5v148h-284v292h700z" />
    <glyph glyph-name="gamma1" unicode="&#x263;" horiz-adv-x="1824" 
d="M912 -600q-106 0 -198.5 22t-166.5 66t-116.5 117t-42.5 167q0 124 104 320l193 361l-561 1035h464l322 -616l330 616h464l-563 -1057l171 -327q112 -218 112 -332q0 -76 -27 -138.5t-74 -105t-112 -72t-140 -43t-159 -13.5zM844 -188q0 -104 68 -104q41 0 54.5 27
t13.5 77q0 72 -62 202q-39 -75 -56.5 -119.5t-17.5 -82.5z" />
    <glyph glyph-name="babygamma" unicode="&#x264;" horiz-adv-x="1824" 
d="M856 344q0 -60 56 -60t56 60q0 41 -56 129q-56 -88 -56 -129zM256 1044l-204 260q39 48 74.5 81.5t84.5 65.5t110.5 48.5t134.5 16.5q126 0 234.5 -76t221.5 -234q113 158 222.5 234t237.5 76q137 0 229.5 -56t174.5 -156l-208 -260q-84 84 -144 84q-57 0 -119.5 -63
t-163.5 -229q125 -213 170 -314t45 -206q0 -167 -120 -255.5t-324 -88.5t-324 88.5t-120 255.5q0 105 45 206t170 314q-101 166 -163.5 229t-119.5 63q-60 0 -144 -84z" />
    <glyph glyph-name="hturn" unicode="&#x265;" horiz-adv-x="1612" 
d="M976 720v816h460v-2048h-444v676h-16q-67 -88 -169 -136t-227 -48q-215 0 -341.5 150t-126.5 446v960h460v-964q0 -228 172 -228q83 0 136 51t74.5 132t21.5 193z" />
    <glyph glyph-name="hhook" unicode="&#x266;" horiz-adv-x="1612" 
d="M604 816v-816h-460v1580q0 91 17.5 164.5t46 124.5t71 89t87 60t100.5 35.5t104.5 18t105.5 4.5q120 0 232 -16v-348q-64 8 -108 8q-204 0 -204 -140v-208h8q67 88 169 136t227 48q215 0 341.5 -150t126.5 -446v-960h-460v964q0 228 -172 228q-83 0 -136 -51t-74.5 -132
t-21.5 -193z" />
    <glyph glyph-name="henghook" unicode="&#x267;" horiz-adv-x="1612" 
d="M604 816v-816h-460v1580q0 91 17.5 164.5t46 124.5t71 89t87 60t100.5 35.5t104.5 18t105.5 4.5q120 0 232 -16v-348q-64 8 -108 8q-204 0 -204 -140v-208h8q67 88 169 136t227 48q215 0 341.5 -150t126.5 -446v-1040q0 -91 -17.5 -164.5t-47 -124.5t-73 -89t-89 -60
t-102 -35.5t-105.5 -18t-106 -4.5q-120 0 -232 16v348q64 -8 108 -8q204 0 204 140v1044q0 228 -172 228q-83 0 -136 -51t-74.5 -132t-21.5 -193z" />
    <glyph glyph-name="ibar" unicode="&#x268;" horiz-adv-x="1312" 
d="M700 1620q-102 0 -175 67.5t-73 160.5t73 160.5t175 67.5q101 0 172.5 -67t71.5 -161t-71.5 -161t-172.5 -67zM1152 916v-264h-224v-652h-460v652h-308v264h308v620h460v-620h224z" />
    <glyph glyph-name="iota1" unicode="&#x269;" horiz-adv-x="1056" 
d="M136 1488h444v-1020q0 -54 21 -93t56.5 -58.5t73.5 -28t81 -8.5q52 0 112 12v-300q-107 -20 -236 -20q-58 0 -107 4t-107 17t-104.5 34.5t-91.5 59t-75 88.5t-48.5 126t-18.5 167v1020z" />
    <glyph glyph-name="Ismallcap" unicode="&#x26a;" horiz-adv-x="1312" 
d="M1084 360v-360h-856v360h204v772h-204v356h856v-356h-208v-772h208z" />
    <glyph glyph-name="lmidtilde" unicode="&#x26b;" horiz-adv-x="1312" 
d="M892 1368l248 -16q0 -142 -79 -250t-201 -124v-978h-460v1084q-64 -27 -64 -116l-252 12q0 98 40 184t113.5 139t162.5 53v692h460v-772q32 34 32 92z" />
    <glyph glyph-name="lbelt" unicode="&#x26c;" horiz-adv-x="1824" 
d="M1620 744h-376v-744h-460v744h-152q-224 0 -340 104.5t-116 279.5q0 89 31.5 165t93 135.5t161 93.5t226.5 34q46 0 96 -5v497h460v-1004h376v-300zM680 1044h104v40q0 79 -26 115.5t-78 36.5q-50 0 -85 -28.5t-35 -67.5q0 -40 30.5 -68t89.5 -28z" />
    <glyph glyph-name="lrthook" unicode="&#x26d;" horiz-adv-x="748" 
d="M604 2048v-2128q0 -140 204 -140q44 0 108 8v-348q-112 -16 -232 -16q-57 0 -106 4.5t-105.5 18t-102 35.5t-89 60t-73 89t-47 124.5t-17.5 164.5v2128h460z" />
    <glyph glyph-name="lyogh" unicode="&#x26e;" horiz-adv-x="1824" 
d="M608 2048v-560h1004v-296l-416 -576q217 -61 332.5 -220.5t115.5 -407.5q0 -182 -97.5 -316.5t-265.5 -203t-385 -68.5q-611 0 -716 500h444q27 -81 86.5 -112.5t185.5 -31.5q144 0 224 78t80 222q0 152 -93.5 230t-274.5 78h-68v268l340 500h-496v-1132h-460v2048h460z
" />
    <glyph glyph-name="mturn" unicode="&#x26f;" horiz-adv-x="2440" 
d="M964 584v952h444v-960q0 -117 57.5 -174.5t150.5 -57.5q85 0 136.5 54t51.5 170v968h460v-1536h-448v164h-12q-150 -184 -400 -184q-276 0 -376 212h-16q-66 -97 -178 -154.5t-254 -57.5q-102 0 -183.5 31.5t-147 99t-101.5 186t-36 279.5v960h460v-960q0 -232 192 -232
q200 0 200 240z" />
    <glyph glyph-name="mturndescend" unicode="&#x270;" horiz-adv-x="2440" 
d="M964 584v952h444v-960q0 -117 57.5 -174.5t150.5 -57.5q85 0 136.5 54t51.5 170v968h460v-1512h32v-600h-448v576h-32v164h-12q-150 -184 -400 -184q-276 0 -376 212h-16q-66 -97 -178 -154.5t-254 -57.5q-102 0 -183.5 31.5t-147 99t-101.5 186t-36 279.5v960h460v-960
q0 -232 192 -232q200 0 200 240z" />
    <glyph glyph-name="mhook" unicode="&#x271;" horiz-adv-x="2440" 
d="M1444 952v-952h-444v960q0 117 -57.5 174.5t-150.5 57.5q-85 0 -136.5 -54t-51.5 -170v-968h-460v1536h448v-164h12q150 184 400 184q276 0 376 -212h16q66 97 178 154.5t254 57.5q102 0 183.5 -31.5t147 -99t101.5 -186t36 -279.5v-1040q0 -91 -17.5 -164.5t-47 -124.5
t-73 -89t-89 -60t-102 -35.5t-105.5 -18t-106 -4.5q-120 0 -232 16v348q64 -8 108 -8q204 0 204 140v1040q0 232 -192 232q-200 0 -200 -240z" />
    <glyph glyph-name="nlfthook" unicode="&#x272;" horiz-adv-x="1776" 
d="M724 816v-896q0 -91 -17.5 -164.5t-47 -124.5t-73 -89t-89 -60t-102 -35.5t-105.5 -18t-106 -4.5q-120 0 -232 16v348q64 -8 108 -8q204 0 204 140v1616h424v-164h16q67 86 174.5 135t237.5 49q81 0 153.5 -19t140 -63.5t116 -111.5t77.5 -170t29 -232v-960h-460v944
q0 119 -61.5 183.5t-158.5 64.5q-228 0 -228 -376z" />
    <glyph glyph-name="nrthook" unicode="&#x273;" horiz-adv-x="1776" 
d="M604 816v-816h-460v1536h424v-164h16q67 86 174.5 135t237.5 49q81 0 153.5 -19t140 -63.5t116 -111.5t77.5 -170t29 -232v-1040q0 -140 204 -140q44 0 108 8v-348q-112 -16 -232 -16q-57 0 -106 4.5t-105.5 18t-102 35.5t-89 60t-73 89t-47 124.5t-17.5 164.5v1024
q0 119 -61.5 183.5t-158.5 64.5q-228 0 -228 -376z" />
    <glyph glyph-name="Nsmallcap" unicode="&#x274;" horiz-adv-x="1568" 
d="M564 0h-440v1488h440l440 -867v867h444v-1488h-444l-440 872v-872z" />
    <glyph glyph-name="obar" unicode="&#x275;" horiz-adv-x="1640" 
d="M820 -28q-222 0 -387 102.5t-251 282t-86 411.5t86 409.5t251 278t387 100.5t387 -100.5t251 -278t86 -409.5t-86 -411.5t-251 -282t-387 -102.5zM820 1192q-240 0 -280 -296h560q-40 296 -280 296zM820 340q237 0 279 292h-558q42 -292 279 -292z" />
    <glyph glyph-name="OEsmallcap" unicode="&#x276;" horiz-adv-x="2336" 
d="M852 -28q-224 0 -388 99.5t-246 269t-82 387.5v32q0 162 47.5 300t136.5 239.5t225 159t303 57.5q73 0 225 -14t303 -14h824v-356h-676v-208h556v-356h-556v-212h676v-356h-824q-154 0 -304 -14t-220 -14zM580 728q0 -396 272 -396q48 0 228 14v798q-180 16 -232 16
q-73 0 -126 -31.5t-83.5 -88t-44.5 -126t-14 -154.5v-32z" />
    <glyph glyph-name="omegaclosed" unicode="&#x277;" horiz-adv-x="2592" 
d="M236 660q0 263 130.5 457t370 296.5t559.5 102.5q321 0 561 -102.5t371.5 -296.5t131.5 -457q0 -107 -19 -202.5t-65 -186t-115 -155.5t-177 -104.5t-244 -39.5q-147 0 -260.5 72.5t-183.5 211.5q-70 -139 -183.5 -211.5t-260.5 -72.5q-136 0 -243.5 39.5t-176 104.5
t-114 155.5t-64 186t-18.5 202.5zM1060 688v264h472v-264q0 -186 53 -271t139 -85q107 0 149.5 79.5t42.5 248.5q0 77 -20.5 147.5t-68 135.5t-117.5 112.5t-176.5 76t-237.5 28.5t-237.5 -28.5t-176.5 -76t-117.5 -112.5t-68 -135.5t-20.5 -147.5q0 -169 42.5 -248.5
t149.5 -79.5q86 0 139 85t53 271z" />
    <glyph glyph-name="philatin" unicode="&#x278;" horiz-adv-x="2080" 
d="M188 728v32q0 174 47.5 308.5t135 221t198.5 138t251 72.5v612h440v-612q140 -21 251.5 -72t198.5 -137.5t134.5 -221t47.5 -309.5v-32q0 -175 -47.5 -309.5t-134.5 -221t-198.5 -137.5t-251.5 -72v-560h-440v560q-140 21 -251 72.5t-198.5 138t-135 221t-47.5 308.5z
M1448 760q0 272 -188 359v-749q188 83 188 358v32zM632 760v-32q0 -275 188 -358v748q-188 -88 -188 -358z" />
    <glyph glyph-name="rturn" unicode="&#x279;" horiz-adv-x="1052" 
d="M-144 28l140 392q18 -11 62.5 -21.5t85.5 -10.5q114 0 193 81t79 195v872h460v-1536h-448v196h-24q-31 -111 -124 -163.5t-208 -52.5q-60 0 -120 13.5t-96 34.5z" />
    </font>
</defs>
</svg>
