<?xml version="1.0" encoding="UTF-8"?>
<svg width="15px" height="16px" viewBox="0 0 15 16" version="1.1" xmlns="http://www.w3.org/2000/svg" xmlns:xlink="http://www.w3.org/1999/xlink">
    <!-- Generator: sketchtool 62 (101010) - https://sketch.com -->
    <title>08C138C9-9077-4798-8264-70E0BE9459AD@1.5x</title>
    <desc>Created with sketchtool.</desc>
    <g id="VMS-Design" stroke="none" stroke-width="1" fill="none" fill-rule="evenodd">
        <g id="add-profile-" transform="translate(-712.000000, -702.000000)" fill="#C4CDD5" fill-rule="nonzero">
            <g id="calendar" transform="translate(712.000000, 702.000000)">
                <path d="M5.4242887,8.54014182 C5.4242887,8.34622858 5.26864017,8.18913191 5.07658996,8.18913191 L3.86325314,8.18913191 C3.67142259,8.18913191 3.51574268,8.34622858 3.51574268,8.54014182 L3.51574268,9.76609205 C3.51574268,9.96025897 3.67142259,10.1174191 3.86325314,10.1174191 L5.07658996,10.1174191 C5.26864017,10.1174191 5.4242887,9.96025897 5.4242887,9.76609205 L5.4242887,8.54014182 L5.4242887,8.54014182 Z" id="Path"></path>
                <path d="M8.4565795,8.54014182 C8.4565795,8.34622858 8.30089958,8.18913191 8.10922594,8.18913191 L6.89573222,8.18913191 C6.70390167,8.18913191 6.54822176,8.34622858 6.54822176,8.54014182 L6.54822176,9.76609205 C6.54822176,9.96025897 6.70390167,10.1174191 6.89573222,10.1174191 L8.10922594,10.1174191 C8.30089958,10.1174191 8.4565795,9.96025897 8.4565795,9.76609205 L8.4565795,8.54014182 Z" id="Path"></path>
                <path d="M11.4890272,8.54014182 C11.4890272,8.34622858 11.3333473,8.18913191 11.1415167,8.18913191 L9.92817992,8.18913191 C9.73612971,8.18913191 9.58048117,8.34622858 9.58048117,8.54014182 L9.58048117,9.76609205 C9.58048117,9.96025897 9.73612971,10.1174191 9.92817992,10.1174191 L11.1415167,10.1174191 C11.3333473,10.1174191 11.4890272,9.96025897 11.4890272,9.76609205 L11.4890272,8.54014182 Z" id="Path"></path>
                <path d="M5.4242887,11.6046686 C5.4242887,11.4104382 5.26864017,11.2534684 5.07658996,11.2534684 L3.86325314,11.2534684 C3.67142259,11.2534684 3.51574268,11.4104382 3.51574268,11.6046686 L3.51574268,12.8303968 C3.51574268,13.0244369 3.67142259,13.1815653 3.86325314,13.1815653 L5.07658996,13.1815653 C5.26864017,13.1815653 5.4242887,13.0244052 5.4242887,12.8303968 L5.4242887,11.6046686 L5.4242887,11.6046686 Z" id="Path"></path>
                <path d="M8.4565795,11.6046686 C8.4565795,11.4104382 8.30089958,11.2534684 8.10922594,11.2534684 L6.89573222,11.2534684 C6.70390167,11.2534684 6.54822176,11.4104382 6.54822176,11.6046686 L6.54822176,12.8303968 C6.54822176,13.0244369 6.70390167,13.1815653 6.89573222,13.1815653 L8.10922594,13.1815653 C8.30089958,13.1815653 8.4565795,13.0244052 8.4565795,12.8303968 L8.4565795,11.6046686 Z" id="Path"></path>
                <path d="M11.4890272,11.6046686 C11.4890272,11.4104382 11.3333473,11.2534684 11.1416736,11.2534684 L9.92817992,11.2534684 C9.73612971,11.2534684 9.58048117,11.4104382 9.58048117,11.6046686 L9.58048117,12.8303968 C9.58048117,13.0244369 9.73612971,13.1815653 9.92817992,13.1815653 L11.1416736,13.1815653 C11.3333473,13.1815653 11.4890272,13.0244052 11.4890272,12.8303968 L11.4890272,11.6046686 L11.4890272,11.6046686 Z" id="Path"></path>
                <path d="M13.6585983,1.72362387 L13.6585983,3.59616296 C13.6585983,4.4425316 12.9791423,5.12457344 12.1417155,5.12457344 L11.1848222,5.12457344 C10.3473326,5.12457344 9.65887029,4.4425316 9.65887029,3.59616296 L9.65887029,1.71690112 L5.34589958,1.71690112 L5.34589958,3.59616296 C5.34589958,4.4425316 4.65746862,5.12457344 3.8201046,5.12457344 L2.86302301,5.12457344 C2.02562762,5.12457344 1.34620293,4.4425316 1.34620293,3.59616296 L1.34620293,1.72362387 C0.614309623,1.74591676 0.0128974895,2.35790883 0.0128974895,3.11012728 L0.0128974895,14.0840943 C0.0128974895,14.8504558 0.627583682,15.4798573 1.38596234,15.4798573 L13.6188075,15.4798573 C14.3760565,15.4798573 14.9918724,14.8491557 14.9918724,14.0840943 L14.9918724,3.11012728 C14.9918724,2.35790883 14.3904916,1.74591676 13.6585983,1.72362387 Z M13.2141527,13.4007205 C13.2141527,13.731911 12.9484205,14.000599 12.6205544,14.000599 L2.35807531,14.000599 C2.03020921,14.000599 1.76447699,13.731911 1.76447699,13.4007205 L1.76447699,7.73227043 C1.76447699,7.40095309 2.03017782,7.13226514 2.35807531,7.13226514 L12.620523,7.13226514 C12.9483891,7.13226514 13.2141527,7.40095309 13.2141527,7.73227043 L13.2141527,13.4007205 L13.2141527,13.4007205 Z" id="Shape"></path>
                <path d="M2.85966527,4.12069588 L3.80617155,4.12069588 C4.09346234,4.12069588 4.32640167,3.88565338 4.32640167,3.59533847 L4.32640167,0.525547677 C4.32640167,0.235201057 4.09346234,0 3.80617155,0 L2.85966527,0 C2.5723431,0 2.33943515,0.235201057 2.33943515,0.525547677 L2.33943515,3.59533847 C2.33943515,3.88565338 2.5723431,4.12069588 2.85966527,4.12069588 Z" id="Path"></path>
                <path d="M11.1726464,4.12069588 L12.1191527,4.12069588 C12.4062552,4.12069588 12.6391946,3.88565338 12.6391946,3.59533847 L12.6391946,0.525547677 C12.6392259,0.235201057 12.4062866,0 12.1191527,0 L11.1726464,0 C10.885387,0 10.6524477,0.235201057 10.6524477,0.525547677 L10.6524477,3.59533847 C10.6524477,3.88565338 10.885387,4.12069588 11.1726464,4.12069588 Z" id="Path"></path>
            </g>
        </g>
    </g>
</svg>