<?xml version="1.0" encoding="UTF-8"?>
<svg width="18px" height="20px" viewBox="0 0 18 20" version="1.1" xmlns="http://www.w3.org/2000/svg" xmlns:xlink="http://www.w3.org/1999/xlink">
    <title>435392C4-2A92-491C-96C8-C9AD7859B82E@1.5x</title>
    <g id="Approvals" stroke="none" stroke-width="1" fill="none" fill-rule="evenodd">
        <g id="Approval-level-1_transaction-bulk-1.1_process" transform="translate(-414.000000, -678.000000)" fill-rule="nonzero">
            <g id="Group-8" transform="translate(374.000000, 678.000000)">
                <g id="file-(1)" transform="translate(40.000000, 0.000000)">
                    <path d="M7.52956563,5.27053467 C7.53004944,8.17737601 9.88632454,10.5338124 12.7933271,10.5342961 C12.9254049,10.5342961 13.0616757,10.5301032 13.1895608,10.5176856 L13.1895608,17.8993693 C13.1898832,18.8114966 12.4503118,19.5510679 11.5381845,19.5507455 L1.66298739,19.5507455 C0.750860092,19.5510679 0.0112887248,18.8114966 0.0116111331,17.8993693 L0.0116111331,6.38924528 L2.27806051,6.38924528 C2.65058773,6.38956779 3.00779459,6.24184704 3.27098267,5.97849771 C3.534332,5.71514838 3.68205275,5.35794151 3.68173024,4.98557556 L3.68173024,2.70267705 L8.18173024,2.70267705 L8.1941478,2.70670872 C7.7564686,3.49014476 7.52763047,4.3730827 7.52956563,5.27053467 Z" id="Path" fill="#F9DAA0"></path>
                    <path d="M3.68173077,2.70267705 L3.68173077,4.98557556 C3.68205275,5.35794151 3.534332,5.71514838 3.27098267,5.97849771 C3.00779459,6.24184704 2.65058773,6.38956779 2.27806051,6.38924581 L0.0116112385,6.38924581 L3.68173077,2.70267705 Z" id="Path" fill="#FFBE45"></path>
                    <path d="M13.1111848,10.6044474 C12.9791069,10.612672 12.8468679,10.6209429 12.71479,10.6209429 C9.8319775,10.6328304 7.4703806,8.33428899 7.40442228,5.45228282 C7.33846401,2.57011539 9.59233442,0.16594394 12.4727279,0.0457998853 C15.3531214,-0.0741829128 17.799061,2.13421013 17.9730684,5.01186212 C18.1470757,7.88951403 15.9849663,10.3765768 13.1111848,10.6044474 L13.1111848,10.6044474 Z" id="Path" fill="#28C064"></path>
                    <path d="M14.0937858,3.95346546 L12.4011253,5.64612601 L11.5794689,4.81640623 C11.4199757,4.654494 11.1592066,4.65255875 10.9974555,4.8122133 C10.8355433,4.97186785 10.8336081,5.23247565 10.9932626,5.39438788 L12.1079415,6.51729142 C12.1856723,6.59502223 12.2913023,6.63808054 12.4011253,6.63697335 C12.5109483,6.63808054 12.6165782,6.59502223 12.6941478,6.51729142 L14.6799921,4.53144711 C14.7572391,4.45436137 14.8007812,4.34969897 14.8007812,4.24052108 C14.8007812,4.1311819 14.7572391,4.0265195 14.6799921,3.94943375 C14.5158221,3.79155319 14.2556981,3.7934884 14.0937858,3.95346546 L14.0937858,3.95346546 Z" id="Path" fill="#F9FAFB"></path>
                </g>
            </g>
        </g>
    </g>
</svg>