<?xml version="1.0" encoding="UTF-8"?>
<svg width="68px" height="68px" viewBox="0 0 68 68" version="1.1" xmlns="http://www.w3.org/2000/svg" xmlns:xlink="http://www.w3.org/1999/xlink">
    <!-- Generator: sketchtool 62 (101010) - https://sketch.com -->
    <title>0716D193-E9F2-4884-8746-1FD0EB76F9D3@1.5x</title>
    <desc>Created with sketchtool.</desc>
    <g id="VMS-Design" stroke="none" stroke-width="1" fill="none" fill-rule="evenodd">
        <g id="voucher-profile-1" transform="translate(-807.000000, -526.000000)">
            <g id="login-(1)" transform="translate(809.000000, 528.000000)">
                <g id="Group-9">
                    <path d="M32,31.1330049 C27.8278527,31.1330049 24.4334975,27.7388648 24.4334975,23.566641 C24.4334975,19.3944173 27.8278527,16 32,16 C36.1721473,16 39.5665025,19.3944173 39.5665025,23.566641 C39.5665025,27.7388648 36.1721473,31.1330049 32,31.1330049 Z M32,18.2699646 C29.0794692,18.2699646 26.7034206,20.6457796 26.7034206,23.566641 C26.7034206,26.4872253 29.0794692,28.8630403 32,28.8630403 C34.9205308,28.8630403 37.2965794,26.4872253 37.2965794,23.566641 C37.2965794,20.6457796 34.9205308,18.2699646 32,18.2699646 L32,18.2699646 Z" id="Shape" fill="#C4CDD5" fill-rule="nonzero"></path>
                    <path d="M44.5714286,47.9211823 L19.4285714,47.9211823 C18.7977121,47.9211823 18.2857143,47.4091846 18.2857143,46.7783251 L18.2857143,41.4448988 C18.2857143,37.4541064 21.5329241,34.2068966 25.5237165,34.2068966 L38.4762835,34.2068966 C42.4670759,34.2068966 45.7142857,37.4541064 45.7142857,41.4448988 L45.7142857,46.7783251 C45.7142857,47.4091846 45.2022879,47.9211823 44.5714286,47.9211823 L44.5714286,47.9211823 Z M20.5714286,45.635468 L43.4285714,45.635468 L43.4285714,41.4448988 C43.4285714,38.7144301 41.2067522,36.4926108 38.4762835,36.4926108 L25.5237165,36.4926108 C22.7932478,36.4926108 20.5714286,38.7144301 20.5714286,41.4448988 L20.5714286,45.635468 Z" id="Shape" fill="#C4CDD5" fill-rule="nonzero"></path>
                    <circle id="Oval" stroke="#C4CDD5" stroke-width="2.5" cx="32" cy="32" r="32"></circle>
                </g>
            </g>
        </g>
    </g>
</svg>