<?xml version="1.0" encoding="UTF-8"?>
<svg width="15px" height="16px" viewBox="0 0 15 16" version="1.1" xmlns="http://www.w3.org/2000/svg" xmlns:xlink="http://www.w3.org/1999/xlink">
    <!-- Generator: sketchtool 62 (101010) - https://sketch.com -->
    <title>8BA067E7-C531-4064-B8DC-87D21668EF97@1.5x</title>
    <desc>Created with sketchtool.</desc>
    <g id="VMS-Design" stroke="none" stroke-width="1" fill="none" fill-rule="evenodd">
        <g id="generate-voucher-inline-error" transform="translate(-1253.000000, -369.000000)" stroke="#828387">
            <g id="Group-15" transform="translate(1254.000000, 370.000000)">
                <path d="M4,14 L2,14 C0.8954305,14 0,13.1045695 0,12 L0,2 C0,0.8954305 0.8954305,0 2,0 L2,0 L8.6336667,0 C9.15962992,0 9.66442326,0.207187064 10.0387271,0.5766921 L12.4050604,2.91268779 C12.7857281,3.28847513 13,3.80109008 13,4.33599569 L13,12 C13,13.1045695 12.1045695,14 11,14 L9,14" id="Rectangle-6"></path>
                <line x1="6.5" y1="13.5" x2="6.5" y2="6.5" id="Line" stroke-linecap="square"></line>
                <polyline id="Path-4" points="3.5 8.5 6.5 5.5 9.5 8.5"></polyline>
            </g>
        </g>
    </g>
</svg>