<?xml version="1.0" encoding="UTF-8"?>
<svg width="40px" height="45px" viewBox="0 0 40 45" version="1.1" xmlns="http://www.w3.org/2000/svg" xmlns:xlink="http://www.w3.org/1999/xlink">
    <title>Group 38 Copy</title>
    <g id="Distributor" stroke="none" stroke-width="1" fill="none" fill-rule="evenodd">
        <g id="Recharge-EMPTY-1" transform="translate(-935.000000, -211.000000)" fill-rule="nonzero">
            <g id="Group-8" transform="translate(925.000000, 211.000000)">
                <g id="Group-38-Copy" transform="translate(10.000000, 0.000000)">
                    <path d="M27,31 L38.3037975,31 C39.2405063,31 40,30.2419825 40,29.3070943 L40,18 L27,18 L27,31 Z" id="Path" fill="#FF385C"></path>
                    <path d="M38.3037975,15 L27,15 L27,17 L40,17 L40,16.258216 C40,15.5633803 39.2278481,15 38.3037975,15 Z" id="Path" fill="#FF385C"></path>
                    <path d="M24.3712274,6 L19.6428571,6 L19.6428571,10.2355785 L20.5734406,10.2355785 C20.9255533,10.2355785 21.2022133,10.5120851 21.2022133,10.8640026 C21.2022133,11.2159201 20.9255533,11.4924267 20.5734406,11.4924267 L19.0140845,11.4924267 L5.98591549,11.4924267 L4.42655936,11.4924267 C4.07444668,11.4924267 3.79778672,11.2159201 3.79778672,10.8640026 C3.79778672,10.5120851 4.07444668,10.2355785 4.42655936,10.2355785 L5.35714286,10.2355785 L5.35714286,6 L0.628772636,6 C0.27665996,6 0,6.27650661 0,6.62842411 L0,44.3715759 C0,44.7234934 0.27665996,45 0.628772636,45 L24.3712274,45 C24.72334,45 25,44.7234934 25,44.3715759 L25,32.6074766 L25,31.9790525 L25,31.3506284 L25,26.7757009 L25,26.2603932 L25,25.682243 L25,25.1669352 L25,18.4302288 L25,17.8018047 L25,17.1733806 L25,14.4962939 L25,13.8678698 L25,13.2394457 L25,6.64099259 C25,6.27650661 24.72334,6 24.3712274,6 Z" id="Path" fill="#FF385C"></path>
                    <path d="M5.76595745,43 L4.23404255,43 C3.00851064,43 2,41.8714286 2,40.5 C2,39.1285714 3.00851064,38 4.23404255,38 L5.76595745,38 C6.99148936,38 8,39.1285714 8,40.5 C8,41.8714286 6.99148936,43 5.76595745,43 Z" id="Path" fill="#FF385C"></path>
                    <path d="M5.76595745,37 L4.23404255,37 C3.00851064,37 2,35.8714286 2,34.5 C2,33.1285714 3.00851064,32 4.23404255,32 L5.76595745,32 C6.99148936,32 8,33.1285714 8,34.5 C8,35.8714286 6.99148936,37 5.76595745,37 Z" id="Path" fill="#FF385C"></path>
                    <path d="M5.76595745,30 L4.23404255,30 C3.00851064,30 2,28.8714286 2,27.5 C2,26.1285714 3.00851064,25 4.23404255,25 L5.76595745,25 C6.99148936,25 8,26.1285714 8,27.5 C8,28.8714286 6.99148936,30 5.76595745,30 Z" id="Path" fill="#FF385C"></path>
                    <path d="M13.7659574,43 L12.2340426,43 C11.0085106,43 10,41.8714286 10,40.5 C10,39.1285714 11.0085106,38 12.2340426,38 L13.7659574,38 C14.9914894,38 16,39.1285714 16,40.5 C16,41.8714286 14.9914894,43 13.7659574,43 Z" id="Path" fill="#FF385C"></path>
                    <path d="M13.7659574,37 L12.2340426,37 C11.0085106,37 10,35.8714286 10,34.5 C10,33.1285714 11.0085106,32 12.2340426,32 L13.7659574,32 C13.8297872,32 13.893617,32 13.9574468,32.0142857 C14.4425532,32.0571429 14.8765957,32.2714286 15.2212766,32.6142857 C15.693617,33.0714286 16,33.7571429 16,34.5 C16,35.8714286 14.9914894,37 13.7659574,37 Z" id="Path" fill="#FF385C"></path>
                    <path d="M14.12,29.9571429 C13.9733333,29.9857143 13.8266667,30 13.6666667,30 L13.44,30 L12.76,30 L12.3333333,30 C11.0533333,30 10,28.8714286 10,27.5 C10,26.1285714 11.0533333,25 12.3333333,25 L12.72,25 L13.3866667,25 L13.6666667,25 C13.8,25 13.9333333,25.0142857 14.0533333,25.0428571 C15.16,25.2428571 16,26.2714286 16,27.5 C16,28.7142857 15.1866667,29.7285714 14.12,29.9571429 Z" id="Path" fill="#FF385C"></path>
                    <path d="M20.7659574,43 L19.2340426,43 C18.0085106,43 17,41.8714286 17,40.5 C17,39.1285714 18.0085106,38 19.2340426,38 L20.7659574,38 C21.9914894,38 23,39.1285714 23,40.5 C23,41.8714286 21.9914894,43 20.7659574,43 Z" id="Path" fill="#FF385C"></path>
                    <path d="M23,34.5 C23,35.8714286 21.9914894,37 20.7659574,37 L19.2340426,37 C18.0085106,37 17,35.8714286 17,34.5 C17,33.7714286 17.2808511,33.1142857 17.7276596,32.6571429 C18.1234043,32.2571429 18.6468085,32 19.2340426,32 L20.7659574,32 C21.3404255,32 21.8765957,32.2428571 22.2723404,32.6571429 C22.7191489,33.1142857 23,33.7714286 23,34.5 Z" id="Path" fill="#FF385C"></path>
                    <path d="M17.3602439,26.1031519 C17.5005998,25.8739255 17.666475,25.6876791 17.8578694,25.5157593 C18.0365042,25.3581662 18.2278986,25.243553 18.4320527,25.1575931 C18.5086105,25.1289398 18.5851683,25.1002865 18.6744857,25.0716332 C18.8403609,25.0286533 19.0189957,25 19.1976305,25 C19.1976305,25 19.2103901,25 19.2103901,25 L19.6186982,25 L20.1035642,25 L20.5246319,25 L20.7543052,25 C20.830863,25 20.9201804,25 20.9967382,25.0143266 C21.1243345,25.0286533 21.2391712,25.0573066 21.3540078,25.0859599 C21.5709215,25.1575931 21.7878352,25.2578797 21.9792297,25.4011461 C22.1323452,25.5157593 22.2727011,25.6446991 22.4002974,25.8022923 C22.7703267,26.2464183 23,26.8481375 23,27.4928367 C23,28.8681948 21.9919893,30 20.7670649,30 L19.2359094,30 C18.0109849,30 17.0029742,28.8681948 17.0029742,27.4928367 C16.977455,26.991404 17.1178109,26.504298 17.3602439,26.1031519 Z" id="Path" fill="#FF385C"></path>
                    <path d="M23.5430267,13.7173913 C23.6997033,13.9166667 23.8302671,14.1425121 23.9086053,14.3816425 C23.9738872,14.5809179 24,14.7801932 24,14.9927536 L24,17.2113527 L24,17.8756039 L24,18.5398551 L24,22.0072464 C24,23.1099034 23.1252226,24 22.041543,24 L14.0379822,24 L13.3851632,24 L12.7323442,24 L3.95845697,24 C2.87477745,24 2,23.1099034 2,22.0072464 L2,14.9927536 C2,13.8900966 2.87477745,13 3.95845697,13 L22.041543,13 C22.1982196,13 22.3418398,13.013285 22.4854599,13.0531401 C22.9163205,13.1594203 23.2818991,13.3852657 23.5430267,13.7173913 Z" id="Path" fill="#EF9A9A"></path>
                    <path d="M14.264,27.08 C14.12,27.0266667 13.96,27 13.8,27 L13.464,27 L12.664,27 L12.2,27 C11.544,27 11,27.4533333 11,28 C11,28.5466667 11.544,29 12.2,29 L12.664,29 L13.464,29 L13.8,29 C13.96,29 14.12,28.9733333 14.264,28.92 C14.696,28.7733333 15,28.4133333 15,28 C15,27.5866667 14.696,27.2266667 14.264,27.08 Z" id="Path" fill="#EBE1DC"></path>
                    <path d="M19.1111111,29 L20.8888889,29 C21.4962963,29 22,28.5466667 22,28 C22,27.5333333 21.6592593,27.1466667 21.1851852,27.04 C21.0962963,27.0133333 20.9925926,27 20.8888889,27 L20.3111111,27 L19.4074074,27 L19.1111111,27 C18.9481481,27 18.7851852,27.0266667 18.6518519,27.0933333 C18.2666667,27.2533333 18,27.6 18,28 C18,28.5466667 18.4888889,29 19.1111111,29 Z" id="Path" fill="#EBE1DC"></path>
                    <path d="M5.88888889,27 L4.11111111,27 C3.5037037,27 3,27.4533333 3,28 C3,28.5466667 3.5037037,29 4.11111111,29 L5.88888889,29 C6.4962963,29 7,28.5466667 7,28 C7,27.4533333 6.4962963,27 5.88888889,27 Z" id="Path" fill="#EBE1DC"></path>
                    <path d="M13.8888889,33 L12.1111111,33 C11.5037037,33 11,33.4533333 11,34 C11,34.5466667 11.5037037,35 12.1111111,35 L13.8888889,35 C14.4962963,35 15,34.5466667 15,34 C15,33.4533333 14.4962963,33 13.8888889,33 Z" id="Path" fill="#EBE1DC"></path>
                    <path d="M19.1111111,33 C18.5037037,33 18,33.4533333 18,34 C18,34.5466667 18.5037037,35 19.1111111,35 L20.8888889,35 C21.4962963,35 22,34.5466667 22,34 C22,33.4533333 21.4962963,33 20.8888889,33 L19.1111111,33 Z" id="Path" fill="#EBE1DC"></path>
                    <path d="M5.88888889,33 L4.11111111,33 C3.5037037,33 3,33.4533333 3,34 C3,34.5466667 3.5037037,35 4.11111111,35 L5.88888889,35 C6.4962963,35 7,34.5466667 7,34 C7,33.4533333 6.4962963,33 5.88888889,33 Z" id="Path" fill="#EBE1DC"></path>
                    <path d="M13.8888889,39 L12.1111111,39 C11.5037037,39 11,39.4533333 11,40 C11,40.5466667 11.5037037,41 12.1111111,41 L13.8888889,41 C14.4962963,41 15,40.5466667 15,40 C15,39.4533333 14.4962963,39 13.8888889,39 Z" id="Path" fill="#EBE1DC"></path>
                    <path d="M20.8888889,39 L19.1111111,39 C18.5037037,39 18,39.4533333 18,40 C18,40.5466667 18.5037037,41 19.1111111,41 L20.8888889,41 C21.4962963,41 22,40.5466667 22,40 C22,39.4533333 21.4962963,39 20.8888889,39 Z" id="Path" fill="#EBE1DC"></path>
                    <path d="M5.88888889,39 L4.11111111,39 C3.5037037,39 3,39.4533333 3,40 C3,40.5466667 3.5037037,41 4.11111111,41 L5.88888889,41 C6.4962963,41 7,40.5466667 7,40 C7,39.4533333 6.4962963,39 5.88888889,39 Z" id="Path" fill="#EBE1DC"></path>
                    <polygon id="Path" fill="#EBE1DC" points="19 5.49465241 19 4.82620321 19 4.15775401 19 0 7 0 7 4.15775401 7 4.82620321 7 5.49465241 7 10 19 10"></polygon>
                    <path d="M9,4.5 C9,4.22 9.27244582,4 9.61919505,4 L16.380805,4 C16.7275542,4 17,4.22 17,4.5 C17,4.51 17,4.52 17,4.53 C16.9752322,4.79 16.7151703,5 16.380805,5 L9.61919505,5 C9.29721362,5 9.0247678,4.79 9,4.53 C9,4.52 9,4.51 9,4.5 Z" id="Path" fill="#000000"></path>
                    <path d="M16.380805,8 L9.61919505,8 C9.27244582,8 9,7.78 9,7.5 C9,7.22 9.27244582,7 9.61919505,7 L16.380805,7 C16.7275542,7 17,7.22 17,7.5 C17,7.78 16.7151703,8 16.380805,8 Z" id="Path" fill="#000000"></path>
                </g>
            </g>
        </g>
    </g>
</svg>