<?xml version="1.0" encoding="UTF-8"?>
<svg width="56px" height="56px" viewBox="0 0 56 56" version="1.1" xmlns="http://www.w3.org/2000/svg" xmlns:xlink="http://www.w3.org/1999/xlink">
    <title>Group 20</title>
    <g id="Distributor" stroke="none" stroke-width="1" fill="none" fill-rule="evenodd">
        <g id="Recharge-EMPTY-1" transform="translate(-777.000000, -206.000000)">
            <g id="Group-13" transform="translate(777.000000, 206.000000)">
                <g id="Group-20">
                    <g id="Group-5">
                        <g id="recharge_icon">
                            <rect id="Rectangle" x="0" y="0" width="56" height="56"></rect>
                        </g>
                    </g>
                    <g id="phone-receiver" transform="translate(5.000000, 11.000000)" fill-rule="nonzero">
                        <path d="M42.8535756,4.74474323 C38.8735795,1.46767441 30.543071,0 23.0000444,0 C15.4570179,0 7.12641953,1.46767441 3.14651328,4.74474323 C-0.493154014,7.74163911 0.025514973,14.0762589 0.025514973,14.0762589 C0.025514973,14.0762589 2.63485212,15 7.84337406,15 C13.051896,15 15.6612332,14.0762589 15.6612332,14.0762589 L30.3387659,14.0762589 C30.3387659,14.0762589 32.948103,15 38.156625,15 C43.3651469,15 45.974484,14.0762589 45.974484,14.0762589 C45.974484,14.0762589 46.493153,7.74163911 42.8535756,4.74474323 Z" id="Path" fill="#C20C3F"></path>
                        <path d="M36.0801375,18.2666876 C35.4696672,17.4638742 34.9701996,15.9820395 34.9701996,14.9738012 L34.9701996,10.4898079 C34.9701996,9.48156959 34.1897759,8.38740184 33.2359048,8.05818481 C33.2359048,8.05818481 30.1693979,7 23.0000896,7 C15.8307813,7 12.7642743,8.05818481 12.7642743,8.05818481 C11.8104033,8.38731233 11.0299796,9.48156959 11.0299796,10.4898079 L11.0299796,14.9738012 C11.0299796,15.9820395 10.530512,17.4638742 9.92004167,18.2666876 L6.6099379,22.619728 C5.99946758,23.4225413 5.5,24.904376 5.5,25.9126143 L5.5,31.1668394 C5.5,32.1750777 6.32566694,33 7.33481542,33 L38.6651846,33 C39.6743331,33 40.5,32.1750777 40.5,31.1668394 L40.5,25.9125248 C40.5,24.9042865 40.0005324,23.4224518 39.3900621,22.6196384 L36.0801375,18.2666876 Z" id="Path" fill="#FF385C"></path>
                        <circle id="Oval" fill="#EBE1DC" cx="23.25" cy="18.75" r="7.25"></circle>
                        <circle id="Oval" fill="#C20C3F" cx="23" cy="18.5" r="2.5"></circle>
                    </g>
                </g>
            </g>
        </g>
    </g>
</svg>