<?xml version="1.0" encoding="UTF-8"?>
<svg width="43px" height="46px" viewBox="0 0 43 46" version="1.1" xmlns="http://www.w3.org/2000/svg" xmlns:xlink="http://www.w3.org/1999/xlink">
    <title>Group 10 Copy</title>
    <g id="Distributor" stroke="none" stroke-width="1" fill="none" fill-rule="evenodd">
        <g id="Recharge-EMPTY-1" transform="translate(-640.000000, -210.000000)" fill-rule="nonzero">
            <g id="Group-4" transform="translate(640.000000, 210.000000)">
                <g id="Group-10-Copy">
                    <g id="router">
                        <path d="M11.672705,2.37712264 C12.4420207,2.38451382 13.1760553,2.73012246 13.7085623,3.33567403 C14.2465494,3.93494477 14.5443463,4.74264112 14.536505,5.58125237 C14.5365962,5.59976645 14.539517,5.61818098 14.539517,5.63649599 C14.5363892,6.47233091 14.2264026,7.27197549 13.6788071,7.85679166 C13.2971693,8.25050421 12.8303956,8.53251949 12.321934,8.67658701 L12.321934,8.67658701 L12.321934,28.6875037 L12.321934,28.6875037 L38.6514425,28.6875037 C39.7579613,28.6854577 40.8193856,29.1655264 41.5997886,30.021003 C42.3801916,30.8764796 42.8149078,32.036478 42.8076884,33.2431611 L42.8076884,33.2431611 L42.8076884,40.8841992 C42.8076884,43.4091809 40.9665969,45.5094336 38.6514425,45.5094336 L38.6514425,45.5094336 L4.31860967,45.5094336 C2.00354646,45.5094336 0.0912735849,43.4091809 0.0912735849,40.8841992 L0.0912735849,40.8841992 L0.0912735849,33.2431611 C0.0912735849,30.7180799 2.00354646,28.6875037 4.31860967,28.6875037 L4.31860967,28.6875037 L11.2266509,28.6875037 L11.2266509,8.72366851 C9.78475533,8.51222752 8.71107237,7.16604331 8.7189092,5.57946068 C8.71881792,5.56263875 8.70695236,5.53874962 8.70695236,5.51884201 C8.72367706,3.78772682 10.0088828,2.39026843 11.596309,2.37712264 L11.596309,2.37712264 Z" id="Shape" fill="#FF385C"></path>
                        <path d="M36.5276887,33.6860297 C38.0824846,33.6864807 39.3433759,34.9456569 39.3459432,36.5004507 L39.3459432,36.5004507 L39.3459432,36.5166061 C39.2878019,38.0858729 38.0499495,39.3068396 36.5276887,39.3068396 C34.9755449,39.3068396 33.7172837,38.0485785 33.7172837,36.4964347 C33.7172837,34.9442909 34.9755449,33.6860297 36.5276887,33.6860297 Z" id="Shape" fill="#FFFFFF"></path>
                        <path d="M7.05608703,2.42586934 C6.84179445,2.21244703 6.49506633,2.21314171 6.28163066,2.42742099 C4.27685701,4.44856693 4.27685701,7.70816184 6.28163066,9.72930778 C6.49591449,9.93866834 6.83865543,9.93698995 7.05087857,9.7255408 C7.2631017,9.51409165 7.26603236,9.17135913 7.05745613,8.95631179 C5.47686166,7.36310217 5.47686166,4.79335279 7.05745613,3.20014316 C7.27080701,2.98592196 7.27019416,2.63933469 7.05608703,2.42586934 L7.05608703,2.42586934 Z" id="Path" fill="#C20C3F"></path>
                        <path d="M3.21593349,0.199980425 C3.00038432,-0.0121904917 2.6536489,-0.00945256907 2.44147712,0.206095755 C-0.745340094,3.44311344 -0.743970991,8.67062547 2.44448915,11.8590856 C2.58245104,11.9993131 2.7850238,12.0547728 2.97517447,12.0043749 C3.16532513,11.953977 3.31383692,11.8054652 3.36423479,11.6153146 C3.41463267,11.4251639 3.35917297,11.2225911 3.21894552,11.0846292 C0.454268632,8.31986108 0.455637736,3.78447665 3.22195755,0.974436792 C3.43415339,0.758912717 3.43145633,0.412177519 3.21593349,0.199980425 L3.21593349,0.199980425 Z" id="Path" fill="#C20C3F"></path>
                        <path d="M15.9699566,9.63611745 C16.0728555,9.73864681 16.2122732,9.79609483 16.3575329,9.79582193 C16.5027926,9.79554707 16.6419927,9.73757373 16.7445042,9.63465708 C18.7492779,7.61351113 18.7492779,4.35391623 16.7445042,2.33277028 C16.5300187,2.12478726 16.188416,2.1270939 15.9767586,2.33795441 C15.7651013,2.54881492 15.7615062,2.89040652 15.9686788,3.105675 C17.5491738,4.69892559 17.5491738,7.26859304 15.9686788,8.86184363 C15.7553027,9.07603966 15.7558747,9.42262688 15.9699566,9.63611745 L15.9699566,9.63611745 Z" id="Path" fill="#C20C3F"></path>
                        <path d="M19.8102014,11.8620976 C20.0257255,12.0742935 20.3724607,12.0715964 20.5846578,11.8560736 C23.7713837,8.61896462 23.7701059,3.39136132 20.5816458,0.203083726 C20.4439611,0.061593684 20.2407781,0.00516298905 20.0498483,0.0553858349 C19.8589186,0.105608681 19.7097995,0.254710167 19.6595542,0.445633998 C19.6093088,0.63655783 19.6657156,0.839747461 19.8071894,0.977448821 C22.5718663,3.74212571 22.5704972,8.27751014 19.8041774,11.0877325 C19.5920425,11.3032459 19.5947393,11.6499107 19.8102014,11.8620976 L19.8102014,11.8620976 Z" id="Path" fill="#C20C3F"></path>
                        <path d="M29.5009917,33.6860297 C31.0557876,33.6864807 32.316679,34.9456569 32.3192462,36.5004507 L32.3192462,36.5004507 L32.3192462,36.5166061 C32.2611962,38.0858729 31.0232526,39.3068396 29.5009917,39.3068396 C27.9488479,39.3068396 26.6905868,38.0485785 26.6905868,36.4964347 C26.6905868,34.9442909 27.9488479,33.6860297 29.5009917,33.6860297 Z" id="Shape" fill="#FFFFFF"></path>
                        <path d="M22.4741123,33.6860297 C24.0289082,33.6864807 25.2897995,34.9456569 25.2923667,36.5004507 L25.2923667,36.5004507 L25.2923667,36.5166061 C25.2343167,38.0858729 23.9963731,39.3068396 22.4741123,39.3068396 C20.9219685,39.3068396 19.6637073,38.0485785 19.6637073,36.4964347 C19.6637073,34.9442909 20.9219685,33.6860297 22.4741123,33.6860297 Z" id="Shape" fill="#FFFFFF"></path>
                        <path d="M14.0212656,35.929717 L9.47930943,35.929717 C9.17685538,35.929717 8.93166792,36.1749044 8.93166792,36.4773585 C8.93166792,36.7798125 9.17685538,37.025 9.47930943,37.025 L14.0212656,37.025 C14.3237196,37.025 14.5689071,36.7798125 14.5689071,36.4773585 C14.5689071,36.1749044 14.3237196,35.929717 14.0212656,35.929717 Z" id="Path" fill="#FFFFFF"></path>
                    </g>
                </g>
            </g>
        </g>
    </g>
</svg>