<?xml version="1.0" encoding="UTF-8"?>
<svg width="56px" height="56px" viewBox="0 0 56 56" version="1.1" xmlns="http://www.w3.org/2000/svg" xmlns:xlink="http://www.w3.org/1999/xlink">
    <title>Group 22</title>
    <g id="Distributor" stroke="none" stroke-width="1" fill="none" fill-rule="evenodd">
        <g id="Recharge-EMPTY-1" transform="translate(-1076.000000, -206.000000)">
            <g id="Group-9" transform="translate(1076.000000, 206.000000)">
                <g id="Group-22">
                    <g id="Group-6">
                        <g id="Group-5">
                            <g id="recharge_icon">
                                <rect id="Rectangle" x="0" y="0" width="56" height="56"></rect>
                            </g>
                        </g>
                    </g>
                    <g id="coupon-(1)" transform="translate(7.000000, 9.000000)" fill-rule="nonzero">
                        <path d="M34.9720547,30.5947852 C34.7492578,30.9807422 34.256332,31.111582 33.8719336,30.8896055 L23.7304922,25.0343789 L23.7304922,25.0343789 L17.4675703,21.4184414 L0.805382812,21.4184414 C0.360609375,21.4184414 0,21.7789687 0,22.2238242 L0,36.0636445 C0,36.508418 0.360527344,36.8690273 0.805382812,36.8690273 L35.623957,36.8690273 C36.0687305,36.8690273 36.4293398,36.5085 36.4293398,36.0636445 L36.4293398,28.0706016 L34.9720547,30.5947852 Z" id="Path" fill="#F9F9F9"></path>
                        <path d="M1.69025391,36.0636445 L1.69025391,22.2239062 C1.69025391,21.7791328 2.05078125,21.4185234 2.49563672,21.4185234 L0.805382813,21.4185234 C0.360609375,21.4185234 0,21.7790508 0,22.2239062 L0,36.0637266 C0,36.5085 0.360527344,36.8691094 0.805382813,36.8691094 L2.49563672,36.8691094 C2.05086328,36.8691094 1.69025391,36.508418 1.69025391,36.0636445 Z" id="Path" fill="#F5F5F5"></path>
                        <path d="M33.8718516,30.8896055 L23.9135859,25.1401992 L23.9135859,36.8691094 L35.623957,36.8691094 C35.8741523,36.8691094 36.0976875,36.7550039 36.2454258,36.5760117 C36.261832,36.5561602 36.2772539,36.5354883 36.2917734,36.5139961 C36.3207305,36.4711758 36.34575,36.4253203 36.3660937,36.377168 C36.3864375,36.3290156 36.4022695,36.2784023 36.4130156,36.2260664 C36.4237617,36.1736484 36.4293398,36.1193437 36.4293398,36.0638086 L36.4293398,28.0707656 L34.9720547,30.5949492 C34.7491758,30.9808242 34.25625,31.1115 33.8718516,30.8896055 Z" id="Path" fill="#C20C3F"></path>
                        <g id="Group" transform="translate(25.511719, 28.464844)" fill="#FF385C">
                            <path d="M4.65970312,5.31496875 C4.30967578,5.31496875 4.02584766,5.03122266 4.02584766,4.68111328 L4.02584766,4.29884766 C4.02584766,3.94873828 4.30967578,3.66499219 4.65970312,3.66499219 C5.00973047,3.66499219 5.29355859,3.94873828 5.29355859,4.29884766 L5.29355859,4.68111328 C5.29355859,5.03122266 5.00973047,5.31496875 4.65970312,5.31496875 Z" id="Path"></path>
                            <path d="M7.04164453,3.9571875 L6.77135156,3.68689453 C6.52378125,3.43940625 6.52378125,3.03802734 6.77126953,2.79053906 C7.01875781,2.54296875 7.42013672,2.54305078 7.667625,2.79045703 L7.93791797,3.06075 C8.18548828,3.30823828 8.18548828,3.70961719 7.938,3.95710547 C7.69051172,4.20467578 7.28921484,4.20467578 7.04164453,3.9571875 Z" id="Path"></path>
                            <path d="M1.03982812,1.31282813 L0.6575625,1.31282813 C0.307535156,1.31282813 0.0237070312,1.02908203 0.0237070312,0.678972656 C0.0237070312,0.328863281 0.307535156,0.0451171875 0.6575625,0.0451171875 L1.03982812,0.0451171875 C1.38985547,0.0451171875 1.67368359,0.328863281 1.67368359,0.678972656 C1.67360156,1.02908203 1.3899375,1.31282813 1.03982812,1.31282813 Z" id="Path"></path>
                            <path d="M1.38157031,3.95710547 C1.13408203,3.70961719 1.13408203,3.30823828 1.38165234,3.06075 L1.65194531,2.79045703 C1.89943359,2.54305078 2.3008125,2.54296875 2.54830078,2.79053906 C2.79578906,3.03802734 2.79578906,3.43940625 2.54821875,3.68689453 L2.27792578,3.9571875 C2.03035547,4.20467578 1.62905859,4.20467578 1.38157031,3.95710547 Z" id="Path"></path>
                        </g>
                        <g id="Group" transform="translate(3.199219, 24.117188)" fill="#F5F5F5">
                            <path d="M14.4219961,1.31898047 L3.12883594,1.31898047 C2.77880859,1.31898047 2.49498047,1.03523438 2.49498047,0.685125 C2.49498047,0.335015625 2.77880859,0.0512695313 3.12883594,0.0512695313 L14.4219961,0.0512695313 C14.7720234,0.0512695313 15.0558516,0.335015625 15.0558516,0.685125 C15.0558516,1.03515234 14.7721055,1.31898047 14.4219961,1.31898047 Z" id="Path"></path>
                            <path d="M16.8712031,4.21328906 L0.679628906,4.21328906 C0.329601562,4.21328906 0.0457734375,3.92954297 0.0457734375,3.57943359 C0.0457734375,3.22932422 0.329601562,2.94557813 0.679628906,2.94557813 L16.8712031,2.94557813 C17.2212305,2.94557813 17.5050586,3.22932422 17.5050586,3.57943359 C17.5050586,3.92954297 17.2213125,4.21328906 16.8712031,4.21328906 Z" id="Path"></path>
                            <path d="M16.8712031,7.10759766 L0.679628906,7.10759766 C0.329601562,7.10759766 0.0457734375,6.82385156 0.0457734375,6.47374219 C0.0457734375,6.12363281 0.329601562,5.83988672 0.679628906,5.83988672 L16.8712031,5.83988672 C17.2212305,5.83988672 17.5050586,6.12363281 17.5050586,6.47374219 C17.5050586,6.82376953 17.2213125,7.10759766 16.8712031,7.10759766 Z" id="Path"></path>
                            <path d="M16.8712031,10.0019063 L0.679628906,10.0019063 C0.329601562,10.0019063 0.0457734375,9.71816016 0.0457734375,9.36805078 C0.0457734375,9.01794141 0.329601562,8.73419531 0.679628906,8.73419531 L16.8712031,8.73419531 C17.2212305,8.73419531 17.5050586,9.01794141 17.5050586,9.36805078 C17.5050586,9.71816016 17.2213125,10.0019063 16.8712031,10.0019063 Z" id="Path"></path>
                        </g>
                        <path d="M30.1714219,30.7402266 C30.883125,30.7402266 31.4856445,30.274207 31.691625,29.6308359 L28.9909922,28.0715859 C28.733332,28.355168 28.5749297,28.7304609 28.5749297,29.1437344 C28.5750117,30.0254883 29.28975,30.7402266 30.1714219,30.7402266 Z" id="Path" fill="#FF385C"></path>
                        <path d="M33.85725,30.9655664 L3.73266797,13.5731367 C3.33932813,13.3460742 3.20463281,12.8431406 3.43169531,12.4499648 L10.334707,0.4935 C10.5617695,0.100160156 11.0647031,-0.0345351563 11.4578789,0.192527344 L41.5824609,17.5850391 C41.9758008,17.8121016 42.1104961,18.3150352 41.8834336,18.7082109 L34.9804219,30.6646758 C34.7534414,31.0579336 34.2505078,31.1926289 33.85725,30.9655664 Z" id="Path" fill="#FFFFFF"></path>
                        <path d="M5.38001953,13.0995703 C5.03557031,12.9006445 4.91752734,12.4601367 5.11645312,12.1156875 L11.8646719,0.427382812 L11.3696953,0.141585937 C11.0252461,-0.0573398438 10.5847383,0.060703125 10.3858125,0.405152344 L3.38075391,12.5383125 C3.18182812,12.8827617 3.29987109,13.3232695 3.64432031,13.5221953 L33.9455156,31.0166719 C34.2899648,31.2155977 34.7304727,31.0975547 34.9293984,30.7531055 L35.1861562,30.3084141 L5.38001953,13.0995703 Z" id="Path" fill="#F9F9F9"></path>
                        <path d="M41.5971445,17.5934883 L31.4556211,11.7382617 L23.7303281,25.1188711 L33.8717695,30.9740977 C34.2569883,31.1964844 34.7495859,31.0644961 34.9719727,30.6792773 L41.8918828,18.6936094 C42.1143516,18.3083906 41.9823633,17.815875 41.5971445,17.5934883 Z" id="Path" fill="#FF385C"></path>
                        <path d="M34.9719727,30.6794414 L35.1862383,30.308332 L24.3472852,24.0504961 L23.7303281,25.1190352 L33.8717695,30.9742617 C34.2569883,31.1964023 34.7495039,31.0644961 34.9719727,30.6794414 Z" id="Path" fill="#F24040"></path>
                        <circle id="Oval" fill="#C20C3F" cx="33.0124922" cy="21.5576484" r="1.59641016"></circle>
                        <path d="M33.2997656,20.7592383 C33.437168,20.5211836 33.6268242,20.3319375 33.8457656,20.1974883 C33.8338711,20.1901875 33.8229609,20.1819023 33.8108203,20.1748477 C33.0471914,19.7340117 32.0707734,19.9956094 31.6299375,20.7591563 C31.1891016,21.5227852 31.4506992,22.4991211 32.2142461,22.9400391 C32.7397383,23.2434727 33.3659648,23.2140234 33.8491289,22.9173984 C33.1135547,22.4670469 32.8659844,21.5106445 33.2997656,20.7592383 Z" id="Path" fill="#C20C3F"></path>
                        <g id="Group" transform="translate(28.464844, 16.980469)" fill="#C20C3F">
                            <path d="M6.04061719,1.99098047 C5.73742969,1.81592578 5.63357813,1.42824609 5.80863281,1.12514062 L5.99976563,0.7940625 C6.17482031,0.490710937 6.5625,0.3871875 6.8656875,0.562078125 C7.168875,0.737132812 7.27272656,1.1248125 7.09767187,1.42791797 L6.90653906,1.75899609 C6.73132031,2.06259375 6.34364063,2.16578906 6.04061719,1.99098047 Z" id="Path"></path>
                            <path d="M2.22960937,8.59203516 C1.92642187,8.41698047 1.82257031,8.02930078 1.997625,7.72619531 L2.18875781,7.39511719 C2.36389453,7.09184766 2.75149219,6.98824219 3.05467969,7.16313281 C3.35786719,7.3381875 3.46171875,7.72586719 3.28666406,8.02897266 L3.09553125,8.36005078 C2.92023047,8.66348437 2.53255078,8.76676172 2.22960937,8.59203516 Z" id="Path"></path>
                            <path d="M2.99848828,1.24441406 L2.89955859,0.875191406 C2.80899609,0.537058594 3.00964453,0.189492187 3.34777734,0.0989296875 C3.68566406,0.007875 4.03347656,0.208933594 4.12412109,0.547148437 L4.22305078,0.916371094 C4.31361328,1.25450391 4.11296484,1.60207031 3.77483203,1.69263281 C3.43809375,1.78327734 3.08937891,1.58377734 2.99848828,1.24441406 Z" id="Path"></path>
                            <path d="M4.97125781,8.60704687 L4.87232813,8.23774219 C4.78176563,7.89960937 4.98241406,7.55196094 5.32054687,7.46139844 C5.65851562,7.37050781 6.00624609,7.57148437 6.09689062,7.90953516 L6.19582031,8.27883984 C6.28638281,8.61697266 6.08573438,8.96462109 5.74760156,9.05518359 C5.41086328,9.14574609 5.06223047,8.94616406 4.97125781,8.60704687 Z" id="Path"></path>
                            <path d="M1.09577344,3.31594922 L0.764695313,3.12481641 C0.461507812,2.94976172 0.35765625,2.56208203 0.532710938,2.25897656 C0.707765625,1.95570703 1.09536328,1.85185547 1.39855078,2.02699219 L1.72962891,2.218125 C2.03281641,2.39317969 2.13675,2.78085938 1.96161328,3.08396484 C1.78606641,3.38805469 1.39814062,3.49051172 1.09577344,3.31594922 Z" id="Path"></path>
                            <path d="M7.69674609,7.12712109 L7.36566797,6.93598828 C7.06248047,6.76093359 6.95862891,6.37325391 7.13368359,6.07014844 C7.30873828,5.76679687 7.69633594,5.66319141 7.99952344,5.83816406 L8.33060156,6.02929687 C8.63378906,6.20435156 8.73772266,6.59203125 8.56258594,6.89513672 C8.38712109,7.19914453 7.99919531,7.30160156 7.69674609,7.12712109 Z" id="Path"></path>
                            <path d="M0.0694804687,5.77672266 C-0.0210820313,5.43858984 0.179648438,5.09102344 0.51778125,5.00046094 L0.887085937,4.90161328 C1.22530078,4.81121484 1.57278516,5.01178125 1.66334766,5.34999609 C1.75391016,5.68812891 1.55317969,6.03569531 1.21504688,6.12625781 L0.845742188,6.22510547 C0.5053125,6.31624219 0.15946875,6.11280469 0.0694804687,5.77672266 Z" id="Path"></path>
                            <path d="M7.43203125,3.80428125 C7.34138672,3.46614844 7.54203516,3.11858203 7.88016797,3.0279375 L8.24939063,2.92900781 C8.58735938,2.83828125 8.93508984,3.03901172 9.02573438,3.37714453 C9.11637891,3.71527734 8.91573047,4.06284375 8.57759766,4.15348828 L8.208375,4.25241797 C7.87229297,4.34273437 7.52308594,4.14413672 7.43203125,3.80428125 Z" id="Path"></path>
                        </g>
                        <g id="Group" transform="translate(7.382812, 5.167969)" fill="#F9F9F9">
                            <path d="M16.9310039,6.98857031 C16.8234609,6.98857031 16.7144414,6.96117187 16.6146094,6.90350391 L6.83443359,1.25688281 C6.53124609,1.08182812 6.42739453,0.694148437 6.60244922,0.391042969 C6.77750391,0.0877734375 7.16510156,-0.0159960938 7.46828906,0.159058594 L17.2484648,5.80567969 C17.5516523,5.98073437 17.6555039,6.36841406 17.4804492,6.67151953 C17.3630625,6.87495703 17.1500273,6.98857031 16.9310039,6.98857031 Z" id="Path"></path>
                            <path d="M17.2886602,10.6346953 L3.26623828,2.53886719 C2.96305078,2.3638125 2.85919922,1.97613281 3.03425391,1.67302734 C3.20922656,1.36975781 3.59690625,1.26590625 3.90009375,1.44104297 L17.9225156,9.53687109 C18.2257031,9.71192578 18.3296367,10.0996055 18.1545,10.4027109 C17.9789531,10.7068008 17.5909453,10.8091758 17.2886602,10.6346953 Z" id="Path"></path>
                            <path d="M15.8414648,13.1412422 L1.81904297,5.04549609 C1.51585547,4.87044141 1.41200391,4.48276172 1.58705859,4.17965625 C1.76211328,3.87638672 2.14971094,3.77261719 2.45289844,3.94767187 L16.4753203,12.043418 C16.7785078,12.2184727 16.8823594,12.6061523 16.7073047,12.9092578 C16.5317578,13.2133477 16.143832,13.3157227 15.8414648,13.1412422 Z" id="Path"></path>
                            <path d="M14.3943516,15.6477891 L0.371929687,7.55204297 C0.0687421875,7.37698828 -0.035109375,6.98930859 0.139945312,6.68620312 C0.315,6.38293359 0.702597656,6.27908203 1.00578516,6.45421875 L15.028207,14.5499648 C15.3313945,14.7250195 15.4353281,15.1126992 15.2601914,15.4158047 C15.0846445,15.7198125 14.6966367,15.8222695 14.3943516,15.6477891 Z" id="Path"></path>
                        </g>
                    </g>
                </g>
            </g>
        </g>
    </g>
</svg>