<?xml version="1.0" encoding="UTF-8"?>
<svg width="21px" height="13px" viewBox="0 0 21 13" version="1.1" xmlns="http://www.w3.org/2000/svg" xmlns:xlink="http://www.w3.org/1999/xlink">
    <title>rect5486 copy</title>
    <g id="Distributor" stroke="none" stroke-width="1" fill="none" fill-rule="evenodd">
        <g id="Approval-level-1-batch_-transfer-approval" transform="translate(-24.000000, -136.000000)" fill="#DCDCDC" stroke="#DCDCDC" stroke-width="0.2">
            <g id="Group-5" transform="translate(-4.000000, 18.000000)">
                <path d="M30.3176496,119 C29.5875352,119.00582 28.9990092,119.599863 29.0000013,120.33 L29.0000013,128.882353 C28.9990092,129.61249 29.5875352,130.206533 30.3176496,130.212353 L46.6705907,130.212353 C47.4007051,130.206533 47.9892311,129.61249 47.9882391,128.882353 L47.9882391,126.400588 L47.6700025,126.379412 C46.7350419,126.319188 46.0078197,125.54278 46.008826,124.605882 C46.0068871,123.668305 46.7343618,122.890855 47.6700025,122.830588 L47.9882391,122.809412 L47.9882391,120.33 C47.9892311,119.599863 47.4007051,119.00582 46.6705907,119 L30.3176496,119 Z M30.3176496,119.681172 L41.7052966,119.681172 L41.7052966,121.466471 L42.3864731,121.466471 L42.3864731,119.681172 L46.6694143,119.681172 C46.840215,119.680503 47.0040515,119.748825 47.1237702,119.870647 C47.2434888,119.99247 47.3089455,120.157472 47.3054414,120.328235 L47.3054414,122.194118 C46.1561022,122.425198 45.3286489,123.433687 45.3264731,124.605882 C45.330324,125.77675 46.1573985,126.783303 47.3054414,127.014118 L47.3054414,128.881765 C47.3089455,129.052528 47.2434888,129.21753 47.1237702,129.339353 C47.0040515,129.461175 46.840215,129.529497 46.6694143,129.528828 L42.3870613,129.528828 L42.3870613,127.597059 L41.7052966,127.597059 L41.7052966,129.528828 L30.3176496,129.528828 C30.1468488,129.529497 29.9830123,129.461175 29.8632937,129.339353 C29.7435751,129.21753 29.6781183,129.052528 29.6816224,128.881765 L29.6816224,120.33 C29.6781183,120.159237 29.7435751,119.994235 29.8632937,119.872412 C29.9830123,119.750589 30.1468488,119.682268 30.3176496,119.682941 L30.3176496,119.681172 Z M41.7052966,122.147647 L41.7052966,124.191765 L42.3864731,124.191765 L42.3864731,122.147647 L41.7052966,122.147647 Z M41.7052966,124.872941 L41.7052966,126.917059 L42.3864731,126.917059 L42.3864731,124.872941 L41.7052966,124.872941 Z" id="rect5486-copy"></path>
            </g>
        </g>
    </g>
</svg>