<?xml version="1.0" encoding="UTF-8"?>
<svg width="23px" height="13px" viewBox="0 0 23 13" version="1.1" xmlns="http://www.w3.org/2000/svg" xmlns:xlink="http://www.w3.org/1999/xlink">
    <title>Group 15</title>
    <g id="VMS-Design" stroke="none" stroke-width="1" fill="none" fill-rule="evenodd">
        <g id="generate-voucher-empty" transform="translate(-23.000000, -137.000000)" stroke="#DCDCDC">
            <g id="Group-3" transform="translate(-4.000000, 82.000000)">
                <g id="Group-15" transform="translate(28.000000, 56.000000)">
                    <rect id="Rectangle" x="0" y="0" width="21" height="11" rx="1"></rect>
                    <path d="M6,3 L3.2,3 C3.08954305,3 3,3.08954305 3,3.2 L3,4.5 L3,4.5" id="Path-6" stroke-linecap="round" stroke-linejoin="round"></path>
                    <path d="M18,4.5 L15.2,4.5 C15.0895431,4.5 15,4.58954305 15,4.7 L15,8 L15,8" id="Path-6-Copy-2" stroke-linecap="round" stroke-linejoin="round" transform="translate(16.500000, 6.250000) rotate(-180.000000) translate(-16.500000, -6.250000) "></path>
                    <path d="M6,4.5 L3.2,4.5 C3.08954305,4.5 3,4.58954305 3,4.7 L3,8 L3,8" id="Path-6-Copy" stroke-linecap="round" stroke-linejoin="round" transform="translate(4.500000, 6.250000) scale(-1, 1) rotate(-180.000000) translate(-4.500000, -6.250000) "></path>
                    <path d="M18,3 L15.2,3 C15.0895431,3 15,3.08954305 15,3.2 L15,4.5 L15,4.5" id="Path-6-Copy-3" stroke-linecap="round" stroke-linejoin="round" transform="translate(16.500000, 3.750000) scale(-1, 1) translate(-16.500000, -3.750000) "></path>
                    <circle id="Oval" cx="10.5" cy="5.5" r="2"></circle>
                </g>
            </g>
        </g>
    </g>
</svg>