<?xml version="1.0" encoding="UTF-8"?>
<svg width="16px" height="15px" viewBox="0 0 16 15" version="1.1" xmlns="http://www.w3.org/2000/svg" xmlns:xlink="http://www.w3.org/1999/xlink">
    <title>layer-1</title>
    <g id="VMS-Design" stroke="none" stroke-width="1" fill="none" fill-rule="evenodd">
        <g id="generate-voucher-empty" transform="translate(-27.000000, -447.000000)" fill="#DCDCDC" fill-rule="nonzero">
            <g id="Group-3" transform="translate(-4.000000, 82.000000)">
                <g id="layer-1" transform="translate(31.000000, 365.000000)">
                    <path d="M0.59648,0.00063625731 C0.268783279,0.0047518682 0.00413982036,0.267847705 0,0.59362807 L0,13.2036117 C0.00413982036,13.5293921 0.268783279,13.7924879 0.59648,13.7966035 L15.088,13.7966035 C15.4156967,13.7924879 15.6803402,13.5293921 15.68448,13.2036117 L15.68448,0.592991813 C15.6803402,0.267211447 15.4156967,0.00411561089 15.088,0 L0.59648,0.00063625731 Z M0.82816,0.823953216 L14.85888,0.823953216 L14.85888,12.9707415 L0.82816,12.9707415 L0.82816,8.0944655 L2.7392,8.0944655 L4.32256,5.36746667 L7.13856,10.2195649 L9.2,6.66924912 L10.17728,8.35214971 L13.75296,8.35214971 L13.75296,7.52883275 L10.65536,7.52883275 L9.2,5.02325146 L7.13856,8.57293099 L4.3232,3.72337778 L2.26176,7.27369357 L0.82816,7.27369357 L0.82816,0.823953216 Z" id="path6395"></path>
                </g>
            </g>
        </g>
    </g>
</svg>