<?xml version="1.0" encoding="UTF-8"?>
<svg width="13px" height="18px" viewBox="0 0 13 18" version="1.1" xmlns="http://www.w3.org/2000/svg" xmlns:xlink="http://www.w3.org/1999/xlink">
    <title>layer-1</title>
    <g id="VMS-Design" stroke="none" stroke-width="1" fill="none" fill-rule="evenodd">
        <g id="generate-voucher-empty" transform="translate(-28.000000, -393.000000)" fill="#DCDCDC">
            <g id="Group-3" transform="translate(-4.000000, 82.000000)">
                <g id="layer-1" transform="translate(32.000000, 311.000000)">
                    <path d="M6.35289474,-4.50581079e-05 C6.19097455,-0.00140852982 6.03374137,0.054313551 5.90884211,0.157368421 L5.89584211,0.167631579 L0.304473684,5.66321053 L0.326368421,5.64336842 L0.303105263,5.66389474 C0.154870854,5.80953997 0.0882700971,6.01907619 0.125210526,6.22357895 L0.125210526,6.28721053 L0.166263158,6.36931579 C0.282128474,6.59513445 0.517397858,6.73432663 0.771105263,6.72715789 L3.43542105,6.72715789 L3.43542105,13.364 C3.44218178,13.5348638 3.51656385,13.6960379 3.64219369,13.8120434 C3.76782354,13.9280488 3.93440296,13.9893765 4.10526316,13.9825263 L8.56084211,13.9825263 C8.91636596,13.994835 9.2146364,13.7167759 9.22726316,13.3612632 L9.22726316,6.72442105 L11.9018421,6.72442105 C12.1553489,6.73149036 12.3903681,6.59228872 12.506,6.36657895 C12.6181264,6.11659683 12.5530557,5.82266629 12.3458947,5.64336842 L12.3698421,5.66526316 L6.81131579,0.169 L6.799,0.158736842 C6.67392998,0.054416786 6.51574956,-0.00186827377 6.35289474,-4.50581079e-05 Z M6.35289474,0.807368421 L11.5528947,5.94784211 L8.44794737,5.94784211 L8.44794737,13.2038947 L4.21268421,13.2038947 L4.21268421,5.94784211 L1.12005263,5.94784211 L6.35289474,0.807368421 Z M0.776578947,15.5117368 L11.5727368,15.5117368 L11.5727368,16.3286842 L0.776578947,16.3286842 L0.776578947,15.5117368 Z" id="rect948-3"></path>
                </g>
            </g>
        </g>
    </g>
</svg>