<?xml version="1.0" encoding="UTF-8"?>
<svg width="17px" height="17px" viewBox="0 0 17 17" version="1.1" xmlns="http://www.w3.org/2000/svg" xmlns:xlink="http://www.w3.org/1999/xlink">
    <title>layer-1</title>
    <g id="VMS-Design" stroke="none" stroke-width="1" fill="none" fill-rule="evenodd">
        <g id="generate-voucher-empty" transform="translate(-26.000000, -188.000000)" fill="#DCDCDC" stroke="#DCDCDC" stroke-width="0.2">
            <g id="Group-3" transform="translate(-4.000000, 82.000000)">
                <g id="layer-1" transform="translate(30.000000, 106.000000)">
                    <g id="layer1-2" transform="translate(8.500000, 7.615941) rotate(-90.000000) translate(-8.500000, -7.615941) translate(1.000000, -0.884059)">
                        <path d="M-0.0484608007,15.8910615 C-0.46477648,15.8728474 -0.788702187,15.5226497 -0.774460801,15.1061792 L-0.774460801,12.2170615 C-0.788339079,11.8008394 -0.46451575,11.4510409 -0.0484608007,11.4328262 L1.15636273,11.4328262 L1.15636273,12.1685321 L-0.0484608007,12.1685321 L-0.0316372713,12.1685321 C-0.0369912674,12.184129 -0.0394046673,12.200584 -0.0387549184,12.2170615 L-0.0387549184,15.1061792 C-0.0394046673,15.1226566 -0.0369912674,15.1391116 -0.0316372713,15.1547086 L-0.0484608007,15.1547086 L14.5247157,15.1547086 L14.5078921,15.1547086 C14.5132461,15.1391116 14.5156595,15.1226566 14.5150098,15.1061792 L14.5150098,12.2170615 C14.5156595,12.200584 14.5132461,12.184129 14.5078921,12.1685321 L14.5247157,12.1685321 L13.5450686,12.1685321 L13.450563,11.4303512 C13.6894074,11.4307576 14.047674,11.4313669 14.5253627,11.4321792 C14.9414177,11.4503938 15.265241,11.8001923 15.2513627,12.2164145 L15.2513627,15.1055321 C15.265241,15.5217543 14.9414177,15.8715527 14.5253627,15.8897674 L-0.0484608007,15.8910615 Z M4.88212743,8.21328168 L4.88212743,7.47692874 L7.08989214,7.47692874 L7.08989214,8.21263462 L4.88212743,8.21328168 Z M7.82559802,8.21328168 L7.82559802,7.47692874 L10.0314216,7.47692874 L10.0314216,8.21263462 L7.82559802,8.21328168 Z M1.22508706,14.6793391 L1.22508706,2.85239795 C1.23113446,2.06367086 1.87280813,1.42777804 2.66155765,1.42885881 L5.33908706,1.42885881 L9.22144,1.42885881 L11.8989694,1.42885881 C12.6877189,1.42777804 13.3293926,2.06367086 13.33544,2.85239795 L13.33544,14.6786921 L12.5977929,14.6786921 L12.5977929,8.21263325 L10.6695577,8.21263325 L10.6695577,7.47692736 L12.5977929,7.47692736 L12.5977929,2.85239795 C12.598364,2.66777447 12.5243404,2.49074703 12.3925183,2.36148339 C12.2606962,2.23221975 12.0822521,2.16167958 11.8976753,2.16586854 L9.88273412,2.16586854 L4.67973412,2.1665156 L2.66155765,2.1665156 C2.47709333,2.16232965 2.29874942,2.23278188 2.16694679,2.3619046 C2.03514416,2.49102732 1.96104372,2.66788657 1.96144,2.85239795 L1.96144,7.47692736 L4.04496942,7.47692736 L4.04496942,8.21263325 L1.96144,8.21263325 L1.96144,14.6786921 L1.22508706,14.6793391 Z" id="rect5486" transform="translate(7.238440, 8.659959) rotate(90.000000) translate(-7.238440, -8.659959) "></path>
                    </g>
                </g>
            </g>
        </g>
    </g>
</svg>