<svg width="32" height="27" viewBox="0 0 32 27" fill="none" xmlns="http://www.w3.org/2000/svg">
<g id="Group 37">
<g id="Group 16 Copy 2">
<g id="Group 28 Copy 4">
<path id="Rectangle Copy 14" d="M1.5 18.5039C1.5 16.0186 3.51472 14.0039 6 14.0039H13.9412C16.4265 14.0039 18.4412 16.0186 18.4412 18.5039V23.3947C18.4412 24.2231 17.7696 24.8947 16.9412 24.8947H3C2.17157 24.8947 1.5 24.2231 1.5 23.3947V18.5039Z" stroke="#DCDCDC" stroke-linejoin="round"/>
</g>
<circle id="Oval Copy 16" cx="9.97022" cy="6.34034" r="4.84034" stroke="#DCDCDC"/>
</g>
<g id="Group 35 Copy 2">
<g id="Group 35 Copy">
<path id="Path 7" fill-rule="evenodd" clip-rule="evenodd" d="M21.447 24.7613L24.1571 24.3785L24.351 22.4998L25.8736 21.9417L27.4969 23.1611L29.3739 20.9705L28.1087 19.5708L28.3973 18.1074L30.57 17.678L30.8086 15.4531L28.7014 14.6779L28.1087 13.5109L29.0325 11.7928L27.7999 9.95363L25.4614 10.8053L24.351 10.5509L23.5269 8.12842L21.447 8.12842L20.5219 10.5509L19.1236 10.8053L18.0388 9.72383L15.9364 11.1095L16.2764 12.5336L16.8962 13.8622L16.6898 14.6779L14.8512 14.9859L14.1152 16.0078L14.6236 18.1074L16.6898 18.4451L16.8962 19.2941L15.9364 21.4301L17.6485 23.1611L19.7294 22.1405L20.845 22.4998" fill="#212B35"/>
<g id="mbri-setting copy">
<path id="Shape" fill-rule="evenodd" clip-rule="evenodd" d="M20.25 10.1719V9.1875C20.25 8.26162 21.0094 7.5 21.9375 7.5H23.0625C23.9872 7.5 24.75 8.26275 24.7511 9.1875V10.1685C24.9604 10.2394 25.1775 10.3238 25.3834 10.416L26.0876 9.714C26.658 9.1425 27.6761 8.97937 28.4411 9.714L29.2511 10.4869C29.8879 11.1236 29.8699 12.2655 29.2849 12.8764L28.5806 13.6155C28.6763 13.8259 28.7573 14.0317 28.8281 14.2477H29.8125C30.7372 14.2477 31.5 15.0105 31.5 15.9352V17.0602C31.5 17.985 30.7372 18.7477 29.8125 18.7477H28.7933C28.779 18.7881 28.7652 18.8283 28.7514 18.8683L28.7513 18.8685C28.6998 19.0179 28.6492 19.1648 28.5817 19.3102C28.5817 19.3102 28.9553 19.7186 29.2871 20.0505C29.9025 20.667 29.8935 21.7965 29.25 22.4377L28.44 23.2477C27.7886 23.898 26.7368 23.898 26.0842 23.2477C26.0111 23.1746 25.9298 23.0969 25.8475 23.0183L25.8472 23.018L25.847 23.0178L25.847 23.0178C25.6739 22.8524 25.4966 22.683 25.3823 22.5435C25.226 22.6199 25.061 22.6789 24.8957 22.738L24.8955 22.7381L24.8953 22.7381C24.8464 22.7556 24.7976 22.7731 24.7489 22.791V23.8114C24.7489 24.7361 23.9861 25.4989 23.0614 25.4989H21.9364C21.0116 25.4989 20.2489 24.7361 20.2489 23.8114V22.7933C20.2041 22.7768 20.1593 22.7606 20.1144 22.7444L20.1143 22.7444L20.1141 22.7443C19.9447 22.6832 19.7755 22.6222 19.6155 22.5458C19.4659 22.7038 19.298 22.8692 19.1349 23.0298L19.1348 23.0299L19.1343 23.0303C19.0585 23.105 18.9837 23.1786 18.9124 23.25C18.261 23.9003 17.2091 23.9003 16.5589 23.25L15.7489 22.44C15.0311 21.7222 15.2145 20.5747 15.7151 20.0505L16.4183 19.3125C16.3505 19.1653 16.2997 19.0182 16.2479 18.8682L16.2479 18.8682L16.2479 18.8682C16.2343 18.829 16.2207 18.7896 16.2067 18.75H15.1875C14.2627 18.75 13.5 17.9872 13.5 17.0625V15.9375C13.5 15.0116 14.2627 14.25 15.1875 14.25H16.1708C16.2428 14.0329 16.3238 13.8281 16.4183 13.6166L15.7162 12.8775C15.138 12.3004 15.0863 11.1203 15.75 10.4869L16.5589 9.71513C17.2237 9.07725 18.2227 9.02213 18.9135 9.71513L19.6166 10.4194C19.8225 10.3249 20.0407 10.2416 20.25 10.1719ZM23.625 9.1875C23.625 8.86575 23.3842 8.625 23.0625 8.625H21.9352C21.6202 8.625 21.3727 8.86575 21.3727 9.1875V10.5611C21.3649 10.8019 21.1849 11.0269 20.9509 11.0876C20.5099 11.2136 20.1105 11.3813 19.7561 11.5804C19.5424 11.694 19.2555 11.6479 19.089 11.4735L18.1395 10.524C17.9449 10.3294 17.5905 10.2765 17.3318 10.524L16.5218 11.298C16.3699 11.4499 16.2776 11.7896 16.5589 12.0709L17.5072 13.0553C17.6704 13.2319 17.7019 13.5176 17.5781 13.7224C17.3711 14.0914 17.2114 14.5031 17.0854 14.9531C17.0257 15.1871 16.7996 15.3637 16.56 15.375H15.1875C14.8657 15.375 14.625 15.6158 14.625 15.9375V17.0625C14.625 17.3831 14.8657 17.625 15.1875 17.625H16.5589C16.7929 17.6284 17.0134 17.7904 17.0854 18.0109C17.2091 18.4417 17.3734 18.84 17.5781 19.2068C17.7007 19.4138 17.6704 19.6984 17.5072 19.875L16.5262 20.8639C16.2956 21.0934 16.2956 21.4073 16.524 21.6368L17.334 22.4445C17.5545 22.665 17.8796 22.647 18.108 22.4445L19.0564 21.4601C19.2386 21.2812 19.5457 21.2509 19.7595 21.3904C20.1375 21.6019 20.5391 21.7639 20.9554 21.8809C21.2006 21.945 21.3851 22.1914 21.3773 22.4434V23.8159C21.3773 24.1376 21.618 24.3784 21.9398 24.3784H23.0648C23.3865 24.3784 23.6273 24.1376 23.6273 23.8159V22.4434C23.6194 22.1914 23.8039 21.945 24.0491 21.8809C24.4654 21.7628 24.867 21.6007 25.245 21.3892C25.4576 21.2497 25.767 21.279 25.947 21.459L26.8965 22.4445C27.1249 22.6436 27.45 22.6628 27.6705 22.4445L28.4783 21.6345C28.7089 21.405 28.7089 21.0911 28.4783 20.8616L27.495 19.8773C27.3319 19.7006 27.3004 19.4149 27.4241 19.209C27.6289 18.8423 27.7931 18.4451 27.9169 18.0131C27.9889 17.7926 28.2105 17.6273 28.4423 17.6273H29.8148C30.1365 17.6273 30.3773 17.3854 30.3773 17.0648V15.9398C30.3773 15.618 30.1365 15.3773 29.8148 15.3773H28.4423C28.2015 15.3694 27.9754 15.1883 27.9158 14.9554C27.7898 14.5065 27.63 14.0948 27.423 13.7235C27.3015 13.5165 27.3307 13.2319 27.4927 13.0553L28.4434 12.0709C28.6346 11.8717 28.7662 11.5736 28.4771 11.298L27.6705 10.524C27.4545 10.3102 27.1136 10.2709 26.8605 10.524L25.9099 11.4724C25.7422 11.6456 25.4565 11.6906 25.2427 11.5781C24.8872 11.3779 24.4856 11.2114 24.0469 11.0854C23.8129 11.0257 23.6329 10.7996 23.625 10.56V9.1875ZM22.5 13.125C20.6437 13.125 19.125 14.6437 19.125 16.5C19.125 18.3563 20.6437 19.875 22.5 19.875C24.3563 19.875 25.875 18.3563 25.875 16.5C25.875 14.6437 24.3563 13.125 22.5 13.125ZM24.75 16.5C24.75 15.2513 23.7487 14.25 22.5 14.25C21.2513 14.25 20.25 15.2513 20.25 16.5C20.25 17.7487 21.2513 18.75 22.5 18.75C23.7487 18.75 24.75 17.7487 24.75 16.5Z" fill="#DCDCDC"/>
</g>
</g>
</g>
</g>
</svg>
