<svg width="45" height="30" viewBox="0 0 45 30" fill="none" xmlns="http://www.w3.org/2000/svg">
<g id="Group 10">
<g id="Group Copy">
<circle id="Oval" cx="14.175" cy="8.625" r="8.625" fill="#C4CDD5"/>
<path id="Path" d="M14.175 19.2751C8.1 19.2751 0 23.3251 0 28.3876C0 28.9468 0.453312 29.4001 1.0125 29.4001H27.3375C27.8967 29.4001 28.35 28.9468 28.35 28.3876C28.35 23.3251 20.25 19.2751 14.175 19.2751Z" fill="#C4CDD5"/>
</g>
<g id="Group 5">
<g id="Group">
<path id="Path_2" d="M41.9294 13.0884C41.5488 13.0884 41.2317 13.4055 41.2317 13.786V18.4316C41.2317 19.0658 40.7244 19.5732 40.0902 19.5732H31.0527C30.4185 19.5732 29.9111 19.0658 29.9111 18.4316V9.39414C29.9111 8.75993 30.4185 8.25256 31.0527 8.25256H35.6983C36.0788 8.25256 36.3959 7.93545 36.3959 7.55493C36.3959 7.1744 36.0788 6.8573 35.6983 6.8573H31.0527C29.6416 6.8573 28.5 7.99888 28.5 9.40999V18.4475C28.5 19.8586 29.6416 21.0002 31.0527 21.0002H40.0902C41.5013 21.0002 42.6429 19.8586 42.6429 18.4475V13.786C42.6429 13.3897 42.3258 13.0884 41.9294 13.0884Z" fill="#C4CDD5"/>
</g>
<g id="Group_2">
<path id="Shape" fill-rule="evenodd" clip-rule="evenodd" d="M41.7733 5.38L42.6534 4.5L45 6.84666L44.12 7.72666L41.7733 5.38ZM32.0933 15.06L41.1867 5.96667L43.5333 8.31334L34.44 17.4066L31.8 17.7L32.0933 15.06Z" fill="#C4CDD5"/>
</g>
</g>
</g>
</svg>
