<?xml version="1.0" encoding="UTF-8"?>
<svg width="17px" height="12px" viewBox="0 0 17 12" version="1.1" xmlns="http://www.w3.org/2000/svg" xmlns:xlink="http://www.w3.org/1999/xlink">
    <title>5007A842-FD50-4B46-A434-8EB13671A49A@1.5x</title>
    <g id="Distributor" stroke="none" stroke-width="1" fill="none" fill-rule="evenodd">
        <g id="view-user-1" transform="translate(-468.000000, -313.000000)" fill="#979797" fill-rule="nonzero">
            <g id="mail" transform="translate(468.000000, 313.000000)">
                <path d="M13.9513802,2.27617355 L8.4676157,7.10845868 L2.98265702,2.27610331 C2.7642562,2.08369421 2.43135124,2.10483884 2.2390124,2.32309917 C2.0467438,2.54142975 2.06767769,2.87433471 2.28607851,3.0667438 L8.11939669,8.2060124 C8.21893802,8.29368182 8.34334711,8.33751653 8.46768595,8.33751653 C8.59202479,8.33751653 8.71650413,8.29368182 8.81604545,8.20594215 L14.6481694,3.06667355 C14.8664298,2.87433471 14.8874339,2.5413595 14.695095,2.32302893 C14.5026157,2.10490909 14.169781,2.08383471 13.9513802,2.27617355 Z" id="Path"></path>
                <path d="M15.3534587,0.037161157 L1.58057851,0.037161157 C0.709082645,0.037161157 0,0.746173554 0,1.61773967 L0,9.9773843 C0,10.8489504 0.709082645,11.5579628 1.58057851,11.5579628 L15.3534587,11.5579628 C16.2249545,11.5579628 16.9340372,10.8489504 16.9340372,9.9773843 L16.9340372,1.61773967 C16.9340372,0.746243802 16.2249545,0.037161157 15.3534587,0.037161157 Z M15.8803182,9.9773843 C15.8803182,10.2678595 15.6440041,10.5042438 15.3534587,10.5042438 L1.58057851,10.5042438 C1.29003306,10.5042438 1.05371901,10.2678595 1.05371901,9.9773843 L1.05371901,1.61773967 C1.05371901,1.32726446 1.29003306,1.09088017 1.58057851,1.09088017 L15.3534587,1.09088017 C15.6440041,1.09088017 15.8803182,1.32726446 15.8803182,1.61773967 L15.8803182,9.9773843 Z" id="Shape"></path>
            </g>
        </g>
    </g>
</svg>