<?xml version="1.0" encoding="UTF-8"?>
<svg width="18px" height="18px" viewBox="0 0 18 18" version="1.1" xmlns="http://www.w3.org/2000/svg" xmlns:xlink="http://www.w3.org/1999/xlink">
    <title>721EE1ED-7E61-46ED-994C-CD62F8EBC812@1.5x</title>
    <g id="Distributor" stroke="none" stroke-width="1" fill="none" fill-rule="evenodd">
        <g id="Batch-recharge-mgmt_batch-1.1" transform="translate(-1330.000000, -658.000000)" fill-rule="nonzero" stroke="#627381">
            <g id="Group-7" transform="translate(1331.000000, 657.000000)">
                <g id="cancel-(1)" transform="translate(8.000000, 10.000000) scale(1, -1) translate(-8.000000, -10.000000) translate(0.000000, 2.000000)">
                    <path d="M8,0 C3.58171875,0 0,3.58171875 0,8 C0,12.4182812 3.58171875,16 8,16 C12.4182812,16 16,12.4182812 16,8 C15.9948437,3.58384375 12.4161563,0.00515625 8,0 Z M8,15.3333437 C3.94990625,15.3333437 0.66665625,12.0500937 0.66665625,8 C0.66665625,3.94990625 3.94990625,0.66665625 8,0.66665625 C12.0500937,0.66665625 15.3333437,3.94990625 15.3333437,8 C15.32875,12.0481875 12.0481875,15.32875 8,15.3333437 Z" id="Shape" stroke-width="0.4" fill="#627381"></path>
                    <polygon id="Path" stroke-width="0.5" points="10.970588 5.80408273 10.6667269 5.5 8.235294 7.93141274 5.80386111 5.5 5.5 5.80408273 7.93141274 8.235294 5.5 10.6665053 5.80386111 10.970588 8.235294 8.53917526 10.6667269 10.970588 10.970588 10.6665053 8.53917526 8.235294"></polygon>
                </g>
            </g>
        </g>
    </g>
</svg>