<?xml version="1.0" encoding="UTF-8"?>
<svg width="11px" height="14px" viewBox="0 0 11 14" version="1.1" xmlns="http://www.w3.org/2000/svg" xmlns:xlink="http://www.w3.org/1999/xlink">
    <!-- Generator: sketchtool 63.1 (101010) - https://sketch.com -->
    <title>3F4A181D-2BAB-47BE-8E8B-C0E546DD0003@1.5x</title>
    <desc>Created with sketchtool.</desc>
    <g id="Distributor" stroke="none" stroke-width="1" fill="none" fill-rule="evenodd">
        <g id="Profile-1" transform="translate(-32.000000, -550.000000)" fill="#FFFFFF" stroke="#828387">
            <g id="profile" transform="translate(32.000000, 550.000000)">
                <path d="M7.5,7.5 L3.5,7.5 C2.67157288,7.5 1.92157288,7.83578644 1.37867966,8.37867966 C0.835786438,8.92157288 0.5,9.67157288 0.5,10.5 L0.5,12 C0.5,12.4142136 0.667893219,12.7892136 0.939339828,13.0606602 C1.21078644,13.3321068 1.58578644,13.5 2,13.5 L9,13.5 C9.41421356,13.5 9.78921356,13.3321068 10.0606602,13.0606602 C10.3321068,12.7892136 10.5,12.4142136 10.5,12 L10.5,10.5 C10.5,9.67157288 10.1642136,8.92157288 9.62132034,8.37867966 C9.07842712,7.83578644 8.32842712,7.5 7.5,7.5 Z" id="Rectangle-2"></path>
                <rect id="Rectangle-11" x="2.5" y="0.5" width="6" height="8" rx="3"></rect>
            </g>
        </g>
    </g>
</svg>