<?xml version="1.0" encoding="UTF-8"?>
<svg width="18px" height="18px" viewBox="0 0 18 18" version="1.1" xmlns="http://www.w3.org/2000/svg" xmlns:xlink="http://www.w3.org/1999/xlink">
    <title>DDE0B226-4A02-4304-9098-DF03C58F3F5A@1.5x</title>
    <g id="Distributor" stroke="none" stroke-width="1" fill="none" fill-rule="evenodd">
        <g id="view-user-1" transform="translate(-1398.000000, -127.000000)" fill="#627381" fill-rule="nonzero">
            <g id="suspend" transform="translate(1398.000000, 127.000000)">
                <path d="M9,0 C4.02943725,0 0,4.02943725 0,9 C0,13.9705627 4.02943725,18 9,18 C13.9705627,18 18,13.9705627 18,9 C18,4.02943725 13.9705627,0 9,0 Z M0.999989209,9 C0.994846335,5.85471956 2.83615008,2.9992702 5.70333381,1.70618356 C8.57051753,0.413096917 11.9296566,0.92317054 14.28375,3.00909 L3.00909,14.28375 C1.7153366,12.8277222 1.00050531,10.9477717 0.999989209,9 L0.999989209,9 Z M9,17.0000106 C7.05221021,16.9994954 5.17224059,16.284665 3.71619,14.99091 L14.99091,3.71619 C17.0767947,6.07030229 17.5868483,9.42942872 16.2937701,12.2966066 C15.000692,15.1637844 12.1452716,17.0051045 9,17.0000106 Z" id="Shape"></path>
            </g>
        </g>
    </g>
</svg>