<?xml version="1.0" encoding="UTF-8"?>
<svg width="18px" height="17px" viewBox="0 0 18 17" version="1.1" xmlns="http://www.w3.org/2000/svg" xmlns:xlink="http://www.w3.org/1999/xlink">
    <title>681351DD-4659-4977-8BD8-769348EFE5A8@1.5x</title>
    <g id="Distributor" stroke="none" stroke-width="1" fill="none" fill-rule="evenodd">
        <g id="Channel-user(mobile)-1" transform="translate(-1301.000000, -503.000000)" fill="#627381" fill-rule="nonzero">
            <g id="password" transform="translate(1301.000000, 503.000000)">
                <path d="M4.37288136,16.6779661 C1.99679581,16.6779661 0.0508474576,14.7320481 0.0508474576,12.3559518 C0.0508474576,9.97985548 1.99679581,8.03389831 4.37288136,8.03389831 C6.7489669,8.03389831 8.69491525,9.97985548 8.69491525,12.3559518 C8.69491525,14.7320481 6.7489669,16.6779661 4.37288136,16.6779661 Z M4.37288136,9.2629177 C2.67275929,9.2629177 1.27986128,10.655822 1.27986128,12.3559518 C1.27986128,14.0560816 2.67275929,15.4489859 4.37288136,15.4489859 C6.07300342,15.4489859 7.46590143,14.0560816 7.46590143,12.3559518 C7.46590143,10.655822 6.07300342,9.2629177 4.37288136,9.2629177 Z" id="Shape"></path>
                <path d="M17.7861744,3.83890805 L15.7690524,1.81735941 L16.5433056,1.0414071 C16.7877922,0.796383932 16.7877922,0.408388236 16.5433056,0.183767378 C16.2988189,-0.0612557927 15.9116728,-0.0612557927 15.6875438,0.183767378 L6.6409921,9.22976957 C6.39650546,9.47479274 6.39650546,9.86278843 6.6409921,10.0874093 C6.76325492,10.2099404 6.92623302,10.2711864 7.06885347,10.2711864 C7.21147393,10.2711864 7.37449102,10.2099404 7.49671485,10.0874093 L11.7755236,5.79921067 L13.7926456,7.800357 C13.9149084,7.92288813 14.0575289,7.98413415 14.220507,7.98413415 C14.3835241,7.98413415 14.5261445,7.92288813 14.6483684,7.800357 L17.7657778,4.69654777 C17.8880406,4.57401665 17.9491525,4.43108321 17.9491525,4.26774745 C17.9491525,4.10437262 17.9084372,3.94099778 17.7861744,3.83890805 Z M14.2409036,6.51391695 L12.651643,4.94157094 L14.892894,2.69540145 L16.4821547,4.28814977 L14.2409036,6.51391695 Z" id="Shape"></path>
            </g>
        </g>
    </g>
</svg>