<?xml version="1.0" encoding="UTF-8"?>
<svg width="60px" height="44px" viewBox="0 0 60 44" version="1.1" xmlns="http://www.w3.org/2000/svg" xmlns:xlink="http://www.w3.org/1999/xlink">
    <title>Bulk withdrawal@1.5x</title>
    <g id="O2C" stroke="none" stroke-width="1" fill="none" fill-rule="evenodd">
        <g id="O2C-Bulk-Purchase_default-state" transform="translate(-479.000000, -210.000000)" fill-rule="nonzero">
            <g id="Bulk-withdrawal" transform="translate(479.000000, 212.000000)">
                <g id="Group-16" transform="translate(0.000000, 12.000000)" fill="#FBA52A">
                    <g id="noun_cash_401324">
                        <path d="M47.2700667,0.198585366 L2.7317636,0.198585366 C1.32840588,0.198585366 0.186804878,1.33957621 0.186804878,2.74232378 L0.186804878,27.3999291 C0.186804878,28.8032869 1.32840588,29.9436676 2.7317636,29.9436676 L47.2700667,29.9436676 C48.6734244,29.9436676 49.8131959,28.8032869 49.8131959,27.3999291 L49.8131959,2.74171362 C49.8144152,1.33957621 48.6734244,0.198585366 47.2700667,0.198585366 Z M25.1958598,3.69050548 C31.4883938,3.69050548 36.5844128,8.78774479 36.5844128,15.0790585 C36.5844128,21.3691519 31.4859532,26.465781 25.1958598,26.465781 C18.9063766,26.465781 13.807917,21.3685417 13.807917,15.0790585 C13.807917,8.78713464 18.9063766,3.69050548 25.1958598,3.69050548 Z M26.1123134,6.18421114 L24.6247542,6.18421114 L24.6247542,8.15440335 C23.4416627,8.26850243 22.4947013,8.66327306 21.7838701,9.3460371 C21.0736491,10.028191 20.7185385,10.8964423 20.7185385,11.9514012 C20.7185385,12.5792513 20.8179939,13.115578 21.0175147,13.5591611 C21.2164254,14.002134 21.5038087,14.390803 21.8772239,14.7269987 C22.2512492,15.0638046 22.6966628,15.35973 23.2122442,15.6153852 C23.7308764,15.8704302 24.2928296,16.1236448 24.9029852,16.3731984 C25.5137509,16.6203114 25.9396394,16.8869493 26.1843118,17.1676209 C26.4265435,17.4482924 26.5510153,17.8339107 26.5510153,18.3244758 C26.5510153,18.7692791 26.4295943,19.1152373 26.1843118,19.3666214 C25.9426902,19.6192258 25.6095453,19.745528 25.1842669,19.745528 C24.604009,19.745528 24.1543243,19.5600407 23.843145,19.1896763 C23.5270844,18.8205322 23.3714948,18.2793242 23.3714948,17.5691032 L20.2230922,17.5691032 C20.2230922,18.8571415 20.5867449,19.8956263 21.3103894,20.6845574 C22.0358643,21.4728783 23.0773998,21.9408676 24.4374365,22.0818135 L24.4374365,23.9714652 L25.9249957,23.9714652 L25.9249957,22.0927963 C27.0891724,21.9793074 28.0105073,21.5888079 28.6859495,20.9139758 C29.3595612,20.2403641 29.6981975,19.3733331 29.6981975,18.3073914 C29.6981975,17.678321 29.5920304,17.1389436 29.3803065,16.6904792 C29.1679723,16.2426251 28.8750977,15.8496849 28.5029028,15.5128791 C28.1307079,15.1754631 27.6834639,14.8758767 27.169713,14.610459 C26.6553519,14.3444312 26.1092627,14.0893862 25.5296149,13.8441037 C24.9505773,13.5988212 24.5271294,13.3388949 24.2678133,13.068596 C24.0072769,12.7982971 23.8736528,12.4322038 23.8736528,11.9709262 C23.8736528,11.51514 23.988362,11.1588092 24.2171704,10.8994931 C24.4484193,10.6432278 24.7681408,10.5132646 25.1781653,10.5132646 C25.6400531,10.5132646 25.9951636,10.6877691 26.2428867,11.0367781 C26.4918302,11.3839566 26.6163019,11.8842841 26.6163019,12.531049 L29.7756873,12.531049 C29.7756873,11.3485676 29.4523048,10.3710984 28.7988282,9.5998618 C28.1484024,8.83045568 27.2514738,8.36307654 26.1123134,8.1934533 L26.1123134,6.18421114 Z" id="Shape"></path>
                    </g>
                </g>
                <g id="Group-17" transform="translate(38.000000, 0.000000)" fill="#FFFFFF" stroke="#212B35" stroke-width="1.4">
                    <path d="M10.3250216,-0.7 C7.3612895,-0.7 4.67817706,0.501250898 2.73599654,2.44343142 C0.793816018,4.38561194 -0.40743488,7.06872438 -0.40743488,10.0324565 C-0.40743488,12.9961886 0.793816018,15.6793011 2.73599654,17.6214816 C4.67817706,19.5636621 7.3612895,20.764913 10.3250216,20.764913 C13.2878965,20.7615319 15.969055,19.5595994 17.9105727,17.6180817 C19.8522,15.6764544 21.0540968,12.9951597 21.0574777,10.0332555 C21.0574781,7.06872438 19.8562272,4.38561194 17.9140467,2.44343142 C15.9718662,0.501250898 13.2887537,-0.7 10.3250216,-0.7 Z" id="Shape"></path>
                </g>
                <path d="M54,9.86712103 C54,9.4401802 53.6919976,9.09367749 53.3124946,9.09367749 L45.3470574,9.09367749 L46.9235072,7.32017145 C47.1919781,7.01814174 47.1919781,6.52855198 46.9235072,6.22652228 C46.6550364,5.92449257 46.2198455,5.92449257 45.9513746,6.22652228 L43.2013531,9.32029645 C42.9328823,9.62232615 42.9328823,10.1119159 43.2013531,10.4139456 L45.9513746,13.5077198 C46.0857819,13.658928 46.2614395,13.7343387 46.4374409,13.7343387 C46.6134423,13.7343387 46.7890999,13.658928 46.9235072,13.5077198 C47.1919781,13.2056901 47.1919781,12.7161003 46.9235072,12.4140706 L45.3470574,10.6405646 L53.3124946,10.6405646 C53.6919976,10.6405646 54,10.2940619 54,9.86712103 Z" id="Path-Copy" stroke="#F7A307" stroke-width="0.7" fill="#F79200" transform="translate(48.500000, 9.867169) rotate(-90.000000) translate(-48.500000, -9.867169) "></path>
            </g>
        </g>
    </g>
</svg>