<?xml version="1.0" encoding="UTF-8"?>
<svg width="16px" height="16px" viewBox="0 0 16 16" version="1.1" xmlns="http://www.w3.org/2000/svg" xmlns:xlink="http://www.w3.org/1999/xlink">
    <!-- Generator: sketchtool 62 (101010) - https://sketch.com -->
    <title>71E8E780-F058-4FD9-955D-FF17AA77CC34@1.5x</title>
    <desc>Created with sketchtool.</desc>
    <g id="VMS-Design" stroke="none" stroke-width="1" fill="none" fill-rule="evenodd">
        <g id="voucher-profile" transform="translate(-303.000000, -408.000000)" fill="#FFBE45" fill-rule="nonzero" stroke="#FFBE45" stroke-width="0.4">
            <g id="add-circular-outlined-button-copy" transform="translate(311.000000, 416.000000) scale(1, -1) translate(-311.000000, -416.000000) translate(304.000000, 409.000000)">
                <path d="M7,0 C3.13380392,0 0,3.13380392 0,7 C0,10.8661961 3.13380392,14 7,14 C10.8661961,14 14,10.8657386 14,7 C14,3.13426144 10.8661961,0 7,0 Z M7,13.125 C3.61723856,13.125 0.875,10.3827614 0.875,7 C0.875,3.61723856 3.61723856,0.875 7,0.875 C10.3827614,0.875 13.125,3.61723856 13.125,7 C13.125,10.3827614 10.3827614,13.125 7,13.125 Z M9.625,6.5625 L7.4375,6.5625 L6.5625,6.5625 L4.375,6.5625 C4.1335,6.5625 3.9375,6.7585 3.9375,7 C3.9375,7.2415 4.1335,7.4375 4.375,7.4375 L6.5625,7.4375 L7.4375,7.4375 L9.625,7.4375 C9.8665,7.4375 10.0625,7.2415 10.0625,7 C10.0625,6.7585 9.8665,6.5625 9.625,6.5625 Z" id="Shape"></path>
            </g>
        </g>
    </g>
</svg>