<?xml version="1.0" encoding="UTF-8"?>
<svg width="21px" height="20px" viewBox="0 0 21 20" version="1.1" xmlns="http://www.w3.org/2000/svg" xmlns:xlink="http://www.w3.org/1999/xlink">
    <title>11EE6D18-B5B0-41DD-9CE1-8DB569850270@1.5x</title>
    <g id="Distributor" stroke="none" stroke-width="1" fill="none" fill-rule="evenodd">
        <g id="Batch-recharge-mgmt_batch-1.1" transform="translate(-1363.000000, -657.000000)" fill="#627381" fill-rule="nonzero">
            <g id="Group-7" transform="translate(1331.000000, 657.000000)">
                <g id="Group" transform="translate(32.000000, 0.000000)">
                    <path d="M3.43619792,0.09652125 C3.13566684,0.129546674 2.91016413,0.386698886 2.91666667,0.688969167 L2.91666667,1.85563583 L1.51302083,1.85563583 C0.684240958,1.85563583 0,2.53988 0,3.36865667 L0,13.7592817 C0,14.5880525 0.684227833,15.2723025 1.51302083,15.2723025 L12.2591146,15.2723025 C12.410631,17.5462738 14.3139655,19.3556358 16.625,19.3556358 C19.0343364,19.3556358 21,17.3899775 21,14.9806358 C21,12.6695963 19.1906353,10.7662672 16.9166667,10.6147504 L16.9166667,3.36865667 C16.9166667,2.53988 16.2324257,1.85563583 15.4036458,1.85563583 L14,1.85563583 L14,0.688969167 C14.0036189,0.520971392 13.9346227,0.359571529 13.8106813,0.246104032 C13.6867398,0.132636534 13.519891,0.0781218784 13.3528646,0.09652125 C13.0523335,0.129546674 12.8268308,0.386698886 12.8333333,0.688969167 L12.8333333,1.85563583 L4.08333333,1.85563583 L4.08333333,0.688969167 C4.08695223,0.520971392 4.01795601,0.359571529 3.89401459,0.246104032 C3.77007317,0.132636534 3.6032243,0.0781218784 3.43619792,0.09652125 Z M1.51302083,3.0223025 L15.4036458,3.0223025 C15.6013955,3.0223025 15.75,3.17090667 15.75,3.36865667 L15.75,4.48063583 L1.16666667,4.48063583 L1.16666667,3.36865667 C1.16666667,3.17090667 1.31527113,3.0223025 1.51302083,3.0223025 Z M1.16666667,5.6473025 L15.75,5.6473025 L15.75,10.6967817 C14.0368535,11.0455048 12.689868,12.3924856 12.3411458,14.1056358 L1.51302083,14.1056358 C1.31528425,14.1056358 1.16666667,13.9570025 1.16666667,13.7592817 L1.16666667,5.6473025 Z M2.86197917,6.81396917 C2.6535445,6.82369776 2.46613815,6.9439003 2.37037074,7.12928709 C2.27460334,7.31467388 2.28502827,7.53707242 2.39771765,7.71268779 C2.51040703,7.88830317 2.70823591,7.9904478 2.91666667,7.98063583 L4.66666667,7.98063583 C4.87703663,7.9836095 5.07271158,7.87308174 5.17876435,7.69137545 C5.28481713,7.50966917 5.28481713,7.28493583 5.17876435,7.10322955 C5.07271158,6.92152326 4.87703663,6.8109955 4.66666667,6.81396917 L2.91666667,6.81396917 C2.89844752,6.81311429 2.88019831,6.81311429 2.86197917,6.81396917 Z M7.52864583,6.81396917 C7.32021116,6.82369776 7.13280482,6.9439003 7.03703741,7.12928709 C6.94127001,7.31467388 6.95169494,7.53707242 7.06438432,7.71268779 C7.1770737,7.88830317 7.37490257,7.9904478 7.58333333,7.98063583 L9.33333333,7.98063583 C9.5437033,7.9836095 9.73937825,7.87308174 9.84543102,7.69137545 C9.95148379,7.50966917 9.95148379,7.28493583 9.84543102,7.10322955 C9.73937825,6.92152326 9.5437033,6.8109955 9.33333333,6.81396917 L7.58333333,6.81396917 C7.56511419,6.81311429 7.54686498,6.81311429 7.52864583,6.81396917 Z M12.1953125,6.81396917 C11.9868778,6.82369776 11.7994715,6.9439003 11.7037041,7.12928709 C11.6079367,7.31467388 11.6183616,7.53707242 11.731051,7.71268779 C11.8437404,7.88830317 12.0415692,7.9904478 12.25,7.98063583 L14,7.98063583 C14.21037,7.9836095 14.4060449,7.87308174 14.5120977,7.69137545 C14.6181505,7.50966917 14.6181505,7.28493583 14.5120977,7.10322955 C14.4060449,6.92152326 14.21037,6.8109955 14,6.81396917 L12.25,6.81396917 C12.2317809,6.81311429 12.2135316,6.81311429 12.1953125,6.81396917 L12.1953125,6.81396917 Z M2.86197917,9.1473025 C2.6535445,9.1570311 2.46613815,9.27723363 2.37037074,9.46262042 C2.27460334,9.64800721 2.28502827,9.87040575 2.39771765,10.0460211 C2.51040703,10.2216365 2.70823591,10.3237811 2.91666667,10.3139692 L4.66666667,10.3139692 C4.87703663,10.3169428 5.07271158,10.2064151 5.17876435,10.0247088 C5.28481713,9.8430025 5.28481713,9.61826917 5.17876435,9.43656288 C5.07271158,9.25485659 4.87703663,9.14432883 4.66666667,9.1473025 L2.91666667,9.1473025 C2.89844752,9.14644762 2.88019831,9.14644762 2.86197917,9.1473025 Z M7.52864583,9.1473025 C7.32021116,9.1570311 7.13280482,9.27723363 7.03703741,9.46262042 C6.94127001,9.64800721 6.95169494,9.87040575 7.06438432,10.0460211 C7.1770737,10.2216365 7.37490257,10.3237811 7.58333333,10.3139692 L9.33333333,10.3139692 C9.5437033,10.3169428 9.73937825,10.2064151 9.84543102,10.0247088 C9.95148379,9.8430025 9.95148379,9.61826917 9.84543102,9.43656288 C9.73937825,9.25485659 9.5437033,9.14432883 9.33333333,9.1473025 L7.58333333,9.1473025 C7.56511419,9.14644762 7.54686498,9.14644762 7.52864583,9.1473025 Z M12.1953125,9.1473025 C11.9868778,9.1570311 11.7994715,9.27723363 11.7037041,9.46262042 C11.6079367,9.64800721 11.6183616,9.87040575 11.731051,10.0460211 C11.8437404,10.2216365 12.0415692,10.3237811 12.25,10.3139692 L14,10.3139692 C14.21037,10.3169428 14.4060449,10.2064151 14.5120977,10.0247088 C14.6181505,9.8430025 14.6181505,9.61826917 14.5120977,9.43656288 C14.4060449,9.25485659 14.21037,9.14432883 14,9.1473025 L12.25,9.1473025 C12.2317809,9.14644762 12.2135316,9.14644762 12.1953125,9.1473025 L12.1953125,9.1473025 Z M2.86197917,11.4806358 C2.6535445,11.4903644 2.46613815,11.610567 2.37037074,11.7959538 C2.27460334,11.9813405 2.28502827,12.2037391 2.39771765,12.3793545 C2.51040703,12.5549698 2.70823591,12.6571145 2.91666667,12.6473025 L4.66666667,12.6473025 C4.87703663,12.6502762 5.07271158,12.5397484 5.17876435,12.3580421 C5.28481713,12.1763358 5.28481713,11.9516025 5.17876435,11.7698962 C5.07271158,11.5881899 4.87703663,11.4776622 4.66666667,11.4806358 L2.91666667,11.4806358 C2.89844752,11.479781 2.88019831,11.479781 2.86197917,11.4806358 Z M7.52864583,11.4806358 C7.32021116,11.4903644 7.13280482,11.610567 7.03703741,11.7959538 C6.94127001,11.9813405 6.95169494,12.2037391 7.06438432,12.3793545 C7.1770737,12.5549698 7.37490257,12.6571145 7.58333333,12.6473025 L9.33333333,12.6473025 C9.5437033,12.6502762 9.73937825,12.5397484 9.84543102,12.3580421 C9.95148379,12.1763358 9.95148379,11.9516025 9.84543102,11.7698962 C9.73937825,11.5881899 9.5437033,11.4776622 9.33333333,11.4806358 L7.58333333,11.4806358 C7.56511419,11.479781 7.54686498,11.479781 7.52864583,11.4806358 Z M16.625,11.7723025 C18.4038231,11.7723025 19.8333333,13.2018192 19.8333333,14.9806358 C19.8333333,16.7594525 18.4038231,18.1889692 16.625,18.1889692 C14.8461769,18.1889692 13.4166667,16.7594525 13.4166667,14.9806358 C13.4166667,13.2018192 14.8461769,11.7723025 16.625,11.7723025 Z M16.6569673,14.3973025 C16.5389143,14.4070311 16.4327713,14.5272336 16.3785307,14.7126204 C16.3242901,14.8980072 16.3301945,15.1204057 16.3940194,15.2960211 C16.4578443,15.4716365 16.5698904,15.5737811 16.6879412,15.5639692 L18.3398797,15.5639692 C18.4590288,15.5669428 18.569855,15.4564151 18.6299211,15.2747088 C18.6899871,15.0930025 18.6899871,14.8682692 18.6299211,14.6865629 C18.569855,14.5048566 18.4590288,14.3943288 18.3398797,14.3973025 L16.6879412,14.3973025 C16.6776222,14.3964476 16.6672863,14.3964476 16.6569673,14.3973025 Z M15.9189926,15.183639 C15.9287212,15.3253026 16.0489238,15.4526742 16.2343106,15.5177629 C16.4196973,15.5828517 16.6420959,15.5757664 16.8177113,15.4991765 C16.9933266,15.4225866 17.0954713,15.2881313 17.0856593,15.1464703 L17.0856593,13.1641441 C17.088633,13.0211652 16.9781052,12.8881738 16.7963989,12.8160945 C16.6146926,12.7440152 16.3899593,12.7440152 16.208253,12.8160945 C16.0265467,12.8881738 15.916019,13.0211652 15.9189926,13.1641441 L15.9189926,15.1464703 C15.9181378,15.1588531 15.9181378,15.1712562 15.9189926,15.183639 Z" id="Shape"></path>
                </g>
            </g>
        </g>
    </g>
</svg>