<?xml version="1.0" encoding="UTF-8"?>
<svg width="24px" height="15px" viewBox="0 0 24 15" version="1.1" xmlns="http://www.w3.org/2000/svg" xmlns:xlink="http://www.w3.org/1999/xlink">
    <!-- Generator: sketchtool 62 (101010) - https://sketch.com -->
    <title>0DE02149-B865-41CF-AB5F-19BA66904426@1.5x</title>
    <desc>Created with sketchtool.</desc>
    <g id="VMS-Design" stroke="none" stroke-width="1" fill="none" fill-rule="evenodd">
        <g id="voucher-profile" transform="translate(-22.000000, -83.000000)" fill="#DCDCDC" stroke="#DCDCDC" stroke-width="0.2">
            <g id="layer-1" transform="translate(22.000000, 84.000000)">
                <path d="M2.28635294,-5.68434189e-14 C1.41021571,0.00698367603 0.703984557,0.719835749 0.705174964,1.596 L0.705174964,11.8588235 C0.703984557,12.7349878 1.41021571,13.4478399 2.28635294,13.4548235 L21.9098824,13.4548235 C22.7860196,13.4478399 23.4922507,12.7349878 23.4910603,11.8588235 L23.4910603,8.88070588 L23.1091765,8.85529412 C21.9872238,8.78302508 21.1145571,7.85133603 21.1157647,6.72705882 C21.113438,5.60196563 21.9864076,4.66902573 23.1091765,4.59670588 L23.4910603,4.57129412 L23.4910603,1.596 C23.4922507,0.719835749 22.7860196,0.00698367603 21.9098824,-5.68434189e-14 L2.28635294,-5.68434189e-14 Z M2.28635294,0.817405848 L15.9515294,0.817405848 L15.9515294,2.95976471 L16.7689412,2.95976471 L16.7689412,0.817405848 L21.9084706,0.817405848 C22.1134315,0.816603753 22.3100353,0.898589512 22.4536977,1.04477691 C22.59736,1.19096431 22.6759081,1.38896663 22.6717031,1.59388235 L22.6717031,3.83294118 C21.2924961,4.1102375 20.2995522,5.32042474 20.2969412,6.72705882 C20.3015623,8.13209989 21.2940517,9.33996305 22.6717031,9.61694118 L22.6717031,11.8581176 C22.6759081,12.0630334 22.59736,12.2610357 22.4536977,12.4072231 C22.3100353,12.5534105 22.1134315,12.6353962 21.9084706,12.6345942 L16.7696471,12.6345942 L16.7696471,10.3164706 L15.9515294,10.3164706 L15.9515294,12.6345942 L2.28635294,12.6345942 C2.08139204,12.6353962 1.88478822,12.5534105 1.74112588,12.4072231 C1.59746353,12.2610357 1.51891542,12.0630334 1.52312039,11.8581176 L1.52312039,1.596 C1.51891542,1.39108428 1.59746353,1.19308196 1.74112588,1.04689456 C1.88478822,0.900707159 2.08139204,0.8187214 2.28635294,0.819529412 L2.28635294,0.817405848 Z M15.9515294,3.77717647 L15.9515294,6.23011765 L16.7689412,6.23011765 L16.7689412,3.77717647 L15.9515294,3.77717647 Z M15.9515294,7.04752941 L15.9515294,9.50047059 L16.7689412,9.50047059 L16.7689412,7.04752941 L15.9515294,7.04752941 Z" id="rect5486"></path>
            </g>
        </g>
    </g>
</svg>