<svg width="41" height="30" viewBox="0 0 41 30" fill="none" xmlns="http://www.w3.org/2000/svg">
<g id="Group">
<path id="Path" d="M39.4342 14.6842H36.2369V11.4869C36.2369 10.8983 35.7597 10.4211 35.1711 10.4211C34.5824 10.4211 34.1053 10.8983 34.1053 11.4869V14.6842H30.9079C30.3193 14.6842 29.8421 15.1614 29.8421 15.75C29.8421 16.3386 30.3193 16.8158 30.9079 16.8158H34.1053V20.0132C34.1053 20.6018 34.5824 21.079 35.1711 21.079C35.7597 21.079 36.2369 20.6018 36.2369 20.0132V16.8158H39.4342C40.0228 16.8158 40.5 16.3386 40.5 15.75C40.5 15.1614 40.0228 14.6842 39.4342 14.6842Z" fill="#E50029"/>
<g id="Group 6">
<circle id="Oval" cx="14.175" cy="8.625" r="8.625" fill="#FF385C"/>
<path id="Path_2" d="M14.175 19.275C8.1 19.275 0 23.325 0 28.3875C0 28.9467 0.453312 29.4 1.0125 29.4H27.3375C27.8967 29.4 28.35 28.9467 28.35 28.3875C28.35 23.325 20.25 19.275 14.175 19.275Z" fill="#FF385C"/>
</g>
</g>
</svg>
