<?xml version="1.0" encoding="UTF-8"?>
<svg width="18px" height="18px" viewBox="0 0 18 18" version="1.1" xmlns="http://www.w3.org/2000/svg" xmlns:xlink="http://www.w3.org/1999/xlink">
    <!-- Generator: sketchtool 62 (101010) - https://sketch.com -->
    <title>5FE2DCA2-CA26-4EBE-AF42-A8AA7D1F3F5B@1.5x</title>
    <desc>Created with sketchtool.</desc>
    <g id="VMS-Design" stroke="none" stroke-width="1" fill="none" fill-rule="evenodd">
        <g id="voucher-profile" transform="translate(-1156.000000, -182.000000)" fill="#919EAB" fill-rule="nonzero">
            <g id="Group-4" transform="translate(1141.000000, 140.000000)">
                <g id="magnifying-glass" transform="translate(15.000000, 42.000000)">
                    <path d="M17.8399147,17.0816186 L13.4657432,12.7074471 C14.6391068,11.3584782 15.3495105,9.59843287 15.3495105,7.67475527 C15.3495105,3.44026991 11.9052496,0 7.67475527,0 C3.44026991,0 0,3.44426094 0,7.67475527 C0,11.9052496 3.44426094,15.3495105 7.67475527,15.3495105 C9.59843287,15.3495105 11.3584782,14.6391068 12.7074471,13.4657432 L17.0816186,17.8399147 C17.1853854,17.9436816 17.3250716,17.999556 17.4607667,17.999556 C17.5964618,17.999556 17.7361479,17.9476726 17.8399147,17.8399147 C18.0474484,17.6323811 18.0474484,17.2891523 17.8399147,17.0816186 Z M1.07358771,7.67475527 C1.07358771,4.03493374 4.03493374,1.07757874 7.67076423,1.07757874 C11.3105858,1.07757874 14.2679408,4.03892477 14.2679408,7.67475527 C14.2679408,11.3105858 11.3105858,14.2759228 7.67076423,14.2759228 C4.03493374,14.2759228 1.07358771,11.3145768 1.07358771,7.67475527 Z" id="Shape"></path>
                </g>
            </g>
        </g>
    </g>
</svg>