<svg width="41" height="30" viewBox="0 0 41 30" fill="none" xmlns="http://www.w3.org/2000/svg">
<g id="Group">
<path id="Path" d="M39.4343 14.6841H36.2369V11.4867C36.2369 10.8981 35.7597 10.4209 35.1711 10.4209C34.5825 10.4209 34.1053 10.8981 34.1053 11.4867V14.6841H30.908C30.3193 14.6841 29.8422 15.1612 29.8422 15.7498C29.8422 16.3385 30.3193 16.8156 30.908 16.8156H34.1053V20.013C34.1053 20.6016 34.5825 21.0788 35.1711 21.0788C35.7597 21.0788 36.2369 20.6016 36.2369 20.013V16.8156H39.4343C40.0229 16.8156 40.5001 16.3385 40.5001 15.7498C40.5001 15.1612 40.0229 14.6841 39.4343 14.6841Z" fill="#C4CDD5"/>
<g id="Group 6">
<circle id="Oval" cx="14.1749" cy="8.625" r="8.625" fill="#C4CDD5"/>
<path id="Path_2" d="M14.175 19.2751C8.1 19.2751 0 23.3251 0 28.3876C0 28.9468 0.453312 29.4001 1.0125 29.4001H27.3375C27.8967 29.4001 28.35 28.9468 28.35 28.3876C28.35 23.3251 20.25 19.2751 14.175 19.2751Z" fill="#C4CDD5"/>
</g>
</g>
</svg>
