<?xml version="1.0" encoding="UTF-8"?>
<svg width="34px" height="34px" viewBox="0 0 34 34" version="1.1" xmlns="http://www.w3.org/2000/svg" xmlns:xlink="http://www.w3.org/1999/xlink">
    <!-- Generator: sketchtool 62 (101010) - https://sketch.com -->
    <title>6B1F1C2B-1B79-4CB7-AC19-F81E301CBCF9@1.5x</title>
    <desc>Created with sketchtool.</desc>
    <g id="VMS-Design" stroke="none" stroke-width="1" fill="none" fill-rule="evenodd">
        <g id="generate-voucher-failed" transform="translate(-202.000000, -77.000000)" fill="#FF4F61" fill-rule="nonzero" stroke="#FF4F61" stroke-width="2">
            <g id="cancel-(1)" transform="translate(219.000000, 94.000000) scale(1, -1) translate(-219.000000, -94.000000) translate(203.000000, 78.000000)">
                <path d="M16,0 C7.1634375,0 0,7.1634375 0,16 C0,24.8365625 7.1634375,32 16,32 C24.8365625,32 32,24.8365625 32,16 C31.9896875,7.1676875 24.8323125,0.0103125 16,0 Z M16,30.6666875 C7.8998125,30.6666875 1.3333125,24.1001875 1.3333125,16 C1.3333125,7.8998125 7.8998125,1.3333125 16,1.3333125 C24.1001875,1.3333125 30.6666875,7.8998125 30.6666875,16 C30.6575,24.096375 24.096375,30.6575 16,30.6666875 Z" id="Shape"></path>
                <polygon id="Path" points="21.941176 11.6081655 21.3334538 11 16.470588 15.8628255 11.6077222 11 11 11.6081655 15.8628255 16.470588 11 21.3330105 11.6077222 21.941176 16.470588 17.0783505 21.3334538 21.941176 21.941176 21.3330105 17.0783505 16.470588"></polygon>
            </g>
        </g>
    </g>
</svg>