<?xml version="1.0" encoding="UTF-8"?>
<svg width="17px" height="21px" viewBox="0 0 17 21" version="1.1" xmlns="http://www.w3.org/2000/svg" xmlns:xlink="http://www.w3.org/1999/xlink">
    <!-- Generator: sketchtool 62 (101010) - https://sketch.com -->
    <title>6DD85AB2-66D4-421F-A86E-DF93385F03DF@1.5x</title>
    <desc>Created with sketchtool.</desc>
    <g id="VMS-Design" stroke="none" stroke-width="1" fill="none" fill-rule="evenodd">
        <g id="generate-voucher-inline-error" transform="translate(-1369.000000, -377.000000)" fill="#627381" fill-rule="nonzero">
            <g id="delete" transform="translate(1369.000000, 377.000000)">
                <path d="M11.4016478,7.60618714 C11.1318247,7.60618714 10.9131421,7.82486982 10.9131421,8.09469289 L10.9131421,17.3274515 C10.9131421,17.5970838 11.1318247,17.8159573 11.4016478,17.8159573 C11.6714709,17.8159573 11.8901536,17.5970838 11.8901536,17.3274515 L11.8901536,8.09469289 C11.8901536,7.82486982 11.6714709,7.60618714 11.4016478,7.60618714 Z" id="Path"></path>
                <path d="M5.63728002,7.60618714 C5.3674569,7.60618714 5.14877427,7.82486982 5.14877427,8.09469289 L5.14877427,17.3274515 C5.14877427,17.5970838 5.3674569,17.8159573 5.63728002,17.8159573 C5.90710309,17.8159573 6.12578576,17.5970838 6.12578576,17.3274515 L6.12578576,8.09469289 C6.12578576,7.82486982 5.90710309,7.60618714 5.63728002,7.60618714 Z" id="Path"></path>
                <path d="M1.43613059,6.25878907 L1.43613059,18.2945402 C1.43613059,19.0059267 1.69698499,19.6739965 2.15266926,20.1533427 C2.60625447,20.6340248 3.23749553,20.906901 3.8981232,20.908046 L13.1408046,20.908046 C13.8016231,20.906901 14.4328641,20.6340248 14.8862585,20.1533427 C15.3419428,19.6739965 15.6027973,19.0059267 15.6027973,18.2945402 L15.6027973,6.25878907 C16.5086319,6.01835265 17.0956021,5.14324038 16.9744298,4.21374369 C16.8530667,3.28443786 16.0613438,2.58927127 15.1240234,2.58908046 L12.6229122,2.58908046 L12.6229122,1.97844828 C12.6257745,1.46494476 12.4227393,0.971859273 12.0592223,0.609105603 C11.6957054,0.246542744 11.2018566,0.0446524784 10.6883531,0.0487863891 L6.35057471,0.0487863891 C5.8370712,0.0446524784 5.34322242,0.246542744 4.97970546,0.609105603 C4.6161885,0.971859273 4.4131533,1.46494476 4.41601565,1.97844828 L4.41601565,2.58908046 L1.91490438,2.58908046 C0.977583974,2.58927127 0.185861195,3.28443786 0.064498,4.21374369 C-0.0566742874,5.14324038 0.530295899,6.01835265 1.43613059,6.25878907 Z M13.1408046,19.9310345 L3.8981232,19.9310345 C3.06289288,19.9310345 2.41314209,19.2135417 2.41314209,18.2945402 L2.41314209,6.30172414 L14.6257858,6.30172414 L14.6257858,18.2945402 C14.6257858,19.2135417 13.9760349,19.9310345 13.1408046,19.9310345 Z M5.39302714,1.97844828 C5.38978312,1.72408182 5.48977414,1.47925647 5.67029231,1.29969245 C5.85061961,1.12012844 6.0960174,1.02147314 6.35057471,1.02586207 L10.6883531,1.02586207 C10.9429104,1.02147314 11.1883082,1.12012844 11.3686355,1.29969245 C11.5491537,1.47906566 11.6491447,1.72408182 11.6459007,1.97844828 L11.6459007,2.58908046 L5.39302714,2.58908046 L5.39302714,1.97844828 Z M1.91490438,3.56609195 L15.1240234,3.56609195 C15.6096668,3.56609195 16.0033338,3.9597589 16.0033338,4.4454023 C16.0033338,4.9310457 15.6096668,5.32471264 15.1240234,5.32471264 L1.91490438,5.32471264 C1.42926093,5.32471264 1.03559403,4.9310457 1.03559403,4.4454023 C1.03559403,3.9597589 1.42926093,3.56609195 1.91490438,3.56609195 Z" id="Shape"></path>
                <path d="M8.51946393,7.60618714 C8.2496408,7.60618714 8.03095818,7.82486982 8.03095818,8.09469289 L8.03095818,17.3274515 C8.03095818,17.5970838 8.2496408,17.8159573 8.51946393,17.8159573 C8.789287,17.8159573 9.00796967,17.5970838 9.00796967,17.3274515 L9.00796967,8.09469289 C9.00796967,7.82486982 8.789287,7.60618714 8.51946393,7.60618714 Z" id="Path"></path>
            </g>
        </g>
    </g>
</svg>