<?xml version="1.0" encoding="UTF-8"?>
<svg width="34px" height="34px" viewBox="0 0 34 34" version="1.1" xmlns="http://www.w3.org/2000/svg" xmlns:xlink="http://www.w3.org/1999/xlink">
    <title>F95ABB35-0BF5-4334-B92C-55DE603EF163@1.5x</title>
    <g id="Distributor" stroke="none" stroke-width="1" fill="none" fill-rule="evenodd">
        <g id="Transfer-user-confirmation" transform="translate(-171.000000, -42.000000)" fill="#FFBE45" fill-rule="nonzero">
            <g id="Group-2" transform="translate(172.000000, 43.000000)">
                <path d="M14,25.0335889 C14,24.7605702 14.0497143,24.5044742 14.1525714,24.2624804 C14.2537143,24.0210507 14.3931429,23.8117741 14.5697143,23.6335222 C14.7462857,23.4552704 14.9577143,23.3136843 15.2045714,23.2087639 C15.4502857,23.1044076 15.7125714,23.0513833 15.992,23.0513833 C16.2702857,23.0513833 16.5325714,23.1049717 16.7782857,23.2087639 C17.0251429,23.3136843 17.2388571,23.4552704 17.4211429,23.6335222 C17.6034286,23.8117741 17.7445714,24.0216148 17.8468571,24.2624804 C17.9485714,24.5044742 18,24.7605702 18,25.0335889 C18,25.316197 17.9485714,25.5756775 17.8468571,25.8120305 C17.7445714,26.0472552 17.6034286,26.2554037 17.4211429,26.4336555 C17.2388571,26.6119074 17.0251429,26.7506731 16.7782857,26.8505167 C16.532,26.9497962 16.2697143,27 15.992,27 C15.7125714,27 15.4502857,26.9497962 15.2045714,26.8505167 C14.9577143,26.750109 14.7462857,26.6113433 14.5697143,26.4336555 C14.3931429,26.2559678 14.2537143,26.0472552 14.1525714,25.8120305 C14.0497143,25.5756775 14,25.316197 14,25.0335889 Z M17.4794286,5 L17.4794286,14.6831363 C17.4794286,15.1908156 17.4714286,15.6877772 17.4537143,16.1734571 C17.4377143,16.6580088 17.412,17.1470732 17.3777143,17.6378298 C17.3434286,18.1285864 17.3017143,18.631753 17.2514286,19.1450732 C17.2005714,19.6583934 17.1411429,20.2089434 17.0737143,20.7950309 L15.0274286,20.7950309 C14.96,20.2089434 14.9005714,19.6583934 14.8502857,19.1450732 C14.7994286,18.631753 14.7565714,18.1285864 14.7234286,17.6378298 C14.6891429,17.1470732 14.664,16.6585729 14.6474286,16.1734571 C14.6297143,15.6883413 14.6211429,15.1913797 14.6211429,14.6831363 L14.6211429,5 L17.4794286,5 Z" id="Shape"></path>
                <g id="cancel-(1)" transform="translate(16.000000, 16.000000) scale(1, -1) translate(-16.000000, -16.000000) " stroke="#FFBE45" stroke-width="2">
                    <path d="M16,0 C7.1634375,0 0,7.1634375 0,16 C0,24.8365625 7.1634375,32 16,32 C24.8365625,32 32,24.8365625 32,16 C31.9896875,7.1676875 24.8323125,0.0103125 16,0 Z M16,30.6666875 C7.8998125,30.6666875 1.3333125,24.1001875 1.3333125,16 C1.3333125,7.8998125 7.8998125,1.3333125 16,1.3333125 C24.1001875,1.3333125 30.6666875,7.8998125 30.6666875,16 C30.6575,24.096375 24.096375,30.6575 16,30.6666875 Z" id="Shape"></path>
                </g>
            </g>
        </g>
    </g>
</svg>