<?xml version="1.0" encoding="UTF-8"?>
<svg width="24px" height="24px" viewBox="0 0 24 24" version="1.1" xmlns="http://www.w3.org/2000/svg" xmlns:xlink="http://www.w3.org/1999/xlink">
    <title>Edit icon@1.5x</title>
    <g id="Distributor" stroke="none" stroke-width="1" fill="none" fill-rule="evenodd">
        <g id="Edit-icon">
            <g id="Group-9">
                <rect id="Rectangle" x="0" y="0" width="24" height="24"></rect>
                <g id="Group-7" transform="translate(4.000000, 2.000000)" fill="#627381">
                    <g id="pencil" fill-rule="nonzero">
                        <path d="M15.8535184,3.64625126 L12.353716,0.146481572 C12.1584291,-0.0488053538 11.8420459,-0.0488053538 11.6467262,0.146481572 L0.14746423,11.6457763 C0.0537186445,11.7395219 0.000982658131,11.8664813 0.000982658131,11.9992712 L1.86192159e-15,15.5000164 C1.86192159e-15,15.6323548 0.0527359864,15.7597728 0.146481572,15.8535184 C0.240227158,15.947264 0.367645162,16 0.499976457,16 L4.0007288,15.9990173 C4.13351867,15.9990173 4.2604781,15.9462814 4.35422369,15.8525358 L15.8535184,4.35324103 C16.0488054,4.15795411 16.0488054,3.84157094 15.8535184,3.64625126 Z M3.79292937,14.9999488 L0.998970256,15.0009315 L0.999952914,12.2069724 L9.24995752,3.95696776 L12.042934,6.74994421 C12.042934,6.74994421 3.79292937,14.9999488 3.79292937,14.9999488 L3.79292937,14.9999488 Z M12.7499565,6.04292169 L9.95698005,3.24997799 L11.9999591,1.20699898 L14.7929355,3.99997543 L12.7499565,6.04292169 Z" id="Shape"></path>
                    </g>
                    <rect id="Rectangle" x="0" y="18.1818182" width="14.5454545" height="1.09090909" rx="0.4"></rect>
                </g>
            </g>
        </g>
    </g>
</svg>