<?xml version="1.0" encoding="UTF-8"?>
<svg width="60px" height="46px" viewBox="0 0 60 46" version="1.1" xmlns="http://www.w3.org/2000/svg" xmlns:xlink="http://www.w3.org/1999/xlink">
    <title>Group 18</title>
    <g id="Distributor" stroke="none" stroke-width="1" fill="none" fill-rule="evenodd">
        <g id="C2C-Transfer" transform="translate(-483.000000, -209.000000)">
            <g id="Group-18" transform="translate(483.000000, 211.000000)">
                <g id="Group-12" transform="translate(0.000000, 11.564516)">
                    <g id="noun_Gift-voucher_1060137" fill="#FF385C" fill-rule="nonzero">
                        <path d="M0.575489631,-3.02015357e-14 C0.236866587,0.0646117567 -0.00607462141,0.36361632 -0.000111420424,0.708294931 L-0.000111420424,11.3327189 C-0.000111420424,11.7238832 0.317130643,12.0409747 0.708294931,12.0410138 L2.12488479,12.0410138 C4.09911313,12.0410138 5.66635945,13.6082368 5.66635945,15.5824885 C5.66635945,17.5567189 4.09911313,19.1239631 2.12488479,19.1239631 L0.708294931,19.1239631 C0.317130643,19.1240022 -0.000111420424,19.4410938 -0.000111420424,19.8322581 L-0.000111420424,30.456682 C-0.000111420424,30.8478463 0.317130643,31.164977 0.708294931,31.164977 L48.8723502,31.164977 C49.2635145,31.164977 49.5806452,30.8478463 49.5806452,30.456682 L49.5806452,19.8322581 C49.5806452,19.4410938 49.2635145,19.1240022 48.8723502,19.1239631 L47.4557604,19.1239631 C45.481532,19.1239631 43.9142857,17.5567189 43.9142857,15.5824885 C43.9142857,13.6082368 45.481532,12.0410138 47.4557604,12.0410138 L48.8723502,12.0410138 C49.2635145,12.0409747 49.5806452,11.7238832 49.5806452,11.3327189 L49.5806452,0.708294931 C49.5806452,0.317130643 49.2635145,3.91105624e-05 48.8723502,-2.76853193e-14 L0.708294931,-3.02015357e-14 C0.664124177,-0.00415890719 0.619660385,-0.00415890719 0.575489631,-3.02015357e-14 Z" id="Shape"></path>
                    </g>
                    <path d="M13.4676267,14.5353772 C13.0764462,14.5720504 12.7890613,14.9188943 12.8257344,15.3100748 C12.8624076,15.7012553 13.2092515,15.9886403 13.600432,15.9519671 L36.2658698,15.9519671 C36.5213064,15.9555796 36.7589007,15.821375 36.8876732,15.6007429 C37.0164457,15.3801107 37.0164457,15.1072336 36.8876732,14.8866015 C36.7589007,14.6659693 36.5213064,14.5317647 36.2658698,14.5353772 L13.600432,14.5353772 C13.5562612,14.5312183 13.5117974,14.5312183 13.4676267,14.5353772 L13.4676267,14.5353772 Z" id="Path" fill="#C20C3F"></path>
                    <path d="M13.4676267,8.55150628 C13.0764462,8.58817946 12.7890613,8.93502338 12.8257344,9.32620386 C12.8624076,9.71738434 13.2092515,10.0047693 13.600432,9.96809614 L26.2833381,9.96809614 C26.5387747,9.97170865 26.776369,9.83750405 26.9051415,9.61687191 C27.033914,9.39623977 27.033914,9.12336264 26.9051415,8.9027305 C26.776369,8.68209836 26.5387747,8.54789377 26.2833381,8.55150628 L13.600432,8.55150628 C13.5562612,8.54734737 13.5117974,8.54734737 13.4676267,8.55150628 Z" id="Path" fill="#C20C3F"></path>
                    <path d="M13.3247984,19.8322581 C12.9336179,19.8689312 12.6462329,20.2157752 12.6829061,20.6069556 C12.7195793,20.9981361 13.0664232,21.2855211 13.4576037,21.2488479 L36.1230415,21.2488479 C36.3784781,21.2524604 36.6160724,21.1182558 36.7448449,20.8976237 C36.8736174,20.6769916 36.8736174,20.4041144 36.7448449,20.1834823 C36.6160724,19.9628502 36.3784781,19.8286456 36.1230415,19.8322581 L13.4576037,19.8322581 C13.4134329,19.8280992 13.3689691,19.8280992 13.3247984,19.8322581 Z" id="Path" fill="#C20C3F"></path>
                </g>
                <g id="Group-17" transform="translate(37.887097, 0.000000)" fill-rule="nonzero">
                    <path d="M10.0324565,-0.7 C7.06872438,-0.7 4.38561194,0.501250898 2.44343142,2.44343142 C0.501250898,4.38561194 -0.7,7.06872438 -0.7,10.0324565 C-0.7,12.9961886 0.501250898,15.6793011 2.44343142,17.6214816 C4.38561194,19.5636621 7.06872438,20.764913 10.0324565,20.764913 C12.9953314,20.7615319 15.6764899,19.5595994 17.6180076,17.6180817 C19.5596349,15.6764544 20.7615317,12.9951597 20.7649125,10.0332555 C20.764913,7.06872438 19.5636621,4.38561194 17.6214816,2.44343142 C15.6793011,0.501250898 12.9961886,-0.7 10.0324565,-0.7 Z" id="Shape" stroke="#212B35" stroke-width="1.4" fill="#FFFFFF"></path>
                    <path d="M8.88265739,13.5064904 C8.46856483,13.5072765 8.07498,13.3258647 7.80680567,13.0111544 L5.33881497,10.1211838 C4.83165051,9.52725698 4.90184898,8.63518357 5.49577576,8.12801891 C6.08970253,7.62085425 6.98177595,7.69105293 7.48815191,8.2849797 L9.06012551,10.1251274 L13.7373978,6.32020977 C14.1286165,5.99918951 14.6618098,5.91242739 15.1350582,6.09226181 C15.6090956,6.27130753 15.9498345,6.69092117 16.0294979,7.19098695 C16.1091614,7.69105293 15.9151294,8.19506239 15.5215446,8.51371656 L9.7747306,13.1894114 C9.52233141,13.3944856 9.20762113,13.5064904 8.88265739,13.5064904 Z" id="Path" fill="#C20C3F"></path>
                </g>
            </g>
        </g>
    </g>
</svg>