<?xml version="1.0" encoding="UTF-8"?>
<svg width="8px" height="7px" viewBox="0 0 8 7" version="1.1" xmlns="http://www.w3.org/2000/svg" xmlns:xlink="http://www.w3.org/1999/xlink">
    <title>cross icon@1.5x</title>
    <g id="Approvals" stroke="none" stroke-width="1" fill="none" fill-rule="evenodd">
        <g id="Approval-level-1_transaction-bulk-1.1-Copy-2" transform="translate(-450.000000, -711.000000)" fill="#627381" fill-rule="nonzero" stroke="#627381" stroke-width="0.3">
            <g id="Group-8" transform="translate(374.000000, 678.000000)">
                <g id="Group-3" transform="translate(0.000000, 27.000000)">
                    <g id="Group-7">
                        <g id="cross-icon" transform="translate(77.500000, 7.000000)">
                            <path d="M0.0705196969,0.41322585 C-0.0223326526,0.3203735 -0.0223326526,0.165836023 0.0705196969,0.0697370882 C0.166618632,-0.0231152613 0.317909523,-0.0231152613 0.414008458,0.0697370882 L2.47515747,2.13434912 L4.5397695,0.0697370882 C4.63262185,-0.0231152613 4.78715932,-0.0231152613 4.87979523,0.0697370882 C4.97589417,0.165836023 4.97589417,0.320589939 4.87979523,0.41322585 L2.81864623,2.4745913 L4.87979523,4.53920333 C4.97589417,4.63205568 4.97589417,4.78659315 4.87979523,4.88269209 C4.78694288,4.97554444 4.63240541,4.97554444 4.5397695,4.88269209 L2.47515747,2.81808006 L0.414008458,4.88269209 C0.317909523,4.97554444 0.166618632,4.97554444 0.0705196969,4.88269209 C-0.0223326526,4.78659315 -0.0223326526,4.63183924 0.0705196969,4.53920333 L2.1316687,2.4745913 L0.0705196969,0.41322585 Z" id="Path"></path>
                        </g>
                    </g>
                </g>
            </g>
        </g>
    </g>
</svg>