<?xml version="1.0" encoding="UTF-8"?>
<svg width="15px" height="16px" viewBox="0 0 15 16" version="1.1" xmlns="http://www.w3.org/2000/svg" xmlns:xlink="http://www.w3.org/1999/xlink">
    <title>Upload icon@1.5x</title>
    <g id="Distributor" stroke="none" stroke-width="1" fill="none" fill-rule="evenodd">
        <g id="bulk-confirm" transform="translate(-161.000000, -289.000000)" stroke="#828387">
            <g id="Upload-icon" transform="translate(162.000000, 290.000000)">
                <path d="M4,14 L2,14 C0.8954305,14 0,13.1045695 0,12 L0,2 C0,0.8954305 0.8954305,0 2,0 L2,0 L8.6336667,0 C9.15962992,0 9.66442326,0.207187064 10.0387271,0.5766921 L12.4050604,2.91268779 C12.7857281,3.28847513 13,3.80109008 13,4.33599569 L13,12 C13,13.1045695 12.1045695,14 11,14 L9,14" id="Rectangle-6"></path>
                <polyline id="Path-4" points="4 8.5 7 11.5 10 8.5"></polyline>
                <line x1="7" y1="10.5" x2="7" y2="3.5" id="Line" stroke-linecap="square"></line>
            </g>
        </g>
    </g>
</svg>