<?xml version="1.0" encoding="UTF-8"?>
<svg width="44px" height="43px" viewBox="0 0 44 43" version="1.1" xmlns="http://www.w3.org/2000/svg" xmlns:xlink="http://www.w3.org/1999/xlink">
    <title>noun_Package Return_1726716</title>
    <g id="Distributor" stroke="none" stroke-width="1" fill="none" fill-rule="evenodd">
        <g id="C2C-Transfer" transform="translate(-785.000000, -219.000000)" fill-rule="nonzero">
            <g id="noun_Package-Return_1726716" transform="translate(785.000000, 219.000000)">
                <g id="Group">
                    <path d="M20.2277778,2.65222222 L22,3.87444444 L22,0 L17.1111111,0 L17.1111111,3.82555556 L18.8833333,2.60333333 C19.3009406,2.34933038 19.829722,2.36855879 20.2277778,2.65222222 L20.2277778,2.65222222 Z" id="Path" fill="#C20C3F"></path>
                    <path d="M24.4444444,28.1111111 C24.4453003,27.1389783 24.8321701,26.2069738 25.52,25.52 L29.1866667,21.8533333 C30.2352689,20.8060341 31.8112279,20.4929599 33.180515,21.0599303 C34.549802,21.6269007 35.4431409,22.9624186 35.4444444,24.4444444 L39.1111111,24.4444444 L39.1111111,1.22222222 C39.1111111,0.547207528 38.5639036,0 37.8888889,0 L24.4444444,0 L24.4444444,6.11111111 C24.4432424,6.56161457 24.1943132,6.97493089 23.7966667,7.18666667 C23.4076621,7.38640705 22.9415846,7.36310318 22.5744444,7.12555556 L19.5555556,5.13333333 L16.5611111,7.12555556 C16.1939709,7.36310318 15.7278935,7.38640705 15.3388889,7.18666667 C14.9317682,6.98156605 14.6726256,6.56693787 14.6666667,6.11111111 L14.6666667,0 L1.22222222,0 C0.547207528,0 0,0.547207528 0,1.22222222 L0,33 C0,33.6750147 0.547207528,34.2222222 1.22222222,34.2222222 L29.04,34.2222222 L25.52,30.7022222 C24.8321701,30.0152485 24.4453003,29.0832439 24.4444444,28.1111111 Z" id="Path" fill="#FF385C"></path>
                    <path d="M36.6666667,26.8888889 L31.0566667,26.8888889 L32.6455556,25.3122222 C33.124816,24.8329618 33.1248159,24.0559271 32.6455555,23.5766667 C32.1662951,23.0974063 31.3892604,23.0974063 30.91,23.5766667 L27.2433333,27.2433333 C27.0119512,27.4728258 26.881802,27.7852208 26.881802,28.1111111 C26.881802,28.4370014 27.0119512,28.7493964 27.2433333,28.9788889 L30.91,32.6455556 C31.1394925,32.8769377 31.4518875,33.0070868 31.7777778,33.0070868 C32.1036681,33.0070868 32.416063,32.8769377 32.6455556,32.6455556 C32.8769377,32.416063 33.0070868,32.1036681 33.0070868,31.7777778 C33.0070868,31.4518875 32.8769377,31.1394925 32.6455556,30.91 L31.0566667,29.3333333 L36.6666667,29.3333333 C39.3667254,29.3333333 41.5555556,31.5221634 41.5555556,34.2222222 C41.5555556,36.922281 39.3667254,39.1111111 36.6666667,39.1111111 L30.5555556,39.1111111 C29.8805409,39.1111111 29.3333333,39.6583186 29.3333333,40.3333333 C29.3333333,41.008348 29.8805409,41.5555556 30.5555556,41.5555556 L36.6666667,41.5555556 C40.7167548,41.5555556 44,38.2723104 44,34.2222222 C44,30.1721341 40.7167548,26.8888889 36.6666667,26.8888889 Z" id="Path" fill="#FFFFFF"></path>
                </g>
            </g>
        </g>
    </g>
</svg>