<?xml version="1.0" encoding="UTF-8"?>
<svg width="42px" height="36px" viewBox="0 0 42 36" version="1.1" xmlns="http://www.w3.org/2000/svg" xmlns:xlink="http://www.w3.org/1999/xlink">
    <title>noun_transfer_2254625</title>
    <g id="Distributor" stroke="none" stroke-width="1" fill="none" fill-rule="evenodd">
        <g id="C2C-Transfer" transform="translate(-353.000000, -211.000000)" fill-rule="nonzero">
            <g id="noun_transfer_2254625" transform="translate(353.000000, 211.000000)">
                <g id="Group">
                    <path d="M29.5611062,3.7475682 L29.5611062,12.4419264 L38.2533452,12.4419264 L38.2533452,3.7475682 L29.5611062,3.7475682 Z M29.6164228,12.4419264 L29.6164228,12.4419264 L29.6164228,12.5619264 L29.6164228,12.4419264 Z M25.8144514,12.4419264 L25.8144514,3.7475682 C25.8144514,2.72635587 26.23595,1.78946382 26.9103479,1.10553262 L26.9103479,1.10553262 L26.9197145,1.10553262 L26.9197145,1.0961637 C27.603479,0.421601423 28.5401427,0 29.5611062,0 L38.2533452,0 C39.2743087,0 40.2109723,0.421601423 40.8947368,1.0961637 L40.8947368,1.0961637 L40.8947368,1.10553262 L40.9041035,1.10553262 C41.5785013,1.78946382 42,2.72635587 42,3.7475682 L42,12.4419264 C42,13.4631388 41.5785013,14.4000308 40.9041035,15.083962 L40.9041035,15.083962 L40.8947368,15.083962 L40.8947368,15.0933309 C40.2109723,15.7678932 39.2743087,16.1894946 38.2533452,16.1894946 L29.5611062,16.1894946 C28.5401427,16.1894946 27.603479,15.7678932 26.9290812,15.0933309 L26.9197145,15.0933309 L26.9197145,15.083962 L26.9103479,15.083962 C26.23595,14.4000308 25.8144514,13.4631388 25.8144514,12.4419264 Z M29.6164228,3.85819928 L29.6164228,3.85819928 L29.6164228,3.73819928 L29.6164228,3.85819928 Z M29.6717395,12.497242 C29.6717395,12.497242 29.5517395,12.497242 29.5517395,12.497242 L29.6717395,12.497242 L29.6717395,12.497242 Z M29.5918376,12.5619264 L29.5918376,12.5619264 C29.7118376,12.5619264 29.5918376,12.4419264 29.5918376,12.4419264 L29.5918376,12.5619264 Z M38.2533452,12.4419264 L38.2533452,12.5619264 L38.3733452,12.4419264 L38.2533452,12.4419264 Z M38.3086619,12.4419264 C38.3086619,12.4419264 38.3086619,12.5619264 38.3086619,12.5619264 L38.3086619,12.5619264 L38.3086619,12.4419264 Z M38.3733452,12.497242 L38.3733452,12.497242 C38.3733452,12.497242 38.2533452,12.497242 38.2533452,12.497242 L38.3733452,12.497242 Z M38.2533452,3.85819928 L38.3733452,3.85819928 L38.2533452,3.73819928 L38.2533452,3.85819928 Z M38.2533452,3.80288374 C38.2533452,3.80288374 38.3733452,3.80288374 38.3733452,3.80288374 L38.3733452,3.80288374 L38.2533452,3.80288374 Z M38.3086619,3.73819928 L38.3086619,3.73819928 C38.3086619,3.73819928 38.3086619,3.85819928 38.3086619,3.85819928 L38.3086619,3.73819928 Z M29.5918376,3.85819928 C29.5918376,3.85819928 29.7118376,3.73819928 29.5918376,3.73819928 L29.5918376,3.73819928 L29.5918376,3.85819928 Z M29.6717395,3.80288374 L29.5517395,3.80288374 C29.5517395,3.80288374 29.6717395,3.80288374 29.6717395,3.80288374 L29.6717395,3.80288374 Z" id="Shape" fill="#FFFFFF"></path>
                    <path d="M1.13336307,9.79989085 C0.48706512,9.50008539 0.0374665477,8.85362988 0.0374665477,8.09474732 C0.0374665477,7.33586475 0.48706512,6.68940924 1.13336307,6.38960378 L10.7247993,0.852571766 C11.6146298,0.346650059 12.7573595,0.646455515 13.2631579,1.54587188 C13.7783229,2.43591933 13.4692239,3.57892763 12.5793934,4.09421826 L8.88893845,6.22096321 L22.9669938,6.22096321 C24.0066905,6.22096321 24.8403211,7.06416606 24.8403211,8.09474732 C24.8403211,9.12532857 24.0066905,9.96853142 22.9669938,9.96853142 L8.88893845,9.96853142 L12.5793934,12.0952764 C13.4692239,12.610567 13.7783229,13.7535753 13.2631579,14.6436227 C12.7573595,15.5430391 11.6146298,15.8428446 10.7247993,15.3369229 L1.13336307,9.79989085 Z" id="Path" fill="#FF385C"></path>
                    <path d="M16.1855486,22.4854092 L16.1855486,31.1797674 C16.1855486,32.2009798 15.76405,33.1378718 15.0896521,33.821803 L15.0802855,33.821803 L15.0802855,33.8311719 L15.0709188,33.8311719 C14.396521,34.5057342 13.4598573,34.9273356 12.4388938,34.9273356 L3.74665477,34.9273356 C2.71632471,34.9273356 1.78902765,34.5057342 1.10526316,33.8311719 L1.10526316,33.821803 L1.09589652,33.821803 L1.09589652,33.821803 C0.421498662,33.1378718 0,32.2009798 0,31.1797674 L0,22.4854092 C0,21.4641969 0.421498662,20.5273048 1.09589652,19.8433736 L1.10526316,19.8433736 L1.10526316,19.8340047 L1.10526316,19.8340047 C1.78902765,19.1594424 2.72569135,18.737841 3.74665477,18.737841 L12.4388938,18.737841 C13.4598573,18.737841 14.396521,19.1594424 15.0802855,19.8340047 L15.0802855,19.8433736 L15.0896521,19.8433736 L15.0896521,19.8433736 C15.76405,20.5273048 16.1855486,21.4641969 16.1855486,22.4854092 Z M12.4942105,31.1797674 L12.4942105,31.1797674 L12.4942105,31.2997674 L12.4942105,31.1797674 Z M12.4388938,31.1797674 L12.4388938,22.4854092 L3.74665477,22.4854092 L3.74665477,31.1797674 L12.4388938,31.1797674 Z M12.4942105,22.5960403 L12.4942105,22.5960403 L12.4942105,22.4760403 L12.4942105,22.5960403 Z M12.5547309,31.1797674 C12.5547309,31.1797674 12.471654,31.1797674 12.471654,31.1797674 C12.471654,31.1797674 12.388577,31.2997674 12.471654,31.2997674 L12.471654,31.2997674 L12.471654,31.1797674 L12.5547309,31.1797674 Z M12.4388938,31.235083 L12.5588938,31.235083 L12.4388938,31.235083 Z M3.85728814,31.2997674 L3.85728814,31.1797674 L3.73728814,31.1797674 L3.85728814,31.2997674 Z M3.85728814,31.2997674 C3.85728814,31.2997674 3.85728814,31.1797674 3.85728814,31.1797674 C3.85728814,31.1797674 3.73728814,31.1797674 3.73728814,31.1797674 L3.73728814,31.1797674 L3.85728814,31.1797674 L3.85728814,31.2997674 Z M3.73728814,22.5960403 L3.85728814,22.5960403 L3.85728814,22.4760403 L3.73728814,22.5960403 Z M3.73728814,22.5960403 C3.73728814,22.5960403 3.85728814,22.5960403 3.85728814,22.5960403 C3.85728814,22.5960403 3.85728814,22.4760403 3.85728814,22.4760403 L3.85728814,22.4760403 L3.85728814,22.5960403 L3.73728814,22.5960403 Z M12.471654,22.4760403 C12.388577,22.4760403 12.471654,22.5960403 12.471654,22.5960403 C12.471654,22.5960403 12.5547309,22.5960403 12.5547309,22.5960403 L12.471654,22.5960403 L12.471654,22.4760403 Z" id="Shape" fill="#FFFFFF"></path>
                    <path d="M40.8666369,25.1274448 C41.5129349,25.4272502 41.9531668,26.0737058 41.9531668,26.8325883 C41.9531668,27.5914709 41.5129349,28.2379264 40.8666369,28.5377319 L31.2752007,34.0747639 C30.3853702,34.5806856 29.2426405,34.2808801 28.7368421,33.3814638 C28.2216771,32.4914163 28.5307761,31.348408 29.4206066,30.8331174 L33.1110616,28.7063724 L19.0330062,28.7063724 C17.9933095,28.7063724 17.1596789,27.8631696 17.1596789,26.8325883 C17.1596789,25.8020071 17.9933095,24.9588042 19.0330062,24.9588042 L33.1110616,24.9588042 L29.4206066,22.8320593 C28.5307761,22.3167686 28.2216771,21.1737603 28.7368421,20.2837129 C29.2426405,19.3842965 30.3853702,19.0844911 31.2752007,19.5904128 L40.8666369,25.1274448 Z" id="Path" fill="#FF385C"></path>
                </g>
            </g>
        </g>
    </g>
</svg>