<?xml version="1.0" encoding="UTF-8"?>
<svg width="25px" height="23px" viewBox="0 0 25 23" version="1.1" xmlns="http://www.w3.org/2000/svg" xmlns:xlink="http://www.w3.org/1999/xlink">
    <title>upload@1.5x</title>
    <g id="Distributor" stroke="none" stroke-width="1" fill="none" fill-rule="evenodd" stroke-linecap="round" stroke-linejoin="round">
        <g id="C2C-transfer-voucher" transform="translate(-1150.000000, -897.000000)" stroke="#D0D6E1" stroke-width="2">
            <g id="Group-20" transform="translate(1069.000000, 870.000000)">
                <g id="Group-9">
                    <g id="Group-17" transform="translate(82.000000, 23.696203)">
                        <g id="upload" transform="translate(0.000000, 4.033396)">
                            <g id="Group-15" transform="translate(12.000000, 14.621061) scale(1, -1) translate(-12.000000, -14.621061) translate(8.000000, 10.083490)">
                                <polyline id="Shape" points="0 5.04174522 4 9.0751414 8 5.04174522"></polyline>
                                <line x1="4" y1="0" x2="4" y2="9.0751414" id="Shape"></line>
                            </g>
                            <path d="M20.88,16.2243361 C22.6641359,14.9592571 23.4291619,12.6739953 22.7703958,10.5774051 C22.1116296,8.48081489 20.1810938,7.05672298 18,7.05844331 L16.74,7.05844331 C15.9163145,3.8215861 13.198686,1.4319431 9.90640275,1.04958019 C6.61411951,0.667217271 3.42888903,2.37130735 1.89699969,5.33459015 C0.365110346,8.29787294 0.803758542,11.9067645 3,14.4093078" id="Shape"></path>
                        </g>
                    </g>
                </g>
            </g>
        </g>
    </g>
</svg>