<?xml version="1.0" encoding="UTF-8"?>
<svg width="42px" height="42px" viewBox="0 0 42 42" version="1.1" xmlns="http://www.w3.org/2000/svg" xmlns:xlink="http://www.w3.org/1999/xlink">
    <title>BD75AFFB-0BA5-4173-A75C-CFB6F1898227@1.5x</title>
    <g id="Distributor-Reports" stroke="none" stroke-width="1" fill="none" fill-rule="evenodd">
        <g id="Home_customised" transform="translate(-820.000000, -956.000000)" fill="#DFE3E8" fill-rule="nonzero">
            <path d="M855.851807,962.148193 C847.654217,953.950602 834.345783,953.950602 826.148193,962.148193 C817.950602,970.345783 817.950602,983.654217 826.148193,991.851807 C834.345783,1000.0494 847.654217,1000.0494 855.851807,991.851807 C864.049398,983.654217 864.049398,970.295181 855.851807,962.148193 Z M850.538554,978.189157 C850.23494,978.492771 849.779518,978.695181 849.324096,978.695181 L842.745783,978.695181 L842.745783,985.273494 C842.745783,985.728916 842.543373,986.184337 842.239759,986.487952 C841.936145,986.791566 841.480723,986.993976 841.025301,986.993976 C840.063855,986.993976 839.304819,986.23494 839.304819,985.273494 L839.304819,978.695181 L832.726506,978.695181 C831.76506,978.695181 831.006024,977.936145 831.006024,976.974699 C831.006024,976.013253 831.76506,975.254217 832.726506,975.254217 L839.304819,975.254217 L839.304819,968.675904 C839.304819,967.714458 840.063855,966.955422 841.025301,966.955422 L841.025301,966.955422 C841.986747,966.955422 842.745783,967.714458 842.745783,968.675904 L842.745783,975.254217 L849.324096,975.254217 C850.285542,975.254217 851.044578,976.013253 851.044578,976.974699 C850.993976,977.43012 850.842169,977.885542 850.538554,978.189157 Z" id="Shape"></path>
        </g>
    </g>
</svg>