<?xml version="1.0" encoding="UTF-8"?>
<svg width="4px" height="16px" viewBox="0 0 4 16" version="1.1" xmlns="http://www.w3.org/2000/svg" xmlns:xlink="http://www.w3.org/1999/xlink">
    <!-- Generator: sketchtool 62 (101010) - https://sketch.com -->
    <title>E0DFE0C2-74AB-4612-A13F-62D0AB90E239@1.5x</title>
    <desc>Created with sketchtool.</desc>
    <g id="VMS-Design" stroke="none" stroke-width="1" fill="none" fill-rule="evenodd">
        <g id="Denomination-" transform="translate(-1380.000000, -408.000000)" fill="#919EAB" fill-rule="nonzero">
            <g id="more" transform="translate(1380.000000, 408.000000)">
                <path d="M2,4 C3.10275,4 4,3.10275 4,2 C4,0.89725 3.10275,0 2,0 C0.89725,0 0,0.89725 0,2 C0,3.10275 0.89725,4 2,4 Z" id="Shape"></path>
                <path d="M2,12 C0.89725,12 0,12.89725 0,14 C0,15.10275 0.89725,16 2,16 C3.10275,16 4,15.10275 4,14 C4,12.89725 3.10275,12 2,12 Z" id="Shape"></path>
                <path d="M2,6 C0.89725,6 0,6.89725 0,8 C0,9.10275 0.89725,10 2,10 C3.10275,10 4,9.10275 4,8 C4,6.89725 3.10275,6 2,6 Z" id="Shape"></path>
            </g>
        </g>
    </g>
</svg>