<?xml version="1.0" encoding="UTF-8"?>
<svg width="22px" height="22px" viewBox="0 0 22 22" version="1.1" xmlns="http://www.w3.org/2000/svg" xmlns:xlink="http://www.w3.org/1999/xlink">
    <!-- Generator: sketchtool 62 (101010) - https://sketch.com -->
    <title>6B63B7E1-EFC2-4904-9922-9EC9D610A01E@1.5x</title>
    <desc>Created with sketchtool.</desc>
    <g id="VMS-Design" stroke="none" stroke-width="1" fill="none" fill-rule="evenodd">
        <g id="Denomination-" transform="translate(-1172.000000, -288.000000)" fill="#FF9FB1" fill-rule="nonzero" stroke="#FF9FB1" stroke-width="0.4">
            <g id="Group-3" transform="translate(1173.000000, 289.000000)">
                <g id="add-circular-outlined-button" transform="translate(10.000000, 10.000000) scale(1, -1) translate(-10.000000, -10.000000) ">
                    <path d="M10,0 C4.47686275,0 0,4.47686275 0,10 C0,15.5231373 4.47686275,20 10,20 C15.5231373,20 20,15.5224837 20,10 C20,4.47751634 15.5231373,0 10,0 Z M10,18.75 C5.16748366,18.75 1.25,14.8325163 1.25,10 C1.25,5.16748366 5.16748366,1.25 10,1.25 C14.8325163,1.25 18.75,5.16748366 18.75,10 C18.75,14.8325163 14.8325163,18.75 10,18.75 Z M13.75,9.375 L10.625,9.375 L10.625,6.25 C10.625,5.905 10.345,5.625 10,5.625 C9.655,5.625 9.375,5.905 9.375,6.25 L9.375,9.375 L6.25,9.375 C5.905,9.375 5.625,9.655 5.625,10 C5.625,10.345 5.905,10.625 6.25,10.625 L9.375,10.625 L9.375,13.75 C9.375,14.095 9.655,14.375 10,14.375 C10.345,14.375 10.625,14.095 10.625,13.75 L10.625,10.625 L13.75,10.625 C14.095,10.625 14.375,10.345 14.375,10 C14.375,9.655 14.095,9.375 13.75,9.375 Z" id="Shape"></path>
                </g>
            </g>
        </g>
    </g>
</svg>