<?xml version="1.0" encoding="UTF-8"?>
<svg width="18px" height="18px" viewBox="0 0 18 18" version="1.1" xmlns="http://www.w3.org/2000/svg" xmlns:xlink="http://www.w3.org/1999/xlink">
    <title>cross@1.5x</title>
    <g id="Distributor" stroke="none" stroke-width="1" fill="none" fill-rule="evenodd">
        <g id="Approval-level1-detail-edit" transform="translate(-1368.000000, -669.000000)" fill="#FF4F61" fill-rule="nonzero" stroke="#FF4F61" stroke-width="0.5">
            <g id="cross" transform="translate(1369.000000, 670.000000)">
                <g id="Group">
                    <g id="Path">
                        <path d="M7.82138705,7.1510714 C7.92003234,7.24971669 8.07781868,7.25186599 8.17861328,7.1510714 L15.1364949,0.19318978 C15.2673739,0.0623107493 15.4782092,0.0609491371 15.611688,0.19442792 L15.8055724,0.388312366 C15.9371353,0.51987522 15.9395543,0.730761686 15.8068105,0.863505434 L8.90729328,7.7630227 C8.77641425,7.89390173 8.77454953,8.10423388 8.90729328,8.23697763 L15.8068105,15.1364949 C15.9376896,15.2673739 15.9390512,15.4782092 15.8055724,15.611688 L15.611688,15.8055724 C15.4801251,15.9371353 15.2692386,15.9395543 15.1364949,15.8068105 L8.23697763,8.90729328 C8.1060986,8.77641425 7.89576645,8.77454953 7.7630227,8.90729328 L0.863505434,15.8068105 C0.732626403,15.9376896 0.521791149,15.9390512 0.388312366,15.8055724 L0.19442792,15.611688 C0.0628650668,15.4801251 0.0604460317,15.2692386 0.19318978,15.1364949 L7.09270705,8.23697763 C7.22358608,8.1060986 7.22545079,7.89576645 7.09270705,7.7630227 L0.19318978,0.863505434 C0.0623107493,0.732626403 0.0609491371,0.521791149 0.19442792,0.388312366 L0.388312366,0.19442792 C0.51987522,0.0628650668 0.730761686,0.0604460317 0.863505434,0.19318978 L7.82138705,7.1510714 Z"></path>
                    </g>
                </g>
            </g>
        </g>
    </g>
</svg>