<?xml version="1.0" encoding="UTF-8"?>
<svg width="20px" height="20px" viewBox="0 0 20 20" version="1.1" xmlns="http://www.w3.org/2000/svg" xmlns:xlink="http://www.w3.org/1999/xlink">
    <title>A5663695-BDD0-4C00-8049-D2502FFF2FD5@1.5x</title>
    <g id="Distributor-Reports" stroke="none" stroke-width="1" fill="none" fill-rule="evenodd">
        <g id="Home" transform="translate(-997.000000, -338.000000)" fill="#454F5B" fill-rule="nonzero">
            <g id="Group" transform="translate(997.000000, 338.000000)">
                <path d="M19.029803,7.94520548 L17.7442903,7.58693361 L17.1963669,6.23814542 L17.8496602,5.07903056 C18.1446959,4.55216017 18.0604,3.89884089 17.6389204,3.47734457 L16.5430735,2.38145416 C16.1215939,1.95995785 15.4472266,1.87565859 14.9414511,2.17070601 L13.7823823,2.82402529 L12.4336476,2.27608008 L12.07539,0.990516333 C11.9067981,0.421496312 11.3799487,0 10.7898772,0 L9.25147678,0 C8.66140537,0 8.11348191,0.400421496 7.96596406,0.990516333 L7.60770642,2.27608008 L6.25897176,2.82402529 L5.09990292,2.17070601 C4.57305344,1.87565859 3.91976009,1.95995785 3.49828051,2.38145416 L2.38135963,3.47734457 C1.95988005,3.89884089 1.87558413,4.57323498 2.17061984,5.07903056 L2.82391319,6.23814542 L2.27598973,7.58693361 L0.990477013,7.94520548 C0.42147958,8.113804 0,8.64067439 0,9.23076923 L0,10.7692308 C0,11.3804004 0.400405601,11.9072708 0.990477013,12.0547945 L2.27598973,12.4130664 L2.82391319,13.7618546 L2.17061984,14.9209694 C1.87558413,15.4478398 1.95988005,16.1011591 2.38135963,16.5226554 L3.47720653,17.6185458 C3.89868611,18.0400421 4.57305344,18.1243414 5.07882894,17.829294 L6.23789778,17.1759747 L7.58663244,17.7239199 L7.94489008,19.0094837 C8.11348191,19.5785037 8.64033139,20 9.2304028,20 L10.7688033,20 C11.3588747,20 11.9067981,19.5995785 12.054316,19.0094837 L12.4125736,17.7239199 L13.7613083,17.1759747 L14.9203771,17.829294 C15.4472266,18.1243414 16.10052,18.0400421 16.5219995,17.6185458 L17.6178464,16.5226554 C18.039326,16.1011591 18.1236219,15.4478398 17.8285862,14.9209694 L17.1752929,13.7618546 L17.7232163,12.4130664 L19.0087291,12.0547945 C19.5777265,11.886196 19.9992061,11.3593256 19.9992061,10.7692308 L19.9992061,9.23076923 C20.02028,8.64067439 19.6198744,8.113804 19.029803,7.94520548 Z M18.8822852,10.7903056 C18.8822852,10.8746048 18.8190632,10.9799789 18.7347673,11.0010537 L16.9224051,11.4857745 L15.9530021,13.8461538 L16.8802572,15.4899895 C16.9224051,15.5742887 16.9224051,15.6796628 16.8381092,15.7428872 L15.7422623,16.8387777 C15.6790404,16.9020021 15.5736705,16.9230769 15.4893746,16.8809273 L13.8456042,15.9536354 L11.4853186,16.9230769 L10.9795431,18.7355111 C10.9584691,18.8198103 10.8741732,18.8830348 10.7688033,18.8830348 L9.2304028,18.8830348 C9.14610688,18.8830348 9.06181097,18.8198103 9.01966301,18.7355111 L8.53496149,16.9230769 L6.17467585,15.9536354 L4.53090548,16.8809273 C4.44660957,16.9230769 4.34123967,16.9230769 4.27801774,16.8387777 L3.18217083,15.7428872 C3.11894889,15.6796628 3.09787491,15.5742887 3.14002287,15.4899895 L4.06727795,13.8461538 L3.09787491,11.4857745 L1.28551272,10.9799789 C1.2012168,10.9589041 1.13799487,10.8746048 1.13799487,10.7692308 L1.13799487,9.23076923 C1.13799487,9.12539515 1.2012168,9.06217071 1.28551272,9.02002107 L3.09787491,8.5142255 L4.06727795,6.15384615 L3.14002287,4.53108535 C3.09787491,4.44678609 3.09787491,4.34141201 3.18217083,4.27818757 L4.27801774,3.18229715 C4.34123967,3.11907271 4.44660957,3.09799789 4.53090548,3.14014752 L6.17467585,4.06743941 L8.53496149,3.09799789 L9.04073699,1.28556375 C9.06181097,1.20126449 9.14610688,1.13804004 9.25147678,1.13804004 L10.7898772,1.13804004 C10.8741732,1.13804004 10.9584691,1.20126449 11.000617,1.28556375 L11.5063925,3.09799789 L13.8666782,4.08851423 L15.5104485,3.16122234 C15.5947445,3.11907271 15.7001144,3.11907271 15.7633363,3.20337197 L16.8591832,4.29926238 C16.9224051,4.36248683 16.9434791,4.46786091 16.9013312,4.55216017 L15.9740761,6.19599579 L16.9224051,8.53530032 L18.7347673,9.04109589 C18.8190632,9.06217071 18.8822852,9.14646997 18.8822852,9.25184405 L18.8822852,10.7903056 Z" id="Shape"></path>
                <path d="M10,6 C7.8,6 6,7.8 6,10 C6,12.2 7.8,14 10,14 C12.2,14 14,12.2 14,10 C14,7.8 12.2,6 10,6 Z M10,12.8 C8.44444444,12.8 7.2,11.5333333 7.2,10 C7.2,8.44444444 8.46666667,7.2 10,7.2 C11.5333333,7.2 12.8,8.44444444 12.8,10 C12.8,11.5555556 11.5555556,12.8 10,12.8 Z" id="Shape"></path>
            </g>
        </g>
    </g>
</svg>