<?xml version="1.0" encoding="UTF-8"?>
<svg width="18px" height="22px" viewBox="0 0 18 22" version="1.1" xmlns="http://www.w3.org/2000/svg" xmlns:xlink="http://www.w3.org/1999/xlink">
    <title>noun_Location_2526977@1.5x</title>
    <g id="Distributor" stroke="none" stroke-width="1" fill="none" fill-rule="evenodd">
        <g id="Profile" transform="translate(-718.000000, -231.000000)" fill="#979797" fill-rule="nonzero" stroke="#979797" stroke-width="0.5">
            <g id="Group" transform="translate(719.000000, 232.000000)">
                <path d="M7.9686474,20.4363931 C7.9686474,20.4363931 7.96860116,20.4363931 7.96860116,20.4363931 C7.87278613,20.4363931 7.78376879,20.3869133 7.73313295,20.3055723 C6.89493642,18.9591676 5.74131792,17.5545434 4.62571098,16.1961618 C3.89100578,15.3015029 3.13128324,14.3764624 2.46279769,13.4701965 C1.33604624,11.9427052 0.0427283237,9.93581503 0.0427283237,7.95856647 C0.0427283237,3.57179191 3.61160694,0.0029132948 7.9983815,0.0029132948 C10.1242543,0.0029132948 12.1229133,0.830612717 13.6262659,2.33350289 C15.1294798,3.83630058 15.9572717,5.8339422 15.9572717,7.95856647 C15.9572717,10.0807399 14.5797919,12.2160462 12.5114913,14.7692486 C12.1448786,15.2218266 11.7612948,15.6828208 11.3904277,16.1286012 C10.2487399,17.5007168 9.06811561,18.9195376 8.20416185,20.305711 C8.15343353,20.3869595 8.06441618,20.4363931 7.9686474,20.4363931 Z M7.99833526,0.557780347 C3.91754913,0.557780347 0.597595376,3.8777341 0.597595376,7.95852023 C0.597595376,9.37507514 1.31056647,10.9733642 2.90936416,13.140763 C3.5692948,14.035422 4.32434682,14.9548208 5.05456647,15.8439306 C6.08147977,17.0943353 7.14020809,18.3834451 7.96883237,19.6445318 C8.82293642,18.3465896 9.90978035,17.0404162 10.9638844,15.7735954 C11.3336416,15.3292023 11.7160231,14.8696416 12.0803699,14.4199306 C14.0743584,11.9583815 15.4024046,9.91754913 15.4024046,7.95852023 C15.4024046,5.98215029 14.6323699,4.12383815 13.2339422,2.72591908 C11.8353295,1.32776879 9.976,0.557780347 7.99833526,0.557780347 Z" id="Shape"></path>
                <path d="M8.0012948,12.1974566 C5.73262428,12.1974566 3.88679769,10.302659 3.88679769,7.9737341 C3.88679769,5.64619653 5.73253179,3.75255491 8.0012948,3.75255491 C10.2686243,3.75255491 12.1131561,5.64619653 12.1131561,7.9737341 C12.1131561,10.302659 10.2686243,12.1974566 8.0012948,12.1974566 Z M8.0012948,4.30742197 C6.03856647,4.30742197 4.44171098,5.95209249 4.44171098,7.97368786 C4.44171098,9.99667052 6.03856647,11.6424971 8.0012948,11.6424971 C9.96263584,11.6424971 11.5582428,9.99667052 11.5582428,7.97368786 C11.5582428,5.95209249 9.9625896,4.30742197 8.0012948,4.30742197 Z" id="Shape"></path>
            </g>
        </g>
    </g>
</svg>