<?xml version="1.0" encoding="UTF-8"?>
<svg width="18px" height="18px" viewBox="0 0 18 18" version="1.1" xmlns="http://www.w3.org/2000/svg" xmlns:xlink="http://www.w3.org/1999/xlink">
    <title>phone@1.5x</title>
    <g id="Distributor" stroke="none" stroke-width="1" fill="none" fill-rule="evenodd">
        <g id="Profile" transform="translate(-388.000000, -233.000000)" fill-rule="nonzero" stroke="#979797">
            <g id="Group-8" transform="translate(387.000000, 230.000000)">
                <path d="M11,10.5 L10,10.5 L10,10.5 C9.44771525,10.5 9,10.9477153 9,11.5 L9,13.5 C9,14.0522847 9.44771525,14.5 10,14.5 L11,14.5 C12.1045695,14.5 13,15.3954305 13,16.5 L13,20 L13,20 C13,20.9409197 12.4731395,22 11,22 L10,22 C7.35716701,22 6,20.3054222 6,17.5 C6,15.6297185 6,12.2963852 6,7.5 C6,4.72944063 7.23837143,3 10,3 L11,3 C12.6054613,3 13,3.99114378 13,5 L13,8.5 C13,9.6045695 12.1045695,10.5 11,10.5 Z" id="phone" transform="translate(9.500000, 12.500000) rotate(-45.000000) translate(-9.500000, -12.500000) "></path>
            </g>
        </g>
    </g>
</svg>